%TF.GenerationSoftware,KiCad,Pcbnew,(7.0.0)*%
%TF.CreationDate,2023-03-24T16:17:47-04:00*%
%TF.ProjectId,pteropus,70746572-6f70-4757-932e-6b696361645f,rev?*%
%TF.SameCoordinates,Original*%
%TF.FileFunction,Paste,Bot*%
%TF.FilePolarity,Positive*%
%FSLAX46Y46*%
G04 Gerber Fmt 4.6, Leading zero omitted, Abs format (unit mm)*
G04 Created by KiCad (PCBNEW (7.0.0)) date 2023-03-24 16:17:47*
%MOMM*%
%LPD*%
G01*
G04 APERTURE LIST*
G04 Aperture macros list*
%AMRoundRect*
0 Rectangle with rounded corners*
0 $1 Rounding radius*
0 $2 $3 $4 $5 $6 $7 $8 $9 X,Y pos of 4 corners*
0 Add a 4 corners polygon primitive as box body*
4,1,4,$2,$3,$4,$5,$6,$7,$8,$9,$2,$3,0*
0 Add four circle primitives for the rounded corners*
1,1,$1+$1,$2,$3*
1,1,$1+$1,$4,$5*
1,1,$1+$1,$6,$7*
1,1,$1+$1,$8,$9*
0 Add four rect primitives between the rounded corners*
20,1,$1+$1,$2,$3,$4,$5,0*
20,1,$1+$1,$4,$5,$6,$7,0*
20,1,$1+$1,$6,$7,$8,$9,0*
20,1,$1+$1,$8,$9,$2,$3,0*%
%AMRotRect*
0 Rectangle, with rotation*
0 The origin of the aperture is its center*
0 $1 length*
0 $2 width*
0 $3 Rotation angle, in degrees counterclockwise*
0 Add horizontal line*
21,1,$1,$2,0,0,$3*%
G04 Aperture macros list end*
%ADD10RotRect,2.550000X2.500000X20.000000*%
%ADD11RotRect,2.550000X2.500000X340.000000*%
%ADD12RotRect,2.550000X2.500000X308.410000*%
%ADD13RotRect,2.550000X2.500000X51.590000*%
%ADD14RotRect,2.550000X2.500000X276.810000*%
%ADD15RotRect,2.550000X2.500000X83.190000*%
%ADD16RoundRect,0.112500X0.112500X-0.187500X0.112500X0.187500X-0.112500X0.187500X-0.112500X-0.187500X0*%
%ADD17R,1.400000X1.600000*%
%ADD18RoundRect,0.250000X0.450000X-0.262500X0.450000X0.262500X-0.450000X0.262500X-0.450000X-0.262500X0*%
%ADD19RoundRect,0.250000X0.475000X-0.250000X0.475000X0.250000X-0.475000X0.250000X-0.475000X-0.250000X0*%
%ADD20RoundRect,0.225000X-0.225000X-0.250000X0.225000X-0.250000X0.225000X0.250000X-0.225000X0.250000X0*%
%ADD21RoundRect,0.150000X0.150000X-0.512500X0.150000X0.512500X-0.150000X0.512500X-0.150000X-0.512500X0*%
%ADD22RoundRect,0.250000X-0.250000X-0.475000X0.250000X-0.475000X0.250000X0.475000X-0.250000X0.475000X0*%
%ADD23RoundRect,0.112500X-0.112500X0.187500X-0.112500X-0.187500X0.112500X-0.187500X0.112500X0.187500X0*%
%ADD24RoundRect,0.225000X0.225000X0.250000X-0.225000X0.250000X-0.225000X-0.250000X0.225000X-0.250000X0*%
%ADD25RoundRect,0.200000X-0.200000X-0.275000X0.200000X-0.275000X0.200000X0.275000X-0.200000X0.275000X0*%
%ADD26RoundRect,0.250000X-0.450000X0.262500X-0.450000X-0.262500X0.450000X-0.262500X0.450000X0.262500X0*%
%ADD27RoundRect,0.250000X0.250000X0.475000X-0.250000X0.475000X-0.250000X-0.475000X0.250000X-0.475000X0*%
%ADD28RoundRect,0.075000X0.075000X-0.662500X0.075000X0.662500X-0.075000X0.662500X-0.075000X-0.662500X0*%
%ADD29RoundRect,0.075000X0.662500X-0.075000X0.662500X0.075000X-0.662500X0.075000X-0.662500X-0.075000X0*%
%ADD30RoundRect,0.225000X-0.250000X0.225000X-0.250000X-0.225000X0.250000X-0.225000X0.250000X0.225000X0*%
%ADD31RoundRect,0.150000X0.587500X0.150000X-0.587500X0.150000X-0.587500X-0.150000X0.587500X-0.150000X0*%
G04 APERTURE END LIST*
D10*
%TO.C,SW19*%
X67392203Y-22505054D03*
X55246192Y-29628852D03*
%TD*%
D11*
%TO.C,SW27*%
X-45382870Y-54513667D03*
X-59266344Y-52163507D03*
%TD*%
%TO.C,SW5*%
X-64562870Y4186331D03*
X-78446344Y6536491D03*
%TD*%
D10*
%TO.C,SW18*%
X50688203Y-32309054D03*
X38542192Y-39432852D03*
%TD*%
%TO.C,SW12*%
X117316203Y7424944D03*
X105170192Y301146D03*
%TD*%
%TO.C,SW10*%
X76384203Y8488944D03*
X64238192Y1365146D03*
%TD*%
%TO.C,SW11*%
X95995203Y10305944D03*
X83849192Y3182146D03*
%TD*%
D11*
%TO.C,SW16*%
X-55571870Y-26807667D03*
X-69455344Y-24457507D03*
%TD*%
%TO.C,SW4*%
X-84174870Y6003331D03*
X-98058344Y8353491D03*
%TD*%
%TO.C,SW14*%
X-90689870Y-11897667D03*
X-104573344Y-9547507D03*
%TD*%
%TO.C,SW25*%
X-77593870Y-31615667D03*
X-91477344Y-29265507D03*
%TD*%
D10*
%TO.C,SW8*%
X44173203Y-14408054D03*
X32027192Y-21531852D03*
%TD*%
D11*
%TO.C,SW15*%
X-71046870Y-13714667D03*
X-84930344Y-11364507D03*
%TD*%
D10*
%TO.C,SW28*%
X57204203Y-50211054D03*
X45058192Y-57334852D03*
%TD*%
D11*
%TO.C,SW3*%
X-105495870Y3122331D03*
X-119379344Y5472491D03*
%TD*%
D10*
%TO.C,SW20*%
X82899203Y-9412054D03*
X70753192Y-16535852D03*
%TD*%
D12*
%TO.C,SW34*%
X-48815507Y-82227623D03*
X-59410604Y-72953033D03*
%TD*%
D10*
%TO.C,SW38*%
X80748203Y-59200054D03*
X68602192Y-66323852D03*
%TD*%
D11*
%TO.C,SW26*%
X-62086870Y-44708667D03*
X-75970344Y-42358507D03*
%TD*%
%TO.C,SW24*%
X-97205870Y-29798667D03*
X-111089344Y-27448507D03*
%TD*%
D10*
%TO.C,SW22*%
X123832203Y-10476054D03*
X111686192Y-17599852D03*
%TD*%
D11*
%TO.C,SW33*%
X-68927870Y-63502667D03*
X-82811344Y-61152507D03*
%TD*%
D10*
%TO.C,SW32*%
X130347203Y-28377054D03*
X118201192Y-35500852D03*
%TD*%
D13*
%TO.C,SW37*%
X56630267Y-72370124D03*
X50015782Y-84800839D03*
%TD*%
D10*
%TO.C,SW9*%
X60877203Y-4604054D03*
X48731192Y-11727852D03*
%TD*%
D11*
%TO.C,SW6*%
X-49055870Y-8906667D03*
X-62939344Y-6556507D03*
%TD*%
%TO.C,SW7*%
X-32351870Y-18710667D03*
X-46235344Y-16360507D03*
%TD*%
D10*
%TO.C,SW31*%
X109026203Y-25496054D03*
X96880192Y-32619852D03*
%TD*%
D11*
%TO.C,SW13*%
X-112011870Y-14778667D03*
X-125895344Y-12428507D03*
%TD*%
D10*
%TO.C,SW30*%
X89415203Y-27313054D03*
X77269192Y-34436852D03*
%TD*%
%TO.C,SW21*%
X102510203Y-7595054D03*
X90364192Y-14718852D03*
%TD*%
%TO.C,SW29*%
X73908203Y-40406054D03*
X61762192Y-47529852D03*
%TD*%
D14*
%TO.C,SW35*%
X-41494988Y-108715249D03*
X-45659363Y-95264150D03*
%TD*%
D11*
%TO.C,SW17*%
X-38867870Y-36611667D03*
X-52751344Y-34261507D03*
%TD*%
D15*
%TO.C,SW36*%
X42985690Y-96224003D03*
X43865475Y-110277476D03*
%TD*%
D11*
%TO.C,SW23*%
X-118526870Y-32679667D03*
X-132410344Y-30329507D03*
%TD*%
D16*
%TO.C,D25*%
X-59800000Y-59900000D03*
X-59800000Y-57800000D03*
%TD*%
%TO.C,D6*%
X31325000Y-27800000D03*
X31325000Y-25700000D03*
%TD*%
%TO.C,D29*%
X96840000Y-38290000D03*
X96840000Y-36190000D03*
%TD*%
%TO.C,D7*%
X49900000Y-17300000D03*
X49900000Y-15200000D03*
%TD*%
%TO.C,D9*%
X85325000Y-3362500D03*
X85325000Y-1262500D03*
%TD*%
%TO.C,D21*%
X-133221250Y-38762500D03*
X-133221250Y-36662500D03*
%TD*%
D17*
%TO.C,SW2*%
X-7199999Y-23249999D03*
X-7199999Y-31249999D03*
X-2699999Y-23249999D03*
X-2699999Y-31249999D03*
%TD*%
D16*
%TO.C,D10*%
X107825000Y-5362500D03*
X107825000Y-3262500D03*
%TD*%
D18*
%TO.C,R1*%
X5000000Y-19262500D03*
X5000000Y-17437500D03*
%TD*%
D19*
%TO.C,C3*%
X-400000Y-24000000D03*
X-400000Y-22100000D03*
%TD*%
D20*
%TO.C,C4*%
X1525000Y-8150000D03*
X3075000Y-8150000D03*
%TD*%
D16*
%TO.C,D27*%
X62325000Y-54300000D03*
X62325000Y-52200000D03*
%TD*%
D21*
%TO.C,U2*%
X-372548Y-7724244D03*
X-1322548Y-7724244D03*
X-2272548Y-7724244D03*
X-2272548Y-5449244D03*
X-1322548Y-5449244D03*
X-372548Y-5449244D03*
%TD*%
D16*
%TO.C,D30*%
X118825000Y-40362500D03*
X118825000Y-38262500D03*
%TD*%
D17*
%TO.C,SW1*%
X7199999Y-31349999D03*
X7199999Y-23349999D03*
X2699999Y-31349999D03*
X2699999Y-23349999D03*
%TD*%
D22*
%TO.C,C1*%
X6027452Y-4250000D03*
X7927452Y-4250000D03*
%TD*%
D16*
%TO.C,D11*%
X-127175000Y-20300000D03*
X-127175000Y-18200000D03*
%TD*%
%TO.C,D28*%
X79825000Y-40362500D03*
X79825000Y-38262500D03*
%TD*%
%TO.C,D17*%
X55825000Y-35862500D03*
X55825000Y-33762500D03*
%TD*%
D23*
%TO.C,D26*%
X41000000Y-54200000D03*
X41000000Y-56300000D03*
%TD*%
D16*
%TO.C,D5*%
X-48000000Y-21370000D03*
X-48000000Y-19270000D03*
%TD*%
%TO.C,D31*%
X-83675000Y-68800000D03*
X-83675000Y-66700000D03*
%TD*%
%TO.C,D35*%
X46500000Y-89200000D03*
X46500000Y-87100000D03*
%TD*%
D24*
%TO.C,C6*%
X-7125000Y-11250000D03*
X-8675000Y-11250000D03*
%TD*%
D16*
%TO.C,D15*%
X-53200000Y-42800000D03*
X-53200000Y-40700000D03*
%TD*%
%TO.C,D4*%
X-67000000Y-7800000D03*
X-67000000Y-5700000D03*
%TD*%
%TO.C,D3*%
X-78500000Y-2900000D03*
X-78500000Y-800000D03*
%TD*%
%TO.C,D1*%
X-118900000Y-2900000D03*
X-118900000Y-800000D03*
%TD*%
%TO.C,D36*%
X68325000Y-71800000D03*
X68325000Y-69700000D03*
%TD*%
%TO.C,D20*%
X113325000Y-22862500D03*
X113325000Y-20762500D03*
%TD*%
%TO.C,D2*%
X-97900000Y-2900000D03*
X-97900000Y-800000D03*
%TD*%
%TO.C,D12*%
X-106675000Y-20300000D03*
X-106675000Y-18200000D03*
%TD*%
D25*
%TO.C,FB1*%
X1437500Y-6386744D03*
X3087500Y-6386744D03*
%TD*%
D16*
%TO.C,D16*%
X38325000Y-45800000D03*
X38325000Y-43700000D03*
%TD*%
%TO.C,D8*%
X65325000Y-4800000D03*
X65325000Y-2700000D03*
%TD*%
D26*
%TO.C,R2*%
X-4500000Y-4074244D03*
X-4500000Y-5899244D03*
%TD*%
D16*
%TO.C,D14*%
X-71100000Y-31500000D03*
X-71100000Y-29400000D03*
%TD*%
D27*
%TO.C,C2*%
X7750000Y-10350000D03*
X5850000Y-10350000D03*
%TD*%
D23*
%TO.C,D34*%
X37325000Y-103262500D03*
X37325000Y-105362500D03*
%TD*%
D28*
%TO.C,U3*%
X427452Y-19749244D03*
X-72548Y-19749244D03*
X-572548Y-19749244D03*
X-1072548Y-19749244D03*
X-1572548Y-19749244D03*
X-2072548Y-19749244D03*
X-2572548Y-19749244D03*
X-3072548Y-19749244D03*
X-3572548Y-19749244D03*
X-4072548Y-19749244D03*
X-4572548Y-19749244D03*
X-5072548Y-19749244D03*
D29*
X-6485048Y-18336744D03*
X-6485048Y-17836744D03*
X-6485048Y-17336744D03*
X-6485048Y-16836744D03*
X-6485048Y-16336744D03*
X-6485048Y-15836744D03*
X-6485048Y-15336744D03*
X-6485048Y-14836744D03*
X-6485048Y-14336744D03*
X-6485048Y-13836744D03*
X-6485048Y-13336744D03*
X-6485048Y-12836744D03*
D28*
X-5072548Y-11424244D03*
X-4572548Y-11424244D03*
X-4072548Y-11424244D03*
X-3572548Y-11424244D03*
X-3072548Y-11424244D03*
X-2572548Y-11424244D03*
X-2072548Y-11424244D03*
X-1572548Y-11424244D03*
X-1072548Y-11424244D03*
X-572548Y-11424244D03*
X-72548Y-11424244D03*
X427452Y-11424244D03*
D29*
X1839952Y-12836744D03*
X1839952Y-13336744D03*
X1839952Y-13836744D03*
X1839952Y-14336744D03*
X1839952Y-14836744D03*
X1839952Y-15336744D03*
X1839952Y-15836744D03*
X1839952Y-16336744D03*
X1839952Y-16836744D03*
X1839952Y-17336744D03*
X1839952Y-17836744D03*
X1839952Y-18336744D03*
%TD*%
D30*
%TO.C,C5*%
X2400000Y-19675000D03*
X2400000Y-21225000D03*
%TD*%
D16*
%TO.C,D32*%
X-64175000Y-74300000D03*
X-64175000Y-72200000D03*
%TD*%
D30*
%TO.C,C7*%
X-7000000Y-19675000D03*
X-7000000Y-21225000D03*
%TD*%
D23*
%TO.C,D33*%
X-42675000Y-87200000D03*
X-42675000Y-89300000D03*
%TD*%
D26*
%TO.C,R3*%
X-7700000Y562500D03*
X-7700000Y-1262500D03*
%TD*%
D16*
%TO.C,D23*%
X-91221250Y-38762500D03*
X-91221250Y-36662500D03*
%TD*%
%TO.C,D13*%
X-84900000Y-20300000D03*
X-84900000Y-18200000D03*
%TD*%
D31*
%TO.C,U1*%
X7414952Y-6536744D03*
X7414952Y-8436744D03*
X5539952Y-7486744D03*
%TD*%
D16*
%TO.C,D19*%
X91325000Y-22862500D03*
X91325000Y-20762500D03*
%TD*%
%TO.C,D18*%
X72325000Y-22862500D03*
X72325000Y-20762500D03*
%TD*%
%TO.C,D22*%
X-113221250Y-38762500D03*
X-113221250Y-36662500D03*
%TD*%
%TO.C,D24*%
X-77100000Y-49900000D03*
X-77100000Y-47800000D03*
%TD*%
M02*
