%TF.GenerationSoftware,KiCad,Pcbnew,(7.0.0)*%
%TF.CreationDate,2023-03-04T17:22:30-05:00*%
%TF.ProjectId,pteropus,70746572-6f70-4757-932e-6b696361645f,rev?*%
%TF.SameCoordinates,Original*%
%TF.FileFunction,Drillmap*%
%TF.FilePolarity,Positive*%
%FSLAX45Y45*%
G04 Gerber Fmt 4.5, Leading zero omitted, Abs format (unit mm)*
G04 Created by KiCad (PCBNEW (7.0.0)) date 2023-03-04 17:22:30*
%MOMM*%
%LPD*%
G01*
G04 APERTURE LIST*
%ADD10C,0.100000*%
%ADD11C,0.200000*%
%ADD12C,0.040000*%
%ADD13C,0.060000*%
G04 APERTURE END LIST*
D10*
X-9300000Y1900000D02*
X-12000000Y1900000D01*
X5600000Y-12000000D02*
G75*
G03*
X-5600000Y-12000000I-5600000J-12823065D01*
G01*
X12000000Y1900000D02*
X14200000Y-4300000D01*
X9300000Y1900000D02*
X12000000Y1900000D01*
X2500000Y-500000D02*
X1600000Y400000D01*
X-9300000Y1900000D02*
X-2500000Y-500000D01*
X14200000Y-4300000D02*
G75*
G03*
X5600000Y-12000000I3659096J-12739380D01*
G01*
X-1600000Y400000D02*
X1600000Y400000D01*
X-2500000Y-500000D02*
X-1600000Y400000D01*
X-5600000Y-12000000D02*
G75*
G03*
X-14200000Y-4300000I-12259096J-5039380D01*
G01*
X-12000000Y1900000D02*
X-14200000Y-4300000D01*
X2500000Y-500000D02*
X9300000Y1900000D01*
D11*
D12*
X-11760000Y-2955000D02*
X-11720000Y-2995000D01*
X-11720000Y-2955000D02*
X-11760000Y-2995000D01*
X-11080000Y-1165000D02*
X-11040000Y-1205000D01*
X-11040000Y-1165000D02*
X-11080000Y-1205000D01*
X-10570000Y55000D02*
X-10530000Y15000D01*
X-10530000Y55000D02*
X-10570000Y15000D01*
X-9637344Y-2717656D02*
X-9597344Y-2757656D01*
X-9597344Y-2717656D02*
X-9637344Y-2757656D01*
X-8973388Y-881612D02*
X-8933388Y-921612D01*
X-8933388Y-881612D02*
X-8973388Y-921612D01*
X-8440000Y345000D02*
X-8400000Y305000D01*
X-8400000Y345000D02*
X-8440000Y305000D01*
X-7671872Y-2853128D02*
X-7631872Y-2893128D01*
X-7631872Y-2853128D02*
X-7671872Y-2893128D01*
X-6986749Y-1098251D02*
X-6946749Y-1138251D01*
X-6946749Y-1098251D02*
X-6986749Y-1138251D01*
X-6870000Y-6085000D02*
X-6830000Y-6125000D01*
X-6830000Y-6085000D02*
X-6870000Y-6125000D01*
X-6470000Y165000D02*
X-6430000Y125000D01*
X-6430000Y165000D02*
X-6470000Y125000D01*
X-6149206Y-4235794D02*
X-6109206Y-4275794D01*
X-6109206Y-4235794D02*
X-6149206Y-4275794D01*
X-5481911Y-2413089D02*
X-5441911Y-2453089D01*
X-5441911Y-2413089D02*
X-5481911Y-2453089D01*
X-4940000Y-1165000D02*
X-4900000Y-1205000D01*
X-4900000Y-1165000D02*
X-4940000Y-1205000D01*
X-4870000Y-7825000D02*
X-4830000Y-7865000D01*
X-4830000Y-7825000D02*
X-4870000Y-7865000D01*
X-4438512Y-5136488D02*
X-4398512Y-5176488D01*
X-4398512Y-5136488D02*
X-4438512Y-5176488D01*
X-3920000Y-10735000D02*
X-3880000Y-10775000D01*
X-3880000Y-10735000D02*
X-3920000Y-10775000D01*
X-3804884Y-3380116D02*
X-3764884Y-3420116D01*
X-3764884Y-3380116D02*
X-3804884Y-3420116D01*
X-3260000Y-2185000D02*
X-3220000Y-2225000D01*
X-3220000Y-2185000D02*
X-3260000Y-2225000D01*
X-2295000Y-1940000D02*
X-2255000Y-1980000D01*
X-2255000Y-1940000D02*
X-2295000Y-1980000D01*
X-2290000Y-1615000D02*
X-2250000Y-1655000D01*
X-2250000Y-1615000D02*
X-2290000Y-1655000D01*
X-2290000Y-2285000D02*
X-2250000Y-2325000D01*
X-2250000Y-2285000D02*
X-2290000Y-2325000D01*
X-900000Y-1875000D02*
X-860000Y-1915000D01*
X-860000Y-1875000D02*
X-900000Y-1915000D01*
X-890000Y-1285000D02*
X-850000Y-1325000D01*
X-850000Y-1285000D02*
X-890000Y-1325000D01*
X-510000Y-2185000D02*
X-470000Y-2225000D01*
X-470000Y-2185000D02*
X-510000Y-2225000D01*
X-470000Y95000D02*
X-430000Y55000D01*
X-430000Y95000D02*
X-470000Y55000D01*
X-300000Y-1495000D02*
X-260000Y-1535000D01*
X-260000Y-1495000D02*
X-300000Y-1535000D01*
X-250000Y-965000D02*
X-210000Y-1005000D01*
X-210000Y-965000D02*
X-250000Y-1005000D01*
X-180000Y-875000D02*
X-140000Y-915000D01*
X-140000Y-875000D02*
X-180000Y-915000D01*
X-90000Y-975000D02*
X-50000Y-1015000D01*
X-50000Y-975000D02*
X-90000Y-1015000D01*
X-80000Y-1255000D02*
X-40000Y-1295000D01*
X-40000Y-1255000D02*
X-80000Y-1295000D01*
X-40000Y65000D02*
X0Y25000D01*
X0Y65000D02*
X-40000Y25000D01*
X90000Y-2185000D02*
X130000Y-2225000D01*
X130000Y-2185000D02*
X90000Y-2225000D01*
X330000Y-1105000D02*
X370000Y-1145000D01*
X370000Y-1105000D02*
X330000Y-1145000D01*
X340000Y-1765000D02*
X380000Y-1805000D01*
X380000Y-1765000D02*
X340000Y-1805000D01*
X440000Y-815000D02*
X480000Y-855000D01*
X480000Y-815000D02*
X440000Y-855000D01*
X510000Y-2295000D02*
X550000Y-2335000D01*
X550000Y-2295000D02*
X510000Y-2335000D01*
X700000Y-2115000D02*
X740000Y-2155000D01*
X740000Y-2115000D02*
X700000Y-2155000D01*
X930000Y-1015000D02*
X970000Y-1055000D01*
X970000Y-1015000D02*
X930000Y-1055000D01*
X2520000Y-2825000D02*
X2560000Y-2865000D01*
X2560000Y-2825000D02*
X2520000Y-2865000D01*
X2620000Y-2505000D02*
X2660000Y-2545000D01*
X2660000Y-2505000D02*
X2620000Y-2545000D01*
X2630000Y-2645000D02*
X2670000Y-2685000D01*
X2670000Y-2645000D02*
X2630000Y-2685000D01*
X4370000Y-9345000D02*
X4410000Y-9385000D01*
X4410000Y-9345000D02*
X4370000Y-9385000D01*
X4630000Y-1645000D02*
X4670000Y-1685000D01*
X4670000Y-1645000D02*
X4630000Y-1685000D01*
X5060000Y-2895000D02*
X5100000Y-2935000D01*
X5100000Y-2895000D02*
X5060000Y-2935000D01*
X5820000Y-7035000D02*
X5860000Y-7075000D01*
X5860000Y-7035000D02*
X5820000Y-7075000D01*
X5920000Y-5235000D02*
X5960000Y-5275000D01*
X5960000Y-5235000D02*
X5920000Y-5275000D01*
X6300000Y-695000D02*
X6340000Y-735000D01*
X6340000Y-695000D02*
X6300000Y-735000D01*
X6730000Y-1865000D02*
X6770000Y-1905000D01*
X6770000Y-1865000D02*
X6730000Y-1905000D01*
X7410000Y-3695000D02*
X7450000Y-3735000D01*
X7450000Y-3695000D02*
X7410000Y-3735000D01*
X7770000Y685000D02*
X7810000Y645000D01*
X7810000Y685000D02*
X7770000Y645000D01*
X8260000Y-5695000D02*
X8300000Y-5735000D01*
X8300000Y-5695000D02*
X8260000Y-5735000D01*
X8290000Y-555000D02*
X8330000Y-595000D01*
X8330000Y-555000D02*
X8290000Y-595000D01*
X8940000Y-2405000D02*
X8980000Y-2445000D01*
X8980000Y-2405000D02*
X8940000Y-2445000D01*
X9780000Y835000D02*
X9820000Y795000D01*
X9820000Y835000D02*
X9780000Y795000D01*
X10260000Y-405000D02*
X10300000Y-445000D01*
X10300000Y-405000D02*
X10260000Y-445000D01*
X10680000Y-2345000D02*
X10720000Y-2385000D01*
X10720000Y-2345000D02*
X10680000Y-2385000D01*
X11970000Y495000D02*
X12010000Y455000D01*
X12010000Y495000D02*
X11970000Y455000D01*
X12390000Y-675000D02*
X12430000Y-715000D01*
X12430000Y-675000D02*
X12390000Y-715000D01*
X13090000Y-2505000D02*
X13130000Y-2545000D01*
X13130000Y-2505000D02*
X13090000Y-2545000D01*
X-347252Y-72674D02*
G75*
G03*
X-347252Y-72674I-20000J0D01*
G01*
X-347252Y-207674D02*
G75*
G03*
X-347252Y-207674I-20000J0D01*
G01*
X-262252Y-72674D02*
G75*
G03*
X-262252Y-72674I-20000J0D01*
G01*
X-262252Y-207674D02*
G75*
G03*
X-262252Y-207674I-20000J0D01*
G01*
X-177252Y-72674D02*
G75*
G03*
X-177252Y-72674I-20000J0D01*
G01*
X-177252Y-207674D02*
G75*
G03*
X-177252Y-207674I-20000J0D01*
G01*
X-92252Y-72674D02*
G75*
G03*
X-92252Y-72674I-20000J0D01*
G01*
X-92252Y-207674D02*
G75*
G03*
X-92252Y-207674I-20000J0D01*
G01*
X-7252Y-72674D02*
G75*
G03*
X-7252Y-72674I-20000J0D01*
G01*
X-7252Y-207674D02*
G75*
G03*
X-7252Y-207674I-20000J0D01*
G01*
X77748Y-72674D02*
G75*
G03*
X77748Y-72674I-20000J0D01*
G01*
X77748Y-207674D02*
G75*
G03*
X77748Y-207674I-20000J0D01*
G01*
X162748Y-72674D02*
G75*
G03*
X162748Y-72674I-20000J0D01*
G01*
X162748Y-207674D02*
G75*
G03*
X162748Y-207674I-20000J0D01*
G01*
X247748Y-72674D02*
G75*
G03*
X247748Y-72674I-20000J0D01*
G01*
X247748Y-207674D02*
G75*
G03*
X247748Y-207674I-20000J0D01*
G01*
D13*
X-502252Y258326D02*
X-502252Y198326D01*
X-532252Y228326D02*
X-472252Y228326D01*
D11*
X-532252Y268326D02*
X-532252Y188326D01*
X-532252Y188326D02*
G75*
G03*
X-472252Y188326I30000J0D01*
G01*
X-472252Y188326D02*
X-472252Y268326D01*
X-472252Y268326D02*
G75*
G03*
X-532252Y268326I-30000J0D01*
G01*
D13*
X-502252Y-79674D02*
X-502252Y-139674D01*
X-532252Y-109674D02*
X-472252Y-109674D01*
D11*
X-532252Y-34674D02*
X-532252Y-184674D01*
X-532252Y-184674D02*
G75*
G03*
X-472252Y-184674I30000J0D01*
G01*
X-472252Y-184674D02*
X-472252Y-34674D01*
X-472252Y-34674D02*
G75*
G03*
X-532252Y-34674I-30000J0D01*
G01*
D13*
X362748Y258326D02*
X362748Y198326D01*
X332748Y228326D02*
X392748Y228326D01*
D11*
X332748Y268326D02*
X332748Y188326D01*
X332748Y188326D02*
G75*
G03*
X392748Y188326I30000J0D01*
G01*
X392748Y188326D02*
X392748Y268326D01*
X392748Y268326D02*
G75*
G03*
X332748Y268326I-30000J0D01*
G01*
D13*
X362748Y-79674D02*
X362748Y-139674D01*
X332748Y-109674D02*
X392748Y-109674D01*
D11*
X332748Y-34674D02*
X332748Y-184674D01*
X332748Y-184674D02*
G75*
G03*
X392748Y-184674I30000J0D01*
G01*
X392748Y-184674D02*
X392748Y-34674D01*
X392748Y-34674D02*
G75*
G03*
X332748Y-34674I-30000J0D01*
G01*
X-13957381Y-12298476D02*
X-13957381Y-12098476D01*
X-13957381Y-12098476D02*
X-13909762Y-12098476D01*
X-13909762Y-12098476D02*
X-13881190Y-12108000D01*
X-13881190Y-12108000D02*
X-13862143Y-12127048D01*
X-13862143Y-12127048D02*
X-13852619Y-12146095D01*
X-13852619Y-12146095D02*
X-13843095Y-12184190D01*
X-13843095Y-12184190D02*
X-13843095Y-12212762D01*
X-13843095Y-12212762D02*
X-13852619Y-12250857D01*
X-13852619Y-12250857D02*
X-13862143Y-12269905D01*
X-13862143Y-12269905D02*
X-13881190Y-12288952D01*
X-13881190Y-12288952D02*
X-13909762Y-12298476D01*
X-13909762Y-12298476D02*
X-13957381Y-12298476D01*
X-13757381Y-12298476D02*
X-13757381Y-12165143D01*
X-13757381Y-12203238D02*
X-13747857Y-12184190D01*
X-13747857Y-12184190D02*
X-13738333Y-12174667D01*
X-13738333Y-12174667D02*
X-13719286Y-12165143D01*
X-13719286Y-12165143D02*
X-13700238Y-12165143D01*
X-13633571Y-12298476D02*
X-13633571Y-12165143D01*
X-13633571Y-12098476D02*
X-13643095Y-12108000D01*
X-13643095Y-12108000D02*
X-13633571Y-12117524D01*
X-13633571Y-12117524D02*
X-13624048Y-12108000D01*
X-13624048Y-12108000D02*
X-13633571Y-12098476D01*
X-13633571Y-12098476D02*
X-13633571Y-12117524D01*
X-13509762Y-12298476D02*
X-13528809Y-12288952D01*
X-13528809Y-12288952D02*
X-13538333Y-12269905D01*
X-13538333Y-12269905D02*
X-13538333Y-12098476D01*
X-13405000Y-12298476D02*
X-13424048Y-12288952D01*
X-13424048Y-12288952D02*
X-13433571Y-12269905D01*
X-13433571Y-12269905D02*
X-13433571Y-12098476D01*
X-13208809Y-12298476D02*
X-13208809Y-12098476D01*
X-13208809Y-12098476D02*
X-13142143Y-12241333D01*
X-13142143Y-12241333D02*
X-13075476Y-12098476D01*
X-13075476Y-12098476D02*
X-13075476Y-12298476D01*
X-12894524Y-12298476D02*
X-12894524Y-12193714D01*
X-12894524Y-12193714D02*
X-12904048Y-12174667D01*
X-12904048Y-12174667D02*
X-12923095Y-12165143D01*
X-12923095Y-12165143D02*
X-12961190Y-12165143D01*
X-12961190Y-12165143D02*
X-12980238Y-12174667D01*
X-12894524Y-12288952D02*
X-12913571Y-12298476D01*
X-12913571Y-12298476D02*
X-12961190Y-12298476D01*
X-12961190Y-12298476D02*
X-12980238Y-12288952D01*
X-12980238Y-12288952D02*
X-12989762Y-12269905D01*
X-12989762Y-12269905D02*
X-12989762Y-12250857D01*
X-12989762Y-12250857D02*
X-12980238Y-12231809D01*
X-12980238Y-12231809D02*
X-12961190Y-12222286D01*
X-12961190Y-12222286D02*
X-12913571Y-12222286D01*
X-12913571Y-12222286D02*
X-12894524Y-12212762D01*
X-12799286Y-12165143D02*
X-12799286Y-12365143D01*
X-12799286Y-12174667D02*
X-12780238Y-12165143D01*
X-12780238Y-12165143D02*
X-12742143Y-12165143D01*
X-12742143Y-12165143D02*
X-12723095Y-12174667D01*
X-12723095Y-12174667D02*
X-12713571Y-12184190D01*
X-12713571Y-12184190D02*
X-12704048Y-12203238D01*
X-12704048Y-12203238D02*
X-12704048Y-12260381D01*
X-12704048Y-12260381D02*
X-12713571Y-12279428D01*
X-12713571Y-12279428D02*
X-12723095Y-12288952D01*
X-12723095Y-12288952D02*
X-12742143Y-12298476D01*
X-12742143Y-12298476D02*
X-12780238Y-12298476D01*
X-12780238Y-12298476D02*
X-12799286Y-12288952D01*
X-12618333Y-12279428D02*
X-12608809Y-12288952D01*
X-12608809Y-12288952D02*
X-12618333Y-12298476D01*
X-12618333Y-12298476D02*
X-12627857Y-12288952D01*
X-12627857Y-12288952D02*
X-12618333Y-12279428D01*
X-12618333Y-12279428D02*
X-12618333Y-12298476D01*
X-12618333Y-12174667D02*
X-12608809Y-12184190D01*
X-12608809Y-12184190D02*
X-12618333Y-12193714D01*
X-12618333Y-12193714D02*
X-12627857Y-12184190D01*
X-12627857Y-12184190D02*
X-12618333Y-12174667D01*
X-12618333Y-12174667D02*
X-12618333Y-12193714D01*
D12*
X-14245000Y-12625000D02*
X-14205000Y-12665000D01*
X-14205000Y-12625000D02*
X-14245000Y-12665000D01*
D11*
X-13919286Y-12518476D02*
X-13900238Y-12518476D01*
X-13900238Y-12518476D02*
X-13881190Y-12528000D01*
X-13881190Y-12528000D02*
X-13871667Y-12537524D01*
X-13871667Y-12537524D02*
X-13862143Y-12556571D01*
X-13862143Y-12556571D02*
X-13852619Y-12594667D01*
X-13852619Y-12594667D02*
X-13852619Y-12642286D01*
X-13852619Y-12642286D02*
X-13862143Y-12680381D01*
X-13862143Y-12680381D02*
X-13871667Y-12699428D01*
X-13871667Y-12699428D02*
X-13881190Y-12708952D01*
X-13881190Y-12708952D02*
X-13900238Y-12718476D01*
X-13900238Y-12718476D02*
X-13919286Y-12718476D01*
X-13919286Y-12718476D02*
X-13938333Y-12708952D01*
X-13938333Y-12708952D02*
X-13947857Y-12699428D01*
X-13947857Y-12699428D02*
X-13957381Y-12680381D01*
X-13957381Y-12680381D02*
X-13966905Y-12642286D01*
X-13966905Y-12642286D02*
X-13966905Y-12594667D01*
X-13966905Y-12594667D02*
X-13957381Y-12556571D01*
X-13957381Y-12556571D02*
X-13947857Y-12537524D01*
X-13947857Y-12537524D02*
X-13938333Y-12528000D01*
X-13938333Y-12528000D02*
X-13919286Y-12518476D01*
X-13766905Y-12699428D02*
X-13757381Y-12708952D01*
X-13757381Y-12708952D02*
X-13766905Y-12718476D01*
X-13766905Y-12718476D02*
X-13776428Y-12708952D01*
X-13776428Y-12708952D02*
X-13766905Y-12699428D01*
X-13766905Y-12699428D02*
X-13766905Y-12718476D01*
X-13585952Y-12585143D02*
X-13585952Y-12718476D01*
X-13633571Y-12508952D02*
X-13681190Y-12651809D01*
X-13681190Y-12651809D02*
X-13557381Y-12651809D01*
X-13443095Y-12518476D02*
X-13424047Y-12518476D01*
X-13424047Y-12518476D02*
X-13405000Y-12528000D01*
X-13405000Y-12528000D02*
X-13395476Y-12537524D01*
X-13395476Y-12537524D02*
X-13385952Y-12556571D01*
X-13385952Y-12556571D02*
X-13376428Y-12594667D01*
X-13376428Y-12594667D02*
X-13376428Y-12642286D01*
X-13376428Y-12642286D02*
X-13385952Y-12680381D01*
X-13385952Y-12680381D02*
X-13395476Y-12699428D01*
X-13395476Y-12699428D02*
X-13405000Y-12708952D01*
X-13405000Y-12708952D02*
X-13424047Y-12718476D01*
X-13424047Y-12718476D02*
X-13443095Y-12718476D01*
X-13443095Y-12718476D02*
X-13462143Y-12708952D01*
X-13462143Y-12708952D02*
X-13471667Y-12699428D01*
X-13471667Y-12699428D02*
X-13481190Y-12680381D01*
X-13481190Y-12680381D02*
X-13490714Y-12642286D01*
X-13490714Y-12642286D02*
X-13490714Y-12594667D01*
X-13490714Y-12594667D02*
X-13481190Y-12556571D01*
X-13481190Y-12556571D02*
X-13471667Y-12537524D01*
X-13471667Y-12537524D02*
X-13462143Y-12528000D01*
X-13462143Y-12528000D02*
X-13443095Y-12518476D01*
X-13252619Y-12518476D02*
X-13233571Y-12518476D01*
X-13233571Y-12518476D02*
X-13214524Y-12528000D01*
X-13214524Y-12528000D02*
X-13205000Y-12537524D01*
X-13205000Y-12537524D02*
X-13195476Y-12556571D01*
X-13195476Y-12556571D02*
X-13185952Y-12594667D01*
X-13185952Y-12594667D02*
X-13185952Y-12642286D01*
X-13185952Y-12642286D02*
X-13195476Y-12680381D01*
X-13195476Y-12680381D02*
X-13205000Y-12699428D01*
X-13205000Y-12699428D02*
X-13214524Y-12708952D01*
X-13214524Y-12708952D02*
X-13233571Y-12718476D01*
X-13233571Y-12718476D02*
X-13252619Y-12718476D01*
X-13252619Y-12718476D02*
X-13271667Y-12708952D01*
X-13271667Y-12708952D02*
X-13281190Y-12699428D01*
X-13281190Y-12699428D02*
X-13290714Y-12680381D01*
X-13290714Y-12680381D02*
X-13300238Y-12642286D01*
X-13300238Y-12642286D02*
X-13300238Y-12594667D01*
X-13300238Y-12594667D02*
X-13290714Y-12556571D01*
X-13290714Y-12556571D02*
X-13281190Y-12537524D01*
X-13281190Y-12537524D02*
X-13271667Y-12528000D01*
X-13271667Y-12528000D02*
X-13252619Y-12518476D01*
X-13100238Y-12718476D02*
X-13100238Y-12585143D01*
X-13100238Y-12604190D02*
X-13090714Y-12594667D01*
X-13090714Y-12594667D02*
X-13071667Y-12585143D01*
X-13071667Y-12585143D02*
X-13043095Y-12585143D01*
X-13043095Y-12585143D02*
X-13024047Y-12594667D01*
X-13024047Y-12594667D02*
X-13014524Y-12613714D01*
X-13014524Y-12613714D02*
X-13014524Y-12718476D01*
X-13014524Y-12613714D02*
X-13005000Y-12594667D01*
X-13005000Y-12594667D02*
X-12985952Y-12585143D01*
X-12985952Y-12585143D02*
X-12957381Y-12585143D01*
X-12957381Y-12585143D02*
X-12938333Y-12594667D01*
X-12938333Y-12594667D02*
X-12928809Y-12613714D01*
X-12928809Y-12613714D02*
X-12928809Y-12718476D01*
X-12833571Y-12718476D02*
X-12833571Y-12585143D01*
X-12833571Y-12604190D02*
X-12824047Y-12594667D01*
X-12824047Y-12594667D02*
X-12805000Y-12585143D01*
X-12805000Y-12585143D02*
X-12776428Y-12585143D01*
X-12776428Y-12585143D02*
X-12757381Y-12594667D01*
X-12757381Y-12594667D02*
X-12747857Y-12613714D01*
X-12747857Y-12613714D02*
X-12747857Y-12718476D01*
X-12747857Y-12613714D02*
X-12738333Y-12594667D01*
X-12738333Y-12594667D02*
X-12719286Y-12585143D01*
X-12719286Y-12585143D02*
X-12690714Y-12585143D01*
X-12690714Y-12585143D02*
X-12671666Y-12594667D01*
X-12671666Y-12594667D02*
X-12662143Y-12613714D01*
X-12662143Y-12613714D02*
X-12662143Y-12718476D01*
X-12304047Y-12508952D02*
X-12475476Y-12766095D01*
X-12079286Y-12518476D02*
X-12060238Y-12518476D01*
X-12060238Y-12518476D02*
X-12041190Y-12528000D01*
X-12041190Y-12528000D02*
X-12031666Y-12537524D01*
X-12031666Y-12537524D02*
X-12022143Y-12556571D01*
X-12022143Y-12556571D02*
X-12012619Y-12594667D01*
X-12012619Y-12594667D02*
X-12012619Y-12642286D01*
X-12012619Y-12642286D02*
X-12022143Y-12680381D01*
X-12022143Y-12680381D02*
X-12031666Y-12699428D01*
X-12031666Y-12699428D02*
X-12041190Y-12708952D01*
X-12041190Y-12708952D02*
X-12060238Y-12718476D01*
X-12060238Y-12718476D02*
X-12079286Y-12718476D01*
X-12079286Y-12718476D02*
X-12098333Y-12708952D01*
X-12098333Y-12708952D02*
X-12107857Y-12699428D01*
X-12107857Y-12699428D02*
X-12117381Y-12680381D01*
X-12117381Y-12680381D02*
X-12126905Y-12642286D01*
X-12126905Y-12642286D02*
X-12126905Y-12594667D01*
X-12126905Y-12594667D02*
X-12117381Y-12556571D01*
X-12117381Y-12556571D02*
X-12107857Y-12537524D01*
X-12107857Y-12537524D02*
X-12098333Y-12528000D01*
X-12098333Y-12528000D02*
X-12079286Y-12518476D01*
X-11926905Y-12699428D02*
X-11917381Y-12708952D01*
X-11917381Y-12708952D02*
X-11926905Y-12718476D01*
X-11926905Y-12718476D02*
X-11936428Y-12708952D01*
X-11936428Y-12708952D02*
X-11926905Y-12699428D01*
X-11926905Y-12699428D02*
X-11926905Y-12718476D01*
X-11793571Y-12518476D02*
X-11774524Y-12518476D01*
X-11774524Y-12518476D02*
X-11755476Y-12528000D01*
X-11755476Y-12528000D02*
X-11745952Y-12537524D01*
X-11745952Y-12537524D02*
X-11736428Y-12556571D01*
X-11736428Y-12556571D02*
X-11726905Y-12594667D01*
X-11726905Y-12594667D02*
X-11726905Y-12642286D01*
X-11726905Y-12642286D02*
X-11736428Y-12680381D01*
X-11736428Y-12680381D02*
X-11745952Y-12699428D01*
X-11745952Y-12699428D02*
X-11755476Y-12708952D01*
X-11755476Y-12708952D02*
X-11774524Y-12718476D01*
X-11774524Y-12718476D02*
X-11793571Y-12718476D01*
X-11793571Y-12718476D02*
X-11812619Y-12708952D01*
X-11812619Y-12708952D02*
X-11822143Y-12699428D01*
X-11822143Y-12699428D02*
X-11831666Y-12680381D01*
X-11831666Y-12680381D02*
X-11841190Y-12642286D01*
X-11841190Y-12642286D02*
X-11841190Y-12594667D01*
X-11841190Y-12594667D02*
X-11831666Y-12556571D01*
X-11831666Y-12556571D02*
X-11822143Y-12537524D01*
X-11822143Y-12537524D02*
X-11812619Y-12528000D01*
X-11812619Y-12528000D02*
X-11793571Y-12518476D01*
X-11536428Y-12718476D02*
X-11650714Y-12718476D01*
X-11593571Y-12718476D02*
X-11593571Y-12518476D01*
X-11593571Y-12518476D02*
X-11612619Y-12547048D01*
X-11612619Y-12547048D02*
X-11631666Y-12566095D01*
X-11631666Y-12566095D02*
X-11650714Y-12575619D01*
X-11355476Y-12518476D02*
X-11450714Y-12518476D01*
X-11450714Y-12518476D02*
X-11460238Y-12613714D01*
X-11460238Y-12613714D02*
X-11450714Y-12604190D01*
X-11450714Y-12604190D02*
X-11431666Y-12594667D01*
X-11431666Y-12594667D02*
X-11384047Y-12594667D01*
X-11384047Y-12594667D02*
X-11365000Y-12604190D01*
X-11365000Y-12604190D02*
X-11355476Y-12613714D01*
X-11355476Y-12613714D02*
X-11345952Y-12632762D01*
X-11345952Y-12632762D02*
X-11345952Y-12680381D01*
X-11345952Y-12680381D02*
X-11355476Y-12699428D01*
X-11355476Y-12699428D02*
X-11365000Y-12708952D01*
X-11365000Y-12708952D02*
X-11384047Y-12718476D01*
X-11384047Y-12718476D02*
X-11431666Y-12718476D01*
X-11431666Y-12718476D02*
X-11450714Y-12708952D01*
X-11450714Y-12708952D02*
X-11460238Y-12699428D01*
X-11279285Y-12518476D02*
X-11145952Y-12518476D01*
X-11145952Y-12518476D02*
X-11231666Y-12718476D01*
X-11079286Y-12518476D02*
X-11079286Y-12556571D01*
X-11003095Y-12518476D02*
X-11003095Y-12556571D01*
X-10740238Y-12794667D02*
X-10749762Y-12785143D01*
X-10749762Y-12785143D02*
X-10768809Y-12756571D01*
X-10768809Y-12756571D02*
X-10778333Y-12737524D01*
X-10778333Y-12737524D02*
X-10787857Y-12708952D01*
X-10787857Y-12708952D02*
X-10797381Y-12661333D01*
X-10797381Y-12661333D02*
X-10797381Y-12623238D01*
X-10797381Y-12623238D02*
X-10787857Y-12575619D01*
X-10787857Y-12575619D02*
X-10778333Y-12547048D01*
X-10778333Y-12547048D02*
X-10768809Y-12528000D01*
X-10768809Y-12528000D02*
X-10749762Y-12499428D01*
X-10749762Y-12499428D02*
X-10740238Y-12489905D01*
X-10568809Y-12518476D02*
X-10664047Y-12518476D01*
X-10664047Y-12518476D02*
X-10673571Y-12613714D01*
X-10673571Y-12613714D02*
X-10664047Y-12604190D01*
X-10664047Y-12604190D02*
X-10645000Y-12594667D01*
X-10645000Y-12594667D02*
X-10597381Y-12594667D01*
X-10597381Y-12594667D02*
X-10578333Y-12604190D01*
X-10578333Y-12604190D02*
X-10568809Y-12613714D01*
X-10568809Y-12613714D02*
X-10559286Y-12632762D01*
X-10559286Y-12632762D02*
X-10559286Y-12680381D01*
X-10559286Y-12680381D02*
X-10568809Y-12699428D01*
X-10568809Y-12699428D02*
X-10578333Y-12708952D01*
X-10578333Y-12708952D02*
X-10597381Y-12718476D01*
X-10597381Y-12718476D02*
X-10645000Y-12718476D01*
X-10645000Y-12718476D02*
X-10664047Y-12708952D01*
X-10664047Y-12708952D02*
X-10673571Y-12699428D01*
X-10464047Y-12718476D02*
X-10425952Y-12718476D01*
X-10425952Y-12718476D02*
X-10406905Y-12708952D01*
X-10406905Y-12708952D02*
X-10397381Y-12699428D01*
X-10397381Y-12699428D02*
X-10378333Y-12670857D01*
X-10378333Y-12670857D02*
X-10368809Y-12632762D01*
X-10368809Y-12632762D02*
X-10368809Y-12556571D01*
X-10368809Y-12556571D02*
X-10378333Y-12537524D01*
X-10378333Y-12537524D02*
X-10387857Y-12528000D01*
X-10387857Y-12528000D02*
X-10406905Y-12518476D01*
X-10406905Y-12518476D02*
X-10445000Y-12518476D01*
X-10445000Y-12518476D02*
X-10464047Y-12528000D01*
X-10464047Y-12528000D02*
X-10473571Y-12537524D01*
X-10473571Y-12537524D02*
X-10483095Y-12556571D01*
X-10483095Y-12556571D02*
X-10483095Y-12604190D01*
X-10483095Y-12604190D02*
X-10473571Y-12623238D01*
X-10473571Y-12623238D02*
X-10464047Y-12632762D01*
X-10464047Y-12632762D02*
X-10445000Y-12642286D01*
X-10445000Y-12642286D02*
X-10406905Y-12642286D01*
X-10406905Y-12642286D02*
X-10387857Y-12632762D01*
X-10387857Y-12632762D02*
X-10378333Y-12623238D01*
X-10378333Y-12623238D02*
X-10368809Y-12604190D01*
X-10163095Y-12718476D02*
X-10163095Y-12518476D01*
X-10077381Y-12718476D02*
X-10077381Y-12613714D01*
X-10077381Y-12613714D02*
X-10086905Y-12594667D01*
X-10086905Y-12594667D02*
X-10105952Y-12585143D01*
X-10105952Y-12585143D02*
X-10134524Y-12585143D01*
X-10134524Y-12585143D02*
X-10153571Y-12594667D01*
X-10153571Y-12594667D02*
X-10163095Y-12604190D01*
X-9953571Y-12718476D02*
X-9972619Y-12708952D01*
X-9972619Y-12708952D02*
X-9982143Y-12699428D01*
X-9982143Y-12699428D02*
X-9991666Y-12680381D01*
X-9991666Y-12680381D02*
X-9991666Y-12623238D01*
X-9991666Y-12623238D02*
X-9982143Y-12604190D01*
X-9982143Y-12604190D02*
X-9972619Y-12594667D01*
X-9972619Y-12594667D02*
X-9953571Y-12585143D01*
X-9953571Y-12585143D02*
X-9925000Y-12585143D01*
X-9925000Y-12585143D02*
X-9905952Y-12594667D01*
X-9905952Y-12594667D02*
X-9896428Y-12604190D01*
X-9896428Y-12604190D02*
X-9886905Y-12623238D01*
X-9886905Y-12623238D02*
X-9886905Y-12680381D01*
X-9886905Y-12680381D02*
X-9896428Y-12699428D01*
X-9896428Y-12699428D02*
X-9905952Y-12708952D01*
X-9905952Y-12708952D02*
X-9925000Y-12718476D01*
X-9925000Y-12718476D02*
X-9953571Y-12718476D01*
X-9772619Y-12718476D02*
X-9791666Y-12708952D01*
X-9791666Y-12708952D02*
X-9801190Y-12689905D01*
X-9801190Y-12689905D02*
X-9801190Y-12518476D01*
X-9620238Y-12708952D02*
X-9639285Y-12718476D01*
X-9639285Y-12718476D02*
X-9677381Y-12718476D01*
X-9677381Y-12718476D02*
X-9696428Y-12708952D01*
X-9696428Y-12708952D02*
X-9705952Y-12689905D01*
X-9705952Y-12689905D02*
X-9705952Y-12613714D01*
X-9705952Y-12613714D02*
X-9696428Y-12594667D01*
X-9696428Y-12594667D02*
X-9677381Y-12585143D01*
X-9677381Y-12585143D02*
X-9639285Y-12585143D01*
X-9639285Y-12585143D02*
X-9620238Y-12594667D01*
X-9620238Y-12594667D02*
X-9610714Y-12613714D01*
X-9610714Y-12613714D02*
X-9610714Y-12632762D01*
X-9610714Y-12632762D02*
X-9705952Y-12651809D01*
X-9534524Y-12708952D02*
X-9515476Y-12718476D01*
X-9515476Y-12718476D02*
X-9477381Y-12718476D01*
X-9477381Y-12718476D02*
X-9458333Y-12708952D01*
X-9458333Y-12708952D02*
X-9448809Y-12689905D01*
X-9448809Y-12689905D02*
X-9448809Y-12680381D01*
X-9448809Y-12680381D02*
X-9458333Y-12661333D01*
X-9458333Y-12661333D02*
X-9477381Y-12651809D01*
X-9477381Y-12651809D02*
X-9505952Y-12651809D01*
X-9505952Y-12651809D02*
X-9525000Y-12642286D01*
X-9525000Y-12642286D02*
X-9534524Y-12623238D01*
X-9534524Y-12623238D02*
X-9534524Y-12613714D01*
X-9534524Y-12613714D02*
X-9525000Y-12594667D01*
X-9525000Y-12594667D02*
X-9505952Y-12585143D01*
X-9505952Y-12585143D02*
X-9477381Y-12585143D01*
X-9477381Y-12585143D02*
X-9458333Y-12594667D01*
X-9382143Y-12794667D02*
X-9372619Y-12785143D01*
X-9372619Y-12785143D02*
X-9353571Y-12756571D01*
X-9353571Y-12756571D02*
X-9344047Y-12737524D01*
X-9344047Y-12737524D02*
X-9334524Y-12708952D01*
X-9334524Y-12708952D02*
X-9325000Y-12661333D01*
X-9325000Y-12661333D02*
X-9325000Y-12623238D01*
X-9325000Y-12623238D02*
X-9334524Y-12575619D01*
X-9334524Y-12575619D02*
X-9344047Y-12547048D01*
X-9344047Y-12547048D02*
X-9353571Y-12528000D01*
X-9353571Y-12528000D02*
X-9372619Y-12499428D01*
X-9372619Y-12499428D02*
X-9382143Y-12489905D01*
D12*
X-14205000Y-12909000D02*
G75*
G03*
X-14205000Y-12909000I-20000J0D01*
G01*
D11*
X-13919286Y-12782476D02*
X-13900238Y-12782476D01*
X-13900238Y-12782476D02*
X-13881190Y-12792000D01*
X-13881190Y-12792000D02*
X-13871667Y-12801524D01*
X-13871667Y-12801524D02*
X-13862143Y-12820571D01*
X-13862143Y-12820571D02*
X-13852619Y-12858667D01*
X-13852619Y-12858667D02*
X-13852619Y-12906286D01*
X-13852619Y-12906286D02*
X-13862143Y-12944381D01*
X-13862143Y-12944381D02*
X-13871667Y-12963428D01*
X-13871667Y-12963428D02*
X-13881190Y-12972952D01*
X-13881190Y-12972952D02*
X-13900238Y-12982476D01*
X-13900238Y-12982476D02*
X-13919286Y-12982476D01*
X-13919286Y-12982476D02*
X-13938333Y-12972952D01*
X-13938333Y-12972952D02*
X-13947857Y-12963428D01*
X-13947857Y-12963428D02*
X-13957381Y-12944381D01*
X-13957381Y-12944381D02*
X-13966905Y-12906286D01*
X-13966905Y-12906286D02*
X-13966905Y-12858667D01*
X-13966905Y-12858667D02*
X-13957381Y-12820571D01*
X-13957381Y-12820571D02*
X-13947857Y-12801524D01*
X-13947857Y-12801524D02*
X-13938333Y-12792000D01*
X-13938333Y-12792000D02*
X-13919286Y-12782476D01*
X-13766905Y-12963428D02*
X-13757381Y-12972952D01*
X-13757381Y-12972952D02*
X-13766905Y-12982476D01*
X-13766905Y-12982476D02*
X-13776428Y-12972952D01*
X-13776428Y-12972952D02*
X-13766905Y-12963428D01*
X-13766905Y-12963428D02*
X-13766905Y-12982476D01*
X-13585952Y-12849143D02*
X-13585952Y-12982476D01*
X-13633571Y-12772952D02*
X-13681190Y-12915809D01*
X-13681190Y-12915809D02*
X-13557381Y-12915809D01*
X-13443095Y-12782476D02*
X-13424047Y-12782476D01*
X-13424047Y-12782476D02*
X-13405000Y-12792000D01*
X-13405000Y-12792000D02*
X-13395476Y-12801524D01*
X-13395476Y-12801524D02*
X-13385952Y-12820571D01*
X-13385952Y-12820571D02*
X-13376428Y-12858667D01*
X-13376428Y-12858667D02*
X-13376428Y-12906286D01*
X-13376428Y-12906286D02*
X-13385952Y-12944381D01*
X-13385952Y-12944381D02*
X-13395476Y-12963428D01*
X-13395476Y-12963428D02*
X-13405000Y-12972952D01*
X-13405000Y-12972952D02*
X-13424047Y-12982476D01*
X-13424047Y-12982476D02*
X-13443095Y-12982476D01*
X-13443095Y-12982476D02*
X-13462143Y-12972952D01*
X-13462143Y-12972952D02*
X-13471667Y-12963428D01*
X-13471667Y-12963428D02*
X-13481190Y-12944381D01*
X-13481190Y-12944381D02*
X-13490714Y-12906286D01*
X-13490714Y-12906286D02*
X-13490714Y-12858667D01*
X-13490714Y-12858667D02*
X-13481190Y-12820571D01*
X-13481190Y-12820571D02*
X-13471667Y-12801524D01*
X-13471667Y-12801524D02*
X-13462143Y-12792000D01*
X-13462143Y-12792000D02*
X-13443095Y-12782476D01*
X-13252619Y-12782476D02*
X-13233571Y-12782476D01*
X-13233571Y-12782476D02*
X-13214524Y-12792000D01*
X-13214524Y-12792000D02*
X-13205000Y-12801524D01*
X-13205000Y-12801524D02*
X-13195476Y-12820571D01*
X-13195476Y-12820571D02*
X-13185952Y-12858667D01*
X-13185952Y-12858667D02*
X-13185952Y-12906286D01*
X-13185952Y-12906286D02*
X-13195476Y-12944381D01*
X-13195476Y-12944381D02*
X-13205000Y-12963428D01*
X-13205000Y-12963428D02*
X-13214524Y-12972952D01*
X-13214524Y-12972952D02*
X-13233571Y-12982476D01*
X-13233571Y-12982476D02*
X-13252619Y-12982476D01*
X-13252619Y-12982476D02*
X-13271667Y-12972952D01*
X-13271667Y-12972952D02*
X-13281190Y-12963428D01*
X-13281190Y-12963428D02*
X-13290714Y-12944381D01*
X-13290714Y-12944381D02*
X-13300238Y-12906286D01*
X-13300238Y-12906286D02*
X-13300238Y-12858667D01*
X-13300238Y-12858667D02*
X-13290714Y-12820571D01*
X-13290714Y-12820571D02*
X-13281190Y-12801524D01*
X-13281190Y-12801524D02*
X-13271667Y-12792000D01*
X-13271667Y-12792000D02*
X-13252619Y-12782476D01*
X-13100238Y-12982476D02*
X-13100238Y-12849143D01*
X-13100238Y-12868190D02*
X-13090714Y-12858667D01*
X-13090714Y-12858667D02*
X-13071667Y-12849143D01*
X-13071667Y-12849143D02*
X-13043095Y-12849143D01*
X-13043095Y-12849143D02*
X-13024047Y-12858667D01*
X-13024047Y-12858667D02*
X-13014524Y-12877714D01*
X-13014524Y-12877714D02*
X-13014524Y-12982476D01*
X-13014524Y-12877714D02*
X-13005000Y-12858667D01*
X-13005000Y-12858667D02*
X-12985952Y-12849143D01*
X-12985952Y-12849143D02*
X-12957381Y-12849143D01*
X-12957381Y-12849143D02*
X-12938333Y-12858667D01*
X-12938333Y-12858667D02*
X-12928809Y-12877714D01*
X-12928809Y-12877714D02*
X-12928809Y-12982476D01*
X-12833571Y-12982476D02*
X-12833571Y-12849143D01*
X-12833571Y-12868190D02*
X-12824047Y-12858667D01*
X-12824047Y-12858667D02*
X-12805000Y-12849143D01*
X-12805000Y-12849143D02*
X-12776428Y-12849143D01*
X-12776428Y-12849143D02*
X-12757381Y-12858667D01*
X-12757381Y-12858667D02*
X-12747857Y-12877714D01*
X-12747857Y-12877714D02*
X-12747857Y-12982476D01*
X-12747857Y-12877714D02*
X-12738333Y-12858667D01*
X-12738333Y-12858667D02*
X-12719286Y-12849143D01*
X-12719286Y-12849143D02*
X-12690714Y-12849143D01*
X-12690714Y-12849143D02*
X-12671666Y-12858667D01*
X-12671666Y-12858667D02*
X-12662143Y-12877714D01*
X-12662143Y-12877714D02*
X-12662143Y-12982476D01*
X-12304047Y-12772952D02*
X-12475476Y-13030095D01*
X-12079286Y-12782476D02*
X-12060238Y-12782476D01*
X-12060238Y-12782476D02*
X-12041190Y-12792000D01*
X-12041190Y-12792000D02*
X-12031666Y-12801524D01*
X-12031666Y-12801524D02*
X-12022143Y-12820571D01*
X-12022143Y-12820571D02*
X-12012619Y-12858667D01*
X-12012619Y-12858667D02*
X-12012619Y-12906286D01*
X-12012619Y-12906286D02*
X-12022143Y-12944381D01*
X-12022143Y-12944381D02*
X-12031666Y-12963428D01*
X-12031666Y-12963428D02*
X-12041190Y-12972952D01*
X-12041190Y-12972952D02*
X-12060238Y-12982476D01*
X-12060238Y-12982476D02*
X-12079286Y-12982476D01*
X-12079286Y-12982476D02*
X-12098333Y-12972952D01*
X-12098333Y-12972952D02*
X-12107857Y-12963428D01*
X-12107857Y-12963428D02*
X-12117381Y-12944381D01*
X-12117381Y-12944381D02*
X-12126905Y-12906286D01*
X-12126905Y-12906286D02*
X-12126905Y-12858667D01*
X-12126905Y-12858667D02*
X-12117381Y-12820571D01*
X-12117381Y-12820571D02*
X-12107857Y-12801524D01*
X-12107857Y-12801524D02*
X-12098333Y-12792000D01*
X-12098333Y-12792000D02*
X-12079286Y-12782476D01*
X-11926905Y-12963428D02*
X-11917381Y-12972952D01*
X-11917381Y-12972952D02*
X-11926905Y-12982476D01*
X-11926905Y-12982476D02*
X-11936428Y-12972952D01*
X-11936428Y-12972952D02*
X-11926905Y-12963428D01*
X-11926905Y-12963428D02*
X-11926905Y-12982476D01*
X-11793571Y-12782476D02*
X-11774524Y-12782476D01*
X-11774524Y-12782476D02*
X-11755476Y-12792000D01*
X-11755476Y-12792000D02*
X-11745952Y-12801524D01*
X-11745952Y-12801524D02*
X-11736428Y-12820571D01*
X-11736428Y-12820571D02*
X-11726905Y-12858667D01*
X-11726905Y-12858667D02*
X-11726905Y-12906286D01*
X-11726905Y-12906286D02*
X-11736428Y-12944381D01*
X-11736428Y-12944381D02*
X-11745952Y-12963428D01*
X-11745952Y-12963428D02*
X-11755476Y-12972952D01*
X-11755476Y-12972952D02*
X-11774524Y-12982476D01*
X-11774524Y-12982476D02*
X-11793571Y-12982476D01*
X-11793571Y-12982476D02*
X-11812619Y-12972952D01*
X-11812619Y-12972952D02*
X-11822143Y-12963428D01*
X-11822143Y-12963428D02*
X-11831666Y-12944381D01*
X-11831666Y-12944381D02*
X-11841190Y-12906286D01*
X-11841190Y-12906286D02*
X-11841190Y-12858667D01*
X-11841190Y-12858667D02*
X-11831666Y-12820571D01*
X-11831666Y-12820571D02*
X-11822143Y-12801524D01*
X-11822143Y-12801524D02*
X-11812619Y-12792000D01*
X-11812619Y-12792000D02*
X-11793571Y-12782476D01*
X-11536428Y-12982476D02*
X-11650714Y-12982476D01*
X-11593571Y-12982476D02*
X-11593571Y-12782476D01*
X-11593571Y-12782476D02*
X-11612619Y-12811048D01*
X-11612619Y-12811048D02*
X-11631666Y-12830095D01*
X-11631666Y-12830095D02*
X-11650714Y-12839619D01*
X-11355476Y-12782476D02*
X-11450714Y-12782476D01*
X-11450714Y-12782476D02*
X-11460238Y-12877714D01*
X-11460238Y-12877714D02*
X-11450714Y-12868190D01*
X-11450714Y-12868190D02*
X-11431666Y-12858667D01*
X-11431666Y-12858667D02*
X-11384047Y-12858667D01*
X-11384047Y-12858667D02*
X-11365000Y-12868190D01*
X-11365000Y-12868190D02*
X-11355476Y-12877714D01*
X-11355476Y-12877714D02*
X-11345952Y-12896762D01*
X-11345952Y-12896762D02*
X-11345952Y-12944381D01*
X-11345952Y-12944381D02*
X-11355476Y-12963428D01*
X-11355476Y-12963428D02*
X-11365000Y-12972952D01*
X-11365000Y-12972952D02*
X-11384047Y-12982476D01*
X-11384047Y-12982476D02*
X-11431666Y-12982476D01*
X-11431666Y-12982476D02*
X-11450714Y-12972952D01*
X-11450714Y-12972952D02*
X-11460238Y-12963428D01*
X-11279285Y-12782476D02*
X-11145952Y-12782476D01*
X-11145952Y-12782476D02*
X-11231666Y-12982476D01*
X-11079286Y-12782476D02*
X-11079286Y-12820571D01*
X-11003095Y-12782476D02*
X-11003095Y-12820571D01*
X-10740238Y-13058667D02*
X-10749762Y-13049143D01*
X-10749762Y-13049143D02*
X-10768809Y-13020571D01*
X-10768809Y-13020571D02*
X-10778333Y-13001524D01*
X-10778333Y-13001524D02*
X-10787857Y-12972952D01*
X-10787857Y-12972952D02*
X-10797381Y-12925333D01*
X-10797381Y-12925333D02*
X-10797381Y-12887238D01*
X-10797381Y-12887238D02*
X-10787857Y-12839619D01*
X-10787857Y-12839619D02*
X-10778333Y-12811048D01*
X-10778333Y-12811048D02*
X-10768809Y-12792000D01*
X-10768809Y-12792000D02*
X-10749762Y-12763428D01*
X-10749762Y-12763428D02*
X-10740238Y-12753905D01*
X-10559286Y-12982476D02*
X-10673571Y-12982476D01*
X-10616428Y-12982476D02*
X-10616428Y-12782476D01*
X-10616428Y-12782476D02*
X-10635476Y-12811048D01*
X-10635476Y-12811048D02*
X-10654524Y-12830095D01*
X-10654524Y-12830095D02*
X-10673571Y-12839619D01*
X-10387857Y-12782476D02*
X-10425952Y-12782476D01*
X-10425952Y-12782476D02*
X-10445000Y-12792000D01*
X-10445000Y-12792000D02*
X-10454524Y-12801524D01*
X-10454524Y-12801524D02*
X-10473571Y-12830095D01*
X-10473571Y-12830095D02*
X-10483095Y-12868190D01*
X-10483095Y-12868190D02*
X-10483095Y-12944381D01*
X-10483095Y-12944381D02*
X-10473571Y-12963428D01*
X-10473571Y-12963428D02*
X-10464047Y-12972952D01*
X-10464047Y-12972952D02*
X-10445000Y-12982476D01*
X-10445000Y-12982476D02*
X-10406905Y-12982476D01*
X-10406905Y-12982476D02*
X-10387857Y-12972952D01*
X-10387857Y-12972952D02*
X-10378333Y-12963428D01*
X-10378333Y-12963428D02*
X-10368809Y-12944381D01*
X-10368809Y-12944381D02*
X-10368809Y-12896762D01*
X-10368809Y-12896762D02*
X-10378333Y-12877714D01*
X-10378333Y-12877714D02*
X-10387857Y-12868190D01*
X-10387857Y-12868190D02*
X-10406905Y-12858667D01*
X-10406905Y-12858667D02*
X-10445000Y-12858667D01*
X-10445000Y-12858667D02*
X-10464047Y-12868190D01*
X-10464047Y-12868190D02*
X-10473571Y-12877714D01*
X-10473571Y-12877714D02*
X-10483095Y-12896762D01*
X-10163095Y-12982476D02*
X-10163095Y-12782476D01*
X-10077381Y-12982476D02*
X-10077381Y-12877714D01*
X-10077381Y-12877714D02*
X-10086905Y-12858667D01*
X-10086905Y-12858667D02*
X-10105952Y-12849143D01*
X-10105952Y-12849143D02*
X-10134524Y-12849143D01*
X-10134524Y-12849143D02*
X-10153571Y-12858667D01*
X-10153571Y-12858667D02*
X-10163095Y-12868190D01*
X-9953571Y-12982476D02*
X-9972619Y-12972952D01*
X-9972619Y-12972952D02*
X-9982143Y-12963428D01*
X-9982143Y-12963428D02*
X-9991666Y-12944381D01*
X-9991666Y-12944381D02*
X-9991666Y-12887238D01*
X-9991666Y-12887238D02*
X-9982143Y-12868190D01*
X-9982143Y-12868190D02*
X-9972619Y-12858667D01*
X-9972619Y-12858667D02*
X-9953571Y-12849143D01*
X-9953571Y-12849143D02*
X-9925000Y-12849143D01*
X-9925000Y-12849143D02*
X-9905952Y-12858667D01*
X-9905952Y-12858667D02*
X-9896428Y-12868190D01*
X-9896428Y-12868190D02*
X-9886905Y-12887238D01*
X-9886905Y-12887238D02*
X-9886905Y-12944381D01*
X-9886905Y-12944381D02*
X-9896428Y-12963428D01*
X-9896428Y-12963428D02*
X-9905952Y-12972952D01*
X-9905952Y-12972952D02*
X-9925000Y-12982476D01*
X-9925000Y-12982476D02*
X-9953571Y-12982476D01*
X-9772619Y-12982476D02*
X-9791666Y-12972952D01*
X-9791666Y-12972952D02*
X-9801190Y-12953905D01*
X-9801190Y-12953905D02*
X-9801190Y-12782476D01*
X-9620238Y-12972952D02*
X-9639285Y-12982476D01*
X-9639285Y-12982476D02*
X-9677381Y-12982476D01*
X-9677381Y-12982476D02*
X-9696428Y-12972952D01*
X-9696428Y-12972952D02*
X-9705952Y-12953905D01*
X-9705952Y-12953905D02*
X-9705952Y-12877714D01*
X-9705952Y-12877714D02*
X-9696428Y-12858667D01*
X-9696428Y-12858667D02*
X-9677381Y-12849143D01*
X-9677381Y-12849143D02*
X-9639285Y-12849143D01*
X-9639285Y-12849143D02*
X-9620238Y-12858667D01*
X-9620238Y-12858667D02*
X-9610714Y-12877714D01*
X-9610714Y-12877714D02*
X-9610714Y-12896762D01*
X-9610714Y-12896762D02*
X-9705952Y-12915809D01*
X-9534524Y-12972952D02*
X-9515476Y-12982476D01*
X-9515476Y-12982476D02*
X-9477381Y-12982476D01*
X-9477381Y-12982476D02*
X-9458333Y-12972952D01*
X-9458333Y-12972952D02*
X-9448809Y-12953905D01*
X-9448809Y-12953905D02*
X-9448809Y-12944381D01*
X-9448809Y-12944381D02*
X-9458333Y-12925333D01*
X-9458333Y-12925333D02*
X-9477381Y-12915809D01*
X-9477381Y-12915809D02*
X-9505952Y-12915809D01*
X-9505952Y-12915809D02*
X-9525000Y-12906286D01*
X-9525000Y-12906286D02*
X-9534524Y-12887238D01*
X-9534524Y-12887238D02*
X-9534524Y-12877714D01*
X-9534524Y-12877714D02*
X-9525000Y-12858667D01*
X-9525000Y-12858667D02*
X-9505952Y-12849143D01*
X-9505952Y-12849143D02*
X-9477381Y-12849143D01*
X-9477381Y-12849143D02*
X-9458333Y-12858667D01*
X-9382143Y-13058667D02*
X-9372619Y-13049143D01*
X-9372619Y-13049143D02*
X-9353571Y-13020571D01*
X-9353571Y-13020571D02*
X-9344047Y-13001524D01*
X-9344047Y-13001524D02*
X-9334524Y-12972952D01*
X-9334524Y-12972952D02*
X-9325000Y-12925333D01*
X-9325000Y-12925333D02*
X-9325000Y-12887238D01*
X-9325000Y-12887238D02*
X-9334524Y-12839619D01*
X-9334524Y-12839619D02*
X-9344047Y-12811048D01*
X-9344047Y-12811048D02*
X-9353571Y-12792000D01*
X-9353571Y-12792000D02*
X-9372619Y-12763428D01*
X-9372619Y-12763428D02*
X-9382143Y-12753905D01*
D13*
X-14235000Y-13143000D02*
X-14235000Y-13203000D01*
X-14265000Y-13173000D02*
X-14205000Y-13173000D01*
D11*
X-13919286Y-13046476D02*
X-13900238Y-13046476D01*
X-13900238Y-13046476D02*
X-13881190Y-13056000D01*
X-13881190Y-13056000D02*
X-13871667Y-13065524D01*
X-13871667Y-13065524D02*
X-13862143Y-13084571D01*
X-13862143Y-13084571D02*
X-13852619Y-13122667D01*
X-13852619Y-13122667D02*
X-13852619Y-13170286D01*
X-13852619Y-13170286D02*
X-13862143Y-13208381D01*
X-13862143Y-13208381D02*
X-13871667Y-13227428D01*
X-13871667Y-13227428D02*
X-13881190Y-13236952D01*
X-13881190Y-13236952D02*
X-13900238Y-13246476D01*
X-13900238Y-13246476D02*
X-13919286Y-13246476D01*
X-13919286Y-13246476D02*
X-13938333Y-13236952D01*
X-13938333Y-13236952D02*
X-13947857Y-13227428D01*
X-13947857Y-13227428D02*
X-13957381Y-13208381D01*
X-13957381Y-13208381D02*
X-13966905Y-13170286D01*
X-13966905Y-13170286D02*
X-13966905Y-13122667D01*
X-13966905Y-13122667D02*
X-13957381Y-13084571D01*
X-13957381Y-13084571D02*
X-13947857Y-13065524D01*
X-13947857Y-13065524D02*
X-13938333Y-13056000D01*
X-13938333Y-13056000D02*
X-13919286Y-13046476D01*
X-13766905Y-13227428D02*
X-13757381Y-13236952D01*
X-13757381Y-13236952D02*
X-13766905Y-13246476D01*
X-13766905Y-13246476D02*
X-13776428Y-13236952D01*
X-13776428Y-13236952D02*
X-13766905Y-13227428D01*
X-13766905Y-13227428D02*
X-13766905Y-13246476D01*
X-13585952Y-13046476D02*
X-13624048Y-13046476D01*
X-13624048Y-13046476D02*
X-13643095Y-13056000D01*
X-13643095Y-13056000D02*
X-13652619Y-13065524D01*
X-13652619Y-13065524D02*
X-13671667Y-13094095D01*
X-13671667Y-13094095D02*
X-13681190Y-13132190D01*
X-13681190Y-13132190D02*
X-13681190Y-13208381D01*
X-13681190Y-13208381D02*
X-13671667Y-13227428D01*
X-13671667Y-13227428D02*
X-13662143Y-13236952D01*
X-13662143Y-13236952D02*
X-13643095Y-13246476D01*
X-13643095Y-13246476D02*
X-13605000Y-13246476D01*
X-13605000Y-13246476D02*
X-13585952Y-13236952D01*
X-13585952Y-13236952D02*
X-13576428Y-13227428D01*
X-13576428Y-13227428D02*
X-13566905Y-13208381D01*
X-13566905Y-13208381D02*
X-13566905Y-13160762D01*
X-13566905Y-13160762D02*
X-13576428Y-13141714D01*
X-13576428Y-13141714D02*
X-13585952Y-13132190D01*
X-13585952Y-13132190D02*
X-13605000Y-13122667D01*
X-13605000Y-13122667D02*
X-13643095Y-13122667D01*
X-13643095Y-13122667D02*
X-13662143Y-13132190D01*
X-13662143Y-13132190D02*
X-13671667Y-13141714D01*
X-13671667Y-13141714D02*
X-13681190Y-13160762D01*
X-13443095Y-13046476D02*
X-13424047Y-13046476D01*
X-13424047Y-13046476D02*
X-13405000Y-13056000D01*
X-13405000Y-13056000D02*
X-13395476Y-13065524D01*
X-13395476Y-13065524D02*
X-13385952Y-13084571D01*
X-13385952Y-13084571D02*
X-13376428Y-13122667D01*
X-13376428Y-13122667D02*
X-13376428Y-13170286D01*
X-13376428Y-13170286D02*
X-13385952Y-13208381D01*
X-13385952Y-13208381D02*
X-13395476Y-13227428D01*
X-13395476Y-13227428D02*
X-13405000Y-13236952D01*
X-13405000Y-13236952D02*
X-13424047Y-13246476D01*
X-13424047Y-13246476D02*
X-13443095Y-13246476D01*
X-13443095Y-13246476D02*
X-13462143Y-13236952D01*
X-13462143Y-13236952D02*
X-13471667Y-13227428D01*
X-13471667Y-13227428D02*
X-13481190Y-13208381D01*
X-13481190Y-13208381D02*
X-13490714Y-13170286D01*
X-13490714Y-13170286D02*
X-13490714Y-13122667D01*
X-13490714Y-13122667D02*
X-13481190Y-13084571D01*
X-13481190Y-13084571D02*
X-13471667Y-13065524D01*
X-13471667Y-13065524D02*
X-13462143Y-13056000D01*
X-13462143Y-13056000D02*
X-13443095Y-13046476D01*
X-13252619Y-13046476D02*
X-13233571Y-13046476D01*
X-13233571Y-13046476D02*
X-13214524Y-13056000D01*
X-13214524Y-13056000D02*
X-13205000Y-13065524D01*
X-13205000Y-13065524D02*
X-13195476Y-13084571D01*
X-13195476Y-13084571D02*
X-13185952Y-13122667D01*
X-13185952Y-13122667D02*
X-13185952Y-13170286D01*
X-13185952Y-13170286D02*
X-13195476Y-13208381D01*
X-13195476Y-13208381D02*
X-13205000Y-13227428D01*
X-13205000Y-13227428D02*
X-13214524Y-13236952D01*
X-13214524Y-13236952D02*
X-13233571Y-13246476D01*
X-13233571Y-13246476D02*
X-13252619Y-13246476D01*
X-13252619Y-13246476D02*
X-13271667Y-13236952D01*
X-13271667Y-13236952D02*
X-13281190Y-13227428D01*
X-13281190Y-13227428D02*
X-13290714Y-13208381D01*
X-13290714Y-13208381D02*
X-13300238Y-13170286D01*
X-13300238Y-13170286D02*
X-13300238Y-13122667D01*
X-13300238Y-13122667D02*
X-13290714Y-13084571D01*
X-13290714Y-13084571D02*
X-13281190Y-13065524D01*
X-13281190Y-13065524D02*
X-13271667Y-13056000D01*
X-13271667Y-13056000D02*
X-13252619Y-13046476D01*
X-13100238Y-13246476D02*
X-13100238Y-13113143D01*
X-13100238Y-13132190D02*
X-13090714Y-13122667D01*
X-13090714Y-13122667D02*
X-13071667Y-13113143D01*
X-13071667Y-13113143D02*
X-13043095Y-13113143D01*
X-13043095Y-13113143D02*
X-13024047Y-13122667D01*
X-13024047Y-13122667D02*
X-13014524Y-13141714D01*
X-13014524Y-13141714D02*
X-13014524Y-13246476D01*
X-13014524Y-13141714D02*
X-13005000Y-13122667D01*
X-13005000Y-13122667D02*
X-12985952Y-13113143D01*
X-12985952Y-13113143D02*
X-12957381Y-13113143D01*
X-12957381Y-13113143D02*
X-12938333Y-13122667D01*
X-12938333Y-13122667D02*
X-12928809Y-13141714D01*
X-12928809Y-13141714D02*
X-12928809Y-13246476D01*
X-12833571Y-13246476D02*
X-12833571Y-13113143D01*
X-12833571Y-13132190D02*
X-12824047Y-13122667D01*
X-12824047Y-13122667D02*
X-12805000Y-13113143D01*
X-12805000Y-13113143D02*
X-12776428Y-13113143D01*
X-12776428Y-13113143D02*
X-12757381Y-13122667D01*
X-12757381Y-13122667D02*
X-12747857Y-13141714D01*
X-12747857Y-13141714D02*
X-12747857Y-13246476D01*
X-12747857Y-13141714D02*
X-12738333Y-13122667D01*
X-12738333Y-13122667D02*
X-12719286Y-13113143D01*
X-12719286Y-13113143D02*
X-12690714Y-13113143D01*
X-12690714Y-13113143D02*
X-12671666Y-13122667D01*
X-12671666Y-13122667D02*
X-12662143Y-13141714D01*
X-12662143Y-13141714D02*
X-12662143Y-13246476D01*
X-12304047Y-13036952D02*
X-12475476Y-13294095D01*
X-12079286Y-13046476D02*
X-12060238Y-13046476D01*
X-12060238Y-13046476D02*
X-12041190Y-13056000D01*
X-12041190Y-13056000D02*
X-12031666Y-13065524D01*
X-12031666Y-13065524D02*
X-12022143Y-13084571D01*
X-12022143Y-13084571D02*
X-12012619Y-13122667D01*
X-12012619Y-13122667D02*
X-12012619Y-13170286D01*
X-12012619Y-13170286D02*
X-12022143Y-13208381D01*
X-12022143Y-13208381D02*
X-12031666Y-13227428D01*
X-12031666Y-13227428D02*
X-12041190Y-13236952D01*
X-12041190Y-13236952D02*
X-12060238Y-13246476D01*
X-12060238Y-13246476D02*
X-12079286Y-13246476D01*
X-12079286Y-13246476D02*
X-12098333Y-13236952D01*
X-12098333Y-13236952D02*
X-12107857Y-13227428D01*
X-12107857Y-13227428D02*
X-12117381Y-13208381D01*
X-12117381Y-13208381D02*
X-12126905Y-13170286D01*
X-12126905Y-13170286D02*
X-12126905Y-13122667D01*
X-12126905Y-13122667D02*
X-12117381Y-13084571D01*
X-12117381Y-13084571D02*
X-12107857Y-13065524D01*
X-12107857Y-13065524D02*
X-12098333Y-13056000D01*
X-12098333Y-13056000D02*
X-12079286Y-13046476D01*
X-11926905Y-13227428D02*
X-11917381Y-13236952D01*
X-11917381Y-13236952D02*
X-11926905Y-13246476D01*
X-11926905Y-13246476D02*
X-11936428Y-13236952D01*
X-11936428Y-13236952D02*
X-11926905Y-13227428D01*
X-11926905Y-13227428D02*
X-11926905Y-13246476D01*
X-11793571Y-13046476D02*
X-11774524Y-13046476D01*
X-11774524Y-13046476D02*
X-11755476Y-13056000D01*
X-11755476Y-13056000D02*
X-11745952Y-13065524D01*
X-11745952Y-13065524D02*
X-11736428Y-13084571D01*
X-11736428Y-13084571D02*
X-11726905Y-13122667D01*
X-11726905Y-13122667D02*
X-11726905Y-13170286D01*
X-11726905Y-13170286D02*
X-11736428Y-13208381D01*
X-11736428Y-13208381D02*
X-11745952Y-13227428D01*
X-11745952Y-13227428D02*
X-11755476Y-13236952D01*
X-11755476Y-13236952D02*
X-11774524Y-13246476D01*
X-11774524Y-13246476D02*
X-11793571Y-13246476D01*
X-11793571Y-13246476D02*
X-11812619Y-13236952D01*
X-11812619Y-13236952D02*
X-11822143Y-13227428D01*
X-11822143Y-13227428D02*
X-11831666Y-13208381D01*
X-11831666Y-13208381D02*
X-11841190Y-13170286D01*
X-11841190Y-13170286D02*
X-11841190Y-13122667D01*
X-11841190Y-13122667D02*
X-11831666Y-13084571D01*
X-11831666Y-13084571D02*
X-11822143Y-13065524D01*
X-11822143Y-13065524D02*
X-11812619Y-13056000D01*
X-11812619Y-13056000D02*
X-11793571Y-13046476D01*
X-11650714Y-13065524D02*
X-11641190Y-13056000D01*
X-11641190Y-13056000D02*
X-11622143Y-13046476D01*
X-11622143Y-13046476D02*
X-11574524Y-13046476D01*
X-11574524Y-13046476D02*
X-11555476Y-13056000D01*
X-11555476Y-13056000D02*
X-11545952Y-13065524D01*
X-11545952Y-13065524D02*
X-11536428Y-13084571D01*
X-11536428Y-13084571D02*
X-11536428Y-13103619D01*
X-11536428Y-13103619D02*
X-11545952Y-13132190D01*
X-11545952Y-13132190D02*
X-11660238Y-13246476D01*
X-11660238Y-13246476D02*
X-11536428Y-13246476D01*
X-11469762Y-13046476D02*
X-11345952Y-13046476D01*
X-11345952Y-13046476D02*
X-11412619Y-13122667D01*
X-11412619Y-13122667D02*
X-11384047Y-13122667D01*
X-11384047Y-13122667D02*
X-11365000Y-13132190D01*
X-11365000Y-13132190D02*
X-11355476Y-13141714D01*
X-11355476Y-13141714D02*
X-11345952Y-13160762D01*
X-11345952Y-13160762D02*
X-11345952Y-13208381D01*
X-11345952Y-13208381D02*
X-11355476Y-13227428D01*
X-11355476Y-13227428D02*
X-11365000Y-13236952D01*
X-11365000Y-13236952D02*
X-11384047Y-13246476D01*
X-11384047Y-13246476D02*
X-11441190Y-13246476D01*
X-11441190Y-13246476D02*
X-11460238Y-13236952D01*
X-11460238Y-13236952D02*
X-11469762Y-13227428D01*
X-11174524Y-13046476D02*
X-11212619Y-13046476D01*
X-11212619Y-13046476D02*
X-11231666Y-13056000D01*
X-11231666Y-13056000D02*
X-11241190Y-13065524D01*
X-11241190Y-13065524D02*
X-11260238Y-13094095D01*
X-11260238Y-13094095D02*
X-11269762Y-13132190D01*
X-11269762Y-13132190D02*
X-11269762Y-13208381D01*
X-11269762Y-13208381D02*
X-11260238Y-13227428D01*
X-11260238Y-13227428D02*
X-11250714Y-13236952D01*
X-11250714Y-13236952D02*
X-11231666Y-13246476D01*
X-11231666Y-13246476D02*
X-11193571Y-13246476D01*
X-11193571Y-13246476D02*
X-11174524Y-13236952D01*
X-11174524Y-13236952D02*
X-11165000Y-13227428D01*
X-11165000Y-13227428D02*
X-11155476Y-13208381D01*
X-11155476Y-13208381D02*
X-11155476Y-13160762D01*
X-11155476Y-13160762D02*
X-11165000Y-13141714D01*
X-11165000Y-13141714D02*
X-11174524Y-13132190D01*
X-11174524Y-13132190D02*
X-11193571Y-13122667D01*
X-11193571Y-13122667D02*
X-11231666Y-13122667D01*
X-11231666Y-13122667D02*
X-11250714Y-13132190D01*
X-11250714Y-13132190D02*
X-11260238Y-13141714D01*
X-11260238Y-13141714D02*
X-11269762Y-13160762D01*
X-11079286Y-13046476D02*
X-11079286Y-13084571D01*
X-11003095Y-13046476D02*
X-11003095Y-13084571D01*
X-10740238Y-13322667D02*
X-10749762Y-13313143D01*
X-10749762Y-13313143D02*
X-10768809Y-13284571D01*
X-10768809Y-13284571D02*
X-10778333Y-13265524D01*
X-10778333Y-13265524D02*
X-10787857Y-13236952D01*
X-10787857Y-13236952D02*
X-10797381Y-13189333D01*
X-10797381Y-13189333D02*
X-10797381Y-13151238D01*
X-10797381Y-13151238D02*
X-10787857Y-13103619D01*
X-10787857Y-13103619D02*
X-10778333Y-13075048D01*
X-10778333Y-13075048D02*
X-10768809Y-13056000D01*
X-10768809Y-13056000D02*
X-10749762Y-13027428D01*
X-10749762Y-13027428D02*
X-10740238Y-13017905D01*
X-10625952Y-13046476D02*
X-10606905Y-13046476D01*
X-10606905Y-13046476D02*
X-10587857Y-13056000D01*
X-10587857Y-13056000D02*
X-10578333Y-13065524D01*
X-10578333Y-13065524D02*
X-10568809Y-13084571D01*
X-10568809Y-13084571D02*
X-10559286Y-13122667D01*
X-10559286Y-13122667D02*
X-10559286Y-13170286D01*
X-10559286Y-13170286D02*
X-10568809Y-13208381D01*
X-10568809Y-13208381D02*
X-10578333Y-13227428D01*
X-10578333Y-13227428D02*
X-10587857Y-13236952D01*
X-10587857Y-13236952D02*
X-10606905Y-13246476D01*
X-10606905Y-13246476D02*
X-10625952Y-13246476D01*
X-10625952Y-13246476D02*
X-10645000Y-13236952D01*
X-10645000Y-13236952D02*
X-10654524Y-13227428D01*
X-10654524Y-13227428D02*
X-10664047Y-13208381D01*
X-10664047Y-13208381D02*
X-10673571Y-13170286D01*
X-10673571Y-13170286D02*
X-10673571Y-13122667D01*
X-10673571Y-13122667D02*
X-10664047Y-13084571D01*
X-10664047Y-13084571D02*
X-10654524Y-13065524D01*
X-10654524Y-13065524D02*
X-10645000Y-13056000D01*
X-10645000Y-13056000D02*
X-10625952Y-13046476D01*
X-10353571Y-13246476D02*
X-10353571Y-13046476D01*
X-10267857Y-13246476D02*
X-10267857Y-13141714D01*
X-10267857Y-13141714D02*
X-10277381Y-13122667D01*
X-10277381Y-13122667D02*
X-10296428Y-13113143D01*
X-10296428Y-13113143D02*
X-10325000Y-13113143D01*
X-10325000Y-13113143D02*
X-10344047Y-13122667D01*
X-10344047Y-13122667D02*
X-10353571Y-13132190D01*
X-10144047Y-13246476D02*
X-10163095Y-13236952D01*
X-10163095Y-13236952D02*
X-10172619Y-13227428D01*
X-10172619Y-13227428D02*
X-10182143Y-13208381D01*
X-10182143Y-13208381D02*
X-10182143Y-13151238D01*
X-10182143Y-13151238D02*
X-10172619Y-13132190D01*
X-10172619Y-13132190D02*
X-10163095Y-13122667D01*
X-10163095Y-13122667D02*
X-10144047Y-13113143D01*
X-10144047Y-13113143D02*
X-10115476Y-13113143D01*
X-10115476Y-13113143D02*
X-10096428Y-13122667D01*
X-10096428Y-13122667D02*
X-10086905Y-13132190D01*
X-10086905Y-13132190D02*
X-10077381Y-13151238D01*
X-10077381Y-13151238D02*
X-10077381Y-13208381D01*
X-10077381Y-13208381D02*
X-10086905Y-13227428D01*
X-10086905Y-13227428D02*
X-10096428Y-13236952D01*
X-10096428Y-13236952D02*
X-10115476Y-13246476D01*
X-10115476Y-13246476D02*
X-10144047Y-13246476D01*
X-9963095Y-13246476D02*
X-9982143Y-13236952D01*
X-9982143Y-13236952D02*
X-9991666Y-13217905D01*
X-9991666Y-13217905D02*
X-9991666Y-13046476D01*
X-9810714Y-13236952D02*
X-9829762Y-13246476D01*
X-9829762Y-13246476D02*
X-9867857Y-13246476D01*
X-9867857Y-13246476D02*
X-9886905Y-13236952D01*
X-9886905Y-13236952D02*
X-9896428Y-13217905D01*
X-9896428Y-13217905D02*
X-9896428Y-13141714D01*
X-9896428Y-13141714D02*
X-9886905Y-13122667D01*
X-9886905Y-13122667D02*
X-9867857Y-13113143D01*
X-9867857Y-13113143D02*
X-9829762Y-13113143D01*
X-9829762Y-13113143D02*
X-9810714Y-13122667D01*
X-9810714Y-13122667D02*
X-9801190Y-13141714D01*
X-9801190Y-13141714D02*
X-9801190Y-13160762D01*
X-9801190Y-13160762D02*
X-9896428Y-13179809D01*
X-9725000Y-13236952D02*
X-9705952Y-13246476D01*
X-9705952Y-13246476D02*
X-9667857Y-13246476D01*
X-9667857Y-13246476D02*
X-9648809Y-13236952D01*
X-9648809Y-13236952D02*
X-9639285Y-13217905D01*
X-9639285Y-13217905D02*
X-9639285Y-13208381D01*
X-9639285Y-13208381D02*
X-9648809Y-13189333D01*
X-9648809Y-13189333D02*
X-9667857Y-13179809D01*
X-9667857Y-13179809D02*
X-9696428Y-13179809D01*
X-9696428Y-13179809D02*
X-9715476Y-13170286D01*
X-9715476Y-13170286D02*
X-9725000Y-13151238D01*
X-9725000Y-13151238D02*
X-9725000Y-13141714D01*
X-9725000Y-13141714D02*
X-9715476Y-13122667D01*
X-9715476Y-13122667D02*
X-9696428Y-13113143D01*
X-9696428Y-13113143D02*
X-9667857Y-13113143D01*
X-9667857Y-13113143D02*
X-9648809Y-13122667D01*
X-9433571Y-13170286D02*
X-9281190Y-13170286D01*
X-9357381Y-13246476D02*
X-9357381Y-13094095D01*
X-8980238Y-13113143D02*
X-8980238Y-13246476D01*
X-9027857Y-13036952D02*
X-9075476Y-13179809D01*
X-9075476Y-13179809D02*
X-8951666Y-13179809D01*
X-8765000Y-13236952D02*
X-8745952Y-13246476D01*
X-8745952Y-13246476D02*
X-8707857Y-13246476D01*
X-8707857Y-13246476D02*
X-8688809Y-13236952D01*
X-8688809Y-13236952D02*
X-8679285Y-13217905D01*
X-8679285Y-13217905D02*
X-8679285Y-13208381D01*
X-8679285Y-13208381D02*
X-8688809Y-13189333D01*
X-8688809Y-13189333D02*
X-8707857Y-13179809D01*
X-8707857Y-13179809D02*
X-8736428Y-13179809D01*
X-8736428Y-13179809D02*
X-8755476Y-13170286D01*
X-8755476Y-13170286D02*
X-8765000Y-13151238D01*
X-8765000Y-13151238D02*
X-8765000Y-13141714D01*
X-8765000Y-13141714D02*
X-8755476Y-13122667D01*
X-8755476Y-13122667D02*
X-8736428Y-13113143D01*
X-8736428Y-13113143D02*
X-8707857Y-13113143D01*
X-8707857Y-13113143D02*
X-8688809Y-13122667D01*
X-8565000Y-13246476D02*
X-8584047Y-13236952D01*
X-8584047Y-13236952D02*
X-8593571Y-13217905D01*
X-8593571Y-13217905D02*
X-8593571Y-13046476D01*
X-8460238Y-13246476D02*
X-8479285Y-13236952D01*
X-8479285Y-13236952D02*
X-8488809Y-13227428D01*
X-8488809Y-13227428D02*
X-8498333Y-13208381D01*
X-8498333Y-13208381D02*
X-8498333Y-13151238D01*
X-8498333Y-13151238D02*
X-8488809Y-13132190D01*
X-8488809Y-13132190D02*
X-8479285Y-13122667D01*
X-8479285Y-13122667D02*
X-8460238Y-13113143D01*
X-8460238Y-13113143D02*
X-8431666Y-13113143D01*
X-8431666Y-13113143D02*
X-8412619Y-13122667D01*
X-8412619Y-13122667D02*
X-8403095Y-13132190D01*
X-8403095Y-13132190D02*
X-8393571Y-13151238D01*
X-8393571Y-13151238D02*
X-8393571Y-13208381D01*
X-8393571Y-13208381D02*
X-8403095Y-13227428D01*
X-8403095Y-13227428D02*
X-8412619Y-13236952D01*
X-8412619Y-13236952D02*
X-8431666Y-13246476D01*
X-8431666Y-13246476D02*
X-8460238Y-13246476D01*
X-8336428Y-13113143D02*
X-8260238Y-13113143D01*
X-8307857Y-13046476D02*
X-8307857Y-13217905D01*
X-8307857Y-13217905D02*
X-8298333Y-13236952D01*
X-8298333Y-13236952D02*
X-8279285Y-13246476D01*
X-8279285Y-13246476D02*
X-8260238Y-13246476D01*
X-8203095Y-13236952D02*
X-8184047Y-13246476D01*
X-8184047Y-13246476D02*
X-8145952Y-13246476D01*
X-8145952Y-13246476D02*
X-8126904Y-13236952D01*
X-8126904Y-13236952D02*
X-8117381Y-13217905D01*
X-8117381Y-13217905D02*
X-8117381Y-13208381D01*
X-8117381Y-13208381D02*
X-8126904Y-13189333D01*
X-8126904Y-13189333D02*
X-8145952Y-13179809D01*
X-8145952Y-13179809D02*
X-8174523Y-13179809D01*
X-8174523Y-13179809D02*
X-8193571Y-13170286D01*
X-8193571Y-13170286D02*
X-8203095Y-13151238D01*
X-8203095Y-13151238D02*
X-8203095Y-13141714D01*
X-8203095Y-13141714D02*
X-8193571Y-13122667D01*
X-8193571Y-13122667D02*
X-8174523Y-13113143D01*
X-8174523Y-13113143D02*
X-8145952Y-13113143D01*
X-8145952Y-13113143D02*
X-8126904Y-13122667D01*
X-8050714Y-13322667D02*
X-8041190Y-13313143D01*
X-8041190Y-13313143D02*
X-8022142Y-13284571D01*
X-8022142Y-13284571D02*
X-8012619Y-13265524D01*
X-8012619Y-13265524D02*
X-8003095Y-13236952D01*
X-8003095Y-13236952D02*
X-7993571Y-13189333D01*
X-7993571Y-13189333D02*
X-7993571Y-13151238D01*
X-7993571Y-13151238D02*
X-8003095Y-13103619D01*
X-8003095Y-13103619D02*
X-8012619Y-13075048D01*
X-8012619Y-13075048D02*
X-8022142Y-13056000D01*
X-8022142Y-13056000D02*
X-8041190Y-13027428D01*
X-8041190Y-13027428D02*
X-8050714Y-13017905D01*
M02*
