%TF.GenerationSoftware,KiCad,Pcbnew,(7.0.0)*%
%TF.CreationDate,2023-03-04T17:22:36-05:00*%
%TF.ProjectId,pteropus,70746572-6f70-4757-932e-6b696361645f,rev?*%
%TF.SameCoordinates,Original*%
%TF.FileFunction,Soldermask,Bot*%
%TF.FilePolarity,Negative*%
%FSLAX46Y46*%
G04 Gerber Fmt 4.6, Leading zero omitted, Abs format (unit mm)*
G04 Created by KiCad (PCBNEW (7.0.0)) date 2023-03-04 17:22:36*
%MOMM*%
%LPD*%
G01*
G04 APERTURE LIST*
G04 Aperture macros list*
%AMRoundRect*
0 Rectangle with rounded corners*
0 $1 Rounding radius*
0 $2 $3 $4 $5 $6 $7 $8 $9 X,Y pos of 4 corners*
0 Add a 4 corners polygon primitive as box body*
4,1,4,$2,$3,$4,$5,$6,$7,$8,$9,$2,$3,0*
0 Add four circle primitives for the rounded corners*
1,1,$1+$1,$2,$3*
1,1,$1+$1,$4,$5*
1,1,$1+$1,$6,$7*
1,1,$1+$1,$8,$9*
0 Add four rect primitives between the rounded corners*
20,1,$1+$1,$2,$3,$4,$5,0*
20,1,$1+$1,$4,$5,$6,$7,0*
20,1,$1+$1,$6,$7,$8,$9,0*
20,1,$1+$1,$8,$9,$2,$3,0*%
%AMRotRect*
0 Rectangle, with rotation*
0 The origin of the aperture is its center*
0 $1 length*
0 $2 width*
0 $3 Rotation angle, in degrees counterclockwise*
0 Add horizontal line*
21,1,$1,$2,0,0,$3*%
G04 Aperture macros list end*
%ADD10C,1.701800*%
%ADD11C,3.000000*%
%ADD12C,3.987800*%
%ADD13RotRect,2.550000X2.500000X20.000000*%
%ADD14RotRect,2.550000X2.500000X340.000000*%
%ADD15C,3.200000*%
%ADD16RotRect,2.550000X2.500000X308.410000*%
%ADD17RotRect,2.550000X2.500000X51.590000*%
%ADD18RotRect,2.550000X2.500000X276.810000*%
%ADD19RotRect,2.550000X2.500000X83.190000*%
%ADD20RoundRect,0.112500X0.112500X-0.187500X0.112500X0.187500X-0.112500X0.187500X-0.112500X-0.187500X0*%
%ADD21R,1.400000X1.600000*%
%ADD22RoundRect,0.250000X0.450000X-0.262500X0.450000X0.262500X-0.450000X0.262500X-0.450000X-0.262500X0*%
%ADD23RoundRect,0.250000X0.475000X-0.250000X0.475000X0.250000X-0.475000X0.250000X-0.475000X-0.250000X0*%
%ADD24RoundRect,0.225000X-0.225000X-0.250000X0.225000X-0.250000X0.225000X0.250000X-0.225000X0.250000X0*%
%ADD25RoundRect,0.150000X0.150000X-0.512500X0.150000X0.512500X-0.150000X0.512500X-0.150000X-0.512500X0*%
%ADD26RoundRect,0.250000X-0.250000X-0.475000X0.250000X-0.475000X0.250000X0.475000X-0.250000X0.475000X0*%
%ADD27RoundRect,0.112500X-0.112500X0.187500X-0.112500X-0.187500X0.112500X-0.187500X0.112500X0.187500X0*%
%ADD28C,0.700000*%
%ADD29O,0.900000X1.700000*%
%ADD30O,0.900000X2.400000*%
%ADD31RoundRect,0.225000X0.225000X0.250000X-0.225000X0.250000X-0.225000X-0.250000X0.225000X-0.250000X0*%
%ADD32RoundRect,0.200000X-0.200000X-0.275000X0.200000X-0.275000X0.200000X0.275000X-0.200000X0.275000X0*%
%ADD33RoundRect,0.250000X-0.450000X0.262500X-0.450000X-0.262500X0.450000X-0.262500X0.450000X0.262500X0*%
%ADD34RoundRect,0.250000X0.250000X0.475000X-0.250000X0.475000X-0.250000X-0.475000X0.250000X-0.475000X0*%
%ADD35RoundRect,0.075000X0.075000X-0.662500X0.075000X0.662500X-0.075000X0.662500X-0.075000X-0.662500X0*%
%ADD36RoundRect,0.075000X0.662500X-0.075000X0.662500X0.075000X-0.662500X0.075000X-0.662500X-0.075000X0*%
%ADD37RoundRect,0.225000X-0.250000X0.225000X-0.250000X-0.225000X0.250000X-0.225000X0.250000X0.225000X0*%
%ADD38RoundRect,0.150000X0.587500X0.150000X-0.587500X0.150000X-0.587500X-0.150000X0.587500X-0.150000X0*%
G04 APERTURE END LIST*
D10*
%TO.C,SW19*%
X58445361Y-31167462D03*
D11*
X58770040Y-28346277D03*
D12*
X63219000Y-29430000D03*
D11*
X63868357Y-23787630D03*
D10*
X67992639Y-27692538D03*
D13*
X67392203Y-22505054D03*
X55246192Y-29628852D03*
%TD*%
D10*
%TO.C,SW27*%
X-57804639Y-55398538D03*
D11*
X-55742498Y-53446084D03*
D12*
X-53031000Y-57136000D03*
D11*
X-48906718Y-53231093D03*
D10*
X-48257361Y-58873462D03*
D14*
X-45382870Y-54513667D03*
X-59266344Y-52163507D03*
%TD*%
D15*
%TO.C,H3*%
X105000000Y11000000D03*
%TD*%
D10*
%TO.C,SW5*%
X-76984639Y3301462D03*
D11*
X-74922498Y5253916D03*
D12*
X-72211000Y1564000D03*
D11*
X-68086718Y5468907D03*
D10*
X-67437361Y-173462D03*
D14*
X-64562870Y4186331D03*
X-78446344Y6536491D03*
%TD*%
D10*
%TO.C,SW18*%
X41741361Y-40971462D03*
D11*
X42066040Y-38150277D03*
D12*
X46515000Y-39234000D03*
D11*
X47164357Y-33591630D03*
D10*
X51288639Y-37496538D03*
D13*
X50688203Y-32309054D03*
X38542192Y-39432852D03*
%TD*%
D10*
%TO.C,SW12*%
X108369361Y-1237462D03*
D11*
X108694040Y1583723D03*
D12*
X113143000Y500000D03*
D11*
X113792357Y6142370D03*
D10*
X117916639Y2237462D03*
D13*
X117316203Y7424944D03*
X105170192Y301146D03*
%TD*%
D10*
%TO.C,SW10*%
X67437361Y-173462D03*
D11*
X67762040Y2647723D03*
D12*
X72211000Y1564000D03*
D11*
X72860357Y7206370D03*
D10*
X76984639Y3301462D03*
D13*
X76384203Y8488944D03*
X64238192Y1365146D03*
%TD*%
D15*
%TO.C,H8*%
X-100000000Y-45000000D03*
%TD*%
D10*
%TO.C,SW11*%
X87048361Y1643538D03*
D11*
X87373040Y4464723D03*
D12*
X91822000Y3381000D03*
D11*
X92471357Y9023370D03*
D10*
X96595639Y5118462D03*
D13*
X95995203Y10305944D03*
X83849192Y3182146D03*
%TD*%
D10*
%TO.C,SW16*%
X-67993639Y-27692538D03*
D11*
X-65931498Y-25740084D03*
D12*
X-63220000Y-29430000D03*
D11*
X-59095718Y-25525093D03*
D10*
X-58446361Y-31167462D03*
D14*
X-55571870Y-26807667D03*
X-69455344Y-24457507D03*
%TD*%
D10*
%TO.C,SW4*%
X-96596639Y5118462D03*
D11*
X-94534498Y7070916D03*
D12*
X-91823000Y3381000D03*
D11*
X-87698718Y7285907D03*
D10*
X-87049361Y1643538D03*
D14*
X-84174870Y6003331D03*
X-98058344Y8353491D03*
%TD*%
D10*
%TO.C,SW14*%
X-103111639Y-12782538D03*
D11*
X-101049498Y-10830084D03*
D12*
X-98338000Y-14520000D03*
D11*
X-94213718Y-10615093D03*
D10*
X-93564361Y-16257462D03*
D14*
X-90689870Y-11897667D03*
X-104573344Y-9547507D03*
%TD*%
D10*
%TO.C,SW25*%
X-90015639Y-32500538D03*
D11*
X-87953498Y-30548084D03*
D12*
X-85242000Y-34238000D03*
D11*
X-81117718Y-30333093D03*
D10*
X-80468361Y-35975462D03*
D14*
X-77593870Y-31615667D03*
X-91477344Y-29265507D03*
%TD*%
D10*
%TO.C,SW8*%
X35226361Y-23070462D03*
D11*
X35551040Y-20249277D03*
D12*
X40000000Y-21333000D03*
D11*
X40649357Y-15690630D03*
D10*
X44773639Y-19595538D03*
D13*
X44173203Y-14408054D03*
X32027192Y-21531852D03*
%TD*%
D10*
%TO.C,SW15*%
X-83468639Y-14599538D03*
D11*
X-81406498Y-12647084D03*
D12*
X-78695000Y-16337000D03*
D11*
X-74570718Y-12432093D03*
D10*
X-73921361Y-18074462D03*
D14*
X-71046870Y-13714667D03*
X-84930344Y-11364507D03*
%TD*%
D10*
%TO.C,SW28*%
X48257361Y-58873462D03*
D11*
X48582040Y-56052277D03*
D12*
X53031000Y-57136000D03*
D11*
X53680357Y-51493630D03*
D10*
X57804639Y-55398538D03*
D13*
X57204203Y-50211054D03*
X45058192Y-57334852D03*
%TD*%
D10*
%TO.C,SW3*%
X-117917639Y2237462D03*
D11*
X-115855498Y4189916D03*
D12*
X-113144000Y500000D03*
D11*
X-109019718Y4404907D03*
D10*
X-108370361Y-1237462D03*
D14*
X-105495870Y3122331D03*
X-119379344Y5472491D03*
%TD*%
D15*
%TO.C,H6*%
X-40000000Y-65000000D03*
%TD*%
D10*
%TO.C,SW20*%
X73952361Y-18074462D03*
D11*
X74277040Y-15253277D03*
D12*
X78726000Y-16337000D03*
D11*
X79375357Y-10694630D03*
D10*
X83499639Y-14599538D03*
D13*
X82899203Y-9412054D03*
X70753192Y-16535852D03*
%TD*%
D15*
%TO.C,H1*%
X-105000000Y11000000D03*
%TD*%
D10*
%TO.C,SW34*%
X-59860126Y-76474388D03*
D11*
X-57080788Y-75891478D03*
D12*
X-56704000Y-80455000D03*
D11*
X-51145325Y-79289180D03*
D10*
X-53547874Y-84435612D03*
D16*
X-48815507Y-82227623D03*
X-59410604Y-72953033D03*
%TD*%
D10*
%TO.C,SW38*%
X71801361Y-67862462D03*
D11*
X72126040Y-65041277D03*
D12*
X76575000Y-66125000D03*
D11*
X77224357Y-60482630D03*
D10*
X81348639Y-64387538D03*
D13*
X80748203Y-59200054D03*
X68602192Y-66323852D03*
%TD*%
D10*
%TO.C,SW26*%
X-74508639Y-45593538D03*
D11*
X-72446498Y-43641084D03*
D12*
X-69735000Y-47331000D03*
D11*
X-65610718Y-43426093D03*
D10*
X-64961361Y-49068462D03*
D14*
X-62086870Y-44708667D03*
X-75970344Y-42358507D03*
%TD*%
D10*
%TO.C,SW24*%
X-109627639Y-30683538D03*
D11*
X-107565498Y-28731084D03*
D12*
X-104854000Y-32421000D03*
D11*
X-100729718Y-28516093D03*
D10*
X-100080361Y-34158462D03*
D14*
X-97205870Y-29798667D03*
X-111089344Y-27448507D03*
%TD*%
D15*
%TO.C,H7*%
X-40000000Y-5000000D03*
%TD*%
D10*
%TO.C,SW22*%
X114885361Y-19138462D03*
D11*
X115210040Y-16317277D03*
D12*
X119659000Y-17401000D03*
D11*
X120308357Y-11758630D03*
D10*
X124432639Y-15663538D03*
D13*
X123832203Y-10476054D03*
X111686192Y-17599852D03*
%TD*%
D10*
%TO.C,SW33*%
X-81349639Y-64387538D03*
D11*
X-79287498Y-62435084D03*
D12*
X-76576000Y-66125000D03*
D11*
X-72451718Y-62220093D03*
D10*
X-71802361Y-67862462D03*
D14*
X-68927870Y-63502667D03*
X-82811344Y-61152507D03*
%TD*%
D10*
%TO.C,SW32*%
X121400361Y-37039462D03*
D11*
X121725040Y-34218277D03*
D12*
X126174000Y-35302000D03*
D11*
X126823357Y-29659630D03*
D10*
X130947639Y-33564538D03*
D13*
X130347203Y-28377054D03*
X118201192Y-35500852D03*
%TD*%
D10*
%TO.C,SW37*%
X53546874Y-84435612D03*
D11*
X52345600Y-81862396D03*
D12*
X56703000Y-80455000D03*
D11*
X54300451Y-75308568D03*
D10*
X59859126Y-76474388D03*
D17*
X56630267Y-72370124D03*
X50015782Y-84800839D03*
%TD*%
D10*
%TO.C,SW9*%
X51930361Y-13266462D03*
D11*
X52255040Y-10445277D03*
D12*
X56704000Y-11529000D03*
D11*
X57353357Y-5886630D03*
D10*
X61477639Y-9791538D03*
D13*
X60877203Y-4604054D03*
X48731192Y-11727852D03*
%TD*%
D10*
%TO.C,SW6*%
X-61477639Y-9791538D03*
D11*
X-59415498Y-7839084D03*
D12*
X-56704000Y-11529000D03*
D11*
X-52579718Y-7624093D03*
D10*
X-51930361Y-13266462D03*
D14*
X-49055870Y-8906667D03*
X-62939344Y-6556507D03*
%TD*%
D10*
%TO.C,SW7*%
X-44773639Y-19595538D03*
D11*
X-42711498Y-17643084D03*
D12*
X-40000000Y-21333000D03*
D11*
X-35875718Y-17428093D03*
D10*
X-35226361Y-23070462D03*
D14*
X-32351870Y-18710667D03*
X-46235344Y-16360507D03*
%TD*%
D15*
%TO.C,H5*%
X100000000Y-45000000D03*
%TD*%
%TO.C,H4*%
X40000000Y-65000000D03*
%TD*%
D10*
%TO.C,SW31*%
X100079361Y-34158462D03*
D11*
X100404040Y-31337277D03*
D12*
X104853000Y-32421000D03*
D11*
X105502357Y-26778630D03*
D10*
X109626639Y-30683538D03*
D13*
X109026203Y-25496054D03*
X96880192Y-32619852D03*
%TD*%
D10*
%TO.C,SW13*%
X-124433639Y-15663538D03*
D11*
X-122371498Y-13711084D03*
D12*
X-119660000Y-17401000D03*
D11*
X-115535718Y-13496093D03*
D10*
X-114886361Y-19138462D03*
D14*
X-112011870Y-14778667D03*
X-125895344Y-12428507D03*
%TD*%
D10*
%TO.C,SW30*%
X80468361Y-35975462D03*
D11*
X80793040Y-33154277D03*
D12*
X85242000Y-34238000D03*
D11*
X85891357Y-28595630D03*
D10*
X90015639Y-32500538D03*
D13*
X89415203Y-27313054D03*
X77269192Y-34436852D03*
%TD*%
D10*
%TO.C,SW21*%
X93563361Y-16257462D03*
D11*
X93888040Y-13436277D03*
D12*
X98337000Y-14520000D03*
D11*
X98986357Y-8877630D03*
D10*
X103110639Y-12782538D03*
D13*
X102510203Y-7595054D03*
X90364192Y-14718852D03*
%TD*%
D10*
%TO.C,SW29*%
X64961361Y-49068462D03*
D11*
X65286040Y-46247277D03*
D12*
X69735000Y-47331000D03*
D11*
X70384357Y-41688630D03*
D10*
X74508639Y-45593538D03*
D13*
X73908203Y-40406054D03*
X61762192Y-47529852D03*
%TD*%
D15*
%TO.C,H2*%
X40000000Y-5000000D03*
%TD*%
D10*
%TO.C,SW35*%
X-47887373Y-98027840D03*
D11*
X-45214700Y-98987694D03*
D12*
X-47285000Y-103072000D03*
D11*
X-41939654Y-104991707D03*
D10*
X-46682627Y-108116160D03*
D18*
X-41494988Y-108715249D03*
X-45659363Y-95264150D03*
%TD*%
D10*
%TO.C,SW17*%
X-51289639Y-37496538D03*
D11*
X-49227498Y-35544084D03*
D12*
X-46516000Y-39234000D03*
D11*
X-42391718Y-35329093D03*
D10*
X-41742361Y-40971462D03*
D14*
X-38867870Y-36611667D03*
X-52751344Y-34261507D03*
%TD*%
D15*
%TO.C,H10*%
X54000000Y-115000000D03*
%TD*%
D10*
%TO.C,SW36*%
X46681627Y-108116160D03*
D11*
X44310141Y-106553934D03*
D12*
X47284000Y-103072000D03*
D11*
X42541027Y-99947548D03*
D10*
X47886373Y-98027840D03*
D19*
X42985690Y-96224003D03*
X43865475Y-110277476D03*
%TD*%
D10*
%TO.C,SW23*%
X-130948639Y-33564538D03*
D11*
X-128886498Y-31612084D03*
D12*
X-126175000Y-35302000D03*
D11*
X-122050718Y-31397093D03*
D10*
X-121401361Y-37039462D03*
D14*
X-118526870Y-32679667D03*
X-132410344Y-30329507D03*
%TD*%
D15*
%TO.C,H9*%
X-54000000Y-115000000D03*
%TD*%
D20*
%TO.C,D25*%
X-59800000Y-59900000D03*
X-59800000Y-57800000D03*
%TD*%
%TO.C,D6*%
X31325000Y-27800000D03*
X31325000Y-25700000D03*
%TD*%
%TO.C,D29*%
X99825000Y-40362500D03*
X99825000Y-38262500D03*
%TD*%
%TO.C,D7*%
X49900000Y-17300000D03*
X49900000Y-15200000D03*
%TD*%
%TO.C,D9*%
X85325000Y-3362500D03*
X85325000Y-1262500D03*
%TD*%
%TO.C,D21*%
X-133221250Y-38762500D03*
X-133221250Y-36662500D03*
%TD*%
D21*
%TO.C,SW2*%
X-7199999Y-23249999D03*
X-7199999Y-31249999D03*
X-2699999Y-23249999D03*
X-2699999Y-31249999D03*
%TD*%
D20*
%TO.C,D10*%
X107825000Y-5362500D03*
X107825000Y-3262500D03*
%TD*%
D22*
%TO.C,R1*%
X5000000Y-19262500D03*
X5000000Y-17437500D03*
%TD*%
D23*
%TO.C,C3*%
X-400000Y-24000000D03*
X-400000Y-22100000D03*
%TD*%
D24*
%TO.C,C4*%
X1525000Y-8150000D03*
X3075000Y-8150000D03*
%TD*%
D20*
%TO.C,D27*%
X62325000Y-54300000D03*
X62325000Y-52200000D03*
%TD*%
D25*
%TO.C,U2*%
X-372548Y-7724244D03*
X-1322548Y-7724244D03*
X-2272548Y-7724244D03*
X-2272548Y-5449244D03*
X-1322548Y-5449244D03*
X-372548Y-5449244D03*
%TD*%
D20*
%TO.C,D30*%
X118825000Y-40362500D03*
X118825000Y-38262500D03*
%TD*%
D21*
%TO.C,SW1*%
X7199999Y-31349999D03*
X7199999Y-23349999D03*
X2699999Y-31349999D03*
X2699999Y-23349999D03*
%TD*%
D26*
%TO.C,C1*%
X6027452Y-4250000D03*
X7927452Y-4250000D03*
%TD*%
D20*
%TO.C,D11*%
X-127175000Y-20300000D03*
X-127175000Y-18200000D03*
%TD*%
%TO.C,D28*%
X79825000Y-40362500D03*
X79825000Y-38262500D03*
%TD*%
%TO.C,D17*%
X55825000Y-35862500D03*
X55825000Y-33762500D03*
%TD*%
D27*
%TO.C,D26*%
X41000000Y-54200000D03*
X41000000Y-56300000D03*
%TD*%
D20*
%TO.C,D5*%
X-48000000Y-21370000D03*
X-48000000Y-19270000D03*
%TD*%
%TO.C,D31*%
X-83675000Y-68800000D03*
X-83675000Y-66700000D03*
%TD*%
D28*
%TO.C,J1*%
X-3672524Y-2076744D03*
X-2822524Y-2076744D03*
X-1972524Y-2076744D03*
X-1122524Y-2076744D03*
X-272524Y-2076744D03*
X577476Y-2076744D03*
X1427476Y-2076744D03*
X2277476Y-2076744D03*
X2277476Y-726744D03*
X1427476Y-726744D03*
X577476Y-726744D03*
X-272524Y-726744D03*
X-1122524Y-726744D03*
X-1972524Y-726744D03*
X-2822524Y-726744D03*
X-3672524Y-726744D03*
D29*
X-5022523Y2283255D03*
D30*
X-5022523Y-1096743D03*
D29*
X3627475Y2283255D03*
D30*
X3627475Y-1096743D03*
%TD*%
D20*
%TO.C,D35*%
X46500000Y-89200000D03*
X46500000Y-87100000D03*
%TD*%
D31*
%TO.C,C6*%
X-7125000Y-11250000D03*
X-8675000Y-11250000D03*
%TD*%
D20*
%TO.C,D15*%
X-53200000Y-42800000D03*
X-53200000Y-40700000D03*
%TD*%
%TO.C,D4*%
X-67000000Y-7800000D03*
X-67000000Y-5700000D03*
%TD*%
%TO.C,D3*%
X-78500000Y-2900000D03*
X-78500000Y-800000D03*
%TD*%
%TO.C,D1*%
X-118900000Y-2900000D03*
X-118900000Y-800000D03*
%TD*%
%TO.C,D36*%
X68325000Y-71800000D03*
X68325000Y-69700000D03*
%TD*%
%TO.C,D20*%
X113325000Y-22862500D03*
X113325000Y-20762500D03*
%TD*%
%TO.C,D2*%
X-97900000Y-2900000D03*
X-97900000Y-800000D03*
%TD*%
%TO.C,D12*%
X-106675000Y-20300000D03*
X-106675000Y-18200000D03*
%TD*%
D32*
%TO.C,FB1*%
X1437500Y-6386744D03*
X3087500Y-6386744D03*
%TD*%
D20*
%TO.C,D16*%
X38325000Y-45800000D03*
X38325000Y-43700000D03*
%TD*%
%TO.C,D8*%
X65325000Y-4800000D03*
X65325000Y-2700000D03*
%TD*%
D33*
%TO.C,R2*%
X-4500000Y-4074244D03*
X-4500000Y-5899244D03*
%TD*%
D20*
%TO.C,D14*%
X-71100000Y-31500000D03*
X-71100000Y-29400000D03*
%TD*%
D34*
%TO.C,C2*%
X7750000Y-10350000D03*
X5850000Y-10350000D03*
%TD*%
D27*
%TO.C,D34*%
X37325000Y-103262500D03*
X37325000Y-105362500D03*
%TD*%
D35*
%TO.C,U3*%
X427452Y-19749244D03*
X-72548Y-19749244D03*
X-572548Y-19749244D03*
X-1072548Y-19749244D03*
X-1572548Y-19749244D03*
X-2072548Y-19749244D03*
X-2572548Y-19749244D03*
X-3072548Y-19749244D03*
X-3572548Y-19749244D03*
X-4072548Y-19749244D03*
X-4572548Y-19749244D03*
X-5072548Y-19749244D03*
D36*
X-6485048Y-18336744D03*
X-6485048Y-17836744D03*
X-6485048Y-17336744D03*
X-6485048Y-16836744D03*
X-6485048Y-16336744D03*
X-6485048Y-15836744D03*
X-6485048Y-15336744D03*
X-6485048Y-14836744D03*
X-6485048Y-14336744D03*
X-6485048Y-13836744D03*
X-6485048Y-13336744D03*
X-6485048Y-12836744D03*
D35*
X-5072548Y-11424244D03*
X-4572548Y-11424244D03*
X-4072548Y-11424244D03*
X-3572548Y-11424244D03*
X-3072548Y-11424244D03*
X-2572548Y-11424244D03*
X-2072548Y-11424244D03*
X-1572548Y-11424244D03*
X-1072548Y-11424244D03*
X-572548Y-11424244D03*
X-72548Y-11424244D03*
X427452Y-11424244D03*
D36*
X1839952Y-12836744D03*
X1839952Y-13336744D03*
X1839952Y-13836744D03*
X1839952Y-14336744D03*
X1839952Y-14836744D03*
X1839952Y-15336744D03*
X1839952Y-15836744D03*
X1839952Y-16336744D03*
X1839952Y-16836744D03*
X1839952Y-17336744D03*
X1839952Y-17836744D03*
X1839952Y-18336744D03*
%TD*%
D37*
%TO.C,C5*%
X2400000Y-19675000D03*
X2400000Y-21225000D03*
%TD*%
D20*
%TO.C,D32*%
X-64175000Y-74300000D03*
X-64175000Y-72200000D03*
%TD*%
D37*
%TO.C,C7*%
X-7000000Y-19675000D03*
X-7000000Y-21225000D03*
%TD*%
D27*
%TO.C,D33*%
X-42675000Y-87200000D03*
X-42675000Y-89300000D03*
%TD*%
D33*
%TO.C,R3*%
X-7700000Y562500D03*
X-7700000Y-1262500D03*
%TD*%
D20*
%TO.C,D23*%
X-91221250Y-38762500D03*
X-91221250Y-36662500D03*
%TD*%
%TO.C,D13*%
X-84900000Y-20300000D03*
X-84900000Y-18200000D03*
%TD*%
D38*
%TO.C,U1*%
X7414952Y-6536744D03*
X7414952Y-8436744D03*
X5539952Y-7486744D03*
%TD*%
D20*
%TO.C,D19*%
X91325000Y-22862500D03*
X91325000Y-20762500D03*
%TD*%
%TO.C,D18*%
X72325000Y-22862500D03*
X72325000Y-20762500D03*
%TD*%
%TO.C,D22*%
X-113221250Y-38762500D03*
X-113221250Y-36662500D03*
%TD*%
%TO.C,D24*%
X-77100000Y-49900000D03*
X-77100000Y-47800000D03*
%TD*%
M02*
