%TF.GenerationSoftware,KiCad,Pcbnew,(7.0.0)*%
%TF.CreationDate,2023-03-24T16:17:47-04:00*%
%TF.ProjectId,pteropus,70746572-6f70-4757-932e-6b696361645f,rev?*%
%TF.SameCoordinates,Original*%
%TF.FileFunction,Legend,Bot*%
%TF.FilePolarity,Positive*%
%FSLAX46Y46*%
G04 Gerber Fmt 4.6, Leading zero omitted, Abs format (unit mm)*
G04 Created by KiCad (PCBNEW (7.0.0)) date 2023-03-24 16:17:47*
%MOMM*%
%LPD*%
G01*
G04 APERTURE LIST*
%ADD10C,0.300000*%
%ADD11C,0.150000*%
%ADD12C,0.120000*%
G04 APERTURE END LIST*
D10*
X-2914285Y-35223571D02*
X-2414285Y-34509285D01*
X-2057142Y-35223571D02*
X-2057142Y-33723571D01*
X-2057142Y-33723571D02*
X-2628571Y-33723571D01*
X-2628571Y-33723571D02*
X-2771428Y-33795000D01*
X-2771428Y-33795000D02*
X-2842857Y-33866428D01*
X-2842857Y-33866428D02*
X-2914285Y-34009285D01*
X-2914285Y-34009285D02*
X-2914285Y-34223571D01*
X-2914285Y-34223571D02*
X-2842857Y-34366428D01*
X-2842857Y-34366428D02*
X-2771428Y-34437857D01*
X-2771428Y-34437857D02*
X-2628571Y-34509285D01*
X-2628571Y-34509285D02*
X-2057142Y-34509285D01*
X-3557142Y-34437857D02*
X-4057142Y-34437857D01*
X-4271428Y-35223571D02*
X-3557142Y-35223571D01*
X-3557142Y-35223571D02*
X-3557142Y-33723571D01*
X-3557142Y-33723571D02*
X-4271428Y-33723571D01*
X-4842857Y-35152142D02*
X-5057143Y-35223571D01*
X-5057143Y-35223571D02*
X-5414285Y-35223571D01*
X-5414285Y-35223571D02*
X-5557143Y-35152142D01*
X-5557143Y-35152142D02*
X-5628571Y-35080714D01*
X-5628571Y-35080714D02*
X-5700000Y-34937857D01*
X-5700000Y-34937857D02*
X-5700000Y-34795000D01*
X-5700000Y-34795000D02*
X-5628571Y-34652142D01*
X-5628571Y-34652142D02*
X-5557143Y-34580714D01*
X-5557143Y-34580714D02*
X-5414285Y-34509285D01*
X-5414285Y-34509285D02*
X-5128571Y-34437857D01*
X-5128571Y-34437857D02*
X-4985714Y-34366428D01*
X-4985714Y-34366428D02*
X-4914285Y-34295000D01*
X-4914285Y-34295000D02*
X-4842857Y-34152142D01*
X-4842857Y-34152142D02*
X-4842857Y-34009285D01*
X-4842857Y-34009285D02*
X-4914285Y-33866428D01*
X-4914285Y-33866428D02*
X-4985714Y-33795000D01*
X-4985714Y-33795000D02*
X-5128571Y-33723571D01*
X-5128571Y-33723571D02*
X-5485714Y-33723571D01*
X-5485714Y-33723571D02*
X-5700000Y-33795000D01*
X-6342856Y-34437857D02*
X-6842856Y-34437857D01*
X-7057142Y-35223571D02*
X-6342856Y-35223571D01*
X-6342856Y-35223571D02*
X-6342856Y-33723571D01*
X-6342856Y-33723571D02*
X-7057142Y-33723571D01*
X-7485714Y-33723571D02*
X-8342857Y-33723571D01*
X-7914285Y-35223571D02*
X-7914285Y-33723571D01*
X6742857Y-34437857D02*
X6528571Y-34509285D01*
X6528571Y-34509285D02*
X6457142Y-34580714D01*
X6457142Y-34580714D02*
X6385714Y-34723571D01*
X6385714Y-34723571D02*
X6385714Y-34937857D01*
X6385714Y-34937857D02*
X6457142Y-35080714D01*
X6457142Y-35080714D02*
X6528571Y-35152142D01*
X6528571Y-35152142D02*
X6671428Y-35223571D01*
X6671428Y-35223571D02*
X7242857Y-35223571D01*
X7242857Y-35223571D02*
X7242857Y-33723571D01*
X7242857Y-33723571D02*
X6742857Y-33723571D01*
X6742857Y-33723571D02*
X6600000Y-33795000D01*
X6600000Y-33795000D02*
X6528571Y-33866428D01*
X6528571Y-33866428D02*
X6457142Y-34009285D01*
X6457142Y-34009285D02*
X6457142Y-34152142D01*
X6457142Y-34152142D02*
X6528571Y-34295000D01*
X6528571Y-34295000D02*
X6600000Y-34366428D01*
X6600000Y-34366428D02*
X6742857Y-34437857D01*
X6742857Y-34437857D02*
X7242857Y-34437857D01*
X5457142Y-33723571D02*
X5171428Y-33723571D01*
X5171428Y-33723571D02*
X5028571Y-33795000D01*
X5028571Y-33795000D02*
X4885714Y-33937857D01*
X4885714Y-33937857D02*
X4814285Y-34223571D01*
X4814285Y-34223571D02*
X4814285Y-34723571D01*
X4814285Y-34723571D02*
X4885714Y-35009285D01*
X4885714Y-35009285D02*
X5028571Y-35152142D01*
X5028571Y-35152142D02*
X5171428Y-35223571D01*
X5171428Y-35223571D02*
X5457142Y-35223571D01*
X5457142Y-35223571D02*
X5600000Y-35152142D01*
X5600000Y-35152142D02*
X5742857Y-35009285D01*
X5742857Y-35009285D02*
X5814285Y-34723571D01*
X5814285Y-34723571D02*
X5814285Y-34223571D01*
X5814285Y-34223571D02*
X5742857Y-33937857D01*
X5742857Y-33937857D02*
X5600000Y-33795000D01*
X5600000Y-33795000D02*
X5457142Y-33723571D01*
X3885713Y-33723571D02*
X3599999Y-33723571D01*
X3599999Y-33723571D02*
X3457142Y-33795000D01*
X3457142Y-33795000D02*
X3314285Y-33937857D01*
X3314285Y-33937857D02*
X3242856Y-34223571D01*
X3242856Y-34223571D02*
X3242856Y-34723571D01*
X3242856Y-34723571D02*
X3314285Y-35009285D01*
X3314285Y-35009285D02*
X3457142Y-35152142D01*
X3457142Y-35152142D02*
X3599999Y-35223571D01*
X3599999Y-35223571D02*
X3885713Y-35223571D01*
X3885713Y-35223571D02*
X4028571Y-35152142D01*
X4028571Y-35152142D02*
X4171428Y-35009285D01*
X4171428Y-35009285D02*
X4242856Y-34723571D01*
X4242856Y-34723571D02*
X4242856Y-34223571D01*
X4242856Y-34223571D02*
X4171428Y-33937857D01*
X4171428Y-33937857D02*
X4028571Y-33795000D01*
X4028571Y-33795000D02*
X3885713Y-33723571D01*
X2814284Y-33723571D02*
X1957142Y-33723571D01*
X2385713Y-35223571D02*
X2385713Y-33723571D01*
D11*
%TO.C,SW19*%
X62205385Y-21354421D02*
X62087430Y-21448028D01*
X62087430Y-21448028D02*
X61863693Y-21529461D01*
X61863693Y-21529461D02*
X61757912Y-21517288D01*
X61757912Y-21517288D02*
X61696878Y-21488827D01*
X61696878Y-21488827D02*
X61619557Y-21415619D01*
X61619557Y-21415619D02*
X61586984Y-21326125D01*
X61586984Y-21326125D02*
X61599158Y-21220343D01*
X61599158Y-21220343D02*
X61627619Y-21159309D01*
X61627619Y-21159309D02*
X61700826Y-21081989D01*
X61700826Y-21081989D02*
X61863529Y-20972095D01*
X61863529Y-20972095D02*
X61936737Y-20894774D01*
X61936737Y-20894774D02*
X61965197Y-20833740D01*
X61965197Y-20833740D02*
X61977371Y-20727959D01*
X61977371Y-20727959D02*
X61944798Y-20638465D01*
X61944798Y-20638465D02*
X61867477Y-20565257D01*
X61867477Y-20565257D02*
X61806443Y-20536796D01*
X61806443Y-20536796D02*
X61700662Y-20524622D01*
X61700662Y-20524622D02*
X61476926Y-20606056D01*
X61476926Y-20606056D02*
X61358971Y-20699663D01*
X61029453Y-20768922D02*
X61147737Y-21790048D01*
X61147737Y-21790048D02*
X60724448Y-21183986D01*
X60724448Y-21183986D02*
X60789759Y-21920342D01*
X60789759Y-21920342D02*
X60224002Y-21062082D01*
X59715824Y-22311222D02*
X60252792Y-22115782D01*
X59984308Y-22213502D02*
X59642288Y-21273809D01*
X59642288Y-21273809D02*
X59780642Y-21375478D01*
X59780642Y-21375478D02*
X59902710Y-21432399D01*
X59902710Y-21432399D02*
X60008492Y-21444573D01*
X59268352Y-22474089D02*
X59089363Y-22539235D01*
X59089363Y-22539235D02*
X58983581Y-22527061D01*
X58983581Y-22527061D02*
X58922548Y-22498601D01*
X58922548Y-22498601D02*
X58784193Y-22396932D01*
X58784193Y-22396932D02*
X58674299Y-22234230D01*
X58674299Y-22234230D02*
X58544006Y-21876252D01*
X58544006Y-21876252D02*
X58556180Y-21770470D01*
X58556180Y-21770470D02*
X58584640Y-21709437D01*
X58584640Y-21709437D02*
X58657848Y-21632116D01*
X58657848Y-21632116D02*
X58836837Y-21566969D01*
X58836837Y-21566969D02*
X58942618Y-21579143D01*
X58942618Y-21579143D02*
X59003652Y-21607604D01*
X59003652Y-21607604D02*
X59080973Y-21680812D01*
X59080973Y-21680812D02*
X59162406Y-21904548D01*
X59162406Y-21904548D02*
X59150232Y-22010329D01*
X59150232Y-22010329D02*
X59121772Y-22071363D01*
X59121772Y-22071363D02*
X59048564Y-22148684D01*
X59048564Y-22148684D02*
X58869575Y-22213830D01*
X58869575Y-22213830D02*
X58763794Y-22201656D01*
X58763794Y-22201656D02*
X58702760Y-22173196D01*
X58702760Y-22173196D02*
X58625439Y-22099988D01*
%TO.C,SW27*%
X-48616592Y-50298208D02*
X-48767121Y-50294095D01*
X-48767121Y-50294095D02*
X-48990857Y-50212662D01*
X-48990857Y-50212662D02*
X-49064065Y-50135341D01*
X-49064065Y-50135341D02*
X-49092526Y-50074307D01*
X-49092526Y-50074307D02*
X-49104700Y-49968526D01*
X-49104700Y-49968526D02*
X-49072126Y-49879032D01*
X-49072126Y-49879032D02*
X-48994806Y-49805824D01*
X-48994806Y-49805824D02*
X-48933772Y-49777363D01*
X-48933772Y-49777363D02*
X-48827990Y-49765189D01*
X-48827990Y-49765189D02*
X-48632715Y-49785589D01*
X-48632715Y-49785589D02*
X-48526933Y-49773415D01*
X-48526933Y-49773415D02*
X-48465900Y-49744954D01*
X-48465900Y-49744954D02*
X-48388579Y-49671746D01*
X-48388579Y-49671746D02*
X-48356006Y-49582252D01*
X-48356006Y-49582252D02*
X-48368179Y-49476471D01*
X-48368179Y-49476471D02*
X-48396640Y-49415437D01*
X-48396640Y-49415437D02*
X-48469848Y-49338116D01*
X-48469848Y-49338116D02*
X-48693584Y-49256683D01*
X-48693584Y-49256683D02*
X-48844113Y-49252570D01*
X-49141057Y-49093816D02*
X-49706813Y-49952075D01*
X-49706813Y-49952075D02*
X-49641502Y-49215719D01*
X-49641502Y-49215719D02*
X-50064792Y-49821782D01*
X-50064792Y-49821782D02*
X-49946508Y-48800656D01*
X-50292312Y-48776144D02*
X-50320773Y-48715110D01*
X-50320773Y-48715110D02*
X-50393980Y-48637789D01*
X-50393980Y-48637789D02*
X-50617717Y-48556356D01*
X-50617717Y-48556356D02*
X-50723498Y-48568530D01*
X-50723498Y-48568530D02*
X-50784532Y-48596990D01*
X-50784532Y-48596990D02*
X-50861852Y-48670198D01*
X-50861852Y-48670198D02*
X-50894426Y-48759693D01*
X-50894426Y-48759693D02*
X-50898539Y-48910221D01*
X-50898539Y-48910221D02*
X-50557011Y-49642628D01*
X-50557011Y-49642628D02*
X-51138726Y-49430902D01*
X-51109937Y-48377202D02*
X-51736398Y-48149189D01*
X-51736398Y-48149189D02*
X-51675693Y-49235461D01*
%TO.C,SW5*%
X-68244066Y8564658D02*
X-68394594Y8568771D01*
X-68394594Y8568771D02*
X-68618330Y8650204D01*
X-68618330Y8650204D02*
X-68691538Y8727525D01*
X-68691538Y8727525D02*
X-68719999Y8788559D01*
X-68719999Y8788559D02*
X-68732173Y8894340D01*
X-68732173Y8894340D02*
X-68699599Y8983834D01*
X-68699599Y8983834D02*
X-68622279Y9057042D01*
X-68622279Y9057042D02*
X-68561245Y9085503D01*
X-68561245Y9085503D02*
X-68455464Y9097677D01*
X-68455464Y9097677D02*
X-68260188Y9077277D01*
X-68260188Y9077277D02*
X-68154407Y9089451D01*
X-68154407Y9089451D02*
X-68093373Y9117912D01*
X-68093373Y9117912D02*
X-68016052Y9191120D01*
X-68016052Y9191120D02*
X-67983479Y9280614D01*
X-67983479Y9280614D02*
X-67995653Y9386395D01*
X-67995653Y9386395D02*
X-68024113Y9447429D01*
X-68024113Y9447429D02*
X-68097321Y9524750D01*
X-68097321Y9524750D02*
X-68321057Y9606183D01*
X-68321057Y9606183D02*
X-68471586Y9610296D01*
X-68768530Y9769050D02*
X-69334287Y8910791D01*
X-69334287Y8910791D02*
X-69268976Y9647147D01*
X-69268976Y9647147D02*
X-69692265Y9041084D01*
X-69692265Y9041084D02*
X-69573981Y10062210D01*
X-70379432Y10355370D02*
X-69931959Y10192504D01*
X-69931959Y10192504D02*
X-70050078Y9728744D01*
X-70050078Y9728744D02*
X-70078539Y9789778D01*
X-70078539Y9789778D02*
X-70151747Y9867099D01*
X-70151747Y9867099D02*
X-70375483Y9948532D01*
X-70375483Y9948532D02*
X-70481264Y9936358D01*
X-70481264Y9936358D02*
X-70542298Y9907898D01*
X-70542298Y9907898D02*
X-70619619Y9834690D01*
X-70619619Y9834690D02*
X-70701052Y9610953D01*
X-70701052Y9610953D02*
X-70688878Y9505172D01*
X-70688878Y9505172D02*
X-70660418Y9444138D01*
X-70660418Y9444138D02*
X-70587210Y9366818D01*
X-70587210Y9366818D02*
X-70363474Y9285384D01*
X-70363474Y9285384D02*
X-70257692Y9297558D01*
X-70257692Y9297558D02*
X-70196659Y9326019D01*
%TO.C,SW18*%
X45501385Y-31158421D02*
X45383430Y-31252028D01*
X45383430Y-31252028D02*
X45159693Y-31333461D01*
X45159693Y-31333461D02*
X45053912Y-31321288D01*
X45053912Y-31321288D02*
X44992878Y-31292827D01*
X44992878Y-31292827D02*
X44915557Y-31219619D01*
X44915557Y-31219619D02*
X44882984Y-31130125D01*
X44882984Y-31130125D02*
X44895158Y-31024343D01*
X44895158Y-31024343D02*
X44923619Y-30963309D01*
X44923619Y-30963309D02*
X44996826Y-30885989D01*
X44996826Y-30885989D02*
X45159529Y-30776095D01*
X45159529Y-30776095D02*
X45232737Y-30698774D01*
X45232737Y-30698774D02*
X45261197Y-30637740D01*
X45261197Y-30637740D02*
X45273371Y-30531959D01*
X45273371Y-30531959D02*
X45240798Y-30442465D01*
X45240798Y-30442465D02*
X45163477Y-30369257D01*
X45163477Y-30369257D02*
X45102443Y-30340796D01*
X45102443Y-30340796D02*
X44996662Y-30328622D01*
X44996662Y-30328622D02*
X44772926Y-30410056D01*
X44772926Y-30410056D02*
X44654971Y-30503663D01*
X44325453Y-30572922D02*
X44443737Y-31594048D01*
X44443737Y-31594048D02*
X44020448Y-30987986D01*
X44020448Y-30987986D02*
X44085759Y-31724342D01*
X44085759Y-31724342D02*
X43520002Y-30866082D01*
X43011824Y-32115222D02*
X43548792Y-31919782D01*
X43280308Y-32017502D02*
X42938288Y-31077809D01*
X42938288Y-31077809D02*
X43076642Y-31179478D01*
X43076642Y-31179478D02*
X43198710Y-31236399D01*
X43198710Y-31236399D02*
X43304492Y-31248573D01*
X42279417Y-31773695D02*
X42352625Y-31696374D01*
X42352625Y-31696374D02*
X42381086Y-31635340D01*
X42381086Y-31635340D02*
X42393259Y-31529559D01*
X42393259Y-31529559D02*
X42376973Y-31484812D01*
X42376973Y-31484812D02*
X42299652Y-31411604D01*
X42299652Y-31411604D02*
X42238618Y-31383143D01*
X42238618Y-31383143D02*
X42132837Y-31370969D01*
X42132837Y-31370969D02*
X41953848Y-31436116D01*
X41953848Y-31436116D02*
X41880640Y-31513437D01*
X41880640Y-31513437D02*
X41852180Y-31574470D01*
X41852180Y-31574470D02*
X41840006Y-31680252D01*
X41840006Y-31680252D02*
X41856292Y-31724999D01*
X41856292Y-31724999D02*
X41933613Y-31798207D01*
X41933613Y-31798207D02*
X41994647Y-31826667D01*
X41994647Y-31826667D02*
X42100428Y-31838841D01*
X42100428Y-31838841D02*
X42279417Y-31773695D01*
X42279417Y-31773695D02*
X42385198Y-31785869D01*
X42385198Y-31785869D02*
X42446232Y-31814329D01*
X42446232Y-31814329D02*
X42523553Y-31887537D01*
X42523553Y-31887537D02*
X42588700Y-32066526D01*
X42588700Y-32066526D02*
X42576526Y-32172307D01*
X42576526Y-32172307D02*
X42548065Y-32233341D01*
X42548065Y-32233341D02*
X42474857Y-32310662D01*
X42474857Y-32310662D02*
X42295868Y-32375809D01*
X42295868Y-32375809D02*
X42190087Y-32363635D01*
X42190087Y-32363635D02*
X42129053Y-32335174D01*
X42129053Y-32335174D02*
X42051732Y-32261966D01*
X42051732Y-32261966D02*
X41986586Y-32082977D01*
X41986586Y-32082977D02*
X41998760Y-31977196D01*
X41998760Y-31977196D02*
X42027220Y-31916162D01*
X42027220Y-31916162D02*
X42100428Y-31838841D01*
%TO.C,SW12*%
X112129385Y8575578D02*
X112011430Y8481971D01*
X112011430Y8481971D02*
X111787693Y8400538D01*
X111787693Y8400538D02*
X111681912Y8412711D01*
X111681912Y8412711D02*
X111620878Y8441172D01*
X111620878Y8441172D02*
X111543557Y8514380D01*
X111543557Y8514380D02*
X111510984Y8603874D01*
X111510984Y8603874D02*
X111523158Y8709656D01*
X111523158Y8709656D02*
X111551619Y8770690D01*
X111551619Y8770690D02*
X111624826Y8848010D01*
X111624826Y8848010D02*
X111787529Y8957904D01*
X111787529Y8957904D02*
X111860737Y9035225D01*
X111860737Y9035225D02*
X111889197Y9096259D01*
X111889197Y9096259D02*
X111901371Y9202040D01*
X111901371Y9202040D02*
X111868798Y9291534D01*
X111868798Y9291534D02*
X111791477Y9364742D01*
X111791477Y9364742D02*
X111730443Y9393203D01*
X111730443Y9393203D02*
X111624662Y9405377D01*
X111624662Y9405377D02*
X111400926Y9323943D01*
X111400926Y9323943D02*
X111282971Y9230336D01*
X110953453Y9161077D02*
X111071737Y8139951D01*
X111071737Y8139951D02*
X110648448Y8746013D01*
X110648448Y8746013D02*
X110713759Y8009657D01*
X110713759Y8009657D02*
X110148002Y8867917D01*
X109639824Y7618777D02*
X110176792Y7814217D01*
X109908308Y7716497D02*
X109566288Y8656190D01*
X109566288Y8656190D02*
X109704642Y8554521D01*
X109704642Y8554521D02*
X109826710Y8497600D01*
X109826710Y8497600D02*
X109932492Y8485426D01*
X108972399Y8338682D02*
X108911366Y8367143D01*
X108911366Y8367143D02*
X108805584Y8379316D01*
X108805584Y8379316D02*
X108581848Y8297883D01*
X108581848Y8297883D02*
X108508640Y8220562D01*
X108508640Y8220562D02*
X108480180Y8159529D01*
X108480180Y8159529D02*
X108468006Y8053747D01*
X108468006Y8053747D02*
X108500579Y7964253D01*
X108500579Y7964253D02*
X108594186Y7846298D01*
X108594186Y7846298D02*
X109326594Y7504771D01*
X109326594Y7504771D02*
X108744879Y7293044D01*
%TO.C,SW10*%
X71197385Y9639578D02*
X71079430Y9545971D01*
X71079430Y9545971D02*
X70855693Y9464538D01*
X70855693Y9464538D02*
X70749912Y9476711D01*
X70749912Y9476711D02*
X70688878Y9505172D01*
X70688878Y9505172D02*
X70611557Y9578380D01*
X70611557Y9578380D02*
X70578984Y9667874D01*
X70578984Y9667874D02*
X70591158Y9773656D01*
X70591158Y9773656D02*
X70619619Y9834690D01*
X70619619Y9834690D02*
X70692826Y9912010D01*
X70692826Y9912010D02*
X70855529Y10021904D01*
X70855529Y10021904D02*
X70928737Y10099225D01*
X70928737Y10099225D02*
X70957197Y10160259D01*
X70957197Y10160259D02*
X70969371Y10266040D01*
X70969371Y10266040D02*
X70936798Y10355534D01*
X70936798Y10355534D02*
X70859477Y10428742D01*
X70859477Y10428742D02*
X70798443Y10457203D01*
X70798443Y10457203D02*
X70692662Y10469377D01*
X70692662Y10469377D02*
X70468926Y10387943D01*
X70468926Y10387943D02*
X70350971Y10294336D01*
X70021453Y10225077D02*
X70139737Y9203951D01*
X70139737Y9203951D02*
X69716448Y9810013D01*
X69716448Y9810013D02*
X69781759Y9073657D01*
X69781759Y9073657D02*
X69216002Y9931917D01*
X68707824Y8682777D02*
X69244792Y8878217D01*
X68976308Y8780497D02*
X68634288Y9720190D01*
X68634288Y9720190D02*
X68772642Y9618521D01*
X68772642Y9618521D02*
X68894710Y9561600D01*
X68894710Y9561600D02*
X69000492Y9549426D01*
X67784090Y9410743D02*
X67694595Y9378170D01*
X67694595Y9378170D02*
X67621387Y9300849D01*
X67621387Y9300849D02*
X67592927Y9239815D01*
X67592927Y9239815D02*
X67580753Y9134034D01*
X67580753Y9134034D02*
X67601152Y8938758D01*
X67601152Y8938758D02*
X67682586Y8715022D01*
X67682586Y8715022D02*
X67792480Y8552319D01*
X67792480Y8552319D02*
X67869800Y8479112D01*
X67869800Y8479112D02*
X67930834Y8450651D01*
X67930834Y8450651D02*
X68036615Y8438477D01*
X68036615Y8438477D02*
X68126110Y8471050D01*
X68126110Y8471050D02*
X68199318Y8548371D01*
X68199318Y8548371D02*
X68227778Y8609405D01*
X68227778Y8609405D02*
X68239952Y8715186D01*
X68239952Y8715186D02*
X68219553Y8910462D01*
X68219553Y8910462D02*
X68138120Y9134198D01*
X68138120Y9134198D02*
X68028226Y9296901D01*
X68028226Y9296901D02*
X67950905Y9370109D01*
X67950905Y9370109D02*
X67889871Y9398569D01*
X67889871Y9398569D02*
X67784090Y9410743D01*
%TO.C,SW11*%
X90808385Y11456578D02*
X90690430Y11362971D01*
X90690430Y11362971D02*
X90466693Y11281538D01*
X90466693Y11281538D02*
X90360912Y11293711D01*
X90360912Y11293711D02*
X90299878Y11322172D01*
X90299878Y11322172D02*
X90222557Y11395380D01*
X90222557Y11395380D02*
X90189984Y11484874D01*
X90189984Y11484874D02*
X90202158Y11590656D01*
X90202158Y11590656D02*
X90230619Y11651690D01*
X90230619Y11651690D02*
X90303826Y11729010D01*
X90303826Y11729010D02*
X90466529Y11838904D01*
X90466529Y11838904D02*
X90539737Y11916225D01*
X90539737Y11916225D02*
X90568197Y11977259D01*
X90568197Y11977259D02*
X90580371Y12083040D01*
X90580371Y12083040D02*
X90547798Y12172534D01*
X90547798Y12172534D02*
X90470477Y12245742D01*
X90470477Y12245742D02*
X90409443Y12274203D01*
X90409443Y12274203D02*
X90303662Y12286377D01*
X90303662Y12286377D02*
X90079926Y12204943D01*
X90079926Y12204943D02*
X89961971Y12111336D01*
X89632453Y12042077D02*
X89750737Y11020951D01*
X89750737Y11020951D02*
X89327448Y11627013D01*
X89327448Y11627013D02*
X89392759Y10890657D01*
X89392759Y10890657D02*
X88827002Y11748917D01*
X88318824Y10499777D02*
X88855792Y10695217D01*
X88587308Y10597497D02*
X88245288Y11537190D01*
X88245288Y11537190D02*
X88383642Y11435521D01*
X88383642Y11435521D02*
X88505710Y11378600D01*
X88505710Y11378600D02*
X88611492Y11366426D01*
X87423879Y10174044D02*
X87960846Y10369484D01*
X87692363Y10271764D02*
X87350343Y11211456D01*
X87350343Y11211456D02*
X87488697Y11109788D01*
X87488697Y11109788D02*
X87610765Y11052867D01*
X87610765Y11052867D02*
X87716546Y11040693D01*
%TO.C,SW16*%
X-58805592Y-22592208D02*
X-58956121Y-22588095D01*
X-58956121Y-22588095D02*
X-59179857Y-22506662D01*
X-59179857Y-22506662D02*
X-59253065Y-22429341D01*
X-59253065Y-22429341D02*
X-59281526Y-22368307D01*
X-59281526Y-22368307D02*
X-59293700Y-22262526D01*
X-59293700Y-22262526D02*
X-59261126Y-22173032D01*
X-59261126Y-22173032D02*
X-59183806Y-22099824D01*
X-59183806Y-22099824D02*
X-59122772Y-22071363D01*
X-59122772Y-22071363D02*
X-59016990Y-22059189D01*
X-59016990Y-22059189D02*
X-58821715Y-22079589D01*
X-58821715Y-22079589D02*
X-58715933Y-22067415D01*
X-58715933Y-22067415D02*
X-58654900Y-22038954D01*
X-58654900Y-22038954D02*
X-58577579Y-21965746D01*
X-58577579Y-21965746D02*
X-58545006Y-21876252D01*
X-58545006Y-21876252D02*
X-58557179Y-21770471D01*
X-58557179Y-21770471D02*
X-58585640Y-21709437D01*
X-58585640Y-21709437D02*
X-58658848Y-21632116D01*
X-58658848Y-21632116D02*
X-58882584Y-21550683D01*
X-58882584Y-21550683D02*
X-59033113Y-21546570D01*
X-59330057Y-21387816D02*
X-59895813Y-22246075D01*
X-59895813Y-22246075D02*
X-59830502Y-21509719D01*
X-59830502Y-21509719D02*
X-60253792Y-22115782D01*
X-60253792Y-22115782D02*
X-60135508Y-21094656D01*
X-61327726Y-21724902D02*
X-60790759Y-21920342D01*
X-61059242Y-21822622D02*
X-60717222Y-20882929D01*
X-60717222Y-20882929D02*
X-60676588Y-21049744D01*
X-60676588Y-21049744D02*
X-60619666Y-21171812D01*
X-60619666Y-21171812D02*
X-60546459Y-21249133D01*
X-61791157Y-20492049D02*
X-61612168Y-20557196D01*
X-61612168Y-20557196D02*
X-61538960Y-20634516D01*
X-61538960Y-20634516D02*
X-61510499Y-20695550D01*
X-61510499Y-20695550D02*
X-61469865Y-20862365D01*
X-61469865Y-20862365D02*
X-61490264Y-21057641D01*
X-61490264Y-21057641D02*
X-61620557Y-21415619D01*
X-61620557Y-21415619D02*
X-61697878Y-21488827D01*
X-61697878Y-21488827D02*
X-61758912Y-21517288D01*
X-61758912Y-21517288D02*
X-61864693Y-21529461D01*
X-61864693Y-21529461D02*
X-62043682Y-21464315D01*
X-62043682Y-21464315D02*
X-62116890Y-21386994D01*
X-62116890Y-21386994D02*
X-62145351Y-21325960D01*
X-62145351Y-21325960D02*
X-62157525Y-21220179D01*
X-62157525Y-21220179D02*
X-62076091Y-20996443D01*
X-62076091Y-20996443D02*
X-61998771Y-20923235D01*
X-61998771Y-20923235D02*
X-61937737Y-20894774D01*
X-61937737Y-20894774D02*
X-61831955Y-20882600D01*
X-61831955Y-20882600D02*
X-61652966Y-20947747D01*
X-61652966Y-20947747D02*
X-61579759Y-21025068D01*
X-61579759Y-21025068D02*
X-61551298Y-21086102D01*
X-61551298Y-21086102D02*
X-61539124Y-21191883D01*
%TO.C,SW4*%
X-87856066Y10381658D02*
X-88006594Y10385771D01*
X-88006594Y10385771D02*
X-88230330Y10467204D01*
X-88230330Y10467204D02*
X-88303538Y10544525D01*
X-88303538Y10544525D02*
X-88331999Y10605559D01*
X-88331999Y10605559D02*
X-88344173Y10711340D01*
X-88344173Y10711340D02*
X-88311599Y10800834D01*
X-88311599Y10800834D02*
X-88234279Y10874042D01*
X-88234279Y10874042D02*
X-88173245Y10902503D01*
X-88173245Y10902503D02*
X-88067464Y10914677D01*
X-88067464Y10914677D02*
X-87872188Y10894277D01*
X-87872188Y10894277D02*
X-87766407Y10906451D01*
X-87766407Y10906451D02*
X-87705373Y10934912D01*
X-87705373Y10934912D02*
X-87628052Y11008120D01*
X-87628052Y11008120D02*
X-87595479Y11097614D01*
X-87595479Y11097614D02*
X-87607653Y11203395D01*
X-87607653Y11203395D02*
X-87636113Y11264429D01*
X-87636113Y11264429D02*
X-87709321Y11341750D01*
X-87709321Y11341750D02*
X-87933057Y11423183D01*
X-87933057Y11423183D02*
X-88083586Y11427296D01*
X-88380530Y11586050D02*
X-88946287Y10727791D01*
X-88946287Y10727791D02*
X-88880976Y11464147D01*
X-88880976Y11464147D02*
X-89304265Y10858084D01*
X-89304265Y10858084D02*
X-89185981Y11879210D01*
X-90060691Y11842853D02*
X-90288705Y11216391D01*
X-89706661Y12119398D02*
X-89727225Y11366755D01*
X-89727225Y11366755D02*
X-90308940Y11578482D01*
%TO.C,SW14*%
X-93923592Y-7682208D02*
X-94074121Y-7678095D01*
X-94074121Y-7678095D02*
X-94297857Y-7596662D01*
X-94297857Y-7596662D02*
X-94371065Y-7519341D01*
X-94371065Y-7519341D02*
X-94399526Y-7458307D01*
X-94399526Y-7458307D02*
X-94411700Y-7352526D01*
X-94411700Y-7352526D02*
X-94379126Y-7263032D01*
X-94379126Y-7263032D02*
X-94301806Y-7189824D01*
X-94301806Y-7189824D02*
X-94240772Y-7161363D01*
X-94240772Y-7161363D02*
X-94134990Y-7149189D01*
X-94134990Y-7149189D02*
X-93939715Y-7169589D01*
X-93939715Y-7169589D02*
X-93833933Y-7157415D01*
X-93833933Y-7157415D02*
X-93772900Y-7128954D01*
X-93772900Y-7128954D02*
X-93695579Y-7055746D01*
X-93695579Y-7055746D02*
X-93663006Y-6966252D01*
X-93663006Y-6966252D02*
X-93675179Y-6860471D01*
X-93675179Y-6860471D02*
X-93703640Y-6799437D01*
X-93703640Y-6799437D02*
X-93776848Y-6722116D01*
X-93776848Y-6722116D02*
X-94000584Y-6640683D01*
X-94000584Y-6640683D02*
X-94151113Y-6636570D01*
X-94448057Y-6477816D02*
X-95013813Y-7336075D01*
X-95013813Y-7336075D02*
X-94948502Y-6599719D01*
X-94948502Y-6599719D02*
X-95371792Y-7205782D01*
X-95371792Y-7205782D02*
X-95253508Y-6184656D01*
X-96445726Y-6814902D02*
X-95908759Y-7010342D01*
X-96177242Y-6912622D02*
X-95835222Y-5972929D01*
X-95835222Y-5972929D02*
X-95794588Y-6139744D01*
X-95794588Y-6139744D02*
X-95737666Y-6261812D01*
X-95737666Y-6261812D02*
X-95664459Y-6339133D01*
X-97023163Y-5895280D02*
X-97251177Y-6521741D01*
X-96669134Y-5618735D02*
X-96689697Y-6371377D01*
X-96689697Y-6371377D02*
X-97271412Y-6159651D01*
%TO.C,SW25*%
X-80827592Y-27400208D02*
X-80978121Y-27396095D01*
X-80978121Y-27396095D02*
X-81201857Y-27314662D01*
X-81201857Y-27314662D02*
X-81275065Y-27237341D01*
X-81275065Y-27237341D02*
X-81303526Y-27176307D01*
X-81303526Y-27176307D02*
X-81315700Y-27070526D01*
X-81315700Y-27070526D02*
X-81283126Y-26981032D01*
X-81283126Y-26981032D02*
X-81205806Y-26907824D01*
X-81205806Y-26907824D02*
X-81144772Y-26879363D01*
X-81144772Y-26879363D02*
X-81038990Y-26867189D01*
X-81038990Y-26867189D02*
X-80843715Y-26887589D01*
X-80843715Y-26887589D02*
X-80737933Y-26875415D01*
X-80737933Y-26875415D02*
X-80676900Y-26846954D01*
X-80676900Y-26846954D02*
X-80599579Y-26773746D01*
X-80599579Y-26773746D02*
X-80567006Y-26684252D01*
X-80567006Y-26684252D02*
X-80579179Y-26578471D01*
X-80579179Y-26578471D02*
X-80607640Y-26517437D01*
X-80607640Y-26517437D02*
X-80680848Y-26440116D01*
X-80680848Y-26440116D02*
X-80904584Y-26358683D01*
X-80904584Y-26358683D02*
X-81055113Y-26354570D01*
X-81352057Y-26195816D02*
X-81917813Y-27054075D01*
X-81917813Y-27054075D02*
X-81852502Y-26317719D01*
X-81852502Y-26317719D02*
X-82275792Y-26923782D01*
X-82275792Y-26923782D02*
X-82157508Y-25902656D01*
X-82503312Y-25878144D02*
X-82531773Y-25817110D01*
X-82531773Y-25817110D02*
X-82604980Y-25739789D01*
X-82604980Y-25739789D02*
X-82828717Y-25658356D01*
X-82828717Y-25658356D02*
X-82934498Y-25670530D01*
X-82934498Y-25670530D02*
X-82995532Y-25698990D01*
X-82995532Y-25698990D02*
X-83072852Y-25772198D01*
X-83072852Y-25772198D02*
X-83105426Y-25861693D01*
X-83105426Y-25861693D02*
X-83109539Y-26012221D01*
X-83109539Y-26012221D02*
X-82768011Y-26744628D01*
X-82768011Y-26744628D02*
X-83349726Y-26532902D01*
X-83857904Y-25283762D02*
X-83410431Y-25446629D01*
X-83410431Y-25446629D02*
X-83528551Y-25910388D01*
X-83528551Y-25910388D02*
X-83557011Y-25849354D01*
X-83557011Y-25849354D02*
X-83630219Y-25772034D01*
X-83630219Y-25772034D02*
X-83853955Y-25690600D01*
X-83853955Y-25690600D02*
X-83959737Y-25702774D01*
X-83959737Y-25702774D02*
X-84020771Y-25731235D01*
X-84020771Y-25731235D02*
X-84098091Y-25804443D01*
X-84098091Y-25804443D02*
X-84179525Y-26028179D01*
X-84179525Y-26028179D02*
X-84167351Y-26133960D01*
X-84167351Y-26133960D02*
X-84138890Y-26194994D01*
X-84138890Y-26194994D02*
X-84065682Y-26272315D01*
X-84065682Y-26272315D02*
X-83841946Y-26353748D01*
X-83841946Y-26353748D02*
X-83736165Y-26341574D01*
X-83736165Y-26341574D02*
X-83675131Y-26313114D01*
%TO.C,SW8*%
X38538912Y-13420288D02*
X38420956Y-13513895D01*
X38420956Y-13513895D02*
X38197220Y-13595328D01*
X38197220Y-13595328D02*
X38091439Y-13583154D01*
X38091439Y-13583154D02*
X38030405Y-13554694D01*
X38030405Y-13554694D02*
X37953084Y-13481486D01*
X37953084Y-13481486D02*
X37920511Y-13391991D01*
X37920511Y-13391991D02*
X37932685Y-13286210D01*
X37932685Y-13286210D02*
X37961145Y-13225176D01*
X37961145Y-13225176D02*
X38034353Y-13147856D01*
X38034353Y-13147856D02*
X38197056Y-13037962D01*
X38197056Y-13037962D02*
X38270264Y-12960641D01*
X38270264Y-12960641D02*
X38298724Y-12899607D01*
X38298724Y-12899607D02*
X38310898Y-12793826D01*
X38310898Y-12793826D02*
X38278325Y-12704331D01*
X38278325Y-12704331D02*
X38201004Y-12631124D01*
X38201004Y-12631124D02*
X38139970Y-12602663D01*
X38139970Y-12602663D02*
X38034189Y-12590489D01*
X38034189Y-12590489D02*
X37810453Y-12671922D01*
X37810453Y-12671922D02*
X37692498Y-12765530D01*
X37362980Y-12834789D02*
X37481264Y-13855915D01*
X37481264Y-13855915D02*
X37057975Y-13249853D01*
X37057975Y-13249853D02*
X37123286Y-13986209D01*
X37123286Y-13986209D02*
X36557529Y-13127949D01*
X36211889Y-13709828D02*
X36285097Y-13632507D01*
X36285097Y-13632507D02*
X36313558Y-13571474D01*
X36313558Y-13571474D02*
X36325732Y-13465692D01*
X36325732Y-13465692D02*
X36309445Y-13420945D01*
X36309445Y-13420945D02*
X36232124Y-13347737D01*
X36232124Y-13347737D02*
X36171090Y-13319277D01*
X36171090Y-13319277D02*
X36065309Y-13307103D01*
X36065309Y-13307103D02*
X35886320Y-13372249D01*
X35886320Y-13372249D02*
X35813112Y-13449570D01*
X35813112Y-13449570D02*
X35784652Y-13510604D01*
X35784652Y-13510604D02*
X35772478Y-13616385D01*
X35772478Y-13616385D02*
X35788765Y-13661132D01*
X35788765Y-13661132D02*
X35866085Y-13734340D01*
X35866085Y-13734340D02*
X35927119Y-13762801D01*
X35927119Y-13762801D02*
X36032900Y-13774975D01*
X36032900Y-13774975D02*
X36211889Y-13709828D01*
X36211889Y-13709828D02*
X36317671Y-13722002D01*
X36317671Y-13722002D02*
X36378704Y-13750463D01*
X36378704Y-13750463D02*
X36456025Y-13823670D01*
X36456025Y-13823670D02*
X36521172Y-14002660D01*
X36521172Y-14002660D02*
X36508998Y-14108441D01*
X36508998Y-14108441D02*
X36480537Y-14169475D01*
X36480537Y-14169475D02*
X36407329Y-14246795D01*
X36407329Y-14246795D02*
X36228340Y-14311942D01*
X36228340Y-14311942D02*
X36122559Y-14299768D01*
X36122559Y-14299768D02*
X36061525Y-14271307D01*
X36061525Y-14271307D02*
X35984205Y-14198100D01*
X35984205Y-14198100D02*
X35919058Y-14019111D01*
X35919058Y-14019111D02*
X35931232Y-13913329D01*
X35931232Y-13913329D02*
X35959692Y-13852295D01*
X35959692Y-13852295D02*
X36032900Y-13774975D01*
%TO.C,SW15*%
X-74280592Y-9499208D02*
X-74431121Y-9495095D01*
X-74431121Y-9495095D02*
X-74654857Y-9413662D01*
X-74654857Y-9413662D02*
X-74728065Y-9336341D01*
X-74728065Y-9336341D02*
X-74756526Y-9275307D01*
X-74756526Y-9275307D02*
X-74768700Y-9169526D01*
X-74768700Y-9169526D02*
X-74736126Y-9080032D01*
X-74736126Y-9080032D02*
X-74658806Y-9006824D01*
X-74658806Y-9006824D02*
X-74597772Y-8978363D01*
X-74597772Y-8978363D02*
X-74491990Y-8966189D01*
X-74491990Y-8966189D02*
X-74296715Y-8986589D01*
X-74296715Y-8986589D02*
X-74190933Y-8974415D01*
X-74190933Y-8974415D02*
X-74129900Y-8945954D01*
X-74129900Y-8945954D02*
X-74052579Y-8872746D01*
X-74052579Y-8872746D02*
X-74020006Y-8783252D01*
X-74020006Y-8783252D02*
X-74032179Y-8677471D01*
X-74032179Y-8677471D02*
X-74060640Y-8616437D01*
X-74060640Y-8616437D02*
X-74133848Y-8539116D01*
X-74133848Y-8539116D02*
X-74357584Y-8457683D01*
X-74357584Y-8457683D02*
X-74508113Y-8453570D01*
X-74805057Y-8294816D02*
X-75370813Y-9153075D01*
X-75370813Y-9153075D02*
X-75305502Y-8416719D01*
X-75305502Y-8416719D02*
X-75728792Y-9022782D01*
X-75728792Y-9022782D02*
X-75610508Y-8001656D01*
X-76802726Y-8631902D02*
X-76265759Y-8827342D01*
X-76534242Y-8729622D02*
X-76192222Y-7789929D01*
X-76192222Y-7789929D02*
X-76151588Y-7956744D01*
X-76151588Y-7956744D02*
X-76094666Y-8078812D01*
X-76094666Y-8078812D02*
X-76021459Y-8156133D01*
X-77310904Y-7382762D02*
X-76863431Y-7545629D01*
X-76863431Y-7545629D02*
X-76981551Y-8009388D01*
X-76981551Y-8009388D02*
X-77010011Y-7948354D01*
X-77010011Y-7948354D02*
X-77083219Y-7871034D01*
X-77083219Y-7871034D02*
X-77306955Y-7789600D01*
X-77306955Y-7789600D02*
X-77412737Y-7801774D01*
X-77412737Y-7801774D02*
X-77473771Y-7830235D01*
X-77473771Y-7830235D02*
X-77551091Y-7903443D01*
X-77551091Y-7903443D02*
X-77632525Y-8127179D01*
X-77632525Y-8127179D02*
X-77620351Y-8232960D01*
X-77620351Y-8232960D02*
X-77591890Y-8293994D01*
X-77591890Y-8293994D02*
X-77518682Y-8371315D01*
X-77518682Y-8371315D02*
X-77294946Y-8452748D01*
X-77294946Y-8452748D02*
X-77189165Y-8440574D01*
X-77189165Y-8440574D02*
X-77128131Y-8412114D01*
%TO.C,SW28*%
X52017385Y-49060421D02*
X51899430Y-49154028D01*
X51899430Y-49154028D02*
X51675693Y-49235461D01*
X51675693Y-49235461D02*
X51569912Y-49223288D01*
X51569912Y-49223288D02*
X51508878Y-49194827D01*
X51508878Y-49194827D02*
X51431557Y-49121619D01*
X51431557Y-49121619D02*
X51398984Y-49032125D01*
X51398984Y-49032125D02*
X51411158Y-48926343D01*
X51411158Y-48926343D02*
X51439619Y-48865309D01*
X51439619Y-48865309D02*
X51512826Y-48787989D01*
X51512826Y-48787989D02*
X51675529Y-48678095D01*
X51675529Y-48678095D02*
X51748737Y-48600774D01*
X51748737Y-48600774D02*
X51777197Y-48539740D01*
X51777197Y-48539740D02*
X51789371Y-48433959D01*
X51789371Y-48433959D02*
X51756798Y-48344465D01*
X51756798Y-48344465D02*
X51679477Y-48271257D01*
X51679477Y-48271257D02*
X51618443Y-48242796D01*
X51618443Y-48242796D02*
X51512662Y-48230622D01*
X51512662Y-48230622D02*
X51288926Y-48312056D01*
X51288926Y-48312056D02*
X51170971Y-48405663D01*
X50841453Y-48474922D02*
X50959737Y-49496048D01*
X50959737Y-49496048D02*
X50536448Y-48889986D01*
X50536448Y-48889986D02*
X50601759Y-49626342D01*
X50601759Y-49626342D02*
X50036002Y-48768082D01*
X49755345Y-48971584D02*
X49694311Y-48943123D01*
X49694311Y-48943123D02*
X49588530Y-48930949D01*
X49588530Y-48930949D02*
X49364793Y-49012382D01*
X49364793Y-49012382D02*
X49291586Y-49089703D01*
X49291586Y-49089703D02*
X49263125Y-49150737D01*
X49263125Y-49150737D02*
X49250951Y-49256518D01*
X49250951Y-49256518D02*
X49283524Y-49346013D01*
X49283524Y-49346013D02*
X49377132Y-49463968D01*
X49377132Y-49463968D02*
X50109539Y-49805495D01*
X50109539Y-49805495D02*
X49527824Y-50017222D01*
X48795417Y-49675695D02*
X48868625Y-49598374D01*
X48868625Y-49598374D02*
X48897086Y-49537340D01*
X48897086Y-49537340D02*
X48909259Y-49431559D01*
X48909259Y-49431559D02*
X48892973Y-49386812D01*
X48892973Y-49386812D02*
X48815652Y-49313604D01*
X48815652Y-49313604D02*
X48754618Y-49285143D01*
X48754618Y-49285143D02*
X48648837Y-49272969D01*
X48648837Y-49272969D02*
X48469848Y-49338116D01*
X48469848Y-49338116D02*
X48396640Y-49415437D01*
X48396640Y-49415437D02*
X48368180Y-49476470D01*
X48368180Y-49476470D02*
X48356006Y-49582252D01*
X48356006Y-49582252D02*
X48372292Y-49626999D01*
X48372292Y-49626999D02*
X48449613Y-49700207D01*
X48449613Y-49700207D02*
X48510647Y-49728667D01*
X48510647Y-49728667D02*
X48616428Y-49740841D01*
X48616428Y-49740841D02*
X48795417Y-49675695D01*
X48795417Y-49675695D02*
X48901198Y-49687869D01*
X48901198Y-49687869D02*
X48962232Y-49716329D01*
X48962232Y-49716329D02*
X49039553Y-49789537D01*
X49039553Y-49789537D02*
X49104700Y-49968526D01*
X49104700Y-49968526D02*
X49092526Y-50074307D01*
X49092526Y-50074307D02*
X49064065Y-50135341D01*
X49064065Y-50135341D02*
X48990857Y-50212662D01*
X48990857Y-50212662D02*
X48811868Y-50277809D01*
X48811868Y-50277809D02*
X48706087Y-50265635D01*
X48706087Y-50265635D02*
X48645053Y-50237174D01*
X48645053Y-50237174D02*
X48567732Y-50163966D01*
X48567732Y-50163966D02*
X48502586Y-49984977D01*
X48502586Y-49984977D02*
X48514760Y-49879196D01*
X48514760Y-49879196D02*
X48543220Y-49818162D01*
X48543220Y-49818162D02*
X48616428Y-49740841D01*
%TO.C,SW3*%
X-109177064Y7500662D02*
X-109327592Y7504775D01*
X-109327592Y7504775D02*
X-109551328Y7586208D01*
X-109551328Y7586208D02*
X-109624536Y7663529D01*
X-109624536Y7663529D02*
X-109652997Y7724563D01*
X-109652997Y7724563D02*
X-109665171Y7830344D01*
X-109665171Y7830344D02*
X-109632597Y7919838D01*
X-109632597Y7919838D02*
X-109555277Y7993046D01*
X-109555277Y7993046D02*
X-109494243Y8021507D01*
X-109494243Y8021507D02*
X-109388462Y8033681D01*
X-109388462Y8033681D02*
X-109193186Y8013281D01*
X-109193186Y8013281D02*
X-109087405Y8025455D01*
X-109087405Y8025455D02*
X-109026371Y8053916D01*
X-109026371Y8053916D02*
X-108949050Y8127124D01*
X-108949050Y8127124D02*
X-108916477Y8216618D01*
X-108916477Y8216618D02*
X-108928651Y8322399D01*
X-108928651Y8322399D02*
X-108957111Y8383433D01*
X-108957111Y8383433D02*
X-109030319Y8460754D01*
X-109030319Y8460754D02*
X-109254055Y8542187D01*
X-109254055Y8542187D02*
X-109404584Y8546300D01*
X-109701528Y8705054D02*
X-110267285Y7846795D01*
X-110267285Y7846795D02*
X-110201974Y8583151D01*
X-110201974Y8583151D02*
X-110625263Y7977088D01*
X-110625263Y7977088D02*
X-110506979Y8998214D01*
X-110775462Y9095934D02*
X-111357177Y9307661D01*
X-111357177Y9307661D02*
X-111174239Y8835676D01*
X-111174239Y8835676D02*
X-111308481Y8884536D01*
X-111308481Y8884536D02*
X-111414262Y8872362D01*
X-111414262Y8872362D02*
X-111475296Y8843902D01*
X-111475296Y8843902D02*
X-111552617Y8770694D01*
X-111552617Y8770694D02*
X-111634050Y8546957D01*
X-111634050Y8546957D02*
X-111621876Y8441176D01*
X-111621876Y8441176D02*
X-111593416Y8380142D01*
X-111593416Y8380142D02*
X-111520208Y8302822D01*
X-111520208Y8302822D02*
X-111251724Y8205102D01*
X-111251724Y8205102D02*
X-111145943Y8217276D01*
X-111145943Y8217276D02*
X-111084909Y8245736D01*
%TO.C,SW20*%
X77712385Y-8261421D02*
X77594430Y-8355028D01*
X77594430Y-8355028D02*
X77370693Y-8436461D01*
X77370693Y-8436461D02*
X77264912Y-8424288D01*
X77264912Y-8424288D02*
X77203878Y-8395827D01*
X77203878Y-8395827D02*
X77126557Y-8322619D01*
X77126557Y-8322619D02*
X77093984Y-8233125D01*
X77093984Y-8233125D02*
X77106158Y-8127343D01*
X77106158Y-8127343D02*
X77134619Y-8066309D01*
X77134619Y-8066309D02*
X77207826Y-7988989D01*
X77207826Y-7988989D02*
X77370529Y-7879095D01*
X77370529Y-7879095D02*
X77443737Y-7801774D01*
X77443737Y-7801774D02*
X77472197Y-7740740D01*
X77472197Y-7740740D02*
X77484371Y-7634959D01*
X77484371Y-7634959D02*
X77451798Y-7545465D01*
X77451798Y-7545465D02*
X77374477Y-7472257D01*
X77374477Y-7472257D02*
X77313443Y-7443796D01*
X77313443Y-7443796D02*
X77207662Y-7431622D01*
X77207662Y-7431622D02*
X76983926Y-7513056D01*
X76983926Y-7513056D02*
X76865971Y-7606663D01*
X76536453Y-7675922D02*
X76654737Y-8697048D01*
X76654737Y-8697048D02*
X76231448Y-8090986D01*
X76231448Y-8090986D02*
X76296759Y-8827342D01*
X76296759Y-8827342D02*
X75731002Y-7969082D01*
X75450345Y-8172584D02*
X75389311Y-8144123D01*
X75389311Y-8144123D02*
X75283530Y-8131949D01*
X75283530Y-8131949D02*
X75059793Y-8213382D01*
X75059793Y-8213382D02*
X74986586Y-8290703D01*
X74986586Y-8290703D02*
X74958125Y-8351737D01*
X74958125Y-8351737D02*
X74945951Y-8457518D01*
X74945951Y-8457518D02*
X74978524Y-8547013D01*
X74978524Y-8547013D02*
X75072132Y-8664968D01*
X75072132Y-8664968D02*
X75804539Y-9006495D01*
X75804539Y-9006495D02*
X75222824Y-9218222D01*
X74299090Y-8490256D02*
X74209595Y-8522829D01*
X74209595Y-8522829D02*
X74136387Y-8600150D01*
X74136387Y-8600150D02*
X74107927Y-8661184D01*
X74107927Y-8661184D02*
X74095753Y-8766965D01*
X74095753Y-8766965D02*
X74116152Y-8962241D01*
X74116152Y-8962241D02*
X74197586Y-9185977D01*
X74197586Y-9185977D02*
X74307480Y-9348680D01*
X74307480Y-9348680D02*
X74384800Y-9421887D01*
X74384800Y-9421887D02*
X74445834Y-9450348D01*
X74445834Y-9450348D02*
X74551615Y-9462522D01*
X74551615Y-9462522D02*
X74641110Y-9429949D01*
X74641110Y-9429949D02*
X74714318Y-9352628D01*
X74714318Y-9352628D02*
X74742778Y-9291594D01*
X74742778Y-9291594D02*
X74754952Y-9185813D01*
X74754952Y-9185813D02*
X74734553Y-8990537D01*
X74734553Y-8990537D02*
X74653120Y-8766801D01*
X74653120Y-8766801D02*
X74543226Y-8604098D01*
X74543226Y-8604098D02*
X74465905Y-8530890D01*
X74465905Y-8530890D02*
X74404871Y-8502430D01*
X74404871Y-8502430D02*
X74299090Y-8490256D01*
%TO.C,SW34*%
X-49361837Y-76942874D02*
X-49487905Y-76860519D01*
X-49487905Y-76860519D02*
X-49635830Y-76673951D01*
X-49635830Y-76673951D02*
X-49657687Y-76569739D01*
X-49657687Y-76569739D02*
X-49649958Y-76502840D01*
X-49649958Y-76502840D02*
X-49604916Y-76406357D01*
X-49604916Y-76406357D02*
X-49530289Y-76347187D01*
X-49530289Y-76347187D02*
X-49426077Y-76325330D01*
X-49426077Y-76325330D02*
X-49359178Y-76333059D01*
X-49359178Y-76333059D02*
X-49262695Y-76378101D01*
X-49262695Y-76378101D02*
X-49107041Y-76497770D01*
X-49107041Y-76497770D02*
X-49010558Y-76542812D01*
X-49010558Y-76542812D02*
X-48943659Y-76550541D01*
X-48943659Y-76550541D02*
X-48839447Y-76528685D01*
X-48839447Y-76528685D02*
X-48764820Y-76469515D01*
X-48764820Y-76469515D02*
X-48719778Y-76373031D01*
X-48719778Y-76373031D02*
X-48712049Y-76306133D01*
X-48712049Y-76306133D02*
X-48733905Y-76201921D01*
X-48733905Y-76201921D02*
X-48881830Y-76015353D01*
X-48881830Y-76015353D02*
X-49007899Y-75932997D01*
X-49177680Y-75642217D02*
X-50109190Y-76076934D01*
X-50109190Y-76076934D02*
X-49667826Y-75483905D01*
X-49667826Y-75483905D02*
X-50345870Y-75778425D01*
X-50345870Y-75778425D02*
X-49710210Y-74970573D01*
X-49887720Y-74746691D02*
X-50272324Y-74261615D01*
X-50272324Y-74261615D02*
X-50363738Y-74759490D01*
X-50363738Y-74759490D02*
X-50452493Y-74647549D01*
X-50452493Y-74647549D02*
X-50548976Y-74602507D01*
X-50548976Y-74602507D02*
X-50615875Y-74594778D01*
X-50615875Y-74594778D02*
X-50720087Y-74616635D01*
X-50720087Y-74616635D02*
X-50906655Y-74764559D01*
X-50906655Y-74764559D02*
X-50951697Y-74861043D01*
X-50951697Y-74861043D02*
X-50959426Y-74927942D01*
X-50959426Y-74927942D02*
X-50937569Y-75032154D01*
X-50937569Y-75032154D02*
X-50760059Y-75256035D01*
X-50760059Y-75256035D02*
X-50663576Y-75301077D01*
X-50663576Y-75301077D02*
X-50596677Y-75308806D01*
X-51066049Y-73797065D02*
X-51588439Y-74211255D01*
X-50619615Y-73746953D02*
X-51031394Y-74377296D01*
X-51031394Y-74377296D02*
X-51415999Y-73892219D01*
%TO.C,SW38*%
X75561385Y-58049421D02*
X75443430Y-58143028D01*
X75443430Y-58143028D02*
X75219693Y-58224461D01*
X75219693Y-58224461D02*
X75113912Y-58212288D01*
X75113912Y-58212288D02*
X75052878Y-58183827D01*
X75052878Y-58183827D02*
X74975557Y-58110619D01*
X74975557Y-58110619D02*
X74942984Y-58021125D01*
X74942984Y-58021125D02*
X74955158Y-57915343D01*
X74955158Y-57915343D02*
X74983619Y-57854309D01*
X74983619Y-57854309D02*
X75056826Y-57776989D01*
X75056826Y-57776989D02*
X75219529Y-57667095D01*
X75219529Y-57667095D02*
X75292737Y-57589774D01*
X75292737Y-57589774D02*
X75321197Y-57528740D01*
X75321197Y-57528740D02*
X75333371Y-57422959D01*
X75333371Y-57422959D02*
X75300798Y-57333465D01*
X75300798Y-57333465D02*
X75223477Y-57260257D01*
X75223477Y-57260257D02*
X75162443Y-57231796D01*
X75162443Y-57231796D02*
X75056662Y-57219622D01*
X75056662Y-57219622D02*
X74832926Y-57301056D01*
X74832926Y-57301056D02*
X74714971Y-57394663D01*
X74385453Y-57463922D02*
X74503737Y-58485048D01*
X74503737Y-58485048D02*
X74080448Y-57878986D01*
X74080448Y-57878986D02*
X74145759Y-58615342D01*
X74145759Y-58615342D02*
X73580002Y-57757082D01*
X73311519Y-57854802D02*
X72729804Y-58066529D01*
X72729804Y-58066529D02*
X73173329Y-58310501D01*
X73173329Y-58310501D02*
X73039087Y-58359361D01*
X73039087Y-58359361D02*
X72965879Y-58436681D01*
X72965879Y-58436681D02*
X72937418Y-58497715D01*
X72937418Y-58497715D02*
X72925244Y-58603496D01*
X72925244Y-58603496D02*
X73006678Y-58827233D01*
X73006678Y-58827233D02*
X73083998Y-58900441D01*
X73083998Y-58900441D02*
X73145032Y-58928901D01*
X73145032Y-58928901D02*
X73250814Y-58941075D01*
X73250814Y-58941075D02*
X73519297Y-58843355D01*
X73519297Y-58843355D02*
X73592505Y-58766034D01*
X73592505Y-58766034D02*
X73620966Y-58705000D01*
X72339417Y-58664695D02*
X72412625Y-58587374D01*
X72412625Y-58587374D02*
X72441086Y-58526340D01*
X72441086Y-58526340D02*
X72453259Y-58420559D01*
X72453259Y-58420559D02*
X72436973Y-58375812D01*
X72436973Y-58375812D02*
X72359652Y-58302604D01*
X72359652Y-58302604D02*
X72298618Y-58274143D01*
X72298618Y-58274143D02*
X72192837Y-58261969D01*
X72192837Y-58261969D02*
X72013848Y-58327116D01*
X72013848Y-58327116D02*
X71940640Y-58404437D01*
X71940640Y-58404437D02*
X71912180Y-58465470D01*
X71912180Y-58465470D02*
X71900006Y-58571252D01*
X71900006Y-58571252D02*
X71916292Y-58615999D01*
X71916292Y-58615999D02*
X71993613Y-58689207D01*
X71993613Y-58689207D02*
X72054647Y-58717667D01*
X72054647Y-58717667D02*
X72160428Y-58729841D01*
X72160428Y-58729841D02*
X72339417Y-58664695D01*
X72339417Y-58664695D02*
X72445198Y-58676869D01*
X72445198Y-58676869D02*
X72506232Y-58705329D01*
X72506232Y-58705329D02*
X72583553Y-58778537D01*
X72583553Y-58778537D02*
X72648700Y-58957526D01*
X72648700Y-58957526D02*
X72636526Y-59063307D01*
X72636526Y-59063307D02*
X72608065Y-59124341D01*
X72608065Y-59124341D02*
X72534857Y-59201662D01*
X72534857Y-59201662D02*
X72355868Y-59266809D01*
X72355868Y-59266809D02*
X72250087Y-59254635D01*
X72250087Y-59254635D02*
X72189053Y-59226174D01*
X72189053Y-59226174D02*
X72111732Y-59152966D01*
X72111732Y-59152966D02*
X72046586Y-58973977D01*
X72046586Y-58973977D02*
X72058760Y-58868196D01*
X72058760Y-58868196D02*
X72087220Y-58807162D01*
X72087220Y-58807162D02*
X72160428Y-58729841D01*
%TO.C,SW26*%
X-65320592Y-40493208D02*
X-65471121Y-40489095D01*
X-65471121Y-40489095D02*
X-65694857Y-40407662D01*
X-65694857Y-40407662D02*
X-65768065Y-40330341D01*
X-65768065Y-40330341D02*
X-65796526Y-40269307D01*
X-65796526Y-40269307D02*
X-65808700Y-40163526D01*
X-65808700Y-40163526D02*
X-65776126Y-40074032D01*
X-65776126Y-40074032D02*
X-65698806Y-40000824D01*
X-65698806Y-40000824D02*
X-65637772Y-39972363D01*
X-65637772Y-39972363D02*
X-65531990Y-39960189D01*
X-65531990Y-39960189D02*
X-65336715Y-39980589D01*
X-65336715Y-39980589D02*
X-65230933Y-39968415D01*
X-65230933Y-39968415D02*
X-65169900Y-39939954D01*
X-65169900Y-39939954D02*
X-65092579Y-39866746D01*
X-65092579Y-39866746D02*
X-65060006Y-39777252D01*
X-65060006Y-39777252D02*
X-65072179Y-39671471D01*
X-65072179Y-39671471D02*
X-65100640Y-39610437D01*
X-65100640Y-39610437D02*
X-65173848Y-39533116D01*
X-65173848Y-39533116D02*
X-65397584Y-39451683D01*
X-65397584Y-39451683D02*
X-65548113Y-39447570D01*
X-65845057Y-39288816D02*
X-66410813Y-40147075D01*
X-66410813Y-40147075D02*
X-66345502Y-39410719D01*
X-66345502Y-39410719D02*
X-66768792Y-40016782D01*
X-66768792Y-40016782D02*
X-66650508Y-38995656D01*
X-66996312Y-38971144D02*
X-67024773Y-38910110D01*
X-67024773Y-38910110D02*
X-67097980Y-38832789D01*
X-67097980Y-38832789D02*
X-67321717Y-38751356D01*
X-67321717Y-38751356D02*
X-67427498Y-38763530D01*
X-67427498Y-38763530D02*
X-67488532Y-38791990D01*
X-67488532Y-38791990D02*
X-67565852Y-38865198D01*
X-67565852Y-38865198D02*
X-67598426Y-38954693D01*
X-67598426Y-38954693D02*
X-67602539Y-39105221D01*
X-67602539Y-39105221D02*
X-67261011Y-39837628D01*
X-67261011Y-39837628D02*
X-67842726Y-39625902D01*
X-68306157Y-38393049D02*
X-68127168Y-38458196D01*
X-68127168Y-38458196D02*
X-68053960Y-38535516D01*
X-68053960Y-38535516D02*
X-68025499Y-38596550D01*
X-68025499Y-38596550D02*
X-67984865Y-38763365D01*
X-67984865Y-38763365D02*
X-68005264Y-38958641D01*
X-68005264Y-38958641D02*
X-68135557Y-39316619D01*
X-68135557Y-39316619D02*
X-68212878Y-39389827D01*
X-68212878Y-39389827D02*
X-68273912Y-39418288D01*
X-68273912Y-39418288D02*
X-68379693Y-39430461D01*
X-68379693Y-39430461D02*
X-68558682Y-39365315D01*
X-68558682Y-39365315D02*
X-68631890Y-39287994D01*
X-68631890Y-39287994D02*
X-68660351Y-39226960D01*
X-68660351Y-39226960D02*
X-68672525Y-39121179D01*
X-68672525Y-39121179D02*
X-68591091Y-38897443D01*
X-68591091Y-38897443D02*
X-68513771Y-38824235D01*
X-68513771Y-38824235D02*
X-68452737Y-38795774D01*
X-68452737Y-38795774D02*
X-68346955Y-38783600D01*
X-68346955Y-38783600D02*
X-68167966Y-38848747D01*
X-68167966Y-38848747D02*
X-68094759Y-38926068D01*
X-68094759Y-38926068D02*
X-68066298Y-38987102D01*
X-68066298Y-38987102D02*
X-68054124Y-39092883D01*
%TO.C,SW24*%
X-100439592Y-25583208D02*
X-100590121Y-25579095D01*
X-100590121Y-25579095D02*
X-100813857Y-25497662D01*
X-100813857Y-25497662D02*
X-100887065Y-25420341D01*
X-100887065Y-25420341D02*
X-100915526Y-25359307D01*
X-100915526Y-25359307D02*
X-100927700Y-25253526D01*
X-100927700Y-25253526D02*
X-100895126Y-25164032D01*
X-100895126Y-25164032D02*
X-100817806Y-25090824D01*
X-100817806Y-25090824D02*
X-100756772Y-25062363D01*
X-100756772Y-25062363D02*
X-100650990Y-25050189D01*
X-100650990Y-25050189D02*
X-100455715Y-25070589D01*
X-100455715Y-25070589D02*
X-100349933Y-25058415D01*
X-100349933Y-25058415D02*
X-100288900Y-25029954D01*
X-100288900Y-25029954D02*
X-100211579Y-24956746D01*
X-100211579Y-24956746D02*
X-100179006Y-24867252D01*
X-100179006Y-24867252D02*
X-100191179Y-24761471D01*
X-100191179Y-24761471D02*
X-100219640Y-24700437D01*
X-100219640Y-24700437D02*
X-100292848Y-24623116D01*
X-100292848Y-24623116D02*
X-100516584Y-24541683D01*
X-100516584Y-24541683D02*
X-100667113Y-24537570D01*
X-100964057Y-24378816D02*
X-101529813Y-25237075D01*
X-101529813Y-25237075D02*
X-101464502Y-24500719D01*
X-101464502Y-24500719D02*
X-101887792Y-25106782D01*
X-101887792Y-25106782D02*
X-101769508Y-24085656D01*
X-102115312Y-24061144D02*
X-102143773Y-24000110D01*
X-102143773Y-24000110D02*
X-102216980Y-23922789D01*
X-102216980Y-23922789D02*
X-102440717Y-23841356D01*
X-102440717Y-23841356D02*
X-102546498Y-23853530D01*
X-102546498Y-23853530D02*
X-102607532Y-23881990D01*
X-102607532Y-23881990D02*
X-102684852Y-23955198D01*
X-102684852Y-23955198D02*
X-102717426Y-24044693D01*
X-102717426Y-24044693D02*
X-102721539Y-24195221D01*
X-102721539Y-24195221D02*
X-102380011Y-24927628D01*
X-102380011Y-24927628D02*
X-102961726Y-24715902D01*
X-103539163Y-23796280D02*
X-103767177Y-24422741D01*
X-103185134Y-23519735D02*
X-103205697Y-24272377D01*
X-103205697Y-24272377D02*
X-103787412Y-24060651D01*
%TO.C,SW22*%
X118645385Y-9325421D02*
X118527430Y-9419028D01*
X118527430Y-9419028D02*
X118303693Y-9500461D01*
X118303693Y-9500461D02*
X118197912Y-9488288D01*
X118197912Y-9488288D02*
X118136878Y-9459827D01*
X118136878Y-9459827D02*
X118059557Y-9386619D01*
X118059557Y-9386619D02*
X118026984Y-9297125D01*
X118026984Y-9297125D02*
X118039158Y-9191343D01*
X118039158Y-9191343D02*
X118067619Y-9130309D01*
X118067619Y-9130309D02*
X118140826Y-9052989D01*
X118140826Y-9052989D02*
X118303529Y-8943095D01*
X118303529Y-8943095D02*
X118376737Y-8865774D01*
X118376737Y-8865774D02*
X118405197Y-8804740D01*
X118405197Y-8804740D02*
X118417371Y-8698959D01*
X118417371Y-8698959D02*
X118384798Y-8609465D01*
X118384798Y-8609465D02*
X118307477Y-8536257D01*
X118307477Y-8536257D02*
X118246443Y-8507796D01*
X118246443Y-8507796D02*
X118140662Y-8495622D01*
X118140662Y-8495622D02*
X117916926Y-8577056D01*
X117916926Y-8577056D02*
X117798971Y-8670663D01*
X117469453Y-8739922D02*
X117587737Y-9761048D01*
X117587737Y-9761048D02*
X117164448Y-9154986D01*
X117164448Y-9154986D02*
X117229759Y-9891342D01*
X117229759Y-9891342D02*
X116664002Y-9033082D01*
X116383345Y-9236584D02*
X116322311Y-9208123D01*
X116322311Y-9208123D02*
X116216530Y-9195949D01*
X116216530Y-9195949D02*
X115992793Y-9277382D01*
X115992793Y-9277382D02*
X115919586Y-9354703D01*
X115919586Y-9354703D02*
X115891125Y-9415737D01*
X115891125Y-9415737D02*
X115878951Y-9521518D01*
X115878951Y-9521518D02*
X115911524Y-9611013D01*
X115911524Y-9611013D02*
X116005132Y-9728968D01*
X116005132Y-9728968D02*
X116737539Y-10070495D01*
X116737539Y-10070495D02*
X116155824Y-10282222D01*
X115488399Y-9562317D02*
X115427366Y-9533856D01*
X115427366Y-9533856D02*
X115321584Y-9521683D01*
X115321584Y-9521683D02*
X115097848Y-9603116D01*
X115097848Y-9603116D02*
X115024640Y-9680437D01*
X115024640Y-9680437D02*
X114996180Y-9741470D01*
X114996180Y-9741470D02*
X114984006Y-9847252D01*
X114984006Y-9847252D02*
X115016579Y-9936746D01*
X115016579Y-9936746D02*
X115110186Y-10054701D01*
X115110186Y-10054701D02*
X115842594Y-10396228D01*
X115842594Y-10396228D02*
X115260879Y-10607955D01*
%TO.C,SW33*%
X-72161592Y-59287208D02*
X-72312121Y-59283095D01*
X-72312121Y-59283095D02*
X-72535857Y-59201662D01*
X-72535857Y-59201662D02*
X-72609065Y-59124341D01*
X-72609065Y-59124341D02*
X-72637526Y-59063307D01*
X-72637526Y-59063307D02*
X-72649700Y-58957526D01*
X-72649700Y-58957526D02*
X-72617126Y-58868032D01*
X-72617126Y-58868032D02*
X-72539806Y-58794824D01*
X-72539806Y-58794824D02*
X-72478772Y-58766363D01*
X-72478772Y-58766363D02*
X-72372990Y-58754189D01*
X-72372990Y-58754189D02*
X-72177715Y-58774589D01*
X-72177715Y-58774589D02*
X-72071933Y-58762415D01*
X-72071933Y-58762415D02*
X-72010900Y-58733954D01*
X-72010900Y-58733954D02*
X-71933579Y-58660746D01*
X-71933579Y-58660746D02*
X-71901006Y-58571252D01*
X-71901006Y-58571252D02*
X-71913179Y-58465471D01*
X-71913179Y-58465471D02*
X-71941640Y-58404437D01*
X-71941640Y-58404437D02*
X-72014848Y-58327116D01*
X-72014848Y-58327116D02*
X-72238584Y-58245683D01*
X-72238584Y-58245683D02*
X-72389113Y-58241570D01*
X-72686057Y-58082816D02*
X-73251813Y-58941075D01*
X-73251813Y-58941075D02*
X-73186502Y-58204719D01*
X-73186502Y-58204719D02*
X-73609792Y-58810782D01*
X-73609792Y-58810782D02*
X-73491508Y-57789656D01*
X-73759991Y-57691936D02*
X-74341706Y-57480209D01*
X-74341706Y-57480209D02*
X-74158768Y-57952194D01*
X-74158768Y-57952194D02*
X-74293010Y-57903334D01*
X-74293010Y-57903334D02*
X-74398791Y-57915508D01*
X-74398791Y-57915508D02*
X-74459825Y-57943968D01*
X-74459825Y-57943968D02*
X-74537146Y-58017176D01*
X-74537146Y-58017176D02*
X-74618579Y-58240913D01*
X-74618579Y-58240913D02*
X-74606405Y-58346694D01*
X-74606405Y-58346694D02*
X-74577945Y-58407728D01*
X-74577945Y-58407728D02*
X-74504737Y-58485048D01*
X-74504737Y-58485048D02*
X-74236253Y-58582768D01*
X-74236253Y-58582768D02*
X-74130472Y-58570594D01*
X-74130472Y-58570594D02*
X-74069438Y-58542134D01*
X-74654937Y-57366202D02*
X-75236651Y-57154475D01*
X-75236651Y-57154475D02*
X-75053714Y-57626460D01*
X-75053714Y-57626460D02*
X-75187955Y-57577600D01*
X-75187955Y-57577600D02*
X-75293737Y-57589774D01*
X-75293737Y-57589774D02*
X-75354771Y-57618235D01*
X-75354771Y-57618235D02*
X-75432091Y-57691443D01*
X-75432091Y-57691443D02*
X-75513525Y-57915179D01*
X-75513525Y-57915179D02*
X-75501351Y-58020960D01*
X-75501351Y-58020960D02*
X-75472890Y-58081994D01*
X-75472890Y-58081994D02*
X-75399682Y-58159315D01*
X-75399682Y-58159315D02*
X-75131199Y-58257035D01*
X-75131199Y-58257035D02*
X-75025417Y-58244861D01*
X-75025417Y-58244861D02*
X-74964383Y-58216400D01*
%TO.C,SW32*%
X125160385Y-27226421D02*
X125042430Y-27320028D01*
X125042430Y-27320028D02*
X124818693Y-27401461D01*
X124818693Y-27401461D02*
X124712912Y-27389288D01*
X124712912Y-27389288D02*
X124651878Y-27360827D01*
X124651878Y-27360827D02*
X124574557Y-27287619D01*
X124574557Y-27287619D02*
X124541984Y-27198125D01*
X124541984Y-27198125D02*
X124554158Y-27092343D01*
X124554158Y-27092343D02*
X124582619Y-27031309D01*
X124582619Y-27031309D02*
X124655826Y-26953989D01*
X124655826Y-26953989D02*
X124818529Y-26844095D01*
X124818529Y-26844095D02*
X124891737Y-26766774D01*
X124891737Y-26766774D02*
X124920197Y-26705740D01*
X124920197Y-26705740D02*
X124932371Y-26599959D01*
X124932371Y-26599959D02*
X124899798Y-26510465D01*
X124899798Y-26510465D02*
X124822477Y-26437257D01*
X124822477Y-26437257D02*
X124761443Y-26408796D01*
X124761443Y-26408796D02*
X124655662Y-26396622D01*
X124655662Y-26396622D02*
X124431926Y-26478056D01*
X124431926Y-26478056D02*
X124313971Y-26571663D01*
X123984453Y-26640922D02*
X124102737Y-27662048D01*
X124102737Y-27662048D02*
X123679448Y-27055986D01*
X123679448Y-27055986D02*
X123744759Y-27792342D01*
X123744759Y-27792342D02*
X123179002Y-26934082D01*
X122910519Y-27031802D02*
X122328804Y-27243529D01*
X122328804Y-27243529D02*
X122772329Y-27487501D01*
X122772329Y-27487501D02*
X122638087Y-27536361D01*
X122638087Y-27536361D02*
X122564879Y-27613681D01*
X122564879Y-27613681D02*
X122536418Y-27674715D01*
X122536418Y-27674715D02*
X122524244Y-27780496D01*
X122524244Y-27780496D02*
X122605678Y-28004233D01*
X122605678Y-28004233D02*
X122682998Y-28077441D01*
X122682998Y-28077441D02*
X122744032Y-28105901D01*
X122744032Y-28105901D02*
X122849814Y-28118075D01*
X122849814Y-28118075D02*
X123118297Y-28020355D01*
X123118297Y-28020355D02*
X123191505Y-27943034D01*
X123191505Y-27943034D02*
X123219966Y-27882000D01*
X122003399Y-27463317D02*
X121942366Y-27434856D01*
X121942366Y-27434856D02*
X121836584Y-27422683D01*
X121836584Y-27422683D02*
X121612848Y-27504116D01*
X121612848Y-27504116D02*
X121539640Y-27581437D01*
X121539640Y-27581437D02*
X121511180Y-27642470D01*
X121511180Y-27642470D02*
X121499006Y-27748252D01*
X121499006Y-27748252D02*
X121531579Y-27837746D01*
X121531579Y-27837746D02*
X121625186Y-27955701D01*
X121625186Y-27955701D02*
X122357594Y-28297228D01*
X122357594Y-28297228D02*
X121775879Y-28508955D01*
%TO.C,SW37*%
X51609295Y-74107043D02*
X51557854Y-74248569D01*
X51557854Y-74248569D02*
X51409929Y-74435136D01*
X51409929Y-74435136D02*
X51313446Y-74480179D01*
X51313446Y-74480179D02*
X51246547Y-74487907D01*
X51246547Y-74487907D02*
X51142335Y-74466051D01*
X51142335Y-74466051D02*
X51067708Y-74406881D01*
X51067708Y-74406881D02*
X51022666Y-74310397D01*
X51022666Y-74310397D02*
X51014937Y-74243499D01*
X51014937Y-74243499D02*
X51036793Y-74139287D01*
X51036793Y-74139287D02*
X51117820Y-73960447D01*
X51117820Y-73960447D02*
X51139676Y-73856235D01*
X51139676Y-73856235D02*
X51131947Y-73789337D01*
X51131947Y-73789337D02*
X51086905Y-73692853D01*
X51086905Y-73692853D02*
X51012278Y-73633683D01*
X51012278Y-73633683D02*
X50908066Y-73611827D01*
X50908066Y-73611827D02*
X50841167Y-73619555D01*
X50841167Y-73619555D02*
X50744684Y-73664598D01*
X50744684Y-73664598D02*
X50596759Y-73851165D01*
X50596759Y-73851165D02*
X50545318Y-73992691D01*
X50300909Y-74224301D02*
X50936569Y-75032154D01*
X50936569Y-75032154D02*
X50258526Y-74737633D01*
X50258526Y-74737633D02*
X50699890Y-75330662D01*
X50699890Y-75330662D02*
X49768380Y-74895946D01*
X49590870Y-75119827D02*
X49206265Y-75604903D01*
X49206265Y-75604903D02*
X49711869Y-75580388D01*
X49711869Y-75580388D02*
X49623114Y-75692329D01*
X49623114Y-75692329D02*
X49601257Y-75796541D01*
X49601257Y-75796541D02*
X49608986Y-75863440D01*
X49608986Y-75863440D02*
X49654028Y-75959923D01*
X49654028Y-75959923D02*
X49840596Y-76107848D01*
X49840596Y-76107848D02*
X49944808Y-76129704D01*
X49944808Y-76129704D02*
X50011707Y-76121976D01*
X50011707Y-76121976D02*
X50108190Y-76076934D01*
X50108190Y-76076934D02*
X50285700Y-75853052D01*
X50285700Y-75853052D02*
X50307556Y-75748840D01*
X50307556Y-75748840D02*
X50299828Y-75681941D01*
X48999170Y-75866098D02*
X48584981Y-76388488D01*
X48584981Y-76388488D02*
X49634830Y-76673951D01*
%TO.C,SW9*%
X55242912Y-3616288D02*
X55124956Y-3709895D01*
X55124956Y-3709895D02*
X54901220Y-3791328D01*
X54901220Y-3791328D02*
X54795439Y-3779154D01*
X54795439Y-3779154D02*
X54734405Y-3750694D01*
X54734405Y-3750694D02*
X54657084Y-3677486D01*
X54657084Y-3677486D02*
X54624511Y-3587991D01*
X54624511Y-3587991D02*
X54636685Y-3482210D01*
X54636685Y-3482210D02*
X54665145Y-3421176D01*
X54665145Y-3421176D02*
X54738353Y-3343856D01*
X54738353Y-3343856D02*
X54901056Y-3233962D01*
X54901056Y-3233962D02*
X54974264Y-3156641D01*
X54974264Y-3156641D02*
X55002724Y-3095607D01*
X55002724Y-3095607D02*
X55014898Y-2989826D01*
X55014898Y-2989826D02*
X54982325Y-2900331D01*
X54982325Y-2900331D02*
X54905004Y-2827124D01*
X54905004Y-2827124D02*
X54843970Y-2798663D01*
X54843970Y-2798663D02*
X54738189Y-2786489D01*
X54738189Y-2786489D02*
X54514453Y-2867922D01*
X54514453Y-2867922D02*
X54396498Y-2961530D01*
X54066980Y-3030789D02*
X54185264Y-4051915D01*
X54185264Y-4051915D02*
X53761975Y-3445853D01*
X53761975Y-3445853D02*
X53827286Y-4182209D01*
X53827286Y-4182209D02*
X53261529Y-3323949D01*
X53200824Y-4410222D02*
X53021835Y-4475369D01*
X53021835Y-4475369D02*
X52916054Y-4463195D01*
X52916054Y-4463195D02*
X52855020Y-4434734D01*
X52855020Y-4434734D02*
X52716665Y-4333066D01*
X52716665Y-4333066D02*
X52606771Y-4170363D01*
X52606771Y-4170363D02*
X52476478Y-3812385D01*
X52476478Y-3812385D02*
X52488652Y-3706604D01*
X52488652Y-3706604D02*
X52517112Y-3645570D01*
X52517112Y-3645570D02*
X52590320Y-3568249D01*
X52590320Y-3568249D02*
X52769309Y-3503103D01*
X52769309Y-3503103D02*
X52875090Y-3515277D01*
X52875090Y-3515277D02*
X52936124Y-3543737D01*
X52936124Y-3543737D02*
X53013445Y-3616945D01*
X53013445Y-3616945D02*
X53094878Y-3840681D01*
X53094878Y-3840681D02*
X53082704Y-3946463D01*
X53082704Y-3946463D02*
X53054244Y-4007497D01*
X53054244Y-4007497D02*
X52981036Y-4084817D01*
X52981036Y-4084817D02*
X52802047Y-4149964D01*
X52802047Y-4149964D02*
X52696266Y-4137790D01*
X52696266Y-4137790D02*
X52635232Y-4109329D01*
X52635232Y-4109329D02*
X52557911Y-4036121D01*
%TO.C,SW6*%
X-52737066Y-4528341D02*
X-52887594Y-4524228D01*
X-52887594Y-4524228D02*
X-53111330Y-4442795D01*
X-53111330Y-4442795D02*
X-53184538Y-4365474D01*
X-53184538Y-4365474D02*
X-53212999Y-4304440D01*
X-53212999Y-4304440D02*
X-53225173Y-4198659D01*
X-53225173Y-4198659D02*
X-53192599Y-4109165D01*
X-53192599Y-4109165D02*
X-53115279Y-4035957D01*
X-53115279Y-4035957D02*
X-53054245Y-4007496D01*
X-53054245Y-4007496D02*
X-52948464Y-3995322D01*
X-52948464Y-3995322D02*
X-52753188Y-4015722D01*
X-52753188Y-4015722D02*
X-52647407Y-4003548D01*
X-52647407Y-4003548D02*
X-52586373Y-3975087D01*
X-52586373Y-3975087D02*
X-52509052Y-3901879D01*
X-52509052Y-3901879D02*
X-52476479Y-3812385D01*
X-52476479Y-3812385D02*
X-52488653Y-3706604D01*
X-52488653Y-3706604D02*
X-52517113Y-3645570D01*
X-52517113Y-3645570D02*
X-52590321Y-3568249D01*
X-52590321Y-3568249D02*
X-52814057Y-3486816D01*
X-52814057Y-3486816D02*
X-52964586Y-3482703D01*
X-53261530Y-3323949D02*
X-53827287Y-4182208D01*
X-53827287Y-4182208D02*
X-53761976Y-3445852D01*
X-53761976Y-3445852D02*
X-54185265Y-4051915D01*
X-54185265Y-4051915D02*
X-54066981Y-3030789D01*
X-54827684Y-2753915D02*
X-54648695Y-2819062D01*
X-54648695Y-2819062D02*
X-54575487Y-2896383D01*
X-54575487Y-2896383D02*
X-54547027Y-2957417D01*
X-54547027Y-2957417D02*
X-54506392Y-3124232D01*
X-54506392Y-3124232D02*
X-54526792Y-3319508D01*
X-54526792Y-3319508D02*
X-54657085Y-3677486D01*
X-54657085Y-3677486D02*
X-54734406Y-3750694D01*
X-54734406Y-3750694D02*
X-54795440Y-3779154D01*
X-54795440Y-3779154D02*
X-54901221Y-3791328D01*
X-54901221Y-3791328D02*
X-55080210Y-3726181D01*
X-55080210Y-3726181D02*
X-55153418Y-3648861D01*
X-55153418Y-3648861D02*
X-55181878Y-3587827D01*
X-55181878Y-3587827D02*
X-55194052Y-3482046D01*
X-55194052Y-3482046D02*
X-55112619Y-3258309D01*
X-55112619Y-3258309D02*
X-55035298Y-3185101D01*
X-55035298Y-3185101D02*
X-54974264Y-3156641D01*
X-54974264Y-3156641D02*
X-54868483Y-3144467D01*
X-54868483Y-3144467D02*
X-54689494Y-3209614D01*
X-54689494Y-3209614D02*
X-54616286Y-3286934D01*
X-54616286Y-3286934D02*
X-54587826Y-3347968D01*
X-54587826Y-3347968D02*
X-54575652Y-3453749D01*
%TO.C,SW7*%
X-36033066Y-14332341D02*
X-36183594Y-14328228D01*
X-36183594Y-14328228D02*
X-36407330Y-14246795D01*
X-36407330Y-14246795D02*
X-36480538Y-14169474D01*
X-36480538Y-14169474D02*
X-36508999Y-14108440D01*
X-36508999Y-14108440D02*
X-36521173Y-14002659D01*
X-36521173Y-14002659D02*
X-36488599Y-13913165D01*
X-36488599Y-13913165D02*
X-36411279Y-13839957D01*
X-36411279Y-13839957D02*
X-36350245Y-13811496D01*
X-36350245Y-13811496D02*
X-36244464Y-13799322D01*
X-36244464Y-13799322D02*
X-36049188Y-13819722D01*
X-36049188Y-13819722D02*
X-35943407Y-13807548D01*
X-35943407Y-13807548D02*
X-35882373Y-13779087D01*
X-35882373Y-13779087D02*
X-35805052Y-13705879D01*
X-35805052Y-13705879D02*
X-35772479Y-13616385D01*
X-35772479Y-13616385D02*
X-35784653Y-13510604D01*
X-35784653Y-13510604D02*
X-35813113Y-13449570D01*
X-35813113Y-13449570D02*
X-35886321Y-13372249D01*
X-35886321Y-13372249D02*
X-36110057Y-13290816D01*
X-36110057Y-13290816D02*
X-36260586Y-13286703D01*
X-36557530Y-13127949D02*
X-37123287Y-13986208D01*
X-37123287Y-13986208D02*
X-37057976Y-13249852D01*
X-37057976Y-13249852D02*
X-37481265Y-13855915D01*
X-37481265Y-13855915D02*
X-37362981Y-12834789D01*
X-37631464Y-12737069D02*
X-38257926Y-12509055D01*
X-38257926Y-12509055D02*
X-38197221Y-13595328D01*
%TO.C,SW31*%
X103839385Y-24345421D02*
X103721430Y-24439028D01*
X103721430Y-24439028D02*
X103497693Y-24520461D01*
X103497693Y-24520461D02*
X103391912Y-24508288D01*
X103391912Y-24508288D02*
X103330878Y-24479827D01*
X103330878Y-24479827D02*
X103253557Y-24406619D01*
X103253557Y-24406619D02*
X103220984Y-24317125D01*
X103220984Y-24317125D02*
X103233158Y-24211343D01*
X103233158Y-24211343D02*
X103261619Y-24150309D01*
X103261619Y-24150309D02*
X103334826Y-24072989D01*
X103334826Y-24072989D02*
X103497529Y-23963095D01*
X103497529Y-23963095D02*
X103570737Y-23885774D01*
X103570737Y-23885774D02*
X103599197Y-23824740D01*
X103599197Y-23824740D02*
X103611371Y-23718959D01*
X103611371Y-23718959D02*
X103578798Y-23629465D01*
X103578798Y-23629465D02*
X103501477Y-23556257D01*
X103501477Y-23556257D02*
X103440443Y-23527796D01*
X103440443Y-23527796D02*
X103334662Y-23515622D01*
X103334662Y-23515622D02*
X103110926Y-23597056D01*
X103110926Y-23597056D02*
X102992971Y-23690663D01*
X102663453Y-23759922D02*
X102781737Y-24781048D01*
X102781737Y-24781048D02*
X102358448Y-24174986D01*
X102358448Y-24174986D02*
X102423759Y-24911342D01*
X102423759Y-24911342D02*
X101858002Y-24053082D01*
X101589519Y-24150802D02*
X101007804Y-24362529D01*
X101007804Y-24362529D02*
X101451329Y-24606501D01*
X101451329Y-24606501D02*
X101317087Y-24655361D01*
X101317087Y-24655361D02*
X101243879Y-24732681D01*
X101243879Y-24732681D02*
X101215418Y-24793715D01*
X101215418Y-24793715D02*
X101203244Y-24899496D01*
X101203244Y-24899496D02*
X101284678Y-25123233D01*
X101284678Y-25123233D02*
X101361998Y-25196441D01*
X101361998Y-25196441D02*
X101423032Y-25224901D01*
X101423032Y-25224901D02*
X101528814Y-25237075D01*
X101528814Y-25237075D02*
X101797297Y-25139355D01*
X101797297Y-25139355D02*
X101870505Y-25062034D01*
X101870505Y-25062034D02*
X101898966Y-25001000D01*
X100454879Y-25627955D02*
X100991846Y-25432515D01*
X100723363Y-25530235D02*
X100381343Y-24590543D01*
X100381343Y-24590543D02*
X100519697Y-24692211D01*
X100519697Y-24692211D02*
X100641765Y-24749132D01*
X100641765Y-24749132D02*
X100747546Y-24761306D01*
%TO.C,SW13*%
X-115245592Y-10563208D02*
X-115396121Y-10559095D01*
X-115396121Y-10559095D02*
X-115619857Y-10477662D01*
X-115619857Y-10477662D02*
X-115693065Y-10400341D01*
X-115693065Y-10400341D02*
X-115721526Y-10339307D01*
X-115721526Y-10339307D02*
X-115733700Y-10233526D01*
X-115733700Y-10233526D02*
X-115701126Y-10144032D01*
X-115701126Y-10144032D02*
X-115623806Y-10070824D01*
X-115623806Y-10070824D02*
X-115562772Y-10042363D01*
X-115562772Y-10042363D02*
X-115456990Y-10030189D01*
X-115456990Y-10030189D02*
X-115261715Y-10050589D01*
X-115261715Y-10050589D02*
X-115155933Y-10038415D01*
X-115155933Y-10038415D02*
X-115094900Y-10009954D01*
X-115094900Y-10009954D02*
X-115017579Y-9936746D01*
X-115017579Y-9936746D02*
X-114985006Y-9847252D01*
X-114985006Y-9847252D02*
X-114997179Y-9741471D01*
X-114997179Y-9741471D02*
X-115025640Y-9680437D01*
X-115025640Y-9680437D02*
X-115098848Y-9603116D01*
X-115098848Y-9603116D02*
X-115322584Y-9521683D01*
X-115322584Y-9521683D02*
X-115473113Y-9517570D01*
X-115770057Y-9358816D02*
X-116335813Y-10217075D01*
X-116335813Y-10217075D02*
X-116270502Y-9480719D01*
X-116270502Y-9480719D02*
X-116693792Y-10086782D01*
X-116693792Y-10086782D02*
X-116575508Y-9065656D01*
X-117767726Y-9695902D02*
X-117230759Y-9891342D01*
X-117499242Y-9793622D02*
X-117157222Y-8853929D01*
X-117157222Y-8853929D02*
X-117116588Y-9020744D01*
X-117116588Y-9020744D02*
X-117059666Y-9142812D01*
X-117059666Y-9142812D02*
X-116986459Y-9220133D01*
X-117738937Y-8642202D02*
X-118320651Y-8430475D01*
X-118320651Y-8430475D02*
X-118137714Y-8902460D01*
X-118137714Y-8902460D02*
X-118271955Y-8853600D01*
X-118271955Y-8853600D02*
X-118377737Y-8865774D01*
X-118377737Y-8865774D02*
X-118438771Y-8894235D01*
X-118438771Y-8894235D02*
X-118516091Y-8967443D01*
X-118516091Y-8967443D02*
X-118597525Y-9191179D01*
X-118597525Y-9191179D02*
X-118585351Y-9296960D01*
X-118585351Y-9296960D02*
X-118556890Y-9357994D01*
X-118556890Y-9357994D02*
X-118483682Y-9435315D01*
X-118483682Y-9435315D02*
X-118215199Y-9533035D01*
X-118215199Y-9533035D02*
X-118109417Y-9520861D01*
X-118109417Y-9520861D02*
X-118048383Y-9492400D01*
%TO.C,SW30*%
X84228385Y-26162421D02*
X84110430Y-26256028D01*
X84110430Y-26256028D02*
X83886693Y-26337461D01*
X83886693Y-26337461D02*
X83780912Y-26325288D01*
X83780912Y-26325288D02*
X83719878Y-26296827D01*
X83719878Y-26296827D02*
X83642557Y-26223619D01*
X83642557Y-26223619D02*
X83609984Y-26134125D01*
X83609984Y-26134125D02*
X83622158Y-26028343D01*
X83622158Y-26028343D02*
X83650619Y-25967309D01*
X83650619Y-25967309D02*
X83723826Y-25889989D01*
X83723826Y-25889989D02*
X83886529Y-25780095D01*
X83886529Y-25780095D02*
X83959737Y-25702774D01*
X83959737Y-25702774D02*
X83988197Y-25641740D01*
X83988197Y-25641740D02*
X84000371Y-25535959D01*
X84000371Y-25535959D02*
X83967798Y-25446465D01*
X83967798Y-25446465D02*
X83890477Y-25373257D01*
X83890477Y-25373257D02*
X83829443Y-25344796D01*
X83829443Y-25344796D02*
X83723662Y-25332622D01*
X83723662Y-25332622D02*
X83499926Y-25414056D01*
X83499926Y-25414056D02*
X83381971Y-25507663D01*
X83052453Y-25576922D02*
X83170737Y-26598048D01*
X83170737Y-26598048D02*
X82747448Y-25991986D01*
X82747448Y-25991986D02*
X82812759Y-26728342D01*
X82812759Y-26728342D02*
X82247002Y-25870082D01*
X81978519Y-25967802D02*
X81396804Y-26179529D01*
X81396804Y-26179529D02*
X81840329Y-26423501D01*
X81840329Y-26423501D02*
X81706087Y-26472361D01*
X81706087Y-26472361D02*
X81632879Y-26549681D01*
X81632879Y-26549681D02*
X81604418Y-26610715D01*
X81604418Y-26610715D02*
X81592244Y-26716496D01*
X81592244Y-26716496D02*
X81673678Y-26940233D01*
X81673678Y-26940233D02*
X81750998Y-27013441D01*
X81750998Y-27013441D02*
X81812032Y-27041901D01*
X81812032Y-27041901D02*
X81917814Y-27054075D01*
X81917814Y-27054075D02*
X82186297Y-26956355D01*
X82186297Y-26956355D02*
X82259505Y-26879034D01*
X82259505Y-26879034D02*
X82287966Y-26818000D01*
X80815090Y-26391256D02*
X80725595Y-26423829D01*
X80725595Y-26423829D02*
X80652387Y-26501150D01*
X80652387Y-26501150D02*
X80623927Y-26562184D01*
X80623927Y-26562184D02*
X80611753Y-26667965D01*
X80611753Y-26667965D02*
X80632152Y-26863241D01*
X80632152Y-26863241D02*
X80713586Y-27086977D01*
X80713586Y-27086977D02*
X80823480Y-27249680D01*
X80823480Y-27249680D02*
X80900800Y-27322887D01*
X80900800Y-27322887D02*
X80961834Y-27351348D01*
X80961834Y-27351348D02*
X81067615Y-27363522D01*
X81067615Y-27363522D02*
X81157110Y-27330949D01*
X81157110Y-27330949D02*
X81230318Y-27253628D01*
X81230318Y-27253628D02*
X81258778Y-27192594D01*
X81258778Y-27192594D02*
X81270952Y-27086813D01*
X81270952Y-27086813D02*
X81250553Y-26891537D01*
X81250553Y-26891537D02*
X81169120Y-26667801D01*
X81169120Y-26667801D02*
X81059226Y-26505098D01*
X81059226Y-26505098D02*
X80981905Y-26431890D01*
X80981905Y-26431890D02*
X80920871Y-26403430D01*
X80920871Y-26403430D02*
X80815090Y-26391256D01*
%TO.C,SW21*%
X97323385Y-6444421D02*
X97205430Y-6538028D01*
X97205430Y-6538028D02*
X96981693Y-6619461D01*
X96981693Y-6619461D02*
X96875912Y-6607288D01*
X96875912Y-6607288D02*
X96814878Y-6578827D01*
X96814878Y-6578827D02*
X96737557Y-6505619D01*
X96737557Y-6505619D02*
X96704984Y-6416125D01*
X96704984Y-6416125D02*
X96717158Y-6310343D01*
X96717158Y-6310343D02*
X96745619Y-6249309D01*
X96745619Y-6249309D02*
X96818826Y-6171989D01*
X96818826Y-6171989D02*
X96981529Y-6062095D01*
X96981529Y-6062095D02*
X97054737Y-5984774D01*
X97054737Y-5984774D02*
X97083197Y-5923740D01*
X97083197Y-5923740D02*
X97095371Y-5817959D01*
X97095371Y-5817959D02*
X97062798Y-5728465D01*
X97062798Y-5728465D02*
X96985477Y-5655257D01*
X96985477Y-5655257D02*
X96924443Y-5626796D01*
X96924443Y-5626796D02*
X96818662Y-5614622D01*
X96818662Y-5614622D02*
X96594926Y-5696056D01*
X96594926Y-5696056D02*
X96476971Y-5789663D01*
X96147453Y-5858922D02*
X96265737Y-6880048D01*
X96265737Y-6880048D02*
X95842448Y-6273986D01*
X95842448Y-6273986D02*
X95907759Y-7010342D01*
X95907759Y-7010342D02*
X95342002Y-6152082D01*
X95061345Y-6355584D02*
X95000311Y-6327123D01*
X95000311Y-6327123D02*
X94894530Y-6314949D01*
X94894530Y-6314949D02*
X94670793Y-6396382D01*
X94670793Y-6396382D02*
X94597586Y-6473703D01*
X94597586Y-6473703D02*
X94569125Y-6534737D01*
X94569125Y-6534737D02*
X94556951Y-6640518D01*
X94556951Y-6640518D02*
X94589524Y-6730013D01*
X94589524Y-6730013D02*
X94683132Y-6847968D01*
X94683132Y-6847968D02*
X95415539Y-7189495D01*
X95415539Y-7189495D02*
X94833824Y-7401222D01*
X93938879Y-7726955D02*
X94475846Y-7531515D01*
X94207363Y-7629235D02*
X93865343Y-6689543D01*
X93865343Y-6689543D02*
X94003697Y-6791211D01*
X94003697Y-6791211D02*
X94125765Y-6848132D01*
X94125765Y-6848132D02*
X94231546Y-6860306D01*
%TO.C,SW29*%
X68721385Y-39255421D02*
X68603430Y-39349028D01*
X68603430Y-39349028D02*
X68379693Y-39430461D01*
X68379693Y-39430461D02*
X68273912Y-39418288D01*
X68273912Y-39418288D02*
X68212878Y-39389827D01*
X68212878Y-39389827D02*
X68135557Y-39316619D01*
X68135557Y-39316619D02*
X68102984Y-39227125D01*
X68102984Y-39227125D02*
X68115158Y-39121343D01*
X68115158Y-39121343D02*
X68143619Y-39060309D01*
X68143619Y-39060309D02*
X68216826Y-38982989D01*
X68216826Y-38982989D02*
X68379529Y-38873095D01*
X68379529Y-38873095D02*
X68452737Y-38795774D01*
X68452737Y-38795774D02*
X68481197Y-38734740D01*
X68481197Y-38734740D02*
X68493371Y-38628959D01*
X68493371Y-38628959D02*
X68460798Y-38539465D01*
X68460798Y-38539465D02*
X68383477Y-38466257D01*
X68383477Y-38466257D02*
X68322443Y-38437796D01*
X68322443Y-38437796D02*
X68216662Y-38425622D01*
X68216662Y-38425622D02*
X67992926Y-38507056D01*
X67992926Y-38507056D02*
X67874971Y-38600663D01*
X67545453Y-38669922D02*
X67663737Y-39691048D01*
X67663737Y-39691048D02*
X67240448Y-39084986D01*
X67240448Y-39084986D02*
X67305759Y-39821342D01*
X67305759Y-39821342D02*
X66740002Y-38963082D01*
X66459345Y-39166584D02*
X66398311Y-39138123D01*
X66398311Y-39138123D02*
X66292530Y-39125949D01*
X66292530Y-39125949D02*
X66068793Y-39207382D01*
X66068793Y-39207382D02*
X65995586Y-39284703D01*
X65995586Y-39284703D02*
X65967125Y-39345737D01*
X65967125Y-39345737D02*
X65954951Y-39451518D01*
X65954951Y-39451518D02*
X65987524Y-39541013D01*
X65987524Y-39541013D02*
X66081132Y-39658968D01*
X66081132Y-39658968D02*
X66813539Y-40000495D01*
X66813539Y-40000495D02*
X66231824Y-40212222D01*
X65784352Y-40375089D02*
X65605363Y-40440235D01*
X65605363Y-40440235D02*
X65499581Y-40428061D01*
X65499581Y-40428061D02*
X65438548Y-40399601D01*
X65438548Y-40399601D02*
X65300193Y-40297932D01*
X65300193Y-40297932D02*
X65190299Y-40135230D01*
X65190299Y-40135230D02*
X65060006Y-39777252D01*
X65060006Y-39777252D02*
X65072180Y-39671470D01*
X65072180Y-39671470D02*
X65100640Y-39610437D01*
X65100640Y-39610437D02*
X65173848Y-39533116D01*
X65173848Y-39533116D02*
X65352837Y-39467969D01*
X65352837Y-39467969D02*
X65458618Y-39480143D01*
X65458618Y-39480143D02*
X65519652Y-39508604D01*
X65519652Y-39508604D02*
X65596973Y-39581812D01*
X65596973Y-39581812D02*
X65678406Y-39805548D01*
X65678406Y-39805548D02*
X65666232Y-39911329D01*
X65666232Y-39911329D02*
X65637772Y-39972363D01*
X65637772Y-39972363D02*
X65564564Y-40049684D01*
X65564564Y-40049684D02*
X65385575Y-40114830D01*
X65385575Y-40114830D02*
X65279794Y-40102656D01*
X65279794Y-40102656D02*
X65218760Y-40074196D01*
X65218760Y-40074196D02*
X65141439Y-40000988D01*
%TO.C,SW35*%
X-39191177Y-103927818D02*
X-39255400Y-103791616D01*
X-39255400Y-103791616D02*
X-39283632Y-103555200D01*
X-39283632Y-103555200D02*
X-39247642Y-103454987D01*
X-39247642Y-103454987D02*
X-39206006Y-103402058D01*
X-39206006Y-103402058D02*
X-39117086Y-103343482D01*
X-39117086Y-103343482D02*
X-39022520Y-103332189D01*
X-39022520Y-103332189D02*
X-38922307Y-103368179D01*
X-38922307Y-103368179D02*
X-38869378Y-103409815D01*
X-38869378Y-103409815D02*
X-38810802Y-103498735D01*
X-38810802Y-103498735D02*
X-38740932Y-103682221D01*
X-38740932Y-103682221D02*
X-38682356Y-103771140D01*
X-38682356Y-103771140D02*
X-38629427Y-103812777D01*
X-38629427Y-103812777D02*
X-38529214Y-103848767D01*
X-38529214Y-103848767D02*
X-38434648Y-103837474D01*
X-38434648Y-103837474D02*
X-38345728Y-103778898D01*
X-38345728Y-103778898D02*
X-38304091Y-103725968D01*
X-38304091Y-103725968D02*
X-38268101Y-103625755D01*
X-38268101Y-103625755D02*
X-38296334Y-103389340D01*
X-38296334Y-103389340D02*
X-38360557Y-103253137D01*
X-38352799Y-102916509D02*
X-39373977Y-102798671D01*
X-39373977Y-102798671D02*
X-38687317Y-102524840D01*
X-38687317Y-102524840D02*
X-39419149Y-102420406D01*
X-39419149Y-102420406D02*
X-38454437Y-102065413D01*
X-38488316Y-101781715D02*
X-38561721Y-101167035D01*
X-38561721Y-101167035D02*
X-38900460Y-101543189D01*
X-38900460Y-101543189D02*
X-38917400Y-101401339D01*
X-38917400Y-101401339D02*
X-38975976Y-101312420D01*
X-38975976Y-101312420D02*
X-39028906Y-101270783D01*
X-39028906Y-101270783D02*
X-39129118Y-101234793D01*
X-39129118Y-101234793D02*
X-39365534Y-101263026D01*
X-39365534Y-101263026D02*
X-39454453Y-101321602D01*
X-39454453Y-101321602D02*
X-39496090Y-101374532D01*
X-39496090Y-101374532D02*
X-39532080Y-101474744D01*
X-39532080Y-101474744D02*
X-39498201Y-101758443D01*
X-39498201Y-101758443D02*
X-39439625Y-101847363D01*
X-39439625Y-101847363D02*
X-39386695Y-101888999D01*
X-38669006Y-100268656D02*
X-38612540Y-100741487D01*
X-38612540Y-100741487D02*
X-39079725Y-100845235D01*
X-39079725Y-100845235D02*
X-39038088Y-100792306D01*
X-39038088Y-100792306D02*
X-39002098Y-100692093D01*
X-39002098Y-100692093D02*
X-39030331Y-100455678D01*
X-39030331Y-100455678D02*
X-39088907Y-100366758D01*
X-39088907Y-100366758D02*
X-39141836Y-100325121D01*
X-39141836Y-100325121D02*
X-39242049Y-100289131D01*
X-39242049Y-100289131D02*
X-39478465Y-100317364D01*
X-39478465Y-100317364D02*
X-39567384Y-100375940D01*
X-39567384Y-100375940D02*
X-39609021Y-100428870D01*
X-39609021Y-100428870D02*
X-39645011Y-100529083D01*
X-39645011Y-100529083D02*
X-39616778Y-100765498D01*
X-39616778Y-100765498D02*
X-39558202Y-100854418D01*
X-39558202Y-100854418D02*
X-39505272Y-100896054D01*
%TO.C,SW17*%
X-42101592Y-32396208D02*
X-42252121Y-32392095D01*
X-42252121Y-32392095D02*
X-42475857Y-32310662D01*
X-42475857Y-32310662D02*
X-42549065Y-32233341D01*
X-42549065Y-32233341D02*
X-42577526Y-32172307D01*
X-42577526Y-32172307D02*
X-42589700Y-32066526D01*
X-42589700Y-32066526D02*
X-42557126Y-31977032D01*
X-42557126Y-31977032D02*
X-42479806Y-31903824D01*
X-42479806Y-31903824D02*
X-42418772Y-31875363D01*
X-42418772Y-31875363D02*
X-42312990Y-31863189D01*
X-42312990Y-31863189D02*
X-42117715Y-31883589D01*
X-42117715Y-31883589D02*
X-42011933Y-31871415D01*
X-42011933Y-31871415D02*
X-41950900Y-31842954D01*
X-41950900Y-31842954D02*
X-41873579Y-31769746D01*
X-41873579Y-31769746D02*
X-41841006Y-31680252D01*
X-41841006Y-31680252D02*
X-41853179Y-31574471D01*
X-41853179Y-31574471D02*
X-41881640Y-31513437D01*
X-41881640Y-31513437D02*
X-41954848Y-31436116D01*
X-41954848Y-31436116D02*
X-42178584Y-31354683D01*
X-42178584Y-31354683D02*
X-42329113Y-31350570D01*
X-42626057Y-31191816D02*
X-43191813Y-32050075D01*
X-43191813Y-32050075D02*
X-43126502Y-31313719D01*
X-43126502Y-31313719D02*
X-43549792Y-31919782D01*
X-43549792Y-31919782D02*
X-43431508Y-30898656D01*
X-44623726Y-31528902D02*
X-44086759Y-31724342D01*
X-44355242Y-31626622D02*
X-44013222Y-30686929D01*
X-44013222Y-30686929D02*
X-43972588Y-30853744D01*
X-43972588Y-30853744D02*
X-43915666Y-30975812D01*
X-43915666Y-30975812D02*
X-43842459Y-31053133D01*
X-44594937Y-30475202D02*
X-45221398Y-30247189D01*
X-45221398Y-30247189D02*
X-45160693Y-31333461D01*
%TO.C,SW36*%
X40032074Y-100091159D02*
X40062417Y-100238654D01*
X40062417Y-100238654D02*
X40034185Y-100475070D01*
X40034185Y-100475070D02*
X39975608Y-100563990D01*
X39975608Y-100563990D02*
X39922679Y-100605626D01*
X39922679Y-100605626D02*
X39822466Y-100641616D01*
X39822466Y-100641616D02*
X39727900Y-100630323D01*
X39727900Y-100630323D02*
X39638980Y-100571747D01*
X39638980Y-100571747D02*
X39597344Y-100518817D01*
X39597344Y-100518817D02*
X39561354Y-100418605D01*
X39561354Y-100418605D02*
X39536657Y-100223826D01*
X39536657Y-100223826D02*
X39500667Y-100123613D01*
X39500667Y-100123613D02*
X39459030Y-100070683D01*
X39459030Y-100070683D02*
X39370111Y-100012107D01*
X39370111Y-100012107D02*
X39275544Y-100000814D01*
X39275544Y-100000814D02*
X39175332Y-100036804D01*
X39175332Y-100036804D02*
X39122402Y-100078441D01*
X39122402Y-100078441D02*
X39063826Y-100167360D01*
X39063826Y-100167360D02*
X39035593Y-100403776D01*
X39035593Y-100403776D02*
X39065937Y-100551272D01*
X38979128Y-100876607D02*
X39943840Y-101231599D01*
X39943840Y-101231599D02*
X39212008Y-101336034D01*
X39212008Y-101336034D02*
X39898668Y-101609864D01*
X39898668Y-101609864D02*
X38877490Y-101727702D01*
X38843611Y-102011401D02*
X38770206Y-102626081D01*
X38770206Y-102626081D02*
X39187996Y-102340271D01*
X39187996Y-102340271D02*
X39171057Y-102482121D01*
X39171057Y-102482121D02*
X39207047Y-102582333D01*
X39207047Y-102582333D02*
X39248683Y-102635263D01*
X39248683Y-102635263D02*
X39337603Y-102693839D01*
X39337603Y-102693839D02*
X39574019Y-102722072D01*
X39574019Y-102722072D02*
X39674231Y-102686082D01*
X39674231Y-102686082D02*
X39727161Y-102644445D01*
X39727161Y-102644445D02*
X39785737Y-102555526D01*
X39785737Y-102555526D02*
X39819616Y-102271827D01*
X39819616Y-102271827D02*
X39783626Y-102171614D01*
X39783626Y-102171614D02*
X39741990Y-102118685D01*
X38668568Y-103477176D02*
X38691155Y-103288044D01*
X38691155Y-103288044D02*
X38749731Y-103199124D01*
X38749731Y-103199124D02*
X38802660Y-103157488D01*
X38802660Y-103157488D02*
X38955803Y-103079861D01*
X38955803Y-103079861D02*
X39150582Y-103055164D01*
X39150582Y-103055164D02*
X39528846Y-103100337D01*
X39528846Y-103100337D02*
X39617766Y-103158913D01*
X39617766Y-103158913D02*
X39659402Y-103211842D01*
X39659402Y-103211842D02*
X39695392Y-103312055D01*
X39695392Y-103312055D02*
X39672806Y-103501187D01*
X39672806Y-103501187D02*
X39614230Y-103590107D01*
X39614230Y-103590107D02*
X39561300Y-103631744D01*
X39561300Y-103631744D02*
X39461088Y-103667734D01*
X39461088Y-103667734D02*
X39224672Y-103639501D01*
X39224672Y-103639501D02*
X39135753Y-103580925D01*
X39135753Y-103580925D02*
X39094116Y-103527995D01*
X39094116Y-103527995D02*
X39058126Y-103427782D01*
X39058126Y-103427782D02*
X39080712Y-103238650D01*
X39080712Y-103238650D02*
X39139288Y-103149730D01*
X39139288Y-103149730D02*
X39192218Y-103108094D01*
X39192218Y-103108094D02*
X39292431Y-103072104D01*
%TO.C,SW23*%
X-121760592Y-28464208D02*
X-121911121Y-28460095D01*
X-121911121Y-28460095D02*
X-122134857Y-28378662D01*
X-122134857Y-28378662D02*
X-122208065Y-28301341D01*
X-122208065Y-28301341D02*
X-122236526Y-28240307D01*
X-122236526Y-28240307D02*
X-122248700Y-28134526D01*
X-122248700Y-28134526D02*
X-122216126Y-28045032D01*
X-122216126Y-28045032D02*
X-122138806Y-27971824D01*
X-122138806Y-27971824D02*
X-122077772Y-27943363D01*
X-122077772Y-27943363D02*
X-121971990Y-27931189D01*
X-121971990Y-27931189D02*
X-121776715Y-27951589D01*
X-121776715Y-27951589D02*
X-121670933Y-27939415D01*
X-121670933Y-27939415D02*
X-121609900Y-27910954D01*
X-121609900Y-27910954D02*
X-121532579Y-27837746D01*
X-121532579Y-27837746D02*
X-121500006Y-27748252D01*
X-121500006Y-27748252D02*
X-121512179Y-27642471D01*
X-121512179Y-27642471D02*
X-121540640Y-27581437D01*
X-121540640Y-27581437D02*
X-121613848Y-27504116D01*
X-121613848Y-27504116D02*
X-121837584Y-27422683D01*
X-121837584Y-27422683D02*
X-121988113Y-27418570D01*
X-122285057Y-27259816D02*
X-122850813Y-28118075D01*
X-122850813Y-28118075D02*
X-122785502Y-27381719D01*
X-122785502Y-27381719D02*
X-123208792Y-27987782D01*
X-123208792Y-27987782D02*
X-123090508Y-26966656D01*
X-123436312Y-26942144D02*
X-123464773Y-26881110D01*
X-123464773Y-26881110D02*
X-123537980Y-26803789D01*
X-123537980Y-26803789D02*
X-123761717Y-26722356D01*
X-123761717Y-26722356D02*
X-123867498Y-26734530D01*
X-123867498Y-26734530D02*
X-123928532Y-26762990D01*
X-123928532Y-26762990D02*
X-124005852Y-26836198D01*
X-124005852Y-26836198D02*
X-124038426Y-26925693D01*
X-124038426Y-26925693D02*
X-124042539Y-27076221D01*
X-124042539Y-27076221D02*
X-123701011Y-27808628D01*
X-123701011Y-27808628D02*
X-124282726Y-27596902D01*
X-124253937Y-26543202D02*
X-124835651Y-26331475D01*
X-124835651Y-26331475D02*
X-124652714Y-26803460D01*
X-124652714Y-26803460D02*
X-124786955Y-26754600D01*
X-124786955Y-26754600D02*
X-124892737Y-26766774D01*
X-124892737Y-26766774D02*
X-124953771Y-26795235D01*
X-124953771Y-26795235D02*
X-125031091Y-26868443D01*
X-125031091Y-26868443D02*
X-125112525Y-27092179D01*
X-125112525Y-27092179D02*
X-125100351Y-27197960D01*
X-125100351Y-27197960D02*
X-125071890Y-27258994D01*
X-125071890Y-27258994D02*
X-124998682Y-27336315D01*
X-124998682Y-27336315D02*
X-124730199Y-27434035D01*
X-124730199Y-27434035D02*
X-124624417Y-27421861D01*
X-124624417Y-27421861D02*
X-124563383Y-27393400D01*
%TO.C,D25*%
X-57582619Y-57635714D02*
X-58582619Y-57635714D01*
X-58582619Y-57635714D02*
X-58582619Y-57873809D01*
X-58582619Y-57873809D02*
X-58535000Y-58016666D01*
X-58535000Y-58016666D02*
X-58439761Y-58111904D01*
X-58439761Y-58111904D02*
X-58344523Y-58159523D01*
X-58344523Y-58159523D02*
X-58154047Y-58207142D01*
X-58154047Y-58207142D02*
X-58011190Y-58207142D01*
X-58011190Y-58207142D02*
X-57820714Y-58159523D01*
X-57820714Y-58159523D02*
X-57725476Y-58111904D01*
X-57725476Y-58111904D02*
X-57630238Y-58016666D01*
X-57630238Y-58016666D02*
X-57582619Y-57873809D01*
X-57582619Y-57873809D02*
X-57582619Y-57635714D01*
X-58487380Y-58588095D02*
X-58535000Y-58635714D01*
X-58535000Y-58635714D02*
X-58582619Y-58730952D01*
X-58582619Y-58730952D02*
X-58582619Y-58969047D01*
X-58582619Y-58969047D02*
X-58535000Y-59064285D01*
X-58535000Y-59064285D02*
X-58487380Y-59111904D01*
X-58487380Y-59111904D02*
X-58392142Y-59159523D01*
X-58392142Y-59159523D02*
X-58296904Y-59159523D01*
X-58296904Y-59159523D02*
X-58154047Y-59111904D01*
X-58154047Y-59111904D02*
X-57582619Y-58540476D01*
X-57582619Y-58540476D02*
X-57582619Y-59159523D01*
X-58582619Y-60064285D02*
X-58582619Y-59588095D01*
X-58582619Y-59588095D02*
X-58106428Y-59540476D01*
X-58106428Y-59540476D02*
X-58154047Y-59588095D01*
X-58154047Y-59588095D02*
X-58201666Y-59683333D01*
X-58201666Y-59683333D02*
X-58201666Y-59921428D01*
X-58201666Y-59921428D02*
X-58154047Y-60016666D01*
X-58154047Y-60016666D02*
X-58106428Y-60064285D01*
X-58106428Y-60064285D02*
X-58011190Y-60111904D01*
X-58011190Y-60111904D02*
X-57773095Y-60111904D01*
X-57773095Y-60111904D02*
X-57677857Y-60064285D01*
X-57677857Y-60064285D02*
X-57630238Y-60016666D01*
X-57630238Y-60016666D02*
X-57582619Y-59921428D01*
X-57582619Y-59921428D02*
X-57582619Y-59683333D01*
X-57582619Y-59683333D02*
X-57630238Y-59588095D01*
X-57630238Y-59588095D02*
X-57677857Y-59540476D01*
%TO.C,D6*%
X33542380Y-26011905D02*
X32542380Y-26011905D01*
X32542380Y-26011905D02*
X32542380Y-26250000D01*
X32542380Y-26250000D02*
X32590000Y-26392857D01*
X32590000Y-26392857D02*
X32685238Y-26488095D01*
X32685238Y-26488095D02*
X32780476Y-26535714D01*
X32780476Y-26535714D02*
X32970952Y-26583333D01*
X32970952Y-26583333D02*
X33113809Y-26583333D01*
X33113809Y-26583333D02*
X33304285Y-26535714D01*
X33304285Y-26535714D02*
X33399523Y-26488095D01*
X33399523Y-26488095D02*
X33494761Y-26392857D01*
X33494761Y-26392857D02*
X33542380Y-26250000D01*
X33542380Y-26250000D02*
X33542380Y-26011905D01*
X32542380Y-27440476D02*
X32542380Y-27250000D01*
X32542380Y-27250000D02*
X32590000Y-27154762D01*
X32590000Y-27154762D02*
X32637619Y-27107143D01*
X32637619Y-27107143D02*
X32780476Y-27011905D01*
X32780476Y-27011905D02*
X32970952Y-26964286D01*
X32970952Y-26964286D02*
X33351904Y-26964286D01*
X33351904Y-26964286D02*
X33447142Y-27011905D01*
X33447142Y-27011905D02*
X33494761Y-27059524D01*
X33494761Y-27059524D02*
X33542380Y-27154762D01*
X33542380Y-27154762D02*
X33542380Y-27345238D01*
X33542380Y-27345238D02*
X33494761Y-27440476D01*
X33494761Y-27440476D02*
X33447142Y-27488095D01*
X33447142Y-27488095D02*
X33351904Y-27535714D01*
X33351904Y-27535714D02*
X33113809Y-27535714D01*
X33113809Y-27535714D02*
X33018571Y-27488095D01*
X33018571Y-27488095D02*
X32970952Y-27440476D01*
X32970952Y-27440476D02*
X32923333Y-27345238D01*
X32923333Y-27345238D02*
X32923333Y-27154762D01*
X32923333Y-27154762D02*
X32970952Y-27059524D01*
X32970952Y-27059524D02*
X33018571Y-27011905D01*
X33018571Y-27011905D02*
X33113809Y-26964286D01*
%TO.C,D29*%
X99057380Y-36025714D02*
X98057380Y-36025714D01*
X98057380Y-36025714D02*
X98057380Y-36263809D01*
X98057380Y-36263809D02*
X98105000Y-36406666D01*
X98105000Y-36406666D02*
X98200238Y-36501904D01*
X98200238Y-36501904D02*
X98295476Y-36549523D01*
X98295476Y-36549523D02*
X98485952Y-36597142D01*
X98485952Y-36597142D02*
X98628809Y-36597142D01*
X98628809Y-36597142D02*
X98819285Y-36549523D01*
X98819285Y-36549523D02*
X98914523Y-36501904D01*
X98914523Y-36501904D02*
X99009761Y-36406666D01*
X99009761Y-36406666D02*
X99057380Y-36263809D01*
X99057380Y-36263809D02*
X99057380Y-36025714D01*
X98152619Y-36978095D02*
X98105000Y-37025714D01*
X98105000Y-37025714D02*
X98057380Y-37120952D01*
X98057380Y-37120952D02*
X98057380Y-37359047D01*
X98057380Y-37359047D02*
X98105000Y-37454285D01*
X98105000Y-37454285D02*
X98152619Y-37501904D01*
X98152619Y-37501904D02*
X98247857Y-37549523D01*
X98247857Y-37549523D02*
X98343095Y-37549523D01*
X98343095Y-37549523D02*
X98485952Y-37501904D01*
X98485952Y-37501904D02*
X99057380Y-36930476D01*
X99057380Y-36930476D02*
X99057380Y-37549523D01*
X99057380Y-38025714D02*
X99057380Y-38216190D01*
X99057380Y-38216190D02*
X99009761Y-38311428D01*
X99009761Y-38311428D02*
X98962142Y-38359047D01*
X98962142Y-38359047D02*
X98819285Y-38454285D01*
X98819285Y-38454285D02*
X98628809Y-38501904D01*
X98628809Y-38501904D02*
X98247857Y-38501904D01*
X98247857Y-38501904D02*
X98152619Y-38454285D01*
X98152619Y-38454285D02*
X98105000Y-38406666D01*
X98105000Y-38406666D02*
X98057380Y-38311428D01*
X98057380Y-38311428D02*
X98057380Y-38120952D01*
X98057380Y-38120952D02*
X98105000Y-38025714D01*
X98105000Y-38025714D02*
X98152619Y-37978095D01*
X98152619Y-37978095D02*
X98247857Y-37930476D01*
X98247857Y-37930476D02*
X98485952Y-37930476D01*
X98485952Y-37930476D02*
X98581190Y-37978095D01*
X98581190Y-37978095D02*
X98628809Y-38025714D01*
X98628809Y-38025714D02*
X98676428Y-38120952D01*
X98676428Y-38120952D02*
X98676428Y-38311428D01*
X98676428Y-38311428D02*
X98628809Y-38406666D01*
X98628809Y-38406666D02*
X98581190Y-38454285D01*
X98581190Y-38454285D02*
X98485952Y-38501904D01*
%TO.C,D7*%
X52117380Y-15511905D02*
X51117380Y-15511905D01*
X51117380Y-15511905D02*
X51117380Y-15750000D01*
X51117380Y-15750000D02*
X51165000Y-15892857D01*
X51165000Y-15892857D02*
X51260238Y-15988095D01*
X51260238Y-15988095D02*
X51355476Y-16035714D01*
X51355476Y-16035714D02*
X51545952Y-16083333D01*
X51545952Y-16083333D02*
X51688809Y-16083333D01*
X51688809Y-16083333D02*
X51879285Y-16035714D01*
X51879285Y-16035714D02*
X51974523Y-15988095D01*
X51974523Y-15988095D02*
X52069761Y-15892857D01*
X52069761Y-15892857D02*
X52117380Y-15750000D01*
X52117380Y-15750000D02*
X52117380Y-15511905D01*
X51117380Y-16416667D02*
X51117380Y-17083333D01*
X51117380Y-17083333D02*
X52117380Y-16654762D01*
%TO.C,D9*%
X87542380Y-1574405D02*
X86542380Y-1574405D01*
X86542380Y-1574405D02*
X86542380Y-1812500D01*
X86542380Y-1812500D02*
X86590000Y-1955357D01*
X86590000Y-1955357D02*
X86685238Y-2050595D01*
X86685238Y-2050595D02*
X86780476Y-2098214D01*
X86780476Y-2098214D02*
X86970952Y-2145833D01*
X86970952Y-2145833D02*
X87113809Y-2145833D01*
X87113809Y-2145833D02*
X87304285Y-2098214D01*
X87304285Y-2098214D02*
X87399523Y-2050595D01*
X87399523Y-2050595D02*
X87494761Y-1955357D01*
X87494761Y-1955357D02*
X87542380Y-1812500D01*
X87542380Y-1812500D02*
X87542380Y-1574405D01*
X87542380Y-2622024D02*
X87542380Y-2812500D01*
X87542380Y-2812500D02*
X87494761Y-2907738D01*
X87494761Y-2907738D02*
X87447142Y-2955357D01*
X87447142Y-2955357D02*
X87304285Y-3050595D01*
X87304285Y-3050595D02*
X87113809Y-3098214D01*
X87113809Y-3098214D02*
X86732857Y-3098214D01*
X86732857Y-3098214D02*
X86637619Y-3050595D01*
X86637619Y-3050595D02*
X86590000Y-3002976D01*
X86590000Y-3002976D02*
X86542380Y-2907738D01*
X86542380Y-2907738D02*
X86542380Y-2717262D01*
X86542380Y-2717262D02*
X86590000Y-2622024D01*
X86590000Y-2622024D02*
X86637619Y-2574405D01*
X86637619Y-2574405D02*
X86732857Y-2526786D01*
X86732857Y-2526786D02*
X86970952Y-2526786D01*
X86970952Y-2526786D02*
X87066190Y-2574405D01*
X87066190Y-2574405D02*
X87113809Y-2622024D01*
X87113809Y-2622024D02*
X87161428Y-2717262D01*
X87161428Y-2717262D02*
X87161428Y-2907738D01*
X87161428Y-2907738D02*
X87113809Y-3002976D01*
X87113809Y-3002976D02*
X87066190Y-3050595D01*
X87066190Y-3050595D02*
X86970952Y-3098214D01*
%TO.C,D21*%
X-131003869Y-36498214D02*
X-132003869Y-36498214D01*
X-132003869Y-36498214D02*
X-132003869Y-36736309D01*
X-132003869Y-36736309D02*
X-131956250Y-36879166D01*
X-131956250Y-36879166D02*
X-131861011Y-36974404D01*
X-131861011Y-36974404D02*
X-131765773Y-37022023D01*
X-131765773Y-37022023D02*
X-131575297Y-37069642D01*
X-131575297Y-37069642D02*
X-131432440Y-37069642D01*
X-131432440Y-37069642D02*
X-131241964Y-37022023D01*
X-131241964Y-37022023D02*
X-131146726Y-36974404D01*
X-131146726Y-36974404D02*
X-131051488Y-36879166D01*
X-131051488Y-36879166D02*
X-131003869Y-36736309D01*
X-131003869Y-36736309D02*
X-131003869Y-36498214D01*
X-131908630Y-37450595D02*
X-131956250Y-37498214D01*
X-131956250Y-37498214D02*
X-132003869Y-37593452D01*
X-132003869Y-37593452D02*
X-132003869Y-37831547D01*
X-132003869Y-37831547D02*
X-131956250Y-37926785D01*
X-131956250Y-37926785D02*
X-131908630Y-37974404D01*
X-131908630Y-37974404D02*
X-131813392Y-38022023D01*
X-131813392Y-38022023D02*
X-131718154Y-38022023D01*
X-131718154Y-38022023D02*
X-131575297Y-37974404D01*
X-131575297Y-37974404D02*
X-131003869Y-37402976D01*
X-131003869Y-37402976D02*
X-131003869Y-38022023D01*
X-131003869Y-38974404D02*
X-131003869Y-38402976D01*
X-131003869Y-38688690D02*
X-132003869Y-38688690D01*
X-132003869Y-38688690D02*
X-131861011Y-38593452D01*
X-131861011Y-38593452D02*
X-131765773Y-38498214D01*
X-131765773Y-38498214D02*
X-131718154Y-38402976D01*
%TO.C,SW2*%
X-8930238Y-25916667D02*
X-8882619Y-26059524D01*
X-8882619Y-26059524D02*
X-8882619Y-26297619D01*
X-8882619Y-26297619D02*
X-8930238Y-26392857D01*
X-8930238Y-26392857D02*
X-8977857Y-26440476D01*
X-8977857Y-26440476D02*
X-9073095Y-26488095D01*
X-9073095Y-26488095D02*
X-9168333Y-26488095D01*
X-9168333Y-26488095D02*
X-9263571Y-26440476D01*
X-9263571Y-26440476D02*
X-9311190Y-26392857D01*
X-9311190Y-26392857D02*
X-9358809Y-26297619D01*
X-9358809Y-26297619D02*
X-9406428Y-26107143D01*
X-9406428Y-26107143D02*
X-9454047Y-26011905D01*
X-9454047Y-26011905D02*
X-9501666Y-25964286D01*
X-9501666Y-25964286D02*
X-9596904Y-25916667D01*
X-9596904Y-25916667D02*
X-9692142Y-25916667D01*
X-9692142Y-25916667D02*
X-9787380Y-25964286D01*
X-9787380Y-25964286D02*
X-9835000Y-26011905D01*
X-9835000Y-26011905D02*
X-9882619Y-26107143D01*
X-9882619Y-26107143D02*
X-9882619Y-26345238D01*
X-9882619Y-26345238D02*
X-9835000Y-26488095D01*
X-9882619Y-26821429D02*
X-8882619Y-27059524D01*
X-8882619Y-27059524D02*
X-9596904Y-27250000D01*
X-9596904Y-27250000D02*
X-8882619Y-27440476D01*
X-8882619Y-27440476D02*
X-9882619Y-27678572D01*
X-9787380Y-28011905D02*
X-9835000Y-28059524D01*
X-9835000Y-28059524D02*
X-9882619Y-28154762D01*
X-9882619Y-28154762D02*
X-9882619Y-28392857D01*
X-9882619Y-28392857D02*
X-9835000Y-28488095D01*
X-9835000Y-28488095D02*
X-9787380Y-28535714D01*
X-9787380Y-28535714D02*
X-9692142Y-28583333D01*
X-9692142Y-28583333D02*
X-9596904Y-28583333D01*
X-9596904Y-28583333D02*
X-9454047Y-28535714D01*
X-9454047Y-28535714D02*
X-8882619Y-27964286D01*
X-8882619Y-27964286D02*
X-8882619Y-28583333D01*
%TO.C,D10*%
X110042380Y-3098214D02*
X109042380Y-3098214D01*
X109042380Y-3098214D02*
X109042380Y-3336309D01*
X109042380Y-3336309D02*
X109090000Y-3479166D01*
X109090000Y-3479166D02*
X109185238Y-3574404D01*
X109185238Y-3574404D02*
X109280476Y-3622023D01*
X109280476Y-3622023D02*
X109470952Y-3669642D01*
X109470952Y-3669642D02*
X109613809Y-3669642D01*
X109613809Y-3669642D02*
X109804285Y-3622023D01*
X109804285Y-3622023D02*
X109899523Y-3574404D01*
X109899523Y-3574404D02*
X109994761Y-3479166D01*
X109994761Y-3479166D02*
X110042380Y-3336309D01*
X110042380Y-3336309D02*
X110042380Y-3098214D01*
X110042380Y-4622023D02*
X110042380Y-4050595D01*
X110042380Y-4336309D02*
X109042380Y-4336309D01*
X109042380Y-4336309D02*
X109185238Y-4241071D01*
X109185238Y-4241071D02*
X109280476Y-4145833D01*
X109280476Y-4145833D02*
X109328095Y-4050595D01*
X109042380Y-5241071D02*
X109042380Y-5336309D01*
X109042380Y-5336309D02*
X109090000Y-5431547D01*
X109090000Y-5431547D02*
X109137619Y-5479166D01*
X109137619Y-5479166D02*
X109232857Y-5526785D01*
X109232857Y-5526785D02*
X109423333Y-5574404D01*
X109423333Y-5574404D02*
X109661428Y-5574404D01*
X109661428Y-5574404D02*
X109851904Y-5526785D01*
X109851904Y-5526785D02*
X109947142Y-5479166D01*
X109947142Y-5479166D02*
X109994761Y-5431547D01*
X109994761Y-5431547D02*
X110042380Y-5336309D01*
X110042380Y-5336309D02*
X110042380Y-5241071D01*
X110042380Y-5241071D02*
X109994761Y-5145833D01*
X109994761Y-5145833D02*
X109947142Y-5098214D01*
X109947142Y-5098214D02*
X109851904Y-5050595D01*
X109851904Y-5050595D02*
X109661428Y-5002976D01*
X109661428Y-5002976D02*
X109423333Y-5002976D01*
X109423333Y-5002976D02*
X109232857Y-5050595D01*
X109232857Y-5050595D02*
X109137619Y-5098214D01*
X109137619Y-5098214D02*
X109090000Y-5145833D01*
X109090000Y-5145833D02*
X109042380Y-5241071D01*
%TO.C,R1*%
X7467380Y-18283333D02*
X6991190Y-17950000D01*
X7467380Y-17711905D02*
X6467380Y-17711905D01*
X6467380Y-17711905D02*
X6467380Y-18092857D01*
X6467380Y-18092857D02*
X6515000Y-18188095D01*
X6515000Y-18188095D02*
X6562619Y-18235714D01*
X6562619Y-18235714D02*
X6657857Y-18283333D01*
X6657857Y-18283333D02*
X6800714Y-18283333D01*
X6800714Y-18283333D02*
X6895952Y-18235714D01*
X6895952Y-18235714D02*
X6943571Y-18188095D01*
X6943571Y-18188095D02*
X6991190Y-18092857D01*
X6991190Y-18092857D02*
X6991190Y-17711905D01*
X7467380Y-19235714D02*
X7467380Y-18664286D01*
X7467380Y-18950000D02*
X6467380Y-18950000D01*
X6467380Y-18950000D02*
X6610238Y-18854762D01*
X6610238Y-18854762D02*
X6705476Y-18759524D01*
X6705476Y-18759524D02*
X6753095Y-18664286D01*
%TO.C,C3*%
X272142Y-25583333D02*
X319761Y-25535714D01*
X319761Y-25535714D02*
X367380Y-25392857D01*
X367380Y-25392857D02*
X367380Y-25297619D01*
X367380Y-25297619D02*
X319761Y-25154762D01*
X319761Y-25154762D02*
X224523Y-25059524D01*
X224523Y-25059524D02*
X129285Y-25011905D01*
X129285Y-25011905D02*
X-61190Y-24964286D01*
X-61190Y-24964286D02*
X-204047Y-24964286D01*
X-204047Y-24964286D02*
X-394523Y-25011905D01*
X-394523Y-25011905D02*
X-489761Y-25059524D01*
X-489761Y-25059524D02*
X-585000Y-25154762D01*
X-585000Y-25154762D02*
X-632619Y-25297619D01*
X-632619Y-25297619D02*
X-632619Y-25392857D01*
X-632619Y-25392857D02*
X-585000Y-25535714D01*
X-585000Y-25535714D02*
X-537380Y-25583333D01*
X-632619Y-25916667D02*
X-632619Y-26535714D01*
X-632619Y-26535714D02*
X-251666Y-26202381D01*
X-251666Y-26202381D02*
X-251666Y-26345238D01*
X-251666Y-26345238D02*
X-204047Y-26440476D01*
X-204047Y-26440476D02*
X-156428Y-26488095D01*
X-156428Y-26488095D02*
X-61190Y-26535714D01*
X-61190Y-26535714D02*
X176904Y-26535714D01*
X176904Y-26535714D02*
X272142Y-26488095D01*
X272142Y-26488095D02*
X319761Y-26440476D01*
X319761Y-26440476D02*
X367380Y-26345238D01*
X367380Y-26345238D02*
X367380Y-26059524D01*
X367380Y-26059524D02*
X319761Y-25964286D01*
X319761Y-25964286D02*
X272142Y-25916667D01*
%TO.C,C4*%
X2466666Y-10122142D02*
X2514285Y-10169761D01*
X2514285Y-10169761D02*
X2657142Y-10217380D01*
X2657142Y-10217380D02*
X2752380Y-10217380D01*
X2752380Y-10217380D02*
X2895237Y-10169761D01*
X2895237Y-10169761D02*
X2990475Y-10074523D01*
X2990475Y-10074523D02*
X3038094Y-9979285D01*
X3038094Y-9979285D02*
X3085713Y-9788809D01*
X3085713Y-9788809D02*
X3085713Y-9645952D01*
X3085713Y-9645952D02*
X3038094Y-9455476D01*
X3038094Y-9455476D02*
X2990475Y-9360238D01*
X2990475Y-9360238D02*
X2895237Y-9265000D01*
X2895237Y-9265000D02*
X2752380Y-9217380D01*
X2752380Y-9217380D02*
X2657142Y-9217380D01*
X2657142Y-9217380D02*
X2514285Y-9265000D01*
X2514285Y-9265000D02*
X2466666Y-9312619D01*
X1609523Y-9550714D02*
X1609523Y-10217380D01*
X1847618Y-9169761D02*
X2085713Y-9884047D01*
X2085713Y-9884047D02*
X1466666Y-9884047D01*
%TO.C,D27*%
X64542380Y-52035714D02*
X63542380Y-52035714D01*
X63542380Y-52035714D02*
X63542380Y-52273809D01*
X63542380Y-52273809D02*
X63590000Y-52416666D01*
X63590000Y-52416666D02*
X63685238Y-52511904D01*
X63685238Y-52511904D02*
X63780476Y-52559523D01*
X63780476Y-52559523D02*
X63970952Y-52607142D01*
X63970952Y-52607142D02*
X64113809Y-52607142D01*
X64113809Y-52607142D02*
X64304285Y-52559523D01*
X64304285Y-52559523D02*
X64399523Y-52511904D01*
X64399523Y-52511904D02*
X64494761Y-52416666D01*
X64494761Y-52416666D02*
X64542380Y-52273809D01*
X64542380Y-52273809D02*
X64542380Y-52035714D01*
X63637619Y-52988095D02*
X63590000Y-53035714D01*
X63590000Y-53035714D02*
X63542380Y-53130952D01*
X63542380Y-53130952D02*
X63542380Y-53369047D01*
X63542380Y-53369047D02*
X63590000Y-53464285D01*
X63590000Y-53464285D02*
X63637619Y-53511904D01*
X63637619Y-53511904D02*
X63732857Y-53559523D01*
X63732857Y-53559523D02*
X63828095Y-53559523D01*
X63828095Y-53559523D02*
X63970952Y-53511904D01*
X63970952Y-53511904D02*
X64542380Y-52940476D01*
X64542380Y-52940476D02*
X64542380Y-53559523D01*
X63542380Y-53892857D02*
X63542380Y-54559523D01*
X63542380Y-54559523D02*
X64542380Y-54130952D01*
%TO.C,U2*%
X-4355167Y-7388095D02*
X-3545643Y-7388095D01*
X-3545643Y-7388095D02*
X-3450405Y-7435714D01*
X-3450405Y-7435714D02*
X-3402786Y-7483333D01*
X-3402786Y-7483333D02*
X-3355167Y-7578571D01*
X-3355167Y-7578571D02*
X-3355167Y-7769047D01*
X-3355167Y-7769047D02*
X-3402786Y-7864285D01*
X-3402786Y-7864285D02*
X-3450405Y-7911904D01*
X-3450405Y-7911904D02*
X-3545643Y-7959523D01*
X-3545643Y-7959523D02*
X-4355167Y-7959523D01*
X-4259928Y-8388095D02*
X-4307548Y-8435714D01*
X-4307548Y-8435714D02*
X-4355167Y-8530952D01*
X-4355167Y-8530952D02*
X-4355167Y-8769047D01*
X-4355167Y-8769047D02*
X-4307548Y-8864285D01*
X-4307548Y-8864285D02*
X-4259928Y-8911904D01*
X-4259928Y-8911904D02*
X-4164690Y-8959523D01*
X-4164690Y-8959523D02*
X-4069452Y-8959523D01*
X-4069452Y-8959523D02*
X-3926595Y-8911904D01*
X-3926595Y-8911904D02*
X-3355167Y-8340476D01*
X-3355167Y-8340476D02*
X-3355167Y-8959523D01*
%TO.C,D30*%
X121042380Y-38098214D02*
X120042380Y-38098214D01*
X120042380Y-38098214D02*
X120042380Y-38336309D01*
X120042380Y-38336309D02*
X120090000Y-38479166D01*
X120090000Y-38479166D02*
X120185238Y-38574404D01*
X120185238Y-38574404D02*
X120280476Y-38622023D01*
X120280476Y-38622023D02*
X120470952Y-38669642D01*
X120470952Y-38669642D02*
X120613809Y-38669642D01*
X120613809Y-38669642D02*
X120804285Y-38622023D01*
X120804285Y-38622023D02*
X120899523Y-38574404D01*
X120899523Y-38574404D02*
X120994761Y-38479166D01*
X120994761Y-38479166D02*
X121042380Y-38336309D01*
X121042380Y-38336309D02*
X121042380Y-38098214D01*
X120042380Y-39002976D02*
X120042380Y-39622023D01*
X120042380Y-39622023D02*
X120423333Y-39288690D01*
X120423333Y-39288690D02*
X120423333Y-39431547D01*
X120423333Y-39431547D02*
X120470952Y-39526785D01*
X120470952Y-39526785D02*
X120518571Y-39574404D01*
X120518571Y-39574404D02*
X120613809Y-39622023D01*
X120613809Y-39622023D02*
X120851904Y-39622023D01*
X120851904Y-39622023D02*
X120947142Y-39574404D01*
X120947142Y-39574404D02*
X120994761Y-39526785D01*
X120994761Y-39526785D02*
X121042380Y-39431547D01*
X121042380Y-39431547D02*
X121042380Y-39145833D01*
X121042380Y-39145833D02*
X120994761Y-39050595D01*
X120994761Y-39050595D02*
X120947142Y-39002976D01*
X120042380Y-40241071D02*
X120042380Y-40336309D01*
X120042380Y-40336309D02*
X120090000Y-40431547D01*
X120090000Y-40431547D02*
X120137619Y-40479166D01*
X120137619Y-40479166D02*
X120232857Y-40526785D01*
X120232857Y-40526785D02*
X120423333Y-40574404D01*
X120423333Y-40574404D02*
X120661428Y-40574404D01*
X120661428Y-40574404D02*
X120851904Y-40526785D01*
X120851904Y-40526785D02*
X120947142Y-40479166D01*
X120947142Y-40479166D02*
X120994761Y-40431547D01*
X120994761Y-40431547D02*
X121042380Y-40336309D01*
X121042380Y-40336309D02*
X121042380Y-40241071D01*
X121042380Y-40241071D02*
X120994761Y-40145833D01*
X120994761Y-40145833D02*
X120947142Y-40098214D01*
X120947142Y-40098214D02*
X120851904Y-40050595D01*
X120851904Y-40050595D02*
X120661428Y-40002976D01*
X120661428Y-40002976D02*
X120423333Y-40002976D01*
X120423333Y-40002976D02*
X120232857Y-40050595D01*
X120232857Y-40050595D02*
X120137619Y-40098214D01*
X120137619Y-40098214D02*
X120090000Y-40145833D01*
X120090000Y-40145833D02*
X120042380Y-40241071D01*
%TO.C,SW1*%
X9569761Y-26016667D02*
X9617380Y-26159524D01*
X9617380Y-26159524D02*
X9617380Y-26397619D01*
X9617380Y-26397619D02*
X9569761Y-26492857D01*
X9569761Y-26492857D02*
X9522142Y-26540476D01*
X9522142Y-26540476D02*
X9426904Y-26588095D01*
X9426904Y-26588095D02*
X9331666Y-26588095D01*
X9331666Y-26588095D02*
X9236428Y-26540476D01*
X9236428Y-26540476D02*
X9188809Y-26492857D01*
X9188809Y-26492857D02*
X9141190Y-26397619D01*
X9141190Y-26397619D02*
X9093571Y-26207143D01*
X9093571Y-26207143D02*
X9045952Y-26111905D01*
X9045952Y-26111905D02*
X8998333Y-26064286D01*
X8998333Y-26064286D02*
X8903095Y-26016667D01*
X8903095Y-26016667D02*
X8807857Y-26016667D01*
X8807857Y-26016667D02*
X8712619Y-26064286D01*
X8712619Y-26064286D02*
X8665000Y-26111905D01*
X8665000Y-26111905D02*
X8617380Y-26207143D01*
X8617380Y-26207143D02*
X8617380Y-26445238D01*
X8617380Y-26445238D02*
X8665000Y-26588095D01*
X8617380Y-26921429D02*
X9617380Y-27159524D01*
X9617380Y-27159524D02*
X8903095Y-27350000D01*
X8903095Y-27350000D02*
X9617380Y-27540476D01*
X9617380Y-27540476D02*
X8617380Y-27778572D01*
X9617380Y-28683333D02*
X9617380Y-28111905D01*
X9617380Y-28397619D02*
X8617380Y-28397619D01*
X8617380Y-28397619D02*
X8760238Y-28302381D01*
X8760238Y-28302381D02*
X8855476Y-28207143D01*
X8855476Y-28207143D02*
X8903095Y-28111905D01*
%TO.C,C1*%
X7144118Y-3022142D02*
X7191737Y-3069761D01*
X7191737Y-3069761D02*
X7334594Y-3117380D01*
X7334594Y-3117380D02*
X7429832Y-3117380D01*
X7429832Y-3117380D02*
X7572689Y-3069761D01*
X7572689Y-3069761D02*
X7667927Y-2974523D01*
X7667927Y-2974523D02*
X7715546Y-2879285D01*
X7715546Y-2879285D02*
X7763165Y-2688809D01*
X7763165Y-2688809D02*
X7763165Y-2545952D01*
X7763165Y-2545952D02*
X7715546Y-2355476D01*
X7715546Y-2355476D02*
X7667927Y-2260238D01*
X7667927Y-2260238D02*
X7572689Y-2165000D01*
X7572689Y-2165000D02*
X7429832Y-2117380D01*
X7429832Y-2117380D02*
X7334594Y-2117380D01*
X7334594Y-2117380D02*
X7191737Y-2165000D01*
X7191737Y-2165000D02*
X7144118Y-2212619D01*
X6191737Y-3117380D02*
X6763165Y-3117380D01*
X6477451Y-3117380D02*
X6477451Y-2117380D01*
X6477451Y-2117380D02*
X6572689Y-2260238D01*
X6572689Y-2260238D02*
X6667927Y-2355476D01*
X6667927Y-2355476D02*
X6763165Y-2403095D01*
%TO.C,D11*%
X-124957619Y-18035714D02*
X-125957619Y-18035714D01*
X-125957619Y-18035714D02*
X-125957619Y-18273809D01*
X-125957619Y-18273809D02*
X-125910000Y-18416666D01*
X-125910000Y-18416666D02*
X-125814761Y-18511904D01*
X-125814761Y-18511904D02*
X-125719523Y-18559523D01*
X-125719523Y-18559523D02*
X-125529047Y-18607142D01*
X-125529047Y-18607142D02*
X-125386190Y-18607142D01*
X-125386190Y-18607142D02*
X-125195714Y-18559523D01*
X-125195714Y-18559523D02*
X-125100476Y-18511904D01*
X-125100476Y-18511904D02*
X-125005238Y-18416666D01*
X-125005238Y-18416666D02*
X-124957619Y-18273809D01*
X-124957619Y-18273809D02*
X-124957619Y-18035714D01*
X-124957619Y-19559523D02*
X-124957619Y-18988095D01*
X-124957619Y-19273809D02*
X-125957619Y-19273809D01*
X-125957619Y-19273809D02*
X-125814761Y-19178571D01*
X-125814761Y-19178571D02*
X-125719523Y-19083333D01*
X-125719523Y-19083333D02*
X-125671904Y-18988095D01*
X-124957619Y-20511904D02*
X-124957619Y-19940476D01*
X-124957619Y-20226190D02*
X-125957619Y-20226190D01*
X-125957619Y-20226190D02*
X-125814761Y-20130952D01*
X-125814761Y-20130952D02*
X-125719523Y-20035714D01*
X-125719523Y-20035714D02*
X-125671904Y-19940476D01*
%TO.C,D28*%
X82042380Y-38098214D02*
X81042380Y-38098214D01*
X81042380Y-38098214D02*
X81042380Y-38336309D01*
X81042380Y-38336309D02*
X81090000Y-38479166D01*
X81090000Y-38479166D02*
X81185238Y-38574404D01*
X81185238Y-38574404D02*
X81280476Y-38622023D01*
X81280476Y-38622023D02*
X81470952Y-38669642D01*
X81470952Y-38669642D02*
X81613809Y-38669642D01*
X81613809Y-38669642D02*
X81804285Y-38622023D01*
X81804285Y-38622023D02*
X81899523Y-38574404D01*
X81899523Y-38574404D02*
X81994761Y-38479166D01*
X81994761Y-38479166D02*
X82042380Y-38336309D01*
X82042380Y-38336309D02*
X82042380Y-38098214D01*
X81137619Y-39050595D02*
X81090000Y-39098214D01*
X81090000Y-39098214D02*
X81042380Y-39193452D01*
X81042380Y-39193452D02*
X81042380Y-39431547D01*
X81042380Y-39431547D02*
X81090000Y-39526785D01*
X81090000Y-39526785D02*
X81137619Y-39574404D01*
X81137619Y-39574404D02*
X81232857Y-39622023D01*
X81232857Y-39622023D02*
X81328095Y-39622023D01*
X81328095Y-39622023D02*
X81470952Y-39574404D01*
X81470952Y-39574404D02*
X82042380Y-39002976D01*
X82042380Y-39002976D02*
X82042380Y-39622023D01*
X81470952Y-40193452D02*
X81423333Y-40098214D01*
X81423333Y-40098214D02*
X81375714Y-40050595D01*
X81375714Y-40050595D02*
X81280476Y-40002976D01*
X81280476Y-40002976D02*
X81232857Y-40002976D01*
X81232857Y-40002976D02*
X81137619Y-40050595D01*
X81137619Y-40050595D02*
X81090000Y-40098214D01*
X81090000Y-40098214D02*
X81042380Y-40193452D01*
X81042380Y-40193452D02*
X81042380Y-40383928D01*
X81042380Y-40383928D02*
X81090000Y-40479166D01*
X81090000Y-40479166D02*
X81137619Y-40526785D01*
X81137619Y-40526785D02*
X81232857Y-40574404D01*
X81232857Y-40574404D02*
X81280476Y-40574404D01*
X81280476Y-40574404D02*
X81375714Y-40526785D01*
X81375714Y-40526785D02*
X81423333Y-40479166D01*
X81423333Y-40479166D02*
X81470952Y-40383928D01*
X81470952Y-40383928D02*
X81470952Y-40193452D01*
X81470952Y-40193452D02*
X81518571Y-40098214D01*
X81518571Y-40098214D02*
X81566190Y-40050595D01*
X81566190Y-40050595D02*
X81661428Y-40002976D01*
X81661428Y-40002976D02*
X81851904Y-40002976D01*
X81851904Y-40002976D02*
X81947142Y-40050595D01*
X81947142Y-40050595D02*
X81994761Y-40098214D01*
X81994761Y-40098214D02*
X82042380Y-40193452D01*
X82042380Y-40193452D02*
X82042380Y-40383928D01*
X82042380Y-40383928D02*
X81994761Y-40479166D01*
X81994761Y-40479166D02*
X81947142Y-40526785D01*
X81947142Y-40526785D02*
X81851904Y-40574404D01*
X81851904Y-40574404D02*
X81661428Y-40574404D01*
X81661428Y-40574404D02*
X81566190Y-40526785D01*
X81566190Y-40526785D02*
X81518571Y-40479166D01*
X81518571Y-40479166D02*
X81470952Y-40383928D01*
%TO.C,D17*%
X58042380Y-33598214D02*
X57042380Y-33598214D01*
X57042380Y-33598214D02*
X57042380Y-33836309D01*
X57042380Y-33836309D02*
X57090000Y-33979166D01*
X57090000Y-33979166D02*
X57185238Y-34074404D01*
X57185238Y-34074404D02*
X57280476Y-34122023D01*
X57280476Y-34122023D02*
X57470952Y-34169642D01*
X57470952Y-34169642D02*
X57613809Y-34169642D01*
X57613809Y-34169642D02*
X57804285Y-34122023D01*
X57804285Y-34122023D02*
X57899523Y-34074404D01*
X57899523Y-34074404D02*
X57994761Y-33979166D01*
X57994761Y-33979166D02*
X58042380Y-33836309D01*
X58042380Y-33836309D02*
X58042380Y-33598214D01*
X58042380Y-35122023D02*
X58042380Y-34550595D01*
X58042380Y-34836309D02*
X57042380Y-34836309D01*
X57042380Y-34836309D02*
X57185238Y-34741071D01*
X57185238Y-34741071D02*
X57280476Y-34645833D01*
X57280476Y-34645833D02*
X57328095Y-34550595D01*
X57042380Y-35455357D02*
X57042380Y-36122023D01*
X57042380Y-36122023D02*
X58042380Y-35693452D01*
%TO.C,D26*%
X39517380Y-54035714D02*
X38517380Y-54035714D01*
X38517380Y-54035714D02*
X38517380Y-54273809D01*
X38517380Y-54273809D02*
X38565000Y-54416666D01*
X38565000Y-54416666D02*
X38660238Y-54511904D01*
X38660238Y-54511904D02*
X38755476Y-54559523D01*
X38755476Y-54559523D02*
X38945952Y-54607142D01*
X38945952Y-54607142D02*
X39088809Y-54607142D01*
X39088809Y-54607142D02*
X39279285Y-54559523D01*
X39279285Y-54559523D02*
X39374523Y-54511904D01*
X39374523Y-54511904D02*
X39469761Y-54416666D01*
X39469761Y-54416666D02*
X39517380Y-54273809D01*
X39517380Y-54273809D02*
X39517380Y-54035714D01*
X38612619Y-54988095D02*
X38565000Y-55035714D01*
X38565000Y-55035714D02*
X38517380Y-55130952D01*
X38517380Y-55130952D02*
X38517380Y-55369047D01*
X38517380Y-55369047D02*
X38565000Y-55464285D01*
X38565000Y-55464285D02*
X38612619Y-55511904D01*
X38612619Y-55511904D02*
X38707857Y-55559523D01*
X38707857Y-55559523D02*
X38803095Y-55559523D01*
X38803095Y-55559523D02*
X38945952Y-55511904D01*
X38945952Y-55511904D02*
X39517380Y-54940476D01*
X39517380Y-54940476D02*
X39517380Y-55559523D01*
X38517380Y-56416666D02*
X38517380Y-56226190D01*
X38517380Y-56226190D02*
X38565000Y-56130952D01*
X38565000Y-56130952D02*
X38612619Y-56083333D01*
X38612619Y-56083333D02*
X38755476Y-55988095D01*
X38755476Y-55988095D02*
X38945952Y-55940476D01*
X38945952Y-55940476D02*
X39326904Y-55940476D01*
X39326904Y-55940476D02*
X39422142Y-55988095D01*
X39422142Y-55988095D02*
X39469761Y-56035714D01*
X39469761Y-56035714D02*
X39517380Y-56130952D01*
X39517380Y-56130952D02*
X39517380Y-56321428D01*
X39517380Y-56321428D02*
X39469761Y-56416666D01*
X39469761Y-56416666D02*
X39422142Y-56464285D01*
X39422142Y-56464285D02*
X39326904Y-56511904D01*
X39326904Y-56511904D02*
X39088809Y-56511904D01*
X39088809Y-56511904D02*
X38993571Y-56464285D01*
X38993571Y-56464285D02*
X38945952Y-56416666D01*
X38945952Y-56416666D02*
X38898333Y-56321428D01*
X38898333Y-56321428D02*
X38898333Y-56130952D01*
X38898333Y-56130952D02*
X38945952Y-56035714D01*
X38945952Y-56035714D02*
X38993571Y-55988095D01*
X38993571Y-55988095D02*
X39088809Y-55940476D01*
%TO.C,D5*%
X-45782619Y-19581905D02*
X-46782619Y-19581905D01*
X-46782619Y-19581905D02*
X-46782619Y-19820000D01*
X-46782619Y-19820000D02*
X-46735000Y-19962857D01*
X-46735000Y-19962857D02*
X-46639761Y-20058095D01*
X-46639761Y-20058095D02*
X-46544523Y-20105714D01*
X-46544523Y-20105714D02*
X-46354047Y-20153333D01*
X-46354047Y-20153333D02*
X-46211190Y-20153333D01*
X-46211190Y-20153333D02*
X-46020714Y-20105714D01*
X-46020714Y-20105714D02*
X-45925476Y-20058095D01*
X-45925476Y-20058095D02*
X-45830238Y-19962857D01*
X-45830238Y-19962857D02*
X-45782619Y-19820000D01*
X-45782619Y-19820000D02*
X-45782619Y-19581905D01*
X-46782619Y-21058095D02*
X-46782619Y-20581905D01*
X-46782619Y-20581905D02*
X-46306428Y-20534286D01*
X-46306428Y-20534286D02*
X-46354047Y-20581905D01*
X-46354047Y-20581905D02*
X-46401666Y-20677143D01*
X-46401666Y-20677143D02*
X-46401666Y-20915238D01*
X-46401666Y-20915238D02*
X-46354047Y-21010476D01*
X-46354047Y-21010476D02*
X-46306428Y-21058095D01*
X-46306428Y-21058095D02*
X-46211190Y-21105714D01*
X-46211190Y-21105714D02*
X-45973095Y-21105714D01*
X-45973095Y-21105714D02*
X-45877857Y-21058095D01*
X-45877857Y-21058095D02*
X-45830238Y-21010476D01*
X-45830238Y-21010476D02*
X-45782619Y-20915238D01*
X-45782619Y-20915238D02*
X-45782619Y-20677143D01*
X-45782619Y-20677143D02*
X-45830238Y-20581905D01*
X-45830238Y-20581905D02*
X-45877857Y-20534286D01*
%TO.C,D31*%
X-81457619Y-66535714D02*
X-82457619Y-66535714D01*
X-82457619Y-66535714D02*
X-82457619Y-66773809D01*
X-82457619Y-66773809D02*
X-82410000Y-66916666D01*
X-82410000Y-66916666D02*
X-82314761Y-67011904D01*
X-82314761Y-67011904D02*
X-82219523Y-67059523D01*
X-82219523Y-67059523D02*
X-82029047Y-67107142D01*
X-82029047Y-67107142D02*
X-81886190Y-67107142D01*
X-81886190Y-67107142D02*
X-81695714Y-67059523D01*
X-81695714Y-67059523D02*
X-81600476Y-67011904D01*
X-81600476Y-67011904D02*
X-81505238Y-66916666D01*
X-81505238Y-66916666D02*
X-81457619Y-66773809D01*
X-81457619Y-66773809D02*
X-81457619Y-66535714D01*
X-82457619Y-67440476D02*
X-82457619Y-68059523D01*
X-82457619Y-68059523D02*
X-82076666Y-67726190D01*
X-82076666Y-67726190D02*
X-82076666Y-67869047D01*
X-82076666Y-67869047D02*
X-82029047Y-67964285D01*
X-82029047Y-67964285D02*
X-81981428Y-68011904D01*
X-81981428Y-68011904D02*
X-81886190Y-68059523D01*
X-81886190Y-68059523D02*
X-81648095Y-68059523D01*
X-81648095Y-68059523D02*
X-81552857Y-68011904D01*
X-81552857Y-68011904D02*
X-81505238Y-67964285D01*
X-81505238Y-67964285D02*
X-81457619Y-67869047D01*
X-81457619Y-67869047D02*
X-81457619Y-67583333D01*
X-81457619Y-67583333D02*
X-81505238Y-67488095D01*
X-81505238Y-67488095D02*
X-81552857Y-67440476D01*
X-81457619Y-69011904D02*
X-81457619Y-68440476D01*
X-81457619Y-68726190D02*
X-82457619Y-68726190D01*
X-82457619Y-68726190D02*
X-82314761Y-68630952D01*
X-82314761Y-68630952D02*
X-82219523Y-68535714D01*
X-82219523Y-68535714D02*
X-82171904Y-68440476D01*
%TO.C,D35*%
X48717380Y-86935714D02*
X47717380Y-86935714D01*
X47717380Y-86935714D02*
X47717380Y-87173809D01*
X47717380Y-87173809D02*
X47765000Y-87316666D01*
X47765000Y-87316666D02*
X47860238Y-87411904D01*
X47860238Y-87411904D02*
X47955476Y-87459523D01*
X47955476Y-87459523D02*
X48145952Y-87507142D01*
X48145952Y-87507142D02*
X48288809Y-87507142D01*
X48288809Y-87507142D02*
X48479285Y-87459523D01*
X48479285Y-87459523D02*
X48574523Y-87411904D01*
X48574523Y-87411904D02*
X48669761Y-87316666D01*
X48669761Y-87316666D02*
X48717380Y-87173809D01*
X48717380Y-87173809D02*
X48717380Y-86935714D01*
X47717380Y-87840476D02*
X47717380Y-88459523D01*
X47717380Y-88459523D02*
X48098333Y-88126190D01*
X48098333Y-88126190D02*
X48098333Y-88269047D01*
X48098333Y-88269047D02*
X48145952Y-88364285D01*
X48145952Y-88364285D02*
X48193571Y-88411904D01*
X48193571Y-88411904D02*
X48288809Y-88459523D01*
X48288809Y-88459523D02*
X48526904Y-88459523D01*
X48526904Y-88459523D02*
X48622142Y-88411904D01*
X48622142Y-88411904D02*
X48669761Y-88364285D01*
X48669761Y-88364285D02*
X48717380Y-88269047D01*
X48717380Y-88269047D02*
X48717380Y-87983333D01*
X48717380Y-87983333D02*
X48669761Y-87888095D01*
X48669761Y-87888095D02*
X48622142Y-87840476D01*
X47717380Y-89364285D02*
X47717380Y-88888095D01*
X47717380Y-88888095D02*
X48193571Y-88840476D01*
X48193571Y-88840476D02*
X48145952Y-88888095D01*
X48145952Y-88888095D02*
X48098333Y-88983333D01*
X48098333Y-88983333D02*
X48098333Y-89221428D01*
X48098333Y-89221428D02*
X48145952Y-89316666D01*
X48145952Y-89316666D02*
X48193571Y-89364285D01*
X48193571Y-89364285D02*
X48288809Y-89411904D01*
X48288809Y-89411904D02*
X48526904Y-89411904D01*
X48526904Y-89411904D02*
X48622142Y-89364285D01*
X48622142Y-89364285D02*
X48669761Y-89316666D01*
X48669761Y-89316666D02*
X48717380Y-89221428D01*
X48717380Y-89221428D02*
X48717380Y-88983333D01*
X48717380Y-88983333D02*
X48669761Y-88888095D01*
X48669761Y-88888095D02*
X48622142Y-88840476D01*
%TO.C,C6*%
X-8733333Y-10092142D02*
X-8685714Y-10139761D01*
X-8685714Y-10139761D02*
X-8542857Y-10187380D01*
X-8542857Y-10187380D02*
X-8447619Y-10187380D01*
X-8447619Y-10187380D02*
X-8304762Y-10139761D01*
X-8304762Y-10139761D02*
X-8209524Y-10044523D01*
X-8209524Y-10044523D02*
X-8161905Y-9949285D01*
X-8161905Y-9949285D02*
X-8114286Y-9758809D01*
X-8114286Y-9758809D02*
X-8114286Y-9615952D01*
X-8114286Y-9615952D02*
X-8161905Y-9425476D01*
X-8161905Y-9425476D02*
X-8209524Y-9330238D01*
X-8209524Y-9330238D02*
X-8304762Y-9235000D01*
X-8304762Y-9235000D02*
X-8447619Y-9187380D01*
X-8447619Y-9187380D02*
X-8542857Y-9187380D01*
X-8542857Y-9187380D02*
X-8685714Y-9235000D01*
X-8685714Y-9235000D02*
X-8733333Y-9282619D01*
X-9590476Y-9187380D02*
X-9400000Y-9187380D01*
X-9400000Y-9187380D02*
X-9304762Y-9235000D01*
X-9304762Y-9235000D02*
X-9257143Y-9282619D01*
X-9257143Y-9282619D02*
X-9161905Y-9425476D01*
X-9161905Y-9425476D02*
X-9114286Y-9615952D01*
X-9114286Y-9615952D02*
X-9114286Y-9996904D01*
X-9114286Y-9996904D02*
X-9161905Y-10092142D01*
X-9161905Y-10092142D02*
X-9209524Y-10139761D01*
X-9209524Y-10139761D02*
X-9304762Y-10187380D01*
X-9304762Y-10187380D02*
X-9495238Y-10187380D01*
X-9495238Y-10187380D02*
X-9590476Y-10139761D01*
X-9590476Y-10139761D02*
X-9638095Y-10092142D01*
X-9638095Y-10092142D02*
X-9685714Y-9996904D01*
X-9685714Y-9996904D02*
X-9685714Y-9758809D01*
X-9685714Y-9758809D02*
X-9638095Y-9663571D01*
X-9638095Y-9663571D02*
X-9590476Y-9615952D01*
X-9590476Y-9615952D02*
X-9495238Y-9568333D01*
X-9495238Y-9568333D02*
X-9304762Y-9568333D01*
X-9304762Y-9568333D02*
X-9209524Y-9615952D01*
X-9209524Y-9615952D02*
X-9161905Y-9663571D01*
X-9161905Y-9663571D02*
X-9114286Y-9758809D01*
%TO.C,D15*%
X-50982619Y-40535714D02*
X-51982619Y-40535714D01*
X-51982619Y-40535714D02*
X-51982619Y-40773809D01*
X-51982619Y-40773809D02*
X-51935000Y-40916666D01*
X-51935000Y-40916666D02*
X-51839761Y-41011904D01*
X-51839761Y-41011904D02*
X-51744523Y-41059523D01*
X-51744523Y-41059523D02*
X-51554047Y-41107142D01*
X-51554047Y-41107142D02*
X-51411190Y-41107142D01*
X-51411190Y-41107142D02*
X-51220714Y-41059523D01*
X-51220714Y-41059523D02*
X-51125476Y-41011904D01*
X-51125476Y-41011904D02*
X-51030238Y-40916666D01*
X-51030238Y-40916666D02*
X-50982619Y-40773809D01*
X-50982619Y-40773809D02*
X-50982619Y-40535714D01*
X-50982619Y-42059523D02*
X-50982619Y-41488095D01*
X-50982619Y-41773809D02*
X-51982619Y-41773809D01*
X-51982619Y-41773809D02*
X-51839761Y-41678571D01*
X-51839761Y-41678571D02*
X-51744523Y-41583333D01*
X-51744523Y-41583333D02*
X-51696904Y-41488095D01*
X-51982619Y-42964285D02*
X-51982619Y-42488095D01*
X-51982619Y-42488095D02*
X-51506428Y-42440476D01*
X-51506428Y-42440476D02*
X-51554047Y-42488095D01*
X-51554047Y-42488095D02*
X-51601666Y-42583333D01*
X-51601666Y-42583333D02*
X-51601666Y-42821428D01*
X-51601666Y-42821428D02*
X-51554047Y-42916666D01*
X-51554047Y-42916666D02*
X-51506428Y-42964285D01*
X-51506428Y-42964285D02*
X-51411190Y-43011904D01*
X-51411190Y-43011904D02*
X-51173095Y-43011904D01*
X-51173095Y-43011904D02*
X-51077857Y-42964285D01*
X-51077857Y-42964285D02*
X-51030238Y-42916666D01*
X-51030238Y-42916666D02*
X-50982619Y-42821428D01*
X-50982619Y-42821428D02*
X-50982619Y-42583333D01*
X-50982619Y-42583333D02*
X-51030238Y-42488095D01*
X-51030238Y-42488095D02*
X-51077857Y-42440476D01*
%TO.C,D4*%
X-64782619Y-6011905D02*
X-65782619Y-6011905D01*
X-65782619Y-6011905D02*
X-65782619Y-6250000D01*
X-65782619Y-6250000D02*
X-65735000Y-6392857D01*
X-65735000Y-6392857D02*
X-65639761Y-6488095D01*
X-65639761Y-6488095D02*
X-65544523Y-6535714D01*
X-65544523Y-6535714D02*
X-65354047Y-6583333D01*
X-65354047Y-6583333D02*
X-65211190Y-6583333D01*
X-65211190Y-6583333D02*
X-65020714Y-6535714D01*
X-65020714Y-6535714D02*
X-64925476Y-6488095D01*
X-64925476Y-6488095D02*
X-64830238Y-6392857D01*
X-64830238Y-6392857D02*
X-64782619Y-6250000D01*
X-64782619Y-6250000D02*
X-64782619Y-6011905D01*
X-65449285Y-7440476D02*
X-64782619Y-7440476D01*
X-65830238Y-7202381D02*
X-65115952Y-6964286D01*
X-65115952Y-6964286D02*
X-65115952Y-7583333D01*
%TO.C,D3*%
X-76282619Y-1111905D02*
X-77282619Y-1111905D01*
X-77282619Y-1111905D02*
X-77282619Y-1350000D01*
X-77282619Y-1350000D02*
X-77235000Y-1492857D01*
X-77235000Y-1492857D02*
X-77139761Y-1588095D01*
X-77139761Y-1588095D02*
X-77044523Y-1635714D01*
X-77044523Y-1635714D02*
X-76854047Y-1683333D01*
X-76854047Y-1683333D02*
X-76711190Y-1683333D01*
X-76711190Y-1683333D02*
X-76520714Y-1635714D01*
X-76520714Y-1635714D02*
X-76425476Y-1588095D01*
X-76425476Y-1588095D02*
X-76330238Y-1492857D01*
X-76330238Y-1492857D02*
X-76282619Y-1350000D01*
X-76282619Y-1350000D02*
X-76282619Y-1111905D01*
X-77282619Y-2016667D02*
X-77282619Y-2635714D01*
X-77282619Y-2635714D02*
X-76901666Y-2302381D01*
X-76901666Y-2302381D02*
X-76901666Y-2445238D01*
X-76901666Y-2445238D02*
X-76854047Y-2540476D01*
X-76854047Y-2540476D02*
X-76806428Y-2588095D01*
X-76806428Y-2588095D02*
X-76711190Y-2635714D01*
X-76711190Y-2635714D02*
X-76473095Y-2635714D01*
X-76473095Y-2635714D02*
X-76377857Y-2588095D01*
X-76377857Y-2588095D02*
X-76330238Y-2540476D01*
X-76330238Y-2540476D02*
X-76282619Y-2445238D01*
X-76282619Y-2445238D02*
X-76282619Y-2159524D01*
X-76282619Y-2159524D02*
X-76330238Y-2064286D01*
X-76330238Y-2064286D02*
X-76377857Y-2016667D01*
%TO.C,D1*%
X-116682619Y-1111905D02*
X-117682619Y-1111905D01*
X-117682619Y-1111905D02*
X-117682619Y-1350000D01*
X-117682619Y-1350000D02*
X-117635000Y-1492857D01*
X-117635000Y-1492857D02*
X-117539761Y-1588095D01*
X-117539761Y-1588095D02*
X-117444523Y-1635714D01*
X-117444523Y-1635714D02*
X-117254047Y-1683333D01*
X-117254047Y-1683333D02*
X-117111190Y-1683333D01*
X-117111190Y-1683333D02*
X-116920714Y-1635714D01*
X-116920714Y-1635714D02*
X-116825476Y-1588095D01*
X-116825476Y-1588095D02*
X-116730238Y-1492857D01*
X-116730238Y-1492857D02*
X-116682619Y-1350000D01*
X-116682619Y-1350000D02*
X-116682619Y-1111905D01*
X-116682619Y-2635714D02*
X-116682619Y-2064286D01*
X-116682619Y-2350000D02*
X-117682619Y-2350000D01*
X-117682619Y-2350000D02*
X-117539761Y-2254762D01*
X-117539761Y-2254762D02*
X-117444523Y-2159524D01*
X-117444523Y-2159524D02*
X-117396904Y-2064286D01*
%TO.C,D36*%
X70542380Y-69535714D02*
X69542380Y-69535714D01*
X69542380Y-69535714D02*
X69542380Y-69773809D01*
X69542380Y-69773809D02*
X69590000Y-69916666D01*
X69590000Y-69916666D02*
X69685238Y-70011904D01*
X69685238Y-70011904D02*
X69780476Y-70059523D01*
X69780476Y-70059523D02*
X69970952Y-70107142D01*
X69970952Y-70107142D02*
X70113809Y-70107142D01*
X70113809Y-70107142D02*
X70304285Y-70059523D01*
X70304285Y-70059523D02*
X70399523Y-70011904D01*
X70399523Y-70011904D02*
X70494761Y-69916666D01*
X70494761Y-69916666D02*
X70542380Y-69773809D01*
X70542380Y-69773809D02*
X70542380Y-69535714D01*
X69542380Y-70440476D02*
X69542380Y-71059523D01*
X69542380Y-71059523D02*
X69923333Y-70726190D01*
X69923333Y-70726190D02*
X69923333Y-70869047D01*
X69923333Y-70869047D02*
X69970952Y-70964285D01*
X69970952Y-70964285D02*
X70018571Y-71011904D01*
X70018571Y-71011904D02*
X70113809Y-71059523D01*
X70113809Y-71059523D02*
X70351904Y-71059523D01*
X70351904Y-71059523D02*
X70447142Y-71011904D01*
X70447142Y-71011904D02*
X70494761Y-70964285D01*
X70494761Y-70964285D02*
X70542380Y-70869047D01*
X70542380Y-70869047D02*
X70542380Y-70583333D01*
X70542380Y-70583333D02*
X70494761Y-70488095D01*
X70494761Y-70488095D02*
X70447142Y-70440476D01*
X69542380Y-71916666D02*
X69542380Y-71726190D01*
X69542380Y-71726190D02*
X69590000Y-71630952D01*
X69590000Y-71630952D02*
X69637619Y-71583333D01*
X69637619Y-71583333D02*
X69780476Y-71488095D01*
X69780476Y-71488095D02*
X69970952Y-71440476D01*
X69970952Y-71440476D02*
X70351904Y-71440476D01*
X70351904Y-71440476D02*
X70447142Y-71488095D01*
X70447142Y-71488095D02*
X70494761Y-71535714D01*
X70494761Y-71535714D02*
X70542380Y-71630952D01*
X70542380Y-71630952D02*
X70542380Y-71821428D01*
X70542380Y-71821428D02*
X70494761Y-71916666D01*
X70494761Y-71916666D02*
X70447142Y-71964285D01*
X70447142Y-71964285D02*
X70351904Y-72011904D01*
X70351904Y-72011904D02*
X70113809Y-72011904D01*
X70113809Y-72011904D02*
X70018571Y-71964285D01*
X70018571Y-71964285D02*
X69970952Y-71916666D01*
X69970952Y-71916666D02*
X69923333Y-71821428D01*
X69923333Y-71821428D02*
X69923333Y-71630952D01*
X69923333Y-71630952D02*
X69970952Y-71535714D01*
X69970952Y-71535714D02*
X70018571Y-71488095D01*
X70018571Y-71488095D02*
X70113809Y-71440476D01*
%TO.C,D20*%
X115542380Y-20598214D02*
X114542380Y-20598214D01*
X114542380Y-20598214D02*
X114542380Y-20836309D01*
X114542380Y-20836309D02*
X114590000Y-20979166D01*
X114590000Y-20979166D02*
X114685238Y-21074404D01*
X114685238Y-21074404D02*
X114780476Y-21122023D01*
X114780476Y-21122023D02*
X114970952Y-21169642D01*
X114970952Y-21169642D02*
X115113809Y-21169642D01*
X115113809Y-21169642D02*
X115304285Y-21122023D01*
X115304285Y-21122023D02*
X115399523Y-21074404D01*
X115399523Y-21074404D02*
X115494761Y-20979166D01*
X115494761Y-20979166D02*
X115542380Y-20836309D01*
X115542380Y-20836309D02*
X115542380Y-20598214D01*
X114637619Y-21550595D02*
X114590000Y-21598214D01*
X114590000Y-21598214D02*
X114542380Y-21693452D01*
X114542380Y-21693452D02*
X114542380Y-21931547D01*
X114542380Y-21931547D02*
X114590000Y-22026785D01*
X114590000Y-22026785D02*
X114637619Y-22074404D01*
X114637619Y-22074404D02*
X114732857Y-22122023D01*
X114732857Y-22122023D02*
X114828095Y-22122023D01*
X114828095Y-22122023D02*
X114970952Y-22074404D01*
X114970952Y-22074404D02*
X115542380Y-21502976D01*
X115542380Y-21502976D02*
X115542380Y-22122023D01*
X114542380Y-22741071D02*
X114542380Y-22836309D01*
X114542380Y-22836309D02*
X114590000Y-22931547D01*
X114590000Y-22931547D02*
X114637619Y-22979166D01*
X114637619Y-22979166D02*
X114732857Y-23026785D01*
X114732857Y-23026785D02*
X114923333Y-23074404D01*
X114923333Y-23074404D02*
X115161428Y-23074404D01*
X115161428Y-23074404D02*
X115351904Y-23026785D01*
X115351904Y-23026785D02*
X115447142Y-22979166D01*
X115447142Y-22979166D02*
X115494761Y-22931547D01*
X115494761Y-22931547D02*
X115542380Y-22836309D01*
X115542380Y-22836309D02*
X115542380Y-22741071D01*
X115542380Y-22741071D02*
X115494761Y-22645833D01*
X115494761Y-22645833D02*
X115447142Y-22598214D01*
X115447142Y-22598214D02*
X115351904Y-22550595D01*
X115351904Y-22550595D02*
X115161428Y-22502976D01*
X115161428Y-22502976D02*
X114923333Y-22502976D01*
X114923333Y-22502976D02*
X114732857Y-22550595D01*
X114732857Y-22550595D02*
X114637619Y-22598214D01*
X114637619Y-22598214D02*
X114590000Y-22645833D01*
X114590000Y-22645833D02*
X114542380Y-22741071D01*
%TO.C,D2*%
X-95682619Y-1111905D02*
X-96682619Y-1111905D01*
X-96682619Y-1111905D02*
X-96682619Y-1350000D01*
X-96682619Y-1350000D02*
X-96635000Y-1492857D01*
X-96635000Y-1492857D02*
X-96539761Y-1588095D01*
X-96539761Y-1588095D02*
X-96444523Y-1635714D01*
X-96444523Y-1635714D02*
X-96254047Y-1683333D01*
X-96254047Y-1683333D02*
X-96111190Y-1683333D01*
X-96111190Y-1683333D02*
X-95920714Y-1635714D01*
X-95920714Y-1635714D02*
X-95825476Y-1588095D01*
X-95825476Y-1588095D02*
X-95730238Y-1492857D01*
X-95730238Y-1492857D02*
X-95682619Y-1350000D01*
X-95682619Y-1350000D02*
X-95682619Y-1111905D01*
X-96587380Y-2064286D02*
X-96635000Y-2111905D01*
X-96635000Y-2111905D02*
X-96682619Y-2207143D01*
X-96682619Y-2207143D02*
X-96682619Y-2445238D01*
X-96682619Y-2445238D02*
X-96635000Y-2540476D01*
X-96635000Y-2540476D02*
X-96587380Y-2588095D01*
X-96587380Y-2588095D02*
X-96492142Y-2635714D01*
X-96492142Y-2635714D02*
X-96396904Y-2635714D01*
X-96396904Y-2635714D02*
X-96254047Y-2588095D01*
X-96254047Y-2588095D02*
X-95682619Y-2016667D01*
X-95682619Y-2016667D02*
X-95682619Y-2635714D01*
%TO.C,D12*%
X-104457619Y-18035714D02*
X-105457619Y-18035714D01*
X-105457619Y-18035714D02*
X-105457619Y-18273809D01*
X-105457619Y-18273809D02*
X-105410000Y-18416666D01*
X-105410000Y-18416666D02*
X-105314761Y-18511904D01*
X-105314761Y-18511904D02*
X-105219523Y-18559523D01*
X-105219523Y-18559523D02*
X-105029047Y-18607142D01*
X-105029047Y-18607142D02*
X-104886190Y-18607142D01*
X-104886190Y-18607142D02*
X-104695714Y-18559523D01*
X-104695714Y-18559523D02*
X-104600476Y-18511904D01*
X-104600476Y-18511904D02*
X-104505238Y-18416666D01*
X-104505238Y-18416666D02*
X-104457619Y-18273809D01*
X-104457619Y-18273809D02*
X-104457619Y-18035714D01*
X-104457619Y-19559523D02*
X-104457619Y-18988095D01*
X-104457619Y-19273809D02*
X-105457619Y-19273809D01*
X-105457619Y-19273809D02*
X-105314761Y-19178571D01*
X-105314761Y-19178571D02*
X-105219523Y-19083333D01*
X-105219523Y-19083333D02*
X-105171904Y-18988095D01*
X-105362380Y-19940476D02*
X-105410000Y-19988095D01*
X-105410000Y-19988095D02*
X-105457619Y-20083333D01*
X-105457619Y-20083333D02*
X-105457619Y-20321428D01*
X-105457619Y-20321428D02*
X-105410000Y-20416666D01*
X-105410000Y-20416666D02*
X-105362380Y-20464285D01*
X-105362380Y-20464285D02*
X-105267142Y-20511904D01*
X-105267142Y-20511904D02*
X-105171904Y-20511904D01*
X-105171904Y-20511904D02*
X-105029047Y-20464285D01*
X-105029047Y-20464285D02*
X-104457619Y-19892857D01*
X-104457619Y-19892857D02*
X-104457619Y-20511904D01*
%TO.C,FB1*%
X3095833Y-4793571D02*
X3429166Y-4793571D01*
X3429166Y-5317380D02*
X3429166Y-4317380D01*
X3429166Y-4317380D02*
X2952976Y-4317380D01*
X2238690Y-4793571D02*
X2095833Y-4841190D01*
X2095833Y-4841190D02*
X2048214Y-4888809D01*
X2048214Y-4888809D02*
X2000595Y-4984047D01*
X2000595Y-4984047D02*
X2000595Y-5126904D01*
X2000595Y-5126904D02*
X2048214Y-5222142D01*
X2048214Y-5222142D02*
X2095833Y-5269761D01*
X2095833Y-5269761D02*
X2191071Y-5317380D01*
X2191071Y-5317380D02*
X2572023Y-5317380D01*
X2572023Y-5317380D02*
X2572023Y-4317380D01*
X2572023Y-4317380D02*
X2238690Y-4317380D01*
X2238690Y-4317380D02*
X2143452Y-4365000D01*
X2143452Y-4365000D02*
X2095833Y-4412619D01*
X2095833Y-4412619D02*
X2048214Y-4507857D01*
X2048214Y-4507857D02*
X2048214Y-4603095D01*
X2048214Y-4603095D02*
X2095833Y-4698333D01*
X2095833Y-4698333D02*
X2143452Y-4745952D01*
X2143452Y-4745952D02*
X2238690Y-4793571D01*
X2238690Y-4793571D02*
X2572023Y-4793571D01*
X1048214Y-5317380D02*
X1619642Y-5317380D01*
X1333928Y-5317380D02*
X1333928Y-4317380D01*
X1333928Y-4317380D02*
X1429166Y-4460238D01*
X1429166Y-4460238D02*
X1524404Y-4555476D01*
X1524404Y-4555476D02*
X1619642Y-4603095D01*
%TO.C,D16*%
X40542380Y-43535714D02*
X39542380Y-43535714D01*
X39542380Y-43535714D02*
X39542380Y-43773809D01*
X39542380Y-43773809D02*
X39590000Y-43916666D01*
X39590000Y-43916666D02*
X39685238Y-44011904D01*
X39685238Y-44011904D02*
X39780476Y-44059523D01*
X39780476Y-44059523D02*
X39970952Y-44107142D01*
X39970952Y-44107142D02*
X40113809Y-44107142D01*
X40113809Y-44107142D02*
X40304285Y-44059523D01*
X40304285Y-44059523D02*
X40399523Y-44011904D01*
X40399523Y-44011904D02*
X40494761Y-43916666D01*
X40494761Y-43916666D02*
X40542380Y-43773809D01*
X40542380Y-43773809D02*
X40542380Y-43535714D01*
X40542380Y-45059523D02*
X40542380Y-44488095D01*
X40542380Y-44773809D02*
X39542380Y-44773809D01*
X39542380Y-44773809D02*
X39685238Y-44678571D01*
X39685238Y-44678571D02*
X39780476Y-44583333D01*
X39780476Y-44583333D02*
X39828095Y-44488095D01*
X39542380Y-45916666D02*
X39542380Y-45726190D01*
X39542380Y-45726190D02*
X39590000Y-45630952D01*
X39590000Y-45630952D02*
X39637619Y-45583333D01*
X39637619Y-45583333D02*
X39780476Y-45488095D01*
X39780476Y-45488095D02*
X39970952Y-45440476D01*
X39970952Y-45440476D02*
X40351904Y-45440476D01*
X40351904Y-45440476D02*
X40447142Y-45488095D01*
X40447142Y-45488095D02*
X40494761Y-45535714D01*
X40494761Y-45535714D02*
X40542380Y-45630952D01*
X40542380Y-45630952D02*
X40542380Y-45821428D01*
X40542380Y-45821428D02*
X40494761Y-45916666D01*
X40494761Y-45916666D02*
X40447142Y-45964285D01*
X40447142Y-45964285D02*
X40351904Y-46011904D01*
X40351904Y-46011904D02*
X40113809Y-46011904D01*
X40113809Y-46011904D02*
X40018571Y-45964285D01*
X40018571Y-45964285D02*
X39970952Y-45916666D01*
X39970952Y-45916666D02*
X39923333Y-45821428D01*
X39923333Y-45821428D02*
X39923333Y-45630952D01*
X39923333Y-45630952D02*
X39970952Y-45535714D01*
X39970952Y-45535714D02*
X40018571Y-45488095D01*
X40018571Y-45488095D02*
X40113809Y-45440476D01*
%TO.C,D8*%
X67542380Y-3011905D02*
X66542380Y-3011905D01*
X66542380Y-3011905D02*
X66542380Y-3250000D01*
X66542380Y-3250000D02*
X66590000Y-3392857D01*
X66590000Y-3392857D02*
X66685238Y-3488095D01*
X66685238Y-3488095D02*
X66780476Y-3535714D01*
X66780476Y-3535714D02*
X66970952Y-3583333D01*
X66970952Y-3583333D02*
X67113809Y-3583333D01*
X67113809Y-3583333D02*
X67304285Y-3535714D01*
X67304285Y-3535714D02*
X67399523Y-3488095D01*
X67399523Y-3488095D02*
X67494761Y-3392857D01*
X67494761Y-3392857D02*
X67542380Y-3250000D01*
X67542380Y-3250000D02*
X67542380Y-3011905D01*
X66970952Y-4154762D02*
X66923333Y-4059524D01*
X66923333Y-4059524D02*
X66875714Y-4011905D01*
X66875714Y-4011905D02*
X66780476Y-3964286D01*
X66780476Y-3964286D02*
X66732857Y-3964286D01*
X66732857Y-3964286D02*
X66637619Y-4011905D01*
X66637619Y-4011905D02*
X66590000Y-4059524D01*
X66590000Y-4059524D02*
X66542380Y-4154762D01*
X66542380Y-4154762D02*
X66542380Y-4345238D01*
X66542380Y-4345238D02*
X66590000Y-4440476D01*
X66590000Y-4440476D02*
X66637619Y-4488095D01*
X66637619Y-4488095D02*
X66732857Y-4535714D01*
X66732857Y-4535714D02*
X66780476Y-4535714D01*
X66780476Y-4535714D02*
X66875714Y-4488095D01*
X66875714Y-4488095D02*
X66923333Y-4440476D01*
X66923333Y-4440476D02*
X66970952Y-4345238D01*
X66970952Y-4345238D02*
X66970952Y-4154762D01*
X66970952Y-4154762D02*
X67018571Y-4059524D01*
X67018571Y-4059524D02*
X67066190Y-4011905D01*
X67066190Y-4011905D02*
X67161428Y-3964286D01*
X67161428Y-3964286D02*
X67351904Y-3964286D01*
X67351904Y-3964286D02*
X67447142Y-4011905D01*
X67447142Y-4011905D02*
X67494761Y-4059524D01*
X67494761Y-4059524D02*
X67542380Y-4154762D01*
X67542380Y-4154762D02*
X67542380Y-4345238D01*
X67542380Y-4345238D02*
X67494761Y-4440476D01*
X67494761Y-4440476D02*
X67447142Y-4488095D01*
X67447142Y-4488095D02*
X67351904Y-4535714D01*
X67351904Y-4535714D02*
X67161428Y-4535714D01*
X67161428Y-4535714D02*
X67066190Y-4488095D01*
X67066190Y-4488095D02*
X67018571Y-4440476D01*
X67018571Y-4440476D02*
X66970952Y-4345238D01*
%TO.C,R2*%
X-5782619Y-4820077D02*
X-6258809Y-4486744D01*
X-5782619Y-4248649D02*
X-6782619Y-4248649D01*
X-6782619Y-4248649D02*
X-6782619Y-4629601D01*
X-6782619Y-4629601D02*
X-6735000Y-4724839D01*
X-6735000Y-4724839D02*
X-6687380Y-4772458D01*
X-6687380Y-4772458D02*
X-6592142Y-4820077D01*
X-6592142Y-4820077D02*
X-6449285Y-4820077D01*
X-6449285Y-4820077D02*
X-6354047Y-4772458D01*
X-6354047Y-4772458D02*
X-6306428Y-4724839D01*
X-6306428Y-4724839D02*
X-6258809Y-4629601D01*
X-6258809Y-4629601D02*
X-6258809Y-4248649D01*
X-6687380Y-5201030D02*
X-6735000Y-5248649D01*
X-6735000Y-5248649D02*
X-6782619Y-5343887D01*
X-6782619Y-5343887D02*
X-6782619Y-5581982D01*
X-6782619Y-5581982D02*
X-6735000Y-5677220D01*
X-6735000Y-5677220D02*
X-6687380Y-5724839D01*
X-6687380Y-5724839D02*
X-6592142Y-5772458D01*
X-6592142Y-5772458D02*
X-6496904Y-5772458D01*
X-6496904Y-5772458D02*
X-6354047Y-5724839D01*
X-6354047Y-5724839D02*
X-5782619Y-5153411D01*
X-5782619Y-5153411D02*
X-5782619Y-5772458D01*
%TO.C,D14*%
X-68882619Y-29235714D02*
X-69882619Y-29235714D01*
X-69882619Y-29235714D02*
X-69882619Y-29473809D01*
X-69882619Y-29473809D02*
X-69835000Y-29616666D01*
X-69835000Y-29616666D02*
X-69739761Y-29711904D01*
X-69739761Y-29711904D02*
X-69644523Y-29759523D01*
X-69644523Y-29759523D02*
X-69454047Y-29807142D01*
X-69454047Y-29807142D02*
X-69311190Y-29807142D01*
X-69311190Y-29807142D02*
X-69120714Y-29759523D01*
X-69120714Y-29759523D02*
X-69025476Y-29711904D01*
X-69025476Y-29711904D02*
X-68930238Y-29616666D01*
X-68930238Y-29616666D02*
X-68882619Y-29473809D01*
X-68882619Y-29473809D02*
X-68882619Y-29235714D01*
X-68882619Y-30759523D02*
X-68882619Y-30188095D01*
X-68882619Y-30473809D02*
X-69882619Y-30473809D01*
X-69882619Y-30473809D02*
X-69739761Y-30378571D01*
X-69739761Y-30378571D02*
X-69644523Y-30283333D01*
X-69644523Y-30283333D02*
X-69596904Y-30188095D01*
X-69549285Y-31616666D02*
X-68882619Y-31616666D01*
X-69930238Y-31378571D02*
X-69215952Y-31140476D01*
X-69215952Y-31140476D02*
X-69215952Y-31759523D01*
%TO.C,C2*%
X7066666Y-12522142D02*
X7114285Y-12569761D01*
X7114285Y-12569761D02*
X7257142Y-12617380D01*
X7257142Y-12617380D02*
X7352380Y-12617380D01*
X7352380Y-12617380D02*
X7495237Y-12569761D01*
X7495237Y-12569761D02*
X7590475Y-12474523D01*
X7590475Y-12474523D02*
X7638094Y-12379285D01*
X7638094Y-12379285D02*
X7685713Y-12188809D01*
X7685713Y-12188809D02*
X7685713Y-12045952D01*
X7685713Y-12045952D02*
X7638094Y-11855476D01*
X7638094Y-11855476D02*
X7590475Y-11760238D01*
X7590475Y-11760238D02*
X7495237Y-11665000D01*
X7495237Y-11665000D02*
X7352380Y-11617380D01*
X7352380Y-11617380D02*
X7257142Y-11617380D01*
X7257142Y-11617380D02*
X7114285Y-11665000D01*
X7114285Y-11665000D02*
X7066666Y-11712619D01*
X6685713Y-11712619D02*
X6638094Y-11665000D01*
X6638094Y-11665000D02*
X6542856Y-11617380D01*
X6542856Y-11617380D02*
X6304761Y-11617380D01*
X6304761Y-11617380D02*
X6209523Y-11665000D01*
X6209523Y-11665000D02*
X6161904Y-11712619D01*
X6161904Y-11712619D02*
X6114285Y-11807857D01*
X6114285Y-11807857D02*
X6114285Y-11903095D01*
X6114285Y-11903095D02*
X6161904Y-12045952D01*
X6161904Y-12045952D02*
X6733332Y-12617380D01*
X6733332Y-12617380D02*
X6114285Y-12617380D01*
%TO.C,D34*%
X35842380Y-103098214D02*
X34842380Y-103098214D01*
X34842380Y-103098214D02*
X34842380Y-103336309D01*
X34842380Y-103336309D02*
X34890000Y-103479166D01*
X34890000Y-103479166D02*
X34985238Y-103574404D01*
X34985238Y-103574404D02*
X35080476Y-103622023D01*
X35080476Y-103622023D02*
X35270952Y-103669642D01*
X35270952Y-103669642D02*
X35413809Y-103669642D01*
X35413809Y-103669642D02*
X35604285Y-103622023D01*
X35604285Y-103622023D02*
X35699523Y-103574404D01*
X35699523Y-103574404D02*
X35794761Y-103479166D01*
X35794761Y-103479166D02*
X35842380Y-103336309D01*
X35842380Y-103336309D02*
X35842380Y-103098214D01*
X34842380Y-104002976D02*
X34842380Y-104622023D01*
X34842380Y-104622023D02*
X35223333Y-104288690D01*
X35223333Y-104288690D02*
X35223333Y-104431547D01*
X35223333Y-104431547D02*
X35270952Y-104526785D01*
X35270952Y-104526785D02*
X35318571Y-104574404D01*
X35318571Y-104574404D02*
X35413809Y-104622023D01*
X35413809Y-104622023D02*
X35651904Y-104622023D01*
X35651904Y-104622023D02*
X35747142Y-104574404D01*
X35747142Y-104574404D02*
X35794761Y-104526785D01*
X35794761Y-104526785D02*
X35842380Y-104431547D01*
X35842380Y-104431547D02*
X35842380Y-104145833D01*
X35842380Y-104145833D02*
X35794761Y-104050595D01*
X35794761Y-104050595D02*
X35747142Y-104002976D01*
X35175714Y-105479166D02*
X35842380Y-105479166D01*
X34794761Y-105241071D02*
X35509047Y-105002976D01*
X35509047Y-105002976D02*
X35509047Y-105622023D01*
%TO.C,U3*%
X3167380Y-14824839D02*
X3976904Y-14824839D01*
X3976904Y-14824839D02*
X4072142Y-14872458D01*
X4072142Y-14872458D02*
X4119761Y-14920077D01*
X4119761Y-14920077D02*
X4167380Y-15015315D01*
X4167380Y-15015315D02*
X4167380Y-15205791D01*
X4167380Y-15205791D02*
X4119761Y-15301029D01*
X4119761Y-15301029D02*
X4072142Y-15348648D01*
X4072142Y-15348648D02*
X3976904Y-15396267D01*
X3976904Y-15396267D02*
X3167380Y-15396267D01*
X3167380Y-15777220D02*
X3167380Y-16396267D01*
X3167380Y-16396267D02*
X3548333Y-16062934D01*
X3548333Y-16062934D02*
X3548333Y-16205791D01*
X3548333Y-16205791D02*
X3595952Y-16301029D01*
X3595952Y-16301029D02*
X3643571Y-16348648D01*
X3643571Y-16348648D02*
X3738809Y-16396267D01*
X3738809Y-16396267D02*
X3976904Y-16396267D01*
X3976904Y-16396267D02*
X4072142Y-16348648D01*
X4072142Y-16348648D02*
X4119761Y-16301029D01*
X4119761Y-16301029D02*
X4167380Y-16205791D01*
X4167380Y-16205791D02*
X4167380Y-15920077D01*
X4167380Y-15920077D02*
X4119761Y-15824839D01*
X4119761Y-15824839D02*
X4072142Y-15777220D01*
%TO.C,C5*%
X4272142Y-20883333D02*
X4319761Y-20835714D01*
X4319761Y-20835714D02*
X4367380Y-20692857D01*
X4367380Y-20692857D02*
X4367380Y-20597619D01*
X4367380Y-20597619D02*
X4319761Y-20454762D01*
X4319761Y-20454762D02*
X4224523Y-20359524D01*
X4224523Y-20359524D02*
X4129285Y-20311905D01*
X4129285Y-20311905D02*
X3938809Y-20264286D01*
X3938809Y-20264286D02*
X3795952Y-20264286D01*
X3795952Y-20264286D02*
X3605476Y-20311905D01*
X3605476Y-20311905D02*
X3510238Y-20359524D01*
X3510238Y-20359524D02*
X3415000Y-20454762D01*
X3415000Y-20454762D02*
X3367380Y-20597619D01*
X3367380Y-20597619D02*
X3367380Y-20692857D01*
X3367380Y-20692857D02*
X3415000Y-20835714D01*
X3415000Y-20835714D02*
X3462619Y-20883333D01*
X3367380Y-21788095D02*
X3367380Y-21311905D01*
X3367380Y-21311905D02*
X3843571Y-21264286D01*
X3843571Y-21264286D02*
X3795952Y-21311905D01*
X3795952Y-21311905D02*
X3748333Y-21407143D01*
X3748333Y-21407143D02*
X3748333Y-21645238D01*
X3748333Y-21645238D02*
X3795952Y-21740476D01*
X3795952Y-21740476D02*
X3843571Y-21788095D01*
X3843571Y-21788095D02*
X3938809Y-21835714D01*
X3938809Y-21835714D02*
X4176904Y-21835714D01*
X4176904Y-21835714D02*
X4272142Y-21788095D01*
X4272142Y-21788095D02*
X4319761Y-21740476D01*
X4319761Y-21740476D02*
X4367380Y-21645238D01*
X4367380Y-21645238D02*
X4367380Y-21407143D01*
X4367380Y-21407143D02*
X4319761Y-21311905D01*
X4319761Y-21311905D02*
X4272142Y-21264286D01*
%TO.C,D32*%
X-61957619Y-72035714D02*
X-62957619Y-72035714D01*
X-62957619Y-72035714D02*
X-62957619Y-72273809D01*
X-62957619Y-72273809D02*
X-62910000Y-72416666D01*
X-62910000Y-72416666D02*
X-62814761Y-72511904D01*
X-62814761Y-72511904D02*
X-62719523Y-72559523D01*
X-62719523Y-72559523D02*
X-62529047Y-72607142D01*
X-62529047Y-72607142D02*
X-62386190Y-72607142D01*
X-62386190Y-72607142D02*
X-62195714Y-72559523D01*
X-62195714Y-72559523D02*
X-62100476Y-72511904D01*
X-62100476Y-72511904D02*
X-62005238Y-72416666D01*
X-62005238Y-72416666D02*
X-61957619Y-72273809D01*
X-61957619Y-72273809D02*
X-61957619Y-72035714D01*
X-62957619Y-72940476D02*
X-62957619Y-73559523D01*
X-62957619Y-73559523D02*
X-62576666Y-73226190D01*
X-62576666Y-73226190D02*
X-62576666Y-73369047D01*
X-62576666Y-73369047D02*
X-62529047Y-73464285D01*
X-62529047Y-73464285D02*
X-62481428Y-73511904D01*
X-62481428Y-73511904D02*
X-62386190Y-73559523D01*
X-62386190Y-73559523D02*
X-62148095Y-73559523D01*
X-62148095Y-73559523D02*
X-62052857Y-73511904D01*
X-62052857Y-73511904D02*
X-62005238Y-73464285D01*
X-62005238Y-73464285D02*
X-61957619Y-73369047D01*
X-61957619Y-73369047D02*
X-61957619Y-73083333D01*
X-61957619Y-73083333D02*
X-62005238Y-72988095D01*
X-62005238Y-72988095D02*
X-62052857Y-72940476D01*
X-62862380Y-73940476D02*
X-62910000Y-73988095D01*
X-62910000Y-73988095D02*
X-62957619Y-74083333D01*
X-62957619Y-74083333D02*
X-62957619Y-74321428D01*
X-62957619Y-74321428D02*
X-62910000Y-74416666D01*
X-62910000Y-74416666D02*
X-62862380Y-74464285D01*
X-62862380Y-74464285D02*
X-62767142Y-74511904D01*
X-62767142Y-74511904D02*
X-62671904Y-74511904D01*
X-62671904Y-74511904D02*
X-62529047Y-74464285D01*
X-62529047Y-74464285D02*
X-61957619Y-73892857D01*
X-61957619Y-73892857D02*
X-61957619Y-74511904D01*
%TO.C,C7*%
X-8157857Y-20283333D02*
X-8110238Y-20235714D01*
X-8110238Y-20235714D02*
X-8062619Y-20092857D01*
X-8062619Y-20092857D02*
X-8062619Y-19997619D01*
X-8062619Y-19997619D02*
X-8110238Y-19854762D01*
X-8110238Y-19854762D02*
X-8205476Y-19759524D01*
X-8205476Y-19759524D02*
X-8300714Y-19711905D01*
X-8300714Y-19711905D02*
X-8491190Y-19664286D01*
X-8491190Y-19664286D02*
X-8634047Y-19664286D01*
X-8634047Y-19664286D02*
X-8824523Y-19711905D01*
X-8824523Y-19711905D02*
X-8919761Y-19759524D01*
X-8919761Y-19759524D02*
X-9015000Y-19854762D01*
X-9015000Y-19854762D02*
X-9062619Y-19997619D01*
X-9062619Y-19997619D02*
X-9062619Y-20092857D01*
X-9062619Y-20092857D02*
X-9015000Y-20235714D01*
X-9015000Y-20235714D02*
X-8967380Y-20283333D01*
X-9062619Y-20616667D02*
X-9062619Y-21283333D01*
X-9062619Y-21283333D02*
X-8062619Y-20854762D01*
%TO.C,D33*%
X-44157619Y-87035714D02*
X-45157619Y-87035714D01*
X-45157619Y-87035714D02*
X-45157619Y-87273809D01*
X-45157619Y-87273809D02*
X-45110000Y-87416666D01*
X-45110000Y-87416666D02*
X-45014761Y-87511904D01*
X-45014761Y-87511904D02*
X-44919523Y-87559523D01*
X-44919523Y-87559523D02*
X-44729047Y-87607142D01*
X-44729047Y-87607142D02*
X-44586190Y-87607142D01*
X-44586190Y-87607142D02*
X-44395714Y-87559523D01*
X-44395714Y-87559523D02*
X-44300476Y-87511904D01*
X-44300476Y-87511904D02*
X-44205238Y-87416666D01*
X-44205238Y-87416666D02*
X-44157619Y-87273809D01*
X-44157619Y-87273809D02*
X-44157619Y-87035714D01*
X-45157619Y-87940476D02*
X-45157619Y-88559523D01*
X-45157619Y-88559523D02*
X-44776666Y-88226190D01*
X-44776666Y-88226190D02*
X-44776666Y-88369047D01*
X-44776666Y-88369047D02*
X-44729047Y-88464285D01*
X-44729047Y-88464285D02*
X-44681428Y-88511904D01*
X-44681428Y-88511904D02*
X-44586190Y-88559523D01*
X-44586190Y-88559523D02*
X-44348095Y-88559523D01*
X-44348095Y-88559523D02*
X-44252857Y-88511904D01*
X-44252857Y-88511904D02*
X-44205238Y-88464285D01*
X-44205238Y-88464285D02*
X-44157619Y-88369047D01*
X-44157619Y-88369047D02*
X-44157619Y-88083333D01*
X-44157619Y-88083333D02*
X-44205238Y-87988095D01*
X-44205238Y-87988095D02*
X-44252857Y-87940476D01*
X-45157619Y-88892857D02*
X-45157619Y-89511904D01*
X-45157619Y-89511904D02*
X-44776666Y-89178571D01*
X-44776666Y-89178571D02*
X-44776666Y-89321428D01*
X-44776666Y-89321428D02*
X-44729047Y-89416666D01*
X-44729047Y-89416666D02*
X-44681428Y-89464285D01*
X-44681428Y-89464285D02*
X-44586190Y-89511904D01*
X-44586190Y-89511904D02*
X-44348095Y-89511904D01*
X-44348095Y-89511904D02*
X-44252857Y-89464285D01*
X-44252857Y-89464285D02*
X-44205238Y-89416666D01*
X-44205238Y-89416666D02*
X-44157619Y-89321428D01*
X-44157619Y-89321428D02*
X-44157619Y-89035714D01*
X-44157619Y-89035714D02*
X-44205238Y-88940476D01*
X-44205238Y-88940476D02*
X-44252857Y-88892857D01*
%TO.C,R3*%
X-8932619Y-183333D02*
X-9408809Y149999D01*
X-8932619Y388094D02*
X-9932619Y388094D01*
X-9932619Y388094D02*
X-9932619Y7142D01*
X-9932619Y7142D02*
X-9885000Y-88095D01*
X-9885000Y-88095D02*
X-9837380Y-135714D01*
X-9837380Y-135714D02*
X-9742142Y-183333D01*
X-9742142Y-183333D02*
X-9599285Y-183333D01*
X-9599285Y-183333D02*
X-9504047Y-135714D01*
X-9504047Y-135714D02*
X-9456428Y-88095D01*
X-9456428Y-88095D02*
X-9408809Y7142D01*
X-9408809Y7142D02*
X-9408809Y388094D01*
X-9932619Y-516667D02*
X-9932619Y-1135714D01*
X-9932619Y-1135714D02*
X-9551666Y-802381D01*
X-9551666Y-802381D02*
X-9551666Y-945238D01*
X-9551666Y-945238D02*
X-9504047Y-1040476D01*
X-9504047Y-1040476D02*
X-9456428Y-1088095D01*
X-9456428Y-1088095D02*
X-9361190Y-1135714D01*
X-9361190Y-1135714D02*
X-9123095Y-1135714D01*
X-9123095Y-1135714D02*
X-9027857Y-1088095D01*
X-9027857Y-1088095D02*
X-8980238Y-1040476D01*
X-8980238Y-1040476D02*
X-8932619Y-945238D01*
X-8932619Y-945238D02*
X-8932619Y-659524D01*
X-8932619Y-659524D02*
X-8980238Y-564286D01*
X-8980238Y-564286D02*
X-9027857Y-516667D01*
%TO.C,D23*%
X-89003869Y-36498214D02*
X-90003869Y-36498214D01*
X-90003869Y-36498214D02*
X-90003869Y-36736309D01*
X-90003869Y-36736309D02*
X-89956250Y-36879166D01*
X-89956250Y-36879166D02*
X-89861011Y-36974404D01*
X-89861011Y-36974404D02*
X-89765773Y-37022023D01*
X-89765773Y-37022023D02*
X-89575297Y-37069642D01*
X-89575297Y-37069642D02*
X-89432440Y-37069642D01*
X-89432440Y-37069642D02*
X-89241964Y-37022023D01*
X-89241964Y-37022023D02*
X-89146726Y-36974404D01*
X-89146726Y-36974404D02*
X-89051488Y-36879166D01*
X-89051488Y-36879166D02*
X-89003869Y-36736309D01*
X-89003869Y-36736309D02*
X-89003869Y-36498214D01*
X-89908630Y-37450595D02*
X-89956250Y-37498214D01*
X-89956250Y-37498214D02*
X-90003869Y-37593452D01*
X-90003869Y-37593452D02*
X-90003869Y-37831547D01*
X-90003869Y-37831547D02*
X-89956250Y-37926785D01*
X-89956250Y-37926785D02*
X-89908630Y-37974404D01*
X-89908630Y-37974404D02*
X-89813392Y-38022023D01*
X-89813392Y-38022023D02*
X-89718154Y-38022023D01*
X-89718154Y-38022023D02*
X-89575297Y-37974404D01*
X-89575297Y-37974404D02*
X-89003869Y-37402976D01*
X-89003869Y-37402976D02*
X-89003869Y-38022023D01*
X-90003869Y-38355357D02*
X-90003869Y-38974404D01*
X-90003869Y-38974404D02*
X-89622916Y-38641071D01*
X-89622916Y-38641071D02*
X-89622916Y-38783928D01*
X-89622916Y-38783928D02*
X-89575297Y-38879166D01*
X-89575297Y-38879166D02*
X-89527678Y-38926785D01*
X-89527678Y-38926785D02*
X-89432440Y-38974404D01*
X-89432440Y-38974404D02*
X-89194345Y-38974404D01*
X-89194345Y-38974404D02*
X-89099107Y-38926785D01*
X-89099107Y-38926785D02*
X-89051488Y-38879166D01*
X-89051488Y-38879166D02*
X-89003869Y-38783928D01*
X-89003869Y-38783928D02*
X-89003869Y-38498214D01*
X-89003869Y-38498214D02*
X-89051488Y-38402976D01*
X-89051488Y-38402976D02*
X-89099107Y-38355357D01*
%TO.C,D13*%
X-82682619Y-18035714D02*
X-83682619Y-18035714D01*
X-83682619Y-18035714D02*
X-83682619Y-18273809D01*
X-83682619Y-18273809D02*
X-83635000Y-18416666D01*
X-83635000Y-18416666D02*
X-83539761Y-18511904D01*
X-83539761Y-18511904D02*
X-83444523Y-18559523D01*
X-83444523Y-18559523D02*
X-83254047Y-18607142D01*
X-83254047Y-18607142D02*
X-83111190Y-18607142D01*
X-83111190Y-18607142D02*
X-82920714Y-18559523D01*
X-82920714Y-18559523D02*
X-82825476Y-18511904D01*
X-82825476Y-18511904D02*
X-82730238Y-18416666D01*
X-82730238Y-18416666D02*
X-82682619Y-18273809D01*
X-82682619Y-18273809D02*
X-82682619Y-18035714D01*
X-82682619Y-19559523D02*
X-82682619Y-18988095D01*
X-82682619Y-19273809D02*
X-83682619Y-19273809D01*
X-83682619Y-19273809D02*
X-83539761Y-19178571D01*
X-83539761Y-19178571D02*
X-83444523Y-19083333D01*
X-83444523Y-19083333D02*
X-83396904Y-18988095D01*
X-83682619Y-19892857D02*
X-83682619Y-20511904D01*
X-83682619Y-20511904D02*
X-83301666Y-20178571D01*
X-83301666Y-20178571D02*
X-83301666Y-20321428D01*
X-83301666Y-20321428D02*
X-83254047Y-20416666D01*
X-83254047Y-20416666D02*
X-83206428Y-20464285D01*
X-83206428Y-20464285D02*
X-83111190Y-20511904D01*
X-83111190Y-20511904D02*
X-82873095Y-20511904D01*
X-82873095Y-20511904D02*
X-82777857Y-20464285D01*
X-82777857Y-20464285D02*
X-82730238Y-20416666D01*
X-82730238Y-20416666D02*
X-82682619Y-20321428D01*
X-82682619Y-20321428D02*
X-82682619Y-20035714D01*
X-82682619Y-20035714D02*
X-82730238Y-19940476D01*
X-82730238Y-19940476D02*
X-82777857Y-19892857D01*
%TO.C,U1*%
X8667380Y-6588095D02*
X9476904Y-6588095D01*
X9476904Y-6588095D02*
X9572142Y-6635714D01*
X9572142Y-6635714D02*
X9619761Y-6683333D01*
X9619761Y-6683333D02*
X9667380Y-6778571D01*
X9667380Y-6778571D02*
X9667380Y-6969047D01*
X9667380Y-6969047D02*
X9619761Y-7064285D01*
X9619761Y-7064285D02*
X9572142Y-7111904D01*
X9572142Y-7111904D02*
X9476904Y-7159523D01*
X9476904Y-7159523D02*
X8667380Y-7159523D01*
X9667380Y-8159523D02*
X9667380Y-7588095D01*
X9667380Y-7873809D02*
X8667380Y-7873809D01*
X8667380Y-7873809D02*
X8810238Y-7778571D01*
X8810238Y-7778571D02*
X8905476Y-7683333D01*
X8905476Y-7683333D02*
X8953095Y-7588095D01*
%TO.C,D19*%
X93542380Y-20598214D02*
X92542380Y-20598214D01*
X92542380Y-20598214D02*
X92542380Y-20836309D01*
X92542380Y-20836309D02*
X92590000Y-20979166D01*
X92590000Y-20979166D02*
X92685238Y-21074404D01*
X92685238Y-21074404D02*
X92780476Y-21122023D01*
X92780476Y-21122023D02*
X92970952Y-21169642D01*
X92970952Y-21169642D02*
X93113809Y-21169642D01*
X93113809Y-21169642D02*
X93304285Y-21122023D01*
X93304285Y-21122023D02*
X93399523Y-21074404D01*
X93399523Y-21074404D02*
X93494761Y-20979166D01*
X93494761Y-20979166D02*
X93542380Y-20836309D01*
X93542380Y-20836309D02*
X93542380Y-20598214D01*
X93542380Y-22122023D02*
X93542380Y-21550595D01*
X93542380Y-21836309D02*
X92542380Y-21836309D01*
X92542380Y-21836309D02*
X92685238Y-21741071D01*
X92685238Y-21741071D02*
X92780476Y-21645833D01*
X92780476Y-21645833D02*
X92828095Y-21550595D01*
X93542380Y-22598214D02*
X93542380Y-22788690D01*
X93542380Y-22788690D02*
X93494761Y-22883928D01*
X93494761Y-22883928D02*
X93447142Y-22931547D01*
X93447142Y-22931547D02*
X93304285Y-23026785D01*
X93304285Y-23026785D02*
X93113809Y-23074404D01*
X93113809Y-23074404D02*
X92732857Y-23074404D01*
X92732857Y-23074404D02*
X92637619Y-23026785D01*
X92637619Y-23026785D02*
X92590000Y-22979166D01*
X92590000Y-22979166D02*
X92542380Y-22883928D01*
X92542380Y-22883928D02*
X92542380Y-22693452D01*
X92542380Y-22693452D02*
X92590000Y-22598214D01*
X92590000Y-22598214D02*
X92637619Y-22550595D01*
X92637619Y-22550595D02*
X92732857Y-22502976D01*
X92732857Y-22502976D02*
X92970952Y-22502976D01*
X92970952Y-22502976D02*
X93066190Y-22550595D01*
X93066190Y-22550595D02*
X93113809Y-22598214D01*
X93113809Y-22598214D02*
X93161428Y-22693452D01*
X93161428Y-22693452D02*
X93161428Y-22883928D01*
X93161428Y-22883928D02*
X93113809Y-22979166D01*
X93113809Y-22979166D02*
X93066190Y-23026785D01*
X93066190Y-23026785D02*
X92970952Y-23074404D01*
%TO.C,D18*%
X74542380Y-20598214D02*
X73542380Y-20598214D01*
X73542380Y-20598214D02*
X73542380Y-20836309D01*
X73542380Y-20836309D02*
X73590000Y-20979166D01*
X73590000Y-20979166D02*
X73685238Y-21074404D01*
X73685238Y-21074404D02*
X73780476Y-21122023D01*
X73780476Y-21122023D02*
X73970952Y-21169642D01*
X73970952Y-21169642D02*
X74113809Y-21169642D01*
X74113809Y-21169642D02*
X74304285Y-21122023D01*
X74304285Y-21122023D02*
X74399523Y-21074404D01*
X74399523Y-21074404D02*
X74494761Y-20979166D01*
X74494761Y-20979166D02*
X74542380Y-20836309D01*
X74542380Y-20836309D02*
X74542380Y-20598214D01*
X74542380Y-22122023D02*
X74542380Y-21550595D01*
X74542380Y-21836309D02*
X73542380Y-21836309D01*
X73542380Y-21836309D02*
X73685238Y-21741071D01*
X73685238Y-21741071D02*
X73780476Y-21645833D01*
X73780476Y-21645833D02*
X73828095Y-21550595D01*
X73970952Y-22693452D02*
X73923333Y-22598214D01*
X73923333Y-22598214D02*
X73875714Y-22550595D01*
X73875714Y-22550595D02*
X73780476Y-22502976D01*
X73780476Y-22502976D02*
X73732857Y-22502976D01*
X73732857Y-22502976D02*
X73637619Y-22550595D01*
X73637619Y-22550595D02*
X73590000Y-22598214D01*
X73590000Y-22598214D02*
X73542380Y-22693452D01*
X73542380Y-22693452D02*
X73542380Y-22883928D01*
X73542380Y-22883928D02*
X73590000Y-22979166D01*
X73590000Y-22979166D02*
X73637619Y-23026785D01*
X73637619Y-23026785D02*
X73732857Y-23074404D01*
X73732857Y-23074404D02*
X73780476Y-23074404D01*
X73780476Y-23074404D02*
X73875714Y-23026785D01*
X73875714Y-23026785D02*
X73923333Y-22979166D01*
X73923333Y-22979166D02*
X73970952Y-22883928D01*
X73970952Y-22883928D02*
X73970952Y-22693452D01*
X73970952Y-22693452D02*
X74018571Y-22598214D01*
X74018571Y-22598214D02*
X74066190Y-22550595D01*
X74066190Y-22550595D02*
X74161428Y-22502976D01*
X74161428Y-22502976D02*
X74351904Y-22502976D01*
X74351904Y-22502976D02*
X74447142Y-22550595D01*
X74447142Y-22550595D02*
X74494761Y-22598214D01*
X74494761Y-22598214D02*
X74542380Y-22693452D01*
X74542380Y-22693452D02*
X74542380Y-22883928D01*
X74542380Y-22883928D02*
X74494761Y-22979166D01*
X74494761Y-22979166D02*
X74447142Y-23026785D01*
X74447142Y-23026785D02*
X74351904Y-23074404D01*
X74351904Y-23074404D02*
X74161428Y-23074404D01*
X74161428Y-23074404D02*
X74066190Y-23026785D01*
X74066190Y-23026785D02*
X74018571Y-22979166D01*
X74018571Y-22979166D02*
X73970952Y-22883928D01*
%TO.C,D22*%
X-111003869Y-36498214D02*
X-112003869Y-36498214D01*
X-112003869Y-36498214D02*
X-112003869Y-36736309D01*
X-112003869Y-36736309D02*
X-111956250Y-36879166D01*
X-111956250Y-36879166D02*
X-111861011Y-36974404D01*
X-111861011Y-36974404D02*
X-111765773Y-37022023D01*
X-111765773Y-37022023D02*
X-111575297Y-37069642D01*
X-111575297Y-37069642D02*
X-111432440Y-37069642D01*
X-111432440Y-37069642D02*
X-111241964Y-37022023D01*
X-111241964Y-37022023D02*
X-111146726Y-36974404D01*
X-111146726Y-36974404D02*
X-111051488Y-36879166D01*
X-111051488Y-36879166D02*
X-111003869Y-36736309D01*
X-111003869Y-36736309D02*
X-111003869Y-36498214D01*
X-111908630Y-37450595D02*
X-111956250Y-37498214D01*
X-111956250Y-37498214D02*
X-112003869Y-37593452D01*
X-112003869Y-37593452D02*
X-112003869Y-37831547D01*
X-112003869Y-37831547D02*
X-111956250Y-37926785D01*
X-111956250Y-37926785D02*
X-111908630Y-37974404D01*
X-111908630Y-37974404D02*
X-111813392Y-38022023D01*
X-111813392Y-38022023D02*
X-111718154Y-38022023D01*
X-111718154Y-38022023D02*
X-111575297Y-37974404D01*
X-111575297Y-37974404D02*
X-111003869Y-37402976D01*
X-111003869Y-37402976D02*
X-111003869Y-38022023D01*
X-111908630Y-38402976D02*
X-111956250Y-38450595D01*
X-111956250Y-38450595D02*
X-112003869Y-38545833D01*
X-112003869Y-38545833D02*
X-112003869Y-38783928D01*
X-112003869Y-38783928D02*
X-111956250Y-38879166D01*
X-111956250Y-38879166D02*
X-111908630Y-38926785D01*
X-111908630Y-38926785D02*
X-111813392Y-38974404D01*
X-111813392Y-38974404D02*
X-111718154Y-38974404D01*
X-111718154Y-38974404D02*
X-111575297Y-38926785D01*
X-111575297Y-38926785D02*
X-111003869Y-38355357D01*
X-111003869Y-38355357D02*
X-111003869Y-38974404D01*
%TO.C,D24*%
X-74882619Y-47635714D02*
X-75882619Y-47635714D01*
X-75882619Y-47635714D02*
X-75882619Y-47873809D01*
X-75882619Y-47873809D02*
X-75835000Y-48016666D01*
X-75835000Y-48016666D02*
X-75739761Y-48111904D01*
X-75739761Y-48111904D02*
X-75644523Y-48159523D01*
X-75644523Y-48159523D02*
X-75454047Y-48207142D01*
X-75454047Y-48207142D02*
X-75311190Y-48207142D01*
X-75311190Y-48207142D02*
X-75120714Y-48159523D01*
X-75120714Y-48159523D02*
X-75025476Y-48111904D01*
X-75025476Y-48111904D02*
X-74930238Y-48016666D01*
X-74930238Y-48016666D02*
X-74882619Y-47873809D01*
X-74882619Y-47873809D02*
X-74882619Y-47635714D01*
X-75787380Y-48588095D02*
X-75835000Y-48635714D01*
X-75835000Y-48635714D02*
X-75882619Y-48730952D01*
X-75882619Y-48730952D02*
X-75882619Y-48969047D01*
X-75882619Y-48969047D02*
X-75835000Y-49064285D01*
X-75835000Y-49064285D02*
X-75787380Y-49111904D01*
X-75787380Y-49111904D02*
X-75692142Y-49159523D01*
X-75692142Y-49159523D02*
X-75596904Y-49159523D01*
X-75596904Y-49159523D02*
X-75454047Y-49111904D01*
X-75454047Y-49111904D02*
X-74882619Y-48540476D01*
X-74882619Y-48540476D02*
X-74882619Y-49159523D01*
X-75549285Y-50016666D02*
X-74882619Y-50016666D01*
X-75930238Y-49778571D02*
X-75215952Y-49540476D01*
X-75215952Y-49540476D02*
X-75215952Y-50159523D01*
%TO.C,SW19*%
X55731672Y-27424894D02*
X55861982Y-27782917D01*
X56904459Y-30647100D02*
X57034769Y-31005123D01*
X57392792Y-30874813D02*
X57034769Y-31005123D01*
X57249760Y-24169344D02*
X65603628Y-21128785D01*
X60686262Y-29676088D02*
X59063565Y-30266702D01*
X65603628Y-21128785D02*
X65733937Y-21486808D01*
X66776415Y-24350991D02*
X67123907Y-25305718D01*
X67123907Y-25305718D02*
X62350269Y-27043181D01*
X57249760Y-24169344D02*
G75*
G03*
X55731672Y-27424894I868733J-2386820D01*
G01*
X62350269Y-27043180D02*
G75*
G03*
X60692747Y-29693905I868731J-2386819D01*
G01*
%TO.C,SW27*%
X-57477769Y-50787238D02*
X-57608078Y-51145261D01*
X-58650556Y-54009444D02*
X-58780865Y-54367467D01*
X-58422842Y-54497777D02*
X-58780865Y-54367467D01*
X-54222218Y-49269150D02*
X-45868351Y-52309709D01*
X-55129372Y-55696502D02*
X-56752069Y-55105889D01*
X-45868351Y-52309709D02*
X-45998660Y-52667732D01*
X-47041138Y-55531915D02*
X-47388630Y-56486643D01*
X-47388630Y-56486643D02*
X-52162269Y-54749181D01*
X-54222218Y-49269151D02*
G75*
G03*
X-57477769Y-50787238I-868731J-2386820D01*
G01*
X-52162269Y-54749181D02*
G75*
G03*
X-55135857Y-55714319I-868731J-2386818D01*
G01*
%TO.C,SW5*%
X-76657769Y7912762D02*
X-76788078Y7554739D01*
X-77830556Y4690556D02*
X-77960865Y4332533D01*
X-77602842Y4202223D02*
X-77960865Y4332533D01*
X-73402218Y9430850D02*
X-65048351Y6390291D01*
X-74309372Y3003498D02*
X-75932069Y3594111D01*
X-65048351Y6390291D02*
X-65178660Y6032268D01*
X-66221138Y3168085D02*
X-66568630Y2213357D01*
X-66568630Y2213357D02*
X-71342269Y3950819D01*
X-73402218Y9430849D02*
G75*
G03*
X-76657769Y7912762I-868731J-2386820D01*
G01*
X-71342269Y3950819D02*
G75*
G03*
X-74315857Y2985681I-868731J-2386818D01*
G01*
%TO.C,SW18*%
X39027672Y-37228894D02*
X39157982Y-37586917D01*
X40200459Y-40451100D02*
X40330769Y-40809123D01*
X40688792Y-40678813D02*
X40330769Y-40809123D01*
X40545760Y-33973344D02*
X48899628Y-30932785D01*
X43982262Y-39480088D02*
X42359565Y-40070702D01*
X48899628Y-30932785D02*
X49029937Y-31290808D01*
X50072415Y-34154991D02*
X50419907Y-35109718D01*
X50419907Y-35109718D02*
X45646269Y-36847181D01*
X40545760Y-33973344D02*
G75*
G03*
X39027672Y-37228894I868733J-2386820D01*
G01*
X45646269Y-36847180D02*
G75*
G03*
X43988747Y-39497905I868731J-2386819D01*
G01*
%TO.C,SW12*%
X105655672Y2505106D02*
X105785982Y2147083D01*
X106828459Y-717100D02*
X106958769Y-1075123D01*
X107316792Y-944813D02*
X106958769Y-1075123D01*
X107173760Y5760656D02*
X115527628Y8801215D01*
X110610262Y253912D02*
X108987565Y-336702D01*
X115527628Y8801215D02*
X115657937Y8443192D01*
X116700415Y5579009D02*
X117047907Y4624282D01*
X117047907Y4624282D02*
X112274269Y2886819D01*
X107173760Y5760656D02*
G75*
G03*
X105655672Y2505106I868733J-2386820D01*
G01*
X112274269Y2886820D02*
G75*
G03*
X110616747Y236095I868731J-2386819D01*
G01*
%TO.C,SW10*%
X64723672Y3569106D02*
X64853982Y3211083D01*
X65896459Y346900D02*
X66026769Y-11123D01*
X66384792Y119187D02*
X66026769Y-11123D01*
X66241760Y6824656D02*
X74595628Y9865215D01*
X69678262Y1317912D02*
X68055565Y727298D01*
X74595628Y9865215D02*
X74725937Y9507192D01*
X75768415Y6643009D02*
X76115907Y5688282D01*
X76115907Y5688282D02*
X71342269Y3950819D01*
X66241760Y6824656D02*
G75*
G03*
X64723672Y3569106I868733J-2386820D01*
G01*
X71342269Y3950820D02*
G75*
G03*
X69684747Y1300095I868731J-2386819D01*
G01*
%TO.C,SW11*%
X84334672Y5386106D02*
X84464982Y5028083D01*
X85507459Y2163900D02*
X85637769Y1805877D01*
X85995792Y1936187D02*
X85637769Y1805877D01*
X85852760Y8641656D02*
X94206628Y11682215D01*
X89289262Y3134912D02*
X87666565Y2544298D01*
X94206628Y11682215D02*
X94336937Y11324192D01*
X95379415Y8460009D02*
X95726907Y7505282D01*
X95726907Y7505282D02*
X90953269Y5767819D01*
X85852760Y8641656D02*
G75*
G03*
X84334672Y5386106I868733J-2386820D01*
G01*
X90953269Y5767820D02*
G75*
G03*
X89295747Y3117095I868731J-2386819D01*
G01*
%TO.C,SW16*%
X-67666769Y-23081238D02*
X-67797078Y-23439261D01*
X-68839556Y-26303444D02*
X-68969865Y-26661467D01*
X-68611842Y-26791777D02*
X-68969865Y-26661467D01*
X-64411218Y-21563150D02*
X-56057351Y-24603709D01*
X-65318372Y-27990502D02*
X-66941069Y-27399889D01*
X-56057351Y-24603709D02*
X-56187660Y-24961732D01*
X-57230138Y-27825915D02*
X-57577630Y-28780643D01*
X-57577630Y-28780643D02*
X-62351269Y-27043181D01*
X-64411218Y-21563151D02*
G75*
G03*
X-67666769Y-23081238I-868731J-2386820D01*
G01*
X-62351269Y-27043181D02*
G75*
G03*
X-65324857Y-28008319I-868731J-2386818D01*
G01*
%TO.C,SW4*%
X-96269769Y9729762D02*
X-96400078Y9371739D01*
X-97442556Y6507556D02*
X-97572865Y6149533D01*
X-97214842Y6019223D02*
X-97572865Y6149533D01*
X-93014218Y11247850D02*
X-84660351Y8207291D01*
X-93921372Y4820498D02*
X-95544069Y5411111D01*
X-84660351Y8207291D02*
X-84790660Y7849268D01*
X-85833138Y4985085D02*
X-86180630Y4030357D01*
X-86180630Y4030357D02*
X-90954269Y5767819D01*
X-93014218Y11247849D02*
G75*
G03*
X-96269769Y9729762I-868731J-2386820D01*
G01*
X-90954269Y5767819D02*
G75*
G03*
X-93927857Y4802681I-868731J-2386818D01*
G01*
%TO.C,SW14*%
X-102784769Y-8171238D02*
X-102915078Y-8529261D01*
X-103957556Y-11393444D02*
X-104087865Y-11751467D01*
X-103729842Y-11881777D02*
X-104087865Y-11751467D01*
X-99529218Y-6653150D02*
X-91175351Y-9693709D01*
X-100436372Y-13080502D02*
X-102059069Y-12489889D01*
X-91175351Y-9693709D02*
X-91305660Y-10051732D01*
X-92348138Y-12915915D02*
X-92695630Y-13870643D01*
X-92695630Y-13870643D02*
X-97469269Y-12133181D01*
X-99529218Y-6653151D02*
G75*
G03*
X-102784769Y-8171238I-868731J-2386820D01*
G01*
X-97469269Y-12133181D02*
G75*
G03*
X-100442857Y-13098319I-868731J-2386818D01*
G01*
%TO.C,SW25*%
X-89688769Y-27889238D02*
X-89819078Y-28247261D01*
X-90861556Y-31111444D02*
X-90991865Y-31469467D01*
X-90633842Y-31599777D02*
X-90991865Y-31469467D01*
X-86433218Y-26371150D02*
X-78079351Y-29411709D01*
X-87340372Y-32798502D02*
X-88963069Y-32207889D01*
X-78079351Y-29411709D02*
X-78209660Y-29769732D01*
X-79252138Y-32633915D02*
X-79599630Y-33588643D01*
X-79599630Y-33588643D02*
X-84373269Y-31851181D01*
X-86433218Y-26371151D02*
G75*
G03*
X-89688769Y-27889238I-868731J-2386820D01*
G01*
X-84373269Y-31851181D02*
G75*
G03*
X-87346857Y-32816319I-868731J-2386818D01*
G01*
%TO.C,SW8*%
X32512672Y-19327894D02*
X32642982Y-19685917D01*
X33685459Y-22550100D02*
X33815769Y-22908123D01*
X34173792Y-22777813D02*
X33815769Y-22908123D01*
X34030760Y-16072344D02*
X42384628Y-13031785D01*
X37467262Y-21579088D02*
X35844565Y-22169702D01*
X42384628Y-13031785D02*
X42514937Y-13389808D01*
X43557415Y-16253991D02*
X43904907Y-17208718D01*
X43904907Y-17208718D02*
X39131269Y-18946181D01*
X34030760Y-16072344D02*
G75*
G03*
X32512672Y-19327894I868733J-2386820D01*
G01*
X39131269Y-18946180D02*
G75*
G03*
X37473747Y-21596905I868731J-2386819D01*
G01*
%TO.C,SW15*%
X-83141769Y-9988238D02*
X-83272078Y-10346261D01*
X-84314556Y-13210444D02*
X-84444865Y-13568467D01*
X-84086842Y-13698777D02*
X-84444865Y-13568467D01*
X-79886218Y-8470150D02*
X-71532351Y-11510709D01*
X-80793372Y-14897502D02*
X-82416069Y-14306889D01*
X-71532351Y-11510709D02*
X-71662660Y-11868732D01*
X-72705138Y-14732915D02*
X-73052630Y-15687643D01*
X-73052630Y-15687643D02*
X-77826269Y-13950181D01*
X-79886218Y-8470151D02*
G75*
G03*
X-83141769Y-9988238I-868731J-2386820D01*
G01*
X-77826269Y-13950181D02*
G75*
G03*
X-80799857Y-14915319I-868731J-2386818D01*
G01*
%TO.C,SW28*%
X45543672Y-55130894D02*
X45673982Y-55488917D01*
X46716459Y-58353100D02*
X46846769Y-58711123D01*
X47204792Y-58580813D02*
X46846769Y-58711123D01*
X47061760Y-51875344D02*
X55415628Y-48834785D01*
X50498262Y-57382088D02*
X48875565Y-57972702D01*
X55415628Y-48834785D02*
X55545937Y-49192808D01*
X56588415Y-52056991D02*
X56935907Y-53011718D01*
X56935907Y-53011718D02*
X52162269Y-54749181D01*
X47061760Y-51875344D02*
G75*
G03*
X45543672Y-55130894I868733J-2386820D01*
G01*
X52162269Y-54749180D02*
G75*
G03*
X50504747Y-57399905I868731J-2386819D01*
G01*
%TO.C,SW3*%
X-117590769Y6848762D02*
X-117721078Y6490739D01*
X-118763556Y3626556D02*
X-118893865Y3268533D01*
X-118535842Y3138223D02*
X-118893865Y3268533D01*
X-114335218Y8366850D02*
X-105981351Y5326291D01*
X-115242372Y1939498D02*
X-116865069Y2530111D01*
X-105981351Y5326291D02*
X-106111660Y4968268D01*
X-107154138Y2104085D02*
X-107501630Y1149357D01*
X-107501630Y1149357D02*
X-112275269Y2886819D01*
X-114335218Y8366849D02*
G75*
G03*
X-117590769Y6848762I-868731J-2386820D01*
G01*
X-112275269Y2886819D02*
G75*
G03*
X-115248857Y1921681I-868731J-2386818D01*
G01*
%TO.C,SW20*%
X71238672Y-14331894D02*
X71368982Y-14689917D01*
X72411459Y-17554100D02*
X72541769Y-17912123D01*
X72899792Y-17781813D02*
X72541769Y-17912123D01*
X72756760Y-11076344D02*
X81110628Y-8035785D01*
X76193262Y-16583088D02*
X74570565Y-17173702D01*
X81110628Y-8035785D02*
X81240937Y-8393808D01*
X82283415Y-11257991D02*
X82630907Y-12212718D01*
X82630907Y-12212718D02*
X77857269Y-13950181D01*
X72756760Y-11076344D02*
G75*
G03*
X71238672Y-14331894I868733J-2386820D01*
G01*
X77857269Y-13950180D02*
G75*
G03*
X76199747Y-16600905I868731J-2386819D01*
G01*
%TO.C,SW34*%
X-57166121Y-72717625D02*
X-57464667Y-72954335D01*
X-59853035Y-74848010D02*
X-60151580Y-75084719D01*
X-59914871Y-75383265D02*
X-60151580Y-75084719D01*
X-53597753Y-73129868D02*
X-48074533Y-80095939D01*
X-57737369Y-78129604D02*
X-58810227Y-76776479D01*
X-48074533Y-80095939D02*
X-48373079Y-80332649D01*
X-50761446Y-82226324D02*
X-51557568Y-82857549D01*
X-51557568Y-82857549D02*
X-54713694Y-78876937D01*
X-53597754Y-73129869D02*
G75*
G03*
X-57166120Y-72717626I-1990305J-1578065D01*
G01*
X-54713694Y-78876937D02*
G75*
G03*
X-57752226Y-78141384I-1990305J-1578062D01*
G01*
%TO.C,SW38*%
X69087672Y-64119894D02*
X69217982Y-64477917D01*
X70260459Y-67342100D02*
X70390769Y-67700123D01*
X70748792Y-67569813D02*
X70390769Y-67700123D01*
X70605760Y-60864344D02*
X78959628Y-57823785D01*
X74042262Y-66371088D02*
X72419565Y-66961702D01*
X78959628Y-57823785D02*
X79089937Y-58181808D01*
X80132415Y-61045991D02*
X80479907Y-62000718D01*
X80479907Y-62000718D02*
X75706269Y-63738181D01*
X70605760Y-60864344D02*
G75*
G03*
X69087672Y-64119894I868733J-2386820D01*
G01*
X75706269Y-63738180D02*
G75*
G03*
X74048747Y-66388905I868731J-2386819D01*
G01*
%TO.C,SW26*%
X-74181769Y-40982238D02*
X-74312078Y-41340261D01*
X-75354556Y-44204444D02*
X-75484865Y-44562467D01*
X-75126842Y-44692777D02*
X-75484865Y-44562467D01*
X-70926218Y-39464150D02*
X-62572351Y-42504709D01*
X-71833372Y-45891502D02*
X-73456069Y-45300889D01*
X-62572351Y-42504709D02*
X-62702660Y-42862732D01*
X-63745138Y-45726915D02*
X-64092630Y-46681643D01*
X-64092630Y-46681643D02*
X-68866269Y-44944181D01*
X-70926218Y-39464151D02*
G75*
G03*
X-74181769Y-40982238I-868731J-2386820D01*
G01*
X-68866269Y-44944181D02*
G75*
G03*
X-71839857Y-45909319I-868731J-2386818D01*
G01*
%TO.C,SW24*%
X-109300769Y-26072238D02*
X-109431078Y-26430261D01*
X-110473556Y-29294444D02*
X-110603865Y-29652467D01*
X-110245842Y-29782777D02*
X-110603865Y-29652467D01*
X-106045218Y-24554150D02*
X-97691351Y-27594709D01*
X-106952372Y-30981502D02*
X-108575069Y-30390889D01*
X-97691351Y-27594709D02*
X-97821660Y-27952732D01*
X-98864138Y-30816915D02*
X-99211630Y-31771643D01*
X-99211630Y-31771643D02*
X-103985269Y-30034181D01*
X-106045218Y-24554151D02*
G75*
G03*
X-109300769Y-26072238I-868731J-2386820D01*
G01*
X-103985269Y-30034181D02*
G75*
G03*
X-106958857Y-30999319I-868731J-2386818D01*
G01*
%TO.C,SW22*%
X112171672Y-15395894D02*
X112301982Y-15753917D01*
X113344459Y-18618100D02*
X113474769Y-18976123D01*
X113832792Y-18845813D02*
X113474769Y-18976123D01*
X113689760Y-12140344D02*
X122043628Y-9099785D01*
X117126262Y-17647088D02*
X115503565Y-18237702D01*
X122043628Y-9099785D02*
X122173937Y-9457808D01*
X123216415Y-12321991D02*
X123563907Y-13276718D01*
X123563907Y-13276718D02*
X118790269Y-15014181D01*
X113689760Y-12140344D02*
G75*
G03*
X112171672Y-15395894I868733J-2386820D01*
G01*
X118790269Y-15014180D02*
G75*
G03*
X117132747Y-17664905I868731J-2386819D01*
G01*
%TO.C,SW33*%
X-81022769Y-59776238D02*
X-81153078Y-60134261D01*
X-82195556Y-62998444D02*
X-82325865Y-63356467D01*
X-81967842Y-63486777D02*
X-82325865Y-63356467D01*
X-77767218Y-58258150D02*
X-69413351Y-61298709D01*
X-78674372Y-64685502D02*
X-80297069Y-64094889D01*
X-69413351Y-61298709D02*
X-69543660Y-61656732D01*
X-70586138Y-64520915D02*
X-70933630Y-65475643D01*
X-70933630Y-65475643D02*
X-75707269Y-63738181D01*
X-77767218Y-58258151D02*
G75*
G03*
X-81022769Y-59776238I-868731J-2386820D01*
G01*
X-75707269Y-63738181D02*
G75*
G03*
X-78680857Y-64703319I-868731J-2386818D01*
G01*
%TO.C,SW32*%
X118686672Y-33296894D02*
X118816982Y-33654917D01*
X119859459Y-36519100D02*
X119989769Y-36877123D01*
X120347792Y-36746813D02*
X119989769Y-36877123D01*
X120204760Y-30041344D02*
X128558628Y-27000785D01*
X123641262Y-35548088D02*
X122018565Y-36138702D01*
X128558628Y-27000785D02*
X128688937Y-27358808D01*
X129731415Y-30222991D02*
X130078907Y-31177718D01*
X130078907Y-31177718D02*
X125305269Y-32915181D01*
X120204760Y-30041344D02*
G75*
G03*
X118686672Y-33296894I868733J-2386820D01*
G01*
X125305269Y-32915180D02*
G75*
G03*
X123647747Y-35565905I868731J-2386819D01*
G01*
%TO.C,SW37*%
X49274808Y-82669155D02*
X49573354Y-82905865D01*
X51961721Y-84799540D02*
X52260267Y-85036249D01*
X52496976Y-84737703D02*
X52260267Y-85036249D01*
X48862564Y-79100786D02*
X54385784Y-72134715D01*
X54674478Y-81991365D02*
X53601620Y-83344489D01*
X54385784Y-72134715D02*
X54684330Y-72371425D01*
X57072697Y-74265100D02*
X57868820Y-74896325D01*
X57868820Y-74896325D02*
X54712694Y-78876937D01*
X48862565Y-79100787D02*
G75*
G03*
X49274808Y-82669154I1990307J-1578062D01*
G01*
X54712694Y-78876937D02*
G75*
G03*
X54689335Y-82003143I1990305J-1578062D01*
G01*
%TO.C,SW9*%
X49216672Y-9523894D02*
X49346982Y-9881917D01*
X50389459Y-12746100D02*
X50519769Y-13104123D01*
X50877792Y-12973813D02*
X50519769Y-13104123D01*
X50734760Y-6268344D02*
X59088628Y-3227785D01*
X54171262Y-11775088D02*
X52548565Y-12365702D01*
X59088628Y-3227785D02*
X59218937Y-3585808D01*
X60261415Y-6449991D02*
X60608907Y-7404718D01*
X60608907Y-7404718D02*
X55835269Y-9142181D01*
X50734760Y-6268344D02*
G75*
G03*
X49216672Y-9523894I868733J-2386820D01*
G01*
X55835269Y-9142180D02*
G75*
G03*
X54177747Y-11792905I868731J-2386819D01*
G01*
%TO.C,SW6*%
X-61150769Y-5180238D02*
X-61281078Y-5538261D01*
X-62323556Y-8402444D02*
X-62453865Y-8760467D01*
X-62095842Y-8890777D02*
X-62453865Y-8760467D01*
X-57895218Y-3662150D02*
X-49541351Y-6702709D01*
X-58802372Y-10089502D02*
X-60425069Y-9498889D01*
X-49541351Y-6702709D02*
X-49671660Y-7060732D01*
X-50714138Y-9924915D02*
X-51061630Y-10879643D01*
X-51061630Y-10879643D02*
X-55835269Y-9142181D01*
X-57895218Y-3662151D02*
G75*
G03*
X-61150769Y-5180238I-868731J-2386820D01*
G01*
X-55835269Y-9142181D02*
G75*
G03*
X-58808857Y-10107319I-868731J-2386818D01*
G01*
%TO.C,SW7*%
X-44446769Y-14984238D02*
X-44577078Y-15342261D01*
X-45619556Y-18206444D02*
X-45749865Y-18564467D01*
X-45391842Y-18694777D02*
X-45749865Y-18564467D01*
X-41191218Y-13466150D02*
X-32837351Y-16506709D01*
X-42098372Y-19893502D02*
X-43721069Y-19302889D01*
X-32837351Y-16506709D02*
X-32967660Y-16864732D01*
X-34010138Y-19728915D02*
X-34357630Y-20683643D01*
X-34357630Y-20683643D02*
X-39131269Y-18946181D01*
X-41191218Y-13466151D02*
G75*
G03*
X-44446769Y-14984238I-868731J-2386820D01*
G01*
X-39131269Y-18946181D02*
G75*
G03*
X-42104857Y-19911319I-868731J-2386818D01*
G01*
%TO.C,SW31*%
X97365672Y-30415894D02*
X97495982Y-30773917D01*
X98538459Y-33638100D02*
X98668769Y-33996123D01*
X99026792Y-33865813D02*
X98668769Y-33996123D01*
X98883760Y-27160344D02*
X107237628Y-24119785D01*
X102320262Y-32667088D02*
X100697565Y-33257702D01*
X107237628Y-24119785D02*
X107367937Y-24477808D01*
X108410415Y-27341991D02*
X108757907Y-28296718D01*
X108757907Y-28296718D02*
X103984269Y-30034181D01*
X98883760Y-27160344D02*
G75*
G03*
X97365672Y-30415894I868733J-2386820D01*
G01*
X103984269Y-30034180D02*
G75*
G03*
X102326747Y-32684905I868731J-2386819D01*
G01*
%TO.C,SW13*%
X-124106769Y-11052238D02*
X-124237078Y-11410261D01*
X-125279556Y-14274444D02*
X-125409865Y-14632467D01*
X-125051842Y-14762777D02*
X-125409865Y-14632467D01*
X-120851218Y-9534150D02*
X-112497351Y-12574709D01*
X-121758372Y-15961502D02*
X-123381069Y-15370889D01*
X-112497351Y-12574709D02*
X-112627660Y-12932732D01*
X-113670138Y-15796915D02*
X-114017630Y-16751643D01*
X-114017630Y-16751643D02*
X-118791269Y-15014181D01*
X-120851218Y-9534151D02*
G75*
G03*
X-124106769Y-11052238I-868731J-2386820D01*
G01*
X-118791269Y-15014181D02*
G75*
G03*
X-121764857Y-15979319I-868731J-2386818D01*
G01*
%TO.C,SW30*%
X77754672Y-32232894D02*
X77884982Y-32590917D01*
X78927459Y-35455100D02*
X79057769Y-35813123D01*
X79415792Y-35682813D02*
X79057769Y-35813123D01*
X79272760Y-28977344D02*
X87626628Y-25936785D01*
X82709262Y-34484088D02*
X81086565Y-35074702D01*
X87626628Y-25936785D02*
X87756937Y-26294808D01*
X88799415Y-29158991D02*
X89146907Y-30113718D01*
X89146907Y-30113718D02*
X84373269Y-31851181D01*
X79272760Y-28977344D02*
G75*
G03*
X77754672Y-32232894I868733J-2386820D01*
G01*
X84373269Y-31851180D02*
G75*
G03*
X82715747Y-34501905I868731J-2386819D01*
G01*
%TO.C,SW21*%
X90849672Y-12514894D02*
X90979982Y-12872917D01*
X92022459Y-15737100D02*
X92152769Y-16095123D01*
X92510792Y-15964813D02*
X92152769Y-16095123D01*
X92367760Y-9259344D02*
X100721628Y-6218785D01*
X95804262Y-14766088D02*
X94181565Y-15356702D01*
X100721628Y-6218785D02*
X100851937Y-6576808D01*
X101894415Y-9440991D02*
X102241907Y-10395718D01*
X102241907Y-10395718D02*
X97468269Y-12133181D01*
X92367760Y-9259344D02*
G75*
G03*
X90849672Y-12514894I868733J-2386820D01*
G01*
X97468269Y-12133180D02*
G75*
G03*
X95810747Y-14783905I868731J-2386819D01*
G01*
%TO.C,SW29*%
X62247672Y-45325894D02*
X62377982Y-45683917D01*
X63420459Y-48548100D02*
X63550769Y-48906123D01*
X63908792Y-48775813D02*
X63550769Y-48906123D01*
X63765760Y-42070344D02*
X72119628Y-39029785D01*
X67202262Y-47577088D02*
X65579565Y-48167702D01*
X72119628Y-39029785D02*
X72249937Y-39387808D01*
X73292415Y-42251991D02*
X73639907Y-43206718D01*
X73639907Y-43206718D02*
X68866269Y-44944181D01*
X63765760Y-42070344D02*
G75*
G03*
X62247672Y-45325894I868733J-2386820D01*
G01*
X68866269Y-44944180D02*
G75*
G03*
X67208747Y-47594905I868731J-2386819D01*
G01*
%TO.C,SW35*%
X-43624326Y-96239724D02*
X-44002638Y-96284902D01*
X-47029134Y-96646326D02*
X-47407446Y-96691504D01*
X-47362268Y-97069816D02*
X-47407446Y-96691504D01*
X-40801060Y-98460618D02*
X-39746908Y-107287897D01*
X-46946674Y-100549927D02*
X-47151437Y-98835272D01*
X-39746908Y-107287897D02*
X-40125220Y-107333075D01*
X-43151716Y-107694499D02*
X-44160548Y-107814973D01*
X-44160548Y-107814973D02*
X-44762920Y-102770814D01*
X-40801061Y-98460618D02*
G75*
G03*
X-43624326Y-96239725I-2522080J-301187D01*
G01*
X-44762920Y-102770814D02*
G75*
G03*
X-46965500Y-100552176I-2522079J-301186D01*
G01*
%TO.C,SW17*%
X-50962769Y-32885238D02*
X-51093078Y-33243261D01*
X-52135556Y-36107444D02*
X-52265865Y-36465467D01*
X-51907842Y-36595777D02*
X-52265865Y-36465467D01*
X-47707218Y-31367150D02*
X-39353351Y-34407709D01*
X-48614372Y-37794502D02*
X-50237069Y-37203889D01*
X-39353351Y-34407709D02*
X-39483660Y-34765732D01*
X-40526138Y-37629915D02*
X-40873630Y-38584643D01*
X-40873630Y-38584643D02*
X-45647269Y-36847181D01*
X-47707218Y-31367151D02*
G75*
G03*
X-50962769Y-32885238I-868731J-2386820D01*
G01*
X-45647269Y-36847181D02*
G75*
G03*
X-48620857Y-37812319I-868731J-2386818D01*
G01*
%TO.C,SW36*%
X42117395Y-108850124D02*
X42495707Y-108895302D01*
X45522202Y-109256725D02*
X45900514Y-109301903D01*
X45945692Y-108923591D02*
X45900514Y-109301903D01*
X39896501Y-106026858D02*
X40950653Y-97199578D01*
X46361286Y-105443480D02*
X46156523Y-107158135D01*
X40950653Y-97199578D02*
X41328965Y-97244756D01*
X44355461Y-97606179D02*
X45364293Y-97726654D01*
X45364293Y-97726654D02*
X44761920Y-102770814D01*
X39896501Y-106026858D02*
G75*
G03*
X42117395Y-108850124I2522081J-301185D01*
G01*
X44761920Y-102770814D02*
G75*
G03*
X46380113Y-105445728I2522079J-301186D01*
G01*
%TO.C,SW23*%
X-130621769Y-28953238D02*
X-130752078Y-29311261D01*
X-131794556Y-32175444D02*
X-131924865Y-32533467D01*
X-131566842Y-32663777D02*
X-131924865Y-32533467D01*
X-127366218Y-27435150D02*
X-119012351Y-30475709D01*
X-128273372Y-33862502D02*
X-129896069Y-33271889D01*
X-119012351Y-30475709D02*
X-119142660Y-30833732D01*
X-120185138Y-33697915D02*
X-120532630Y-34652643D01*
X-120532630Y-34652643D02*
X-125306269Y-32915181D01*
X-127366218Y-27435151D02*
G75*
G03*
X-130621769Y-28953238I-868731J-2386820D01*
G01*
X-125306269Y-32915181D02*
G75*
G03*
X-128279857Y-33880319I-868731J-2386818D01*
G01*
D12*
%TO.C,D25*%
X-60650000Y-60460000D02*
X-60650000Y-57800000D01*
X-58950000Y-60460000D02*
X-60650000Y-60460000D01*
X-58950000Y-60460000D02*
X-58950000Y-57800000D01*
%TO.C,D6*%
X30475000Y-28360000D02*
X30475000Y-25700000D01*
X32175000Y-28360000D02*
X30475000Y-28360000D01*
X32175000Y-28360000D02*
X32175000Y-25700000D01*
%TO.C,D29*%
X95990000Y-38850000D02*
X95990000Y-36190000D01*
X97690000Y-38850000D02*
X95990000Y-38850000D01*
X97690000Y-38850000D02*
X97690000Y-36190000D01*
%TO.C,D7*%
X49050000Y-17860000D02*
X49050000Y-15200000D01*
X50750000Y-17860000D02*
X49050000Y-17860000D01*
X50750000Y-17860000D02*
X50750000Y-15200000D01*
%TO.C,D9*%
X84475000Y-3922500D02*
X84475000Y-1262500D01*
X86175000Y-3922500D02*
X84475000Y-3922500D01*
X86175000Y-3922500D02*
X86175000Y-1262500D01*
%TO.C,D21*%
X-134071250Y-39322500D02*
X-134071250Y-36662500D01*
X-132371250Y-39322500D02*
X-134071250Y-39322500D01*
X-132371250Y-39322500D02*
X-132371250Y-36662500D01*
%TO.C,SW2*%
X-7250000Y-22150000D02*
X-8250000Y-22150000D01*
X-8250000Y-22150000D02*
X-8250000Y-23150000D01*
X-6250000Y-24150000D02*
X-3650000Y-24150000D01*
X-8200000Y-30150000D02*
X-8200000Y-24350000D01*
X-1700000Y-30250000D02*
X-1700000Y-24250000D01*
X-6250000Y-30350000D02*
X-3650000Y-30350000D01*
%TO.C,D10*%
X106975000Y-5922500D02*
X106975000Y-3262500D01*
X108675000Y-5922500D02*
X106975000Y-5922500D01*
X108675000Y-5922500D02*
X108675000Y-3262500D01*
%TO.C,R1*%
X4265000Y-18577064D02*
X4265000Y-18122936D01*
X5735000Y-18577064D02*
X5735000Y-18122936D01*
%TO.C,C3*%
X-1135000Y-23311252D02*
X-1135000Y-22788748D01*
X335000Y-23311252D02*
X335000Y-22788748D01*
%TO.C,C4*%
X2159420Y-7640000D02*
X2440580Y-7640000D01*
X2159420Y-8660000D02*
X2440580Y-8660000D01*
%TO.C,D27*%
X61475000Y-54860000D02*
X61475000Y-52200000D01*
X63175000Y-54860000D02*
X61475000Y-54860000D01*
X63175000Y-54860000D02*
X63175000Y-52200000D01*
%TO.C,U2*%
X-2882548Y-6586744D02*
X-2882548Y-7386744D01*
X-2882548Y-6586744D02*
X-2882548Y-5786744D01*
X237452Y-6586744D02*
X237452Y-8386744D01*
X237452Y-6586744D02*
X237452Y-5786744D01*
%TO.C,D30*%
X117975000Y-40922500D02*
X117975000Y-38262500D01*
X119675000Y-40922500D02*
X117975000Y-40922500D01*
X119675000Y-40922500D02*
X119675000Y-38262500D01*
%TO.C,SW1*%
X7250000Y-32450000D02*
X8250000Y-32450000D01*
X8250000Y-32450000D02*
X8250000Y-31450000D01*
X6250000Y-30450000D02*
X3650000Y-30450000D01*
X8200000Y-24450000D02*
X8200000Y-30250000D01*
X1700000Y-24350000D02*
X1700000Y-30350000D01*
X6250000Y-24250000D02*
X3650000Y-24250000D01*
%TO.C,C1*%
X6716200Y-3515000D02*
X7238704Y-3515000D01*
X6716200Y-4985000D02*
X7238704Y-4985000D01*
%TO.C,D11*%
X-128025000Y-20860000D02*
X-128025000Y-18200000D01*
X-126325000Y-20860000D02*
X-128025000Y-20860000D01*
X-126325000Y-20860000D02*
X-126325000Y-18200000D01*
%TO.C,D28*%
X78975000Y-40922500D02*
X78975000Y-38262500D01*
X80675000Y-40922500D02*
X78975000Y-40922500D01*
X80675000Y-40922500D02*
X80675000Y-38262500D01*
%TO.C,D17*%
X54975000Y-36422500D02*
X54975000Y-33762500D01*
X56675000Y-36422500D02*
X54975000Y-36422500D01*
X56675000Y-36422500D02*
X56675000Y-33762500D01*
%TO.C,D26*%
X41850000Y-53640000D02*
X41850000Y-56300000D01*
X40150000Y-53640000D02*
X41850000Y-53640000D01*
X40150000Y-53640000D02*
X40150000Y-56300000D01*
%TO.C,D5*%
X-48850000Y-21930000D02*
X-48850000Y-19270000D01*
X-47150000Y-21930000D02*
X-48850000Y-21930000D01*
X-47150000Y-21930000D02*
X-47150000Y-19270000D01*
%TO.C,D31*%
X-84525000Y-69360000D02*
X-84525000Y-66700000D01*
X-82825000Y-69360000D02*
X-84525000Y-69360000D01*
X-82825000Y-69360000D02*
X-82825000Y-66700000D01*
%TO.C,J1*%
X-5292524Y323256D02*
X-5292524Y1223256D01*
X-5172524Y-2756744D02*
X3777476Y-2756744D01*
X3897476Y323256D02*
X3897476Y1223256D01*
%TO.C,D35*%
X45650000Y-89760000D02*
X45650000Y-87100000D01*
X47350000Y-89760000D02*
X45650000Y-89760000D01*
X47350000Y-89760000D02*
X47350000Y-87100000D01*
%TO.C,C6*%
X-7759420Y-11760000D02*
X-8040580Y-11760000D01*
X-7759420Y-10740000D02*
X-8040580Y-10740000D01*
%TO.C,D15*%
X-54050000Y-43360000D02*
X-54050000Y-40700000D01*
X-52350000Y-43360000D02*
X-54050000Y-43360000D01*
X-52350000Y-43360000D02*
X-52350000Y-40700000D01*
%TO.C,D4*%
X-67850000Y-8360000D02*
X-67850000Y-5700000D01*
X-66150000Y-8360000D02*
X-67850000Y-8360000D01*
X-66150000Y-8360000D02*
X-66150000Y-5700000D01*
%TO.C,D3*%
X-79350000Y-3460000D02*
X-79350000Y-800000D01*
X-77650000Y-3460000D02*
X-79350000Y-3460000D01*
X-77650000Y-3460000D02*
X-77650000Y-800000D01*
%TO.C,D1*%
X-119750000Y-3460000D02*
X-119750000Y-800000D01*
X-118050000Y-3460000D02*
X-119750000Y-3460000D01*
X-118050000Y-3460000D02*
X-118050000Y-800000D01*
%TO.C,D36*%
X67475000Y-72360000D02*
X67475000Y-69700000D01*
X69175000Y-72360000D02*
X67475000Y-72360000D01*
X69175000Y-72360000D02*
X69175000Y-69700000D01*
%TO.C,D20*%
X112475000Y-23422500D02*
X112475000Y-20762500D01*
X114175000Y-23422500D02*
X112475000Y-23422500D01*
X114175000Y-23422500D02*
X114175000Y-20762500D01*
%TO.C,D2*%
X-98750000Y-3460000D02*
X-98750000Y-800000D01*
X-97050000Y-3460000D02*
X-98750000Y-3460000D01*
X-97050000Y-3460000D02*
X-97050000Y-800000D01*
%TO.C,D12*%
X-107525000Y-20860000D02*
X-107525000Y-18200000D01*
X-105825000Y-20860000D02*
X-107525000Y-20860000D01*
X-105825000Y-20860000D02*
X-105825000Y-18200000D01*
%TO.C,FB1*%
X2025242Y-5864244D02*
X2499758Y-5864244D01*
X2025242Y-6909244D02*
X2499758Y-6909244D01*
%TO.C,D16*%
X37475000Y-46360000D02*
X37475000Y-43700000D01*
X39175000Y-46360000D02*
X37475000Y-46360000D01*
X39175000Y-46360000D02*
X39175000Y-43700000D01*
%TO.C,D8*%
X64475000Y-5360000D02*
X64475000Y-2700000D01*
X66175000Y-5360000D02*
X64475000Y-5360000D01*
X66175000Y-5360000D02*
X66175000Y-2700000D01*
%TO.C,R2*%
X-3765000Y-4759680D02*
X-3765000Y-5213808D01*
X-5235000Y-4759680D02*
X-5235000Y-5213808D01*
%TO.C,D14*%
X-71950000Y-32060000D02*
X-71950000Y-29400000D01*
X-70250000Y-32060000D02*
X-71950000Y-32060000D01*
X-70250000Y-32060000D02*
X-70250000Y-29400000D01*
%TO.C,C2*%
X7061252Y-11085000D02*
X6538748Y-11085000D01*
X7061252Y-9615000D02*
X6538748Y-9615000D01*
%TO.C,D34*%
X38175000Y-102702500D02*
X38175000Y-105362500D01*
X36475000Y-102702500D02*
X38175000Y-102702500D01*
X36475000Y-102702500D02*
X36475000Y-105362500D01*
%TO.C,U3*%
X-5932548Y-19196744D02*
X-5482548Y-19196744D01*
X837452Y-19196744D02*
X837452Y-20486744D01*
X1287452Y-19196744D02*
X837452Y-19196744D01*
X-5932548Y-18746744D02*
X-5932548Y-19196744D01*
X1287452Y-18746744D02*
X1287452Y-19196744D01*
X-5932548Y-12426744D02*
X-5932548Y-11976744D01*
X1287452Y-12426744D02*
X1287452Y-11976744D01*
X-5932548Y-11976744D02*
X-5482548Y-11976744D01*
X1287452Y-11976744D02*
X837452Y-11976744D01*
%TO.C,C5*%
X2910000Y-20309420D02*
X2910000Y-20590580D01*
X1890000Y-20309420D02*
X1890000Y-20590580D01*
%TO.C,D32*%
X-65025000Y-74860000D02*
X-65025000Y-72200000D01*
X-63325000Y-74860000D02*
X-65025000Y-74860000D01*
X-63325000Y-74860000D02*
X-63325000Y-72200000D01*
%TO.C,C7*%
X-6490000Y-20309420D02*
X-6490000Y-20590580D01*
X-7510000Y-20309420D02*
X-7510000Y-20590580D01*
%TO.C,D33*%
X-41825000Y-86640000D02*
X-41825000Y-89300000D01*
X-43525000Y-86640000D02*
X-41825000Y-86640000D01*
X-43525000Y-86640000D02*
X-43525000Y-89300000D01*
%TO.C,R3*%
X-6965000Y-122936D02*
X-6965000Y-577064D01*
X-8435000Y-122936D02*
X-8435000Y-577064D01*
%TO.C,D23*%
X-92071250Y-39322500D02*
X-92071250Y-36662500D01*
X-90371250Y-39322500D02*
X-92071250Y-39322500D01*
X-90371250Y-39322500D02*
X-90371250Y-36662500D01*
%TO.C,D13*%
X-85750000Y-20860000D02*
X-85750000Y-18200000D01*
X-84050000Y-20860000D02*
X-85750000Y-20860000D01*
X-84050000Y-20860000D02*
X-84050000Y-18200000D01*
%TO.C,U1*%
X6477452Y-9046744D02*
X7127452Y-9046744D01*
X6477452Y-9046744D02*
X5827452Y-9046744D01*
X6477452Y-5926744D02*
X8152452Y-5926744D01*
X6477452Y-5926744D02*
X5827452Y-5926744D01*
%TO.C,D19*%
X90475000Y-23422500D02*
X90475000Y-20762500D01*
X92175000Y-23422500D02*
X90475000Y-23422500D01*
X92175000Y-23422500D02*
X92175000Y-20762500D01*
%TO.C,D18*%
X71475000Y-23422500D02*
X71475000Y-20762500D01*
X73175000Y-23422500D02*
X71475000Y-23422500D01*
X73175000Y-23422500D02*
X73175000Y-20762500D01*
%TO.C,D22*%
X-114071250Y-39322500D02*
X-114071250Y-36662500D01*
X-112371250Y-39322500D02*
X-114071250Y-39322500D01*
X-112371250Y-39322500D02*
X-112371250Y-36662500D01*
%TO.C,D24*%
X-77950000Y-50460000D02*
X-77950000Y-47800000D01*
X-76250000Y-50460000D02*
X-77950000Y-50460000D01*
X-76250000Y-50460000D02*
X-76250000Y-47800000D01*
%TD*%
M02*
