%TF.GenerationSoftware,KiCad,Pcbnew,(7.0.0)*%
%TF.CreationDate,2023-03-04T17:22:30-05:00*%
%TF.ProjectId,pteropus,70746572-6f70-4757-932e-6b696361645f,rev?*%
%TF.SameCoordinates,Original*%
%TF.FileFunction,Drillmap*%
%TF.FilePolarity,Positive*%
%FSLAX45Y45*%
G04 Gerber Fmt 4.5, Leading zero omitted, Abs format (unit mm)*
G04 Created by KiCad (PCBNEW (7.0.0)) date 2023-03-04 17:22:30*
%MOMM*%
%LPD*%
G01*
G04 APERTURE LIST*
%ADD10C,0.100000*%
%ADD11C,0.200000*%
%ADD12C,0.170180*%
%ADD13C,0.300000*%
%ADD14C,0.320000*%
%ADD15C,0.398780*%
G04 APERTURE END LIST*
D10*
X-9300000Y1900000D02*
X-12000000Y1900000D01*
X5600000Y-12000000D02*
G75*
G03*
X-5600000Y-12000000I-5600000J-12823065D01*
G01*
X12000000Y1900000D02*
X14200000Y-4300000D01*
X9300000Y1900000D02*
X12000000Y1900000D01*
X2500000Y-500000D02*
X1600000Y400000D01*
X-9300000Y1900000D02*
X-2500000Y-500000D01*
X14200000Y-4300000D02*
G75*
G03*
X5600000Y-12000000I3659096J-12739380D01*
G01*
X-1600000Y400000D02*
X1600000Y400000D01*
X-2500000Y-500000D02*
X-1600000Y400000D01*
X-5600000Y-12000000D02*
G75*
G03*
X-14200000Y-4300000I-12259096J-5039380D01*
G01*
X-12000000Y1900000D02*
X-14200000Y-4300000D01*
X2500000Y-500000D02*
X9300000Y1900000D01*
D11*
D12*
X-13179954Y-3271364D02*
X-13009774Y-3441544D01*
X-13009774Y-3271364D02*
X-13179954Y-3441544D01*
X-12528454Y-1481264D02*
X-12358274Y-1651444D01*
X-12358274Y-1481264D02*
X-12528454Y-1651444D01*
X-12225226Y-3618856D02*
X-12055046Y-3789036D01*
X-12055046Y-3618856D02*
X-12225226Y-3789036D01*
X-11876854Y308836D02*
X-11706674Y138656D01*
X-11706674Y308836D02*
X-11876854Y138656D01*
X-11573726Y-1828756D02*
X-11403546Y-1998936D01*
X-11403546Y-1828756D02*
X-11573726Y-1998936D01*
X-11047854Y-2983264D02*
X-10877674Y-3153444D01*
X-10877674Y-2983264D02*
X-11047854Y-3153444D01*
X-10922126Y-38656D02*
X-10751946Y-208836D01*
X-10751946Y-38656D02*
X-10922126Y-208836D01*
X-10396254Y-1193164D02*
X-10226074Y-1363344D01*
X-10226074Y-1193164D02*
X-10396254Y-1363344D01*
X-10093126Y-3330756D02*
X-9922946Y-3500936D01*
X-9922946Y-3330756D02*
X-10093126Y-3500936D01*
X-9744754Y596936D02*
X-9574574Y426756D01*
X-9574574Y596936D02*
X-9744754Y426756D01*
X-9441526Y-1540656D02*
X-9271346Y-1710836D01*
X-9271346Y-1540656D02*
X-9441526Y-1710836D01*
X-9086654Y-3164964D02*
X-8916474Y-3335144D01*
X-8916474Y-3164964D02*
X-9086654Y-3335144D01*
X-8790026Y249444D02*
X-8619846Y79264D01*
X-8619846Y249444D02*
X-8790026Y79264D01*
X-8431954Y-1374864D02*
X-8261774Y-1545044D01*
X-8261774Y-1374864D02*
X-8431954Y-1545044D01*
X-8220054Y-6353664D02*
X-8049874Y-6523844D01*
X-8049874Y-6353664D02*
X-8220054Y-6523844D01*
X-8131926Y-3512456D02*
X-7961746Y-3682636D01*
X-7961746Y-3512456D02*
X-8131926Y-3682636D01*
X-7783554Y415236D02*
X-7613374Y245056D01*
X-7613374Y415236D02*
X-7783554Y245056D01*
X-7535954Y-4474264D02*
X-7365774Y-4644444D01*
X-7365774Y-4474264D02*
X-7535954Y-4644444D01*
X-7477226Y-1722356D02*
X-7307046Y-1892536D01*
X-7307046Y-1722356D02*
X-7477226Y-1892536D01*
X-7265326Y-6701156D02*
X-7095146Y-6871336D01*
X-7095146Y-6701156D02*
X-7265326Y-6871336D01*
X-6884454Y-2684164D02*
X-6714274Y-2854344D01*
X-6714274Y-2684164D02*
X-6884454Y-2854344D01*
X-6828826Y67744D02*
X-6658646Y-102436D01*
X-6658646Y67744D02*
X-6828826Y-102436D01*
X-6581226Y-4821756D02*
X-6411046Y-4991936D01*
X-6411046Y-4821756D02*
X-6581226Y-4991936D01*
X-6232854Y-894064D02*
X-6062674Y-1064244D01*
X-6062674Y-894064D02*
X-6232854Y-1064244D01*
X-6071103Y-7562349D02*
X-5900923Y-7732529D01*
X-5900923Y-7562349D02*
X-6071103Y-7732529D01*
X-5929726Y-3031656D02*
X-5759546Y-3201836D01*
X-5759546Y-3031656D02*
X-5929726Y-3201836D01*
X-5865554Y-5454764D02*
X-5695374Y-5624944D01*
X-5695374Y-5454764D02*
X-5865554Y-5624944D01*
X-5439877Y-8358471D02*
X-5269697Y-8528651D01*
X-5269697Y-8358471D02*
X-5439877Y-8528651D01*
X-5278126Y-1241556D02*
X-5107946Y-1411736D01*
X-5107946Y-1241556D02*
X-5278126Y-1411736D01*
X-5214054Y-3664564D02*
X-5043874Y-3834744D01*
X-5043874Y-3664564D02*
X-5214054Y-3834744D01*
X-4910826Y-5802256D02*
X-4740646Y-5972436D01*
X-4740646Y-5802256D02*
X-4910826Y-5972436D01*
X-4873827Y-9717694D02*
X-4703647Y-9887874D01*
X-4703647Y-9717694D02*
X-4873827Y-9887874D01*
X-4753353Y-10726526D02*
X-4583173Y-10896706D01*
X-4583173Y-10726526D02*
X-4753353Y-10896706D01*
X-4562454Y-1874464D02*
X-4392274Y-2044644D01*
X-4392274Y-1874464D02*
X-4562454Y-2044644D01*
X-4259326Y-4012056D02*
X-4089146Y-4182236D01*
X-4089146Y-4012056D02*
X-4259326Y-4182236D01*
X-3607726Y-2221956D02*
X-3437546Y-2392136D01*
X-3437546Y-2221956D02*
X-3607726Y-2392136D01*
X3437546Y-2221956D02*
X3607726Y-2392136D01*
X3607726Y-2221956D02*
X3437546Y-2392136D01*
X4089046Y-4012056D02*
X4259226Y-4182236D01*
X4259226Y-4012056D02*
X4089046Y-4182236D01*
X4392274Y-1874464D02*
X4562454Y-2044644D01*
X4562454Y-1874464D02*
X4392274Y-2044644D01*
X4583073Y-10726526D02*
X4753253Y-10896706D01*
X4753253Y-10726526D02*
X4583073Y-10896706D01*
X4703547Y-9717694D02*
X4873727Y-9887874D01*
X4873727Y-9717694D02*
X4703547Y-9887874D01*
X4740646Y-5802256D02*
X4910826Y-5972436D01*
X4910826Y-5802256D02*
X4740646Y-5972436D01*
X5043774Y-3664564D02*
X5213954Y-3834744D01*
X5213954Y-3664564D02*
X5043774Y-3834744D01*
X5107946Y-1241556D02*
X5278126Y-1411736D01*
X5278126Y-1241556D02*
X5107946Y-1411736D01*
X5269597Y-8358471D02*
X5439777Y-8528651D01*
X5439777Y-8358471D02*
X5269597Y-8528651D01*
X5695374Y-5454764D02*
X5865554Y-5624944D01*
X5865554Y-5454764D02*
X5695374Y-5624944D01*
X5759446Y-3031656D02*
X5929626Y-3201836D01*
X5929626Y-3031656D02*
X5759446Y-3201836D01*
X5900823Y-7562349D02*
X6071003Y-7732529D01*
X6071003Y-7562349D02*
X5900823Y-7732529D01*
X6062674Y-894064D02*
X6232854Y-1064244D01*
X6232854Y-894064D02*
X6062674Y-1064244D01*
X6411046Y-4821756D02*
X6581226Y-4991936D01*
X6581226Y-4821756D02*
X6411046Y-4991936D01*
X6658646Y67744D02*
X6828826Y-102436D01*
X6828826Y67744D02*
X6658646Y-102436D01*
X6714174Y-2684164D02*
X6884354Y-2854344D01*
X6884354Y-2684164D02*
X6714174Y-2854344D01*
X7095046Y-6701156D02*
X7265226Y-6871336D01*
X7265226Y-6701156D02*
X7095046Y-6871336D01*
X7310146Y-1722356D02*
X7480326Y-1892536D01*
X7480326Y-1722356D02*
X7310146Y-1892536D01*
X7365774Y-4474264D02*
X7535954Y-4644444D01*
X7535954Y-4474264D02*
X7365774Y-4644444D01*
X7613374Y415236D02*
X7783554Y245056D01*
X7783554Y415236D02*
X7613374Y245056D01*
X7961746Y-3512456D02*
X8131926Y-3682636D01*
X8131926Y-3512456D02*
X7961746Y-3682636D01*
X8049774Y-6353664D02*
X8219954Y-6523844D01*
X8219954Y-6353664D02*
X8049774Y-6523844D01*
X8264874Y-1374864D02*
X8435054Y-1545044D01*
X8435054Y-1374864D02*
X8264874Y-1545044D01*
X8619746Y249444D02*
X8789926Y79264D01*
X8789926Y249444D02*
X8619746Y79264D01*
X8916474Y-3164964D02*
X9086654Y-3335144D01*
X9086654Y-3164964D02*
X8916474Y-3335144D01*
X9271246Y-1540656D02*
X9441426Y-1710836D01*
X9441426Y-1540656D02*
X9271246Y-1710836D01*
X9574474Y596936D02*
X9744654Y426756D01*
X9744654Y596936D02*
X9574474Y426756D01*
X9922846Y-3330756D02*
X10093026Y-3500936D01*
X10093026Y-3330756D02*
X9922846Y-3500936D01*
X10225974Y-1193164D02*
X10396154Y-1363344D01*
X10396154Y-1193164D02*
X10225974Y-1363344D01*
X10751846Y-38656D02*
X10922026Y-208836D01*
X10922026Y-38656D02*
X10751846Y-208836D01*
X10877574Y-2983264D02*
X11047754Y-3153444D01*
X11047754Y-2983264D02*
X10877574Y-3153444D01*
X11403446Y-1828756D02*
X11573626Y-1998936D01*
X11573626Y-1828756D02*
X11403446Y-1998936D01*
X11706574Y308836D02*
X11876754Y138656D01*
X11876754Y308836D02*
X11706574Y138656D01*
X12054946Y-3618856D02*
X12225126Y-3789036D01*
X12225126Y-3618856D02*
X12054946Y-3789036D01*
X12358174Y-1481264D02*
X12528354Y-1651444D01*
X12528354Y-1481264D02*
X12358174Y-1651444D01*
X13009674Y-3271364D02*
X13179854Y-3441544D01*
X13179854Y-3271364D02*
X13009674Y-3441544D01*
D13*
X-12738650Y-3161208D02*
G75*
G03*
X-12738650Y-3161208I-150000J0D01*
G01*
X-12087150Y-1371108D02*
G75*
G03*
X-12087150Y-1371108I-150000J0D01*
G01*
X-12055072Y-3139709D02*
G75*
G03*
X-12055072Y-3139709I-150000J0D01*
G01*
X-11435550Y418992D02*
G75*
G03*
X-11435550Y418992I-150000J0D01*
G01*
X-11403572Y-1349609D02*
G75*
G03*
X-11403572Y-1349609I-150000J0D01*
G01*
X-10751972Y440491D02*
G75*
G03*
X-10751972Y440491I-150000J0D01*
G01*
X-10606550Y-2873108D02*
G75*
G03*
X-10606550Y-2873108I-150000J0D01*
G01*
X-9954950Y-1083008D02*
G75*
G03*
X-9954950Y-1083008I-150000J0D01*
G01*
X-9922972Y-2851609D02*
G75*
G03*
X-9922972Y-2851609I-150000J0D01*
G01*
X-9303450Y707092D02*
G75*
G03*
X-9303450Y707092I-150000J0D01*
G01*
X-9271372Y-1061509D02*
G75*
G03*
X-9271372Y-1061509I-150000J0D01*
G01*
X-8645350Y-3054808D02*
G75*
G03*
X-8645350Y-3054808I-150000J0D01*
G01*
X-8619872Y728591D02*
G75*
G03*
X-8619872Y728591I-150000J0D01*
G01*
X-7990650Y-1264708D02*
G75*
G03*
X-7990650Y-1264708I-150000J0D01*
G01*
X-7961772Y-3033309D02*
G75*
G03*
X-7961772Y-3033309I-150000J0D01*
G01*
X-7778750Y-6243508D02*
G75*
G03*
X-7778750Y-6243508I-150000J0D01*
G01*
X-7342250Y525392D02*
G75*
G03*
X-7342250Y525392I-150000J0D01*
G01*
X-7307072Y-1243209D02*
G75*
G03*
X-7307072Y-1243209I-150000J0D01*
G01*
X-7095172Y-6222009D02*
G75*
G03*
X-7095172Y-6222009I-150000J0D01*
G01*
X-7094650Y-4364108D02*
G75*
G03*
X-7094650Y-4364108I-150000J0D01*
G01*
X-6658672Y546891D02*
G75*
G03*
X-6658672Y546891I-150000J0D01*
G01*
X-6443150Y-2574008D02*
G75*
G03*
X-6443150Y-2574008I-150000J0D01*
G01*
X-6411072Y-4342609D02*
G75*
G03*
X-6411072Y-4342609I-150000J0D01*
G01*
X-5791550Y-783908D02*
G75*
G03*
X-5791550Y-783908I-150000J0D01*
G01*
X-5759572Y-2552509D02*
G75*
G03*
X-5759572Y-2552509I-150000J0D01*
G01*
X-5558079Y-7589148D02*
G75*
G03*
X-5558079Y-7589148I-150000J0D01*
G01*
X-5424250Y-5344608D02*
G75*
G03*
X-5424250Y-5344608I-150000J0D01*
G01*
X-5107972Y-762409D02*
G75*
G03*
X-5107972Y-762409I-150000J0D01*
G01*
X-4964533Y-7928918D02*
G75*
G03*
X-4964533Y-7928918I-150000J0D01*
G01*
X-4772750Y-3554408D02*
G75*
G03*
X-4772750Y-3554408I-150000J0D01*
G01*
X-4740672Y-5323109D02*
G75*
G03*
X-4740672Y-5323109I-150000J0D01*
G01*
X-4371470Y-9898769D02*
G75*
G03*
X-4371470Y-9898769I-150000J0D01*
G01*
X-4121150Y-1764308D02*
G75*
G03*
X-4121150Y-1764308I-150000J0D01*
G01*
X-4089172Y-3532909D02*
G75*
G03*
X-4089172Y-3532909I-150000J0D01*
G01*
X-4043965Y-10499171D02*
G75*
G03*
X-4043965Y-10499171I-150000J0D01*
G01*
X-3437572Y-1742809D02*
G75*
G03*
X-3437572Y-1742809I-150000J0D01*
G01*
X3705104Y-2024928D02*
G75*
G03*
X3705104Y-2024928I-150000J0D01*
G01*
X4214936Y-1569063D02*
G75*
G03*
X4214936Y-1569063I-150000J0D01*
G01*
X4356604Y-3815028D02*
G75*
G03*
X4356604Y-3815028I-150000J0D01*
G01*
X4404103Y-9994755D02*
G75*
G03*
X4404103Y-9994755I-150000J0D01*
G01*
X4581014Y-10655393D02*
G75*
G03*
X4581014Y-10655393I-150000J0D01*
G01*
X4866436Y-3359163D02*
G75*
G03*
X4866436Y-3359163I-150000J0D01*
G01*
X5008204Y-5605228D02*
G75*
G03*
X5008204Y-5605228I-150000J0D01*
G01*
X5375504Y-1044528D02*
G75*
G03*
X5375504Y-1044528I-150000J0D01*
G01*
X5384560Y-8186240D02*
G75*
G03*
X5384560Y-8186240I-150000J0D01*
G01*
X5518036Y-5149363D02*
G75*
G03*
X5518036Y-5149363I-150000J0D01*
G01*
X5580045Y-7530857D02*
G75*
G03*
X5580045Y-7530857I-150000J0D01*
G01*
X5885336Y-588663D02*
G75*
G03*
X5885336Y-588663I-150000J0D01*
G01*
X6027004Y-2834628D02*
G75*
G03*
X6027004Y-2834628I-150000J0D01*
G01*
X6536836Y-2378763D02*
G75*
G03*
X6536836Y-2378763I-150000J0D01*
G01*
X6678604Y-4624728D02*
G75*
G03*
X6678604Y-4624728I-150000J0D01*
G01*
X6926204Y264772D02*
G75*
G03*
X6926204Y264772I-150000J0D01*
G01*
X7188436Y-4168863D02*
G75*
G03*
X7188436Y-4168863I-150000J0D01*
G01*
X7362604Y-6504128D02*
G75*
G03*
X7362604Y-6504128I-150000J0D01*
G01*
X7436036Y720637D02*
G75*
G03*
X7436036Y720637I-150000J0D01*
G01*
X7577704Y-1525328D02*
G75*
G03*
X7577704Y-1525328I-150000J0D01*
G01*
X7872436Y-6048263D02*
G75*
G03*
X7872436Y-6048263I-150000J0D01*
G01*
X8087536Y-1069463D02*
G75*
G03*
X8087536Y-1069463I-150000J0D01*
G01*
X8229304Y-3315428D02*
G75*
G03*
X8229304Y-3315428I-150000J0D01*
G01*
X8739136Y-2859563D02*
G75*
G03*
X8739136Y-2859563I-150000J0D01*
G01*
X8887304Y446472D02*
G75*
G03*
X8887304Y446472I-150000J0D01*
G01*
X9397136Y902337D02*
G75*
G03*
X9397136Y902337I-150000J0D01*
G01*
X9538804Y-1343628D02*
G75*
G03*
X9538804Y-1343628I-150000J0D01*
G01*
X10048636Y-887763D02*
G75*
G03*
X10048636Y-887763I-150000J0D01*
G01*
X10190404Y-3133728D02*
G75*
G03*
X10190404Y-3133728I-150000J0D01*
G01*
X10700236Y-2677863D02*
G75*
G03*
X10700236Y-2677863I-150000J0D01*
G01*
X11019404Y158372D02*
G75*
G03*
X11019404Y158372I-150000J0D01*
G01*
X11529236Y614237D02*
G75*
G03*
X11529236Y614237I-150000J0D01*
G01*
X11671004Y-1631728D02*
G75*
G03*
X11671004Y-1631728I-150000J0D01*
G01*
X12180836Y-1175863D02*
G75*
G03*
X12180836Y-1175863I-150000J0D01*
G01*
X12322504Y-3421828D02*
G75*
G03*
X12322504Y-3421828I-150000J0D01*
G01*
X12832336Y-2965963D02*
G75*
G03*
X12832336Y-2965963I-150000J0D01*
G01*
D14*
X-10500000Y1260000D02*
X-10500000Y940000D01*
X-10660000Y1100000D02*
X-10340000Y1100000D01*
X-10000000Y-4340000D02*
X-10000000Y-4660000D01*
X-10160000Y-4500000D02*
X-9840000Y-4500000D01*
X-5400000Y-11340000D02*
X-5400000Y-11660000D01*
X-5560000Y-11500000D02*
X-5240000Y-11500000D01*
X-4000000Y-340000D02*
X-4000000Y-660000D01*
X-4160000Y-500000D02*
X-3840000Y-500000D01*
X-4000000Y-6340000D02*
X-4000000Y-6660000D01*
X-4160000Y-6500000D02*
X-3840000Y-6500000D01*
X4000000Y-340000D02*
X4000000Y-660000D01*
X3840000Y-500000D02*
X4160000Y-500000D01*
X4000000Y-6340000D02*
X4000000Y-6660000D01*
X3840000Y-6500000D02*
X4160000Y-6500000D01*
X5400000Y-11340000D02*
X5400000Y-11660000D01*
X5240000Y-11500000D02*
X5560000Y-11500000D01*
X10000000Y-4340000D02*
X10000000Y-4660000D01*
X9840000Y-4500000D02*
X10160000Y-4500000D01*
X10500000Y1260000D02*
X10500000Y940000D01*
X10340000Y1100000D02*
X10660000Y1100000D01*
D15*
X-12476509Y-3671191D02*
X-12476509Y-3389209D01*
X-12758491Y-3389209D01*
X-12758491Y-3671191D01*
X-12476509Y-3671191D01*
X-11825009Y-1881091D02*
X-11825009Y-1599109D01*
X-12106991Y-1599109D01*
X-12106991Y-1881091D01*
X-11825009Y-1881091D01*
X-11173409Y-90991D02*
X-11173409Y190991D01*
X-11455391Y190991D01*
X-11455391Y-90991D01*
X-11173409Y-90991D01*
X-10344409Y-3383091D02*
X-10344409Y-3101109D01*
X-10626391Y-3101109D01*
X-10626391Y-3383091D01*
X-10344409Y-3383091D01*
X-9692809Y-1592991D02*
X-9692809Y-1311009D01*
X-9974791Y-1311009D01*
X-9974791Y-1592991D01*
X-9692809Y-1592991D01*
X-9041309Y197109D02*
X-9041309Y479091D01*
X-9323291Y479091D01*
X-9323291Y197109D01*
X-9041309Y197109D01*
X-8383209Y-3564791D02*
X-8383209Y-3282809D01*
X-8665191Y-3282809D01*
X-8665191Y-3564791D01*
X-8383209Y-3564791D01*
X-7728509Y-1774691D02*
X-7728509Y-1492709D01*
X-8010491Y-1492709D01*
X-8010491Y-1774691D01*
X-7728509Y-1774691D01*
X-7516609Y-6753491D02*
X-7516609Y-6471509D01*
X-7798591Y-6471509D01*
X-7798591Y-6753491D01*
X-7516609Y-6753491D01*
X-7080109Y15409D02*
X-7080109Y297391D01*
X-7362091Y297391D01*
X-7362091Y15409D01*
X-7080109Y15409D01*
X-6832509Y-4874091D02*
X-6832509Y-4592109D01*
X-7114491Y-4592109D01*
X-7114491Y-4874091D01*
X-6832509Y-4874091D01*
X-6181009Y-3083991D02*
X-6181009Y-2802009D01*
X-6462991Y-2802009D01*
X-6462991Y-3083991D01*
X-6181009Y-3083991D01*
X-5529409Y-1293891D02*
X-5529409Y-1011909D01*
X-5811391Y-1011909D01*
X-5811391Y-1293891D01*
X-5529409Y-1293891D01*
X-5529409Y-8186491D02*
X-5529409Y-7904509D01*
X-5811391Y-7904509D01*
X-5811391Y-8186491D01*
X-5529409Y-8186491D01*
X-5162109Y-5854591D02*
X-5162109Y-5572609D01*
X-5444091Y-5572609D01*
X-5444091Y-5854591D01*
X-5162109Y-5854591D01*
X-4587509Y-10448191D02*
X-4587509Y-10166209D01*
X-4869491Y-10166209D01*
X-4869491Y-10448191D01*
X-4587509Y-10448191D01*
X-4510609Y-4064391D02*
X-4510609Y-3782409D01*
X-4792591Y-3782409D01*
X-4792591Y-4064391D01*
X-4510609Y-4064391D01*
X-3859009Y-2274291D02*
X-3859009Y-1992309D01*
X-4140991Y-1992309D01*
X-4140991Y-2274291D01*
X-3859009Y-2274291D01*
X4140991Y-2274291D02*
X4140991Y-1992309D01*
X3859009Y-1992309D01*
X3859009Y-2274291D01*
X4140991Y-2274291D01*
X4792491Y-4064391D02*
X4792491Y-3782409D01*
X4510509Y-3782409D01*
X4510509Y-4064391D01*
X4792491Y-4064391D01*
X4869391Y-10448191D02*
X4869391Y-10166209D01*
X4587409Y-10166209D01*
X4587409Y-10448191D01*
X4869391Y-10448191D01*
X5444091Y-5854591D02*
X5444091Y-5572609D01*
X5162109Y-5572609D01*
X5162109Y-5854591D01*
X5444091Y-5854591D01*
X5811291Y-8186491D02*
X5811291Y-7904509D01*
X5529309Y-7904509D01*
X5529309Y-8186491D01*
X5811291Y-8186491D01*
X5811391Y-1293891D02*
X5811391Y-1011909D01*
X5529409Y-1011909D01*
X5529409Y-1293891D01*
X5811391Y-1293891D01*
X6462891Y-3083991D02*
X6462891Y-2802009D01*
X6180909Y-2802009D01*
X6180909Y-3083991D01*
X6462891Y-3083991D01*
X7114491Y-4874091D02*
X7114491Y-4592109D01*
X6832509Y-4592109D01*
X6832509Y-4874091D01*
X7114491Y-4874091D01*
X7362091Y15409D02*
X7362091Y297391D01*
X7080109Y297391D01*
X7080109Y15409D01*
X7362091Y15409D01*
X7798491Y-6753491D02*
X7798491Y-6471509D01*
X7516509Y-6471509D01*
X7516509Y-6753491D01*
X7798491Y-6753491D01*
X8013591Y-1774691D02*
X8013591Y-1492709D01*
X7731609Y-1492709D01*
X7731609Y-1774691D01*
X8013591Y-1774691D01*
X8665191Y-3564791D02*
X8665191Y-3282809D01*
X8383209Y-3282809D01*
X8383209Y-3564791D01*
X8665191Y-3564791D01*
X9323191Y197109D02*
X9323191Y479091D01*
X9041209Y479091D01*
X9041209Y197109D01*
X9323191Y197109D01*
X9974691Y-1592991D02*
X9974691Y-1311009D01*
X9692709Y-1311009D01*
X9692709Y-1592991D01*
X9974691Y-1592991D01*
X10626291Y-3383091D02*
X10626291Y-3101109D01*
X10344309Y-3101109D01*
X10344309Y-3383091D01*
X10626291Y-3383091D01*
X11455291Y-90991D02*
X11455291Y190991D01*
X11173309Y190991D01*
X11173309Y-90991D01*
X11455291Y-90991D01*
X12106891Y-1881091D02*
X12106891Y-1599109D01*
X11824909Y-1599109D01*
X11824909Y-1881091D01*
X12106891Y-1881091D01*
X12758391Y-3671191D02*
X12758391Y-3389209D01*
X12476409Y-3389209D01*
X12476409Y-3671191D01*
X12758391Y-3671191D01*
D11*
X-13957381Y-12298476D02*
X-13957381Y-12098476D01*
X-13957381Y-12098476D02*
X-13909762Y-12098476D01*
X-13909762Y-12098476D02*
X-13881190Y-12108000D01*
X-13881190Y-12108000D02*
X-13862143Y-12127048D01*
X-13862143Y-12127048D02*
X-13852619Y-12146095D01*
X-13852619Y-12146095D02*
X-13843095Y-12184190D01*
X-13843095Y-12184190D02*
X-13843095Y-12212762D01*
X-13843095Y-12212762D02*
X-13852619Y-12250857D01*
X-13852619Y-12250857D02*
X-13862143Y-12269905D01*
X-13862143Y-12269905D02*
X-13881190Y-12288952D01*
X-13881190Y-12288952D02*
X-13909762Y-12298476D01*
X-13909762Y-12298476D02*
X-13957381Y-12298476D01*
X-13757381Y-12298476D02*
X-13757381Y-12165143D01*
X-13757381Y-12203238D02*
X-13747857Y-12184190D01*
X-13747857Y-12184190D02*
X-13738333Y-12174667D01*
X-13738333Y-12174667D02*
X-13719286Y-12165143D01*
X-13719286Y-12165143D02*
X-13700238Y-12165143D01*
X-13633571Y-12298476D02*
X-13633571Y-12165143D01*
X-13633571Y-12098476D02*
X-13643095Y-12108000D01*
X-13643095Y-12108000D02*
X-13633571Y-12117524D01*
X-13633571Y-12117524D02*
X-13624048Y-12108000D01*
X-13624048Y-12108000D02*
X-13633571Y-12098476D01*
X-13633571Y-12098476D02*
X-13633571Y-12117524D01*
X-13509762Y-12298476D02*
X-13528809Y-12288952D01*
X-13528809Y-12288952D02*
X-13538333Y-12269905D01*
X-13538333Y-12269905D02*
X-13538333Y-12098476D01*
X-13405000Y-12298476D02*
X-13424048Y-12288952D01*
X-13424048Y-12288952D02*
X-13433571Y-12269905D01*
X-13433571Y-12269905D02*
X-13433571Y-12098476D01*
X-13208809Y-12298476D02*
X-13208809Y-12098476D01*
X-13208809Y-12098476D02*
X-13142143Y-12241333D01*
X-13142143Y-12241333D02*
X-13075476Y-12098476D01*
X-13075476Y-12098476D02*
X-13075476Y-12298476D01*
X-12894524Y-12298476D02*
X-12894524Y-12193714D01*
X-12894524Y-12193714D02*
X-12904048Y-12174667D01*
X-12904048Y-12174667D02*
X-12923095Y-12165143D01*
X-12923095Y-12165143D02*
X-12961190Y-12165143D01*
X-12961190Y-12165143D02*
X-12980238Y-12174667D01*
X-12894524Y-12288952D02*
X-12913571Y-12298476D01*
X-12913571Y-12298476D02*
X-12961190Y-12298476D01*
X-12961190Y-12298476D02*
X-12980238Y-12288952D01*
X-12980238Y-12288952D02*
X-12989762Y-12269905D01*
X-12989762Y-12269905D02*
X-12989762Y-12250857D01*
X-12989762Y-12250857D02*
X-12980238Y-12231809D01*
X-12980238Y-12231809D02*
X-12961190Y-12222286D01*
X-12961190Y-12222286D02*
X-12913571Y-12222286D01*
X-12913571Y-12222286D02*
X-12894524Y-12212762D01*
X-12799286Y-12165143D02*
X-12799286Y-12365143D01*
X-12799286Y-12174667D02*
X-12780238Y-12165143D01*
X-12780238Y-12165143D02*
X-12742143Y-12165143D01*
X-12742143Y-12165143D02*
X-12723095Y-12174667D01*
X-12723095Y-12174667D02*
X-12713571Y-12184190D01*
X-12713571Y-12184190D02*
X-12704048Y-12203238D01*
X-12704048Y-12203238D02*
X-12704048Y-12260381D01*
X-12704048Y-12260381D02*
X-12713571Y-12279428D01*
X-12713571Y-12279428D02*
X-12723095Y-12288952D01*
X-12723095Y-12288952D02*
X-12742143Y-12298476D01*
X-12742143Y-12298476D02*
X-12780238Y-12298476D01*
X-12780238Y-12298476D02*
X-12799286Y-12288952D01*
X-12618333Y-12279428D02*
X-12608809Y-12288952D01*
X-12608809Y-12288952D02*
X-12618333Y-12298476D01*
X-12618333Y-12298476D02*
X-12627857Y-12288952D01*
X-12627857Y-12288952D02*
X-12618333Y-12279428D01*
X-12618333Y-12279428D02*
X-12618333Y-12298476D01*
X-12618333Y-12174667D02*
X-12608809Y-12184190D01*
X-12608809Y-12184190D02*
X-12618333Y-12193714D01*
X-12618333Y-12193714D02*
X-12627857Y-12184190D01*
X-12627857Y-12184190D02*
X-12618333Y-12174667D01*
X-12618333Y-12174667D02*
X-12618333Y-12193714D01*
D12*
X-14375180Y-12559910D02*
X-14205000Y-12730090D01*
X-14205000Y-12559910D02*
X-14375180Y-12730090D01*
D11*
X-13852619Y-12718476D02*
X-13966905Y-12718476D01*
X-13909762Y-12718476D02*
X-13909762Y-12518476D01*
X-13909762Y-12518476D02*
X-13928809Y-12547048D01*
X-13928809Y-12547048D02*
X-13947857Y-12566095D01*
X-13947857Y-12566095D02*
X-13966905Y-12575619D01*
X-13766905Y-12699428D02*
X-13757381Y-12708952D01*
X-13757381Y-12708952D02*
X-13766905Y-12718476D01*
X-13766905Y-12718476D02*
X-13776428Y-12708952D01*
X-13776428Y-12708952D02*
X-13766905Y-12699428D01*
X-13766905Y-12699428D02*
X-13766905Y-12718476D01*
X-13690714Y-12518476D02*
X-13557381Y-12518476D01*
X-13557381Y-12518476D02*
X-13643095Y-12718476D01*
X-13443095Y-12518476D02*
X-13424047Y-12518476D01*
X-13424047Y-12518476D02*
X-13405000Y-12528000D01*
X-13405000Y-12528000D02*
X-13395476Y-12537524D01*
X-13395476Y-12537524D02*
X-13385952Y-12556571D01*
X-13385952Y-12556571D02*
X-13376428Y-12594667D01*
X-13376428Y-12594667D02*
X-13376428Y-12642286D01*
X-13376428Y-12642286D02*
X-13385952Y-12680381D01*
X-13385952Y-12680381D02*
X-13395476Y-12699428D01*
X-13395476Y-12699428D02*
X-13405000Y-12708952D01*
X-13405000Y-12708952D02*
X-13424047Y-12718476D01*
X-13424047Y-12718476D02*
X-13443095Y-12718476D01*
X-13443095Y-12718476D02*
X-13462143Y-12708952D01*
X-13462143Y-12708952D02*
X-13471667Y-12699428D01*
X-13471667Y-12699428D02*
X-13481190Y-12680381D01*
X-13481190Y-12680381D02*
X-13490714Y-12642286D01*
X-13490714Y-12642286D02*
X-13490714Y-12594667D01*
X-13490714Y-12594667D02*
X-13481190Y-12556571D01*
X-13481190Y-12556571D02*
X-13471667Y-12537524D01*
X-13471667Y-12537524D02*
X-13462143Y-12528000D01*
X-13462143Y-12528000D02*
X-13443095Y-12518476D01*
X-13300238Y-12537524D02*
X-13290714Y-12528000D01*
X-13290714Y-12528000D02*
X-13271667Y-12518476D01*
X-13271667Y-12518476D02*
X-13224047Y-12518476D01*
X-13224047Y-12518476D02*
X-13205000Y-12528000D01*
X-13205000Y-12528000D02*
X-13195476Y-12537524D01*
X-13195476Y-12537524D02*
X-13185952Y-12556571D01*
X-13185952Y-12556571D02*
X-13185952Y-12575619D01*
X-13185952Y-12575619D02*
X-13195476Y-12604190D01*
X-13195476Y-12604190D02*
X-13309762Y-12718476D01*
X-13309762Y-12718476D02*
X-13185952Y-12718476D01*
X-13100238Y-12718476D02*
X-13100238Y-12585143D01*
X-13100238Y-12604190D02*
X-13090714Y-12594667D01*
X-13090714Y-12594667D02*
X-13071667Y-12585143D01*
X-13071667Y-12585143D02*
X-13043095Y-12585143D01*
X-13043095Y-12585143D02*
X-13024047Y-12594667D01*
X-13024047Y-12594667D02*
X-13014524Y-12613714D01*
X-13014524Y-12613714D02*
X-13014524Y-12718476D01*
X-13014524Y-12613714D02*
X-13005000Y-12594667D01*
X-13005000Y-12594667D02*
X-12985952Y-12585143D01*
X-12985952Y-12585143D02*
X-12957381Y-12585143D01*
X-12957381Y-12585143D02*
X-12938333Y-12594667D01*
X-12938333Y-12594667D02*
X-12928809Y-12613714D01*
X-12928809Y-12613714D02*
X-12928809Y-12718476D01*
X-12833571Y-12718476D02*
X-12833571Y-12585143D01*
X-12833571Y-12604190D02*
X-12824047Y-12594667D01*
X-12824047Y-12594667D02*
X-12805000Y-12585143D01*
X-12805000Y-12585143D02*
X-12776428Y-12585143D01*
X-12776428Y-12585143D02*
X-12757381Y-12594667D01*
X-12757381Y-12594667D02*
X-12747857Y-12613714D01*
X-12747857Y-12613714D02*
X-12747857Y-12718476D01*
X-12747857Y-12613714D02*
X-12738333Y-12594667D01*
X-12738333Y-12594667D02*
X-12719286Y-12585143D01*
X-12719286Y-12585143D02*
X-12690714Y-12585143D01*
X-12690714Y-12585143D02*
X-12671666Y-12594667D01*
X-12671666Y-12594667D02*
X-12662143Y-12613714D01*
X-12662143Y-12613714D02*
X-12662143Y-12718476D01*
X-12304047Y-12508952D02*
X-12475476Y-12766095D01*
X-12079286Y-12518476D02*
X-12060238Y-12518476D01*
X-12060238Y-12518476D02*
X-12041190Y-12528000D01*
X-12041190Y-12528000D02*
X-12031666Y-12537524D01*
X-12031666Y-12537524D02*
X-12022143Y-12556571D01*
X-12022143Y-12556571D02*
X-12012619Y-12594667D01*
X-12012619Y-12594667D02*
X-12012619Y-12642286D01*
X-12012619Y-12642286D02*
X-12022143Y-12680381D01*
X-12022143Y-12680381D02*
X-12031666Y-12699428D01*
X-12031666Y-12699428D02*
X-12041190Y-12708952D01*
X-12041190Y-12708952D02*
X-12060238Y-12718476D01*
X-12060238Y-12718476D02*
X-12079286Y-12718476D01*
X-12079286Y-12718476D02*
X-12098333Y-12708952D01*
X-12098333Y-12708952D02*
X-12107857Y-12699428D01*
X-12107857Y-12699428D02*
X-12117381Y-12680381D01*
X-12117381Y-12680381D02*
X-12126905Y-12642286D01*
X-12126905Y-12642286D02*
X-12126905Y-12594667D01*
X-12126905Y-12594667D02*
X-12117381Y-12556571D01*
X-12117381Y-12556571D02*
X-12107857Y-12537524D01*
X-12107857Y-12537524D02*
X-12098333Y-12528000D01*
X-12098333Y-12528000D02*
X-12079286Y-12518476D01*
X-11926905Y-12699428D02*
X-11917381Y-12708952D01*
X-11917381Y-12708952D02*
X-11926905Y-12718476D01*
X-11926905Y-12718476D02*
X-11936428Y-12708952D01*
X-11936428Y-12708952D02*
X-11926905Y-12699428D01*
X-11926905Y-12699428D02*
X-11926905Y-12718476D01*
X-11793571Y-12518476D02*
X-11774524Y-12518476D01*
X-11774524Y-12518476D02*
X-11755476Y-12528000D01*
X-11755476Y-12528000D02*
X-11745952Y-12537524D01*
X-11745952Y-12537524D02*
X-11736428Y-12556571D01*
X-11736428Y-12556571D02*
X-11726905Y-12594667D01*
X-11726905Y-12594667D02*
X-11726905Y-12642286D01*
X-11726905Y-12642286D02*
X-11736428Y-12680381D01*
X-11736428Y-12680381D02*
X-11745952Y-12699428D01*
X-11745952Y-12699428D02*
X-11755476Y-12708952D01*
X-11755476Y-12708952D02*
X-11774524Y-12718476D01*
X-11774524Y-12718476D02*
X-11793571Y-12718476D01*
X-11793571Y-12718476D02*
X-11812619Y-12708952D01*
X-11812619Y-12708952D02*
X-11822143Y-12699428D01*
X-11822143Y-12699428D02*
X-11831666Y-12680381D01*
X-11831666Y-12680381D02*
X-11841190Y-12642286D01*
X-11841190Y-12642286D02*
X-11841190Y-12594667D01*
X-11841190Y-12594667D02*
X-11831666Y-12556571D01*
X-11831666Y-12556571D02*
X-11822143Y-12537524D01*
X-11822143Y-12537524D02*
X-11812619Y-12528000D01*
X-11812619Y-12528000D02*
X-11793571Y-12518476D01*
X-11555476Y-12518476D02*
X-11593571Y-12518476D01*
X-11593571Y-12518476D02*
X-11612619Y-12528000D01*
X-11612619Y-12528000D02*
X-11622143Y-12537524D01*
X-11622143Y-12537524D02*
X-11641190Y-12566095D01*
X-11641190Y-12566095D02*
X-11650714Y-12604190D01*
X-11650714Y-12604190D02*
X-11650714Y-12680381D01*
X-11650714Y-12680381D02*
X-11641190Y-12699428D01*
X-11641190Y-12699428D02*
X-11631666Y-12708952D01*
X-11631666Y-12708952D02*
X-11612619Y-12718476D01*
X-11612619Y-12718476D02*
X-11574524Y-12718476D01*
X-11574524Y-12718476D02*
X-11555476Y-12708952D01*
X-11555476Y-12708952D02*
X-11545952Y-12699428D01*
X-11545952Y-12699428D02*
X-11536428Y-12680381D01*
X-11536428Y-12680381D02*
X-11536428Y-12632762D01*
X-11536428Y-12632762D02*
X-11545952Y-12613714D01*
X-11545952Y-12613714D02*
X-11555476Y-12604190D01*
X-11555476Y-12604190D02*
X-11574524Y-12594667D01*
X-11574524Y-12594667D02*
X-11612619Y-12594667D01*
X-11612619Y-12594667D02*
X-11631666Y-12604190D01*
X-11631666Y-12604190D02*
X-11641190Y-12613714D01*
X-11641190Y-12613714D02*
X-11650714Y-12632762D01*
X-11469762Y-12518476D02*
X-11336428Y-12518476D01*
X-11336428Y-12518476D02*
X-11422143Y-12718476D01*
X-11222143Y-12518476D02*
X-11203095Y-12518476D01*
X-11203095Y-12518476D02*
X-11184047Y-12528000D01*
X-11184047Y-12528000D02*
X-11174524Y-12537524D01*
X-11174524Y-12537524D02*
X-11165000Y-12556571D01*
X-11165000Y-12556571D02*
X-11155476Y-12594667D01*
X-11155476Y-12594667D02*
X-11155476Y-12642286D01*
X-11155476Y-12642286D02*
X-11165000Y-12680381D01*
X-11165000Y-12680381D02*
X-11174524Y-12699428D01*
X-11174524Y-12699428D02*
X-11184047Y-12708952D01*
X-11184047Y-12708952D02*
X-11203095Y-12718476D01*
X-11203095Y-12718476D02*
X-11222143Y-12718476D01*
X-11222143Y-12718476D02*
X-11241190Y-12708952D01*
X-11241190Y-12708952D02*
X-11250714Y-12699428D01*
X-11250714Y-12699428D02*
X-11260238Y-12680381D01*
X-11260238Y-12680381D02*
X-11269762Y-12642286D01*
X-11269762Y-12642286D02*
X-11269762Y-12594667D01*
X-11269762Y-12594667D02*
X-11260238Y-12556571D01*
X-11260238Y-12556571D02*
X-11250714Y-12537524D01*
X-11250714Y-12537524D02*
X-11241190Y-12528000D01*
X-11241190Y-12528000D02*
X-11222143Y-12518476D01*
X-11079286Y-12518476D02*
X-11079286Y-12556571D01*
X-11003095Y-12518476D02*
X-11003095Y-12556571D01*
X-10740238Y-12794667D02*
X-10749762Y-12785143D01*
X-10749762Y-12785143D02*
X-10768809Y-12756571D01*
X-10768809Y-12756571D02*
X-10778333Y-12737524D01*
X-10778333Y-12737524D02*
X-10787857Y-12708952D01*
X-10787857Y-12708952D02*
X-10797381Y-12661333D01*
X-10797381Y-12661333D02*
X-10797381Y-12623238D01*
X-10797381Y-12623238D02*
X-10787857Y-12575619D01*
X-10787857Y-12575619D02*
X-10778333Y-12547048D01*
X-10778333Y-12547048D02*
X-10768809Y-12528000D01*
X-10768809Y-12528000D02*
X-10749762Y-12499428D01*
X-10749762Y-12499428D02*
X-10740238Y-12489905D01*
X-10683095Y-12518476D02*
X-10549762Y-12518476D01*
X-10549762Y-12518476D02*
X-10635476Y-12718476D01*
X-10483095Y-12537524D02*
X-10473571Y-12528000D01*
X-10473571Y-12528000D02*
X-10454524Y-12518476D01*
X-10454524Y-12518476D02*
X-10406905Y-12518476D01*
X-10406905Y-12518476D02*
X-10387857Y-12528000D01*
X-10387857Y-12528000D02*
X-10378333Y-12537524D01*
X-10378333Y-12537524D02*
X-10368809Y-12556571D01*
X-10368809Y-12556571D02*
X-10368809Y-12575619D01*
X-10368809Y-12575619D02*
X-10378333Y-12604190D01*
X-10378333Y-12604190D02*
X-10492619Y-12718476D01*
X-10492619Y-12718476D02*
X-10368809Y-12718476D01*
X-10163095Y-12718476D02*
X-10163095Y-12518476D01*
X-10077381Y-12718476D02*
X-10077381Y-12613714D01*
X-10077381Y-12613714D02*
X-10086905Y-12594667D01*
X-10086905Y-12594667D02*
X-10105952Y-12585143D01*
X-10105952Y-12585143D02*
X-10134524Y-12585143D01*
X-10134524Y-12585143D02*
X-10153571Y-12594667D01*
X-10153571Y-12594667D02*
X-10163095Y-12604190D01*
X-9953571Y-12718476D02*
X-9972619Y-12708952D01*
X-9972619Y-12708952D02*
X-9982143Y-12699428D01*
X-9982143Y-12699428D02*
X-9991666Y-12680381D01*
X-9991666Y-12680381D02*
X-9991666Y-12623238D01*
X-9991666Y-12623238D02*
X-9982143Y-12604190D01*
X-9982143Y-12604190D02*
X-9972619Y-12594667D01*
X-9972619Y-12594667D02*
X-9953571Y-12585143D01*
X-9953571Y-12585143D02*
X-9925000Y-12585143D01*
X-9925000Y-12585143D02*
X-9905952Y-12594667D01*
X-9905952Y-12594667D02*
X-9896428Y-12604190D01*
X-9896428Y-12604190D02*
X-9886905Y-12623238D01*
X-9886905Y-12623238D02*
X-9886905Y-12680381D01*
X-9886905Y-12680381D02*
X-9896428Y-12699428D01*
X-9896428Y-12699428D02*
X-9905952Y-12708952D01*
X-9905952Y-12708952D02*
X-9925000Y-12718476D01*
X-9925000Y-12718476D02*
X-9953571Y-12718476D01*
X-9772619Y-12718476D02*
X-9791666Y-12708952D01*
X-9791666Y-12708952D02*
X-9801190Y-12689905D01*
X-9801190Y-12689905D02*
X-9801190Y-12518476D01*
X-9620238Y-12708952D02*
X-9639285Y-12718476D01*
X-9639285Y-12718476D02*
X-9677381Y-12718476D01*
X-9677381Y-12718476D02*
X-9696428Y-12708952D01*
X-9696428Y-12708952D02*
X-9705952Y-12689905D01*
X-9705952Y-12689905D02*
X-9705952Y-12613714D01*
X-9705952Y-12613714D02*
X-9696428Y-12594667D01*
X-9696428Y-12594667D02*
X-9677381Y-12585143D01*
X-9677381Y-12585143D02*
X-9639285Y-12585143D01*
X-9639285Y-12585143D02*
X-9620238Y-12594667D01*
X-9620238Y-12594667D02*
X-9610714Y-12613714D01*
X-9610714Y-12613714D02*
X-9610714Y-12632762D01*
X-9610714Y-12632762D02*
X-9705952Y-12651809D01*
X-9534524Y-12708952D02*
X-9515476Y-12718476D01*
X-9515476Y-12718476D02*
X-9477381Y-12718476D01*
X-9477381Y-12718476D02*
X-9458333Y-12708952D01*
X-9458333Y-12708952D02*
X-9448809Y-12689905D01*
X-9448809Y-12689905D02*
X-9448809Y-12680381D01*
X-9448809Y-12680381D02*
X-9458333Y-12661333D01*
X-9458333Y-12661333D02*
X-9477381Y-12651809D01*
X-9477381Y-12651809D02*
X-9505952Y-12651809D01*
X-9505952Y-12651809D02*
X-9525000Y-12642286D01*
X-9525000Y-12642286D02*
X-9534524Y-12623238D01*
X-9534524Y-12623238D02*
X-9534524Y-12613714D01*
X-9534524Y-12613714D02*
X-9525000Y-12594667D01*
X-9525000Y-12594667D02*
X-9505952Y-12585143D01*
X-9505952Y-12585143D02*
X-9477381Y-12585143D01*
X-9477381Y-12585143D02*
X-9458333Y-12594667D01*
X-9382143Y-12794667D02*
X-9372619Y-12785143D01*
X-9372619Y-12785143D02*
X-9353571Y-12756571D01*
X-9353571Y-12756571D02*
X-9344047Y-12737524D01*
X-9344047Y-12737524D02*
X-9334524Y-12708952D01*
X-9334524Y-12708952D02*
X-9325000Y-12661333D01*
X-9325000Y-12661333D02*
X-9325000Y-12623238D01*
X-9325000Y-12623238D02*
X-9334524Y-12575619D01*
X-9334524Y-12575619D02*
X-9344047Y-12547048D01*
X-9344047Y-12547048D02*
X-9353571Y-12528000D01*
X-9353571Y-12528000D02*
X-9372619Y-12499428D01*
X-9372619Y-12499428D02*
X-9382143Y-12489905D01*
X-9052619Y-12794667D02*
X-9062143Y-12785143D01*
X-9062143Y-12785143D02*
X-9081190Y-12756571D01*
X-9081190Y-12756571D02*
X-9090714Y-12737524D01*
X-9090714Y-12737524D02*
X-9100238Y-12708952D01*
X-9100238Y-12708952D02*
X-9109762Y-12661333D01*
X-9109762Y-12661333D02*
X-9109762Y-12623238D01*
X-9109762Y-12623238D02*
X-9100238Y-12575619D01*
X-9100238Y-12575619D02*
X-9090714Y-12547048D01*
X-9090714Y-12547048D02*
X-9081190Y-12528000D01*
X-9081190Y-12528000D02*
X-9062143Y-12499428D01*
X-9062143Y-12499428D02*
X-9052619Y-12489905D01*
X-8976428Y-12585143D02*
X-8976428Y-12718476D01*
X-8976428Y-12604190D02*
X-8966905Y-12594667D01*
X-8966905Y-12594667D02*
X-8947857Y-12585143D01*
X-8947857Y-12585143D02*
X-8919285Y-12585143D01*
X-8919285Y-12585143D02*
X-8900238Y-12594667D01*
X-8900238Y-12594667D02*
X-8890714Y-12613714D01*
X-8890714Y-12613714D02*
X-8890714Y-12718476D01*
X-8766905Y-12718476D02*
X-8785952Y-12708952D01*
X-8785952Y-12708952D02*
X-8795476Y-12699428D01*
X-8795476Y-12699428D02*
X-8805000Y-12680381D01*
X-8805000Y-12680381D02*
X-8805000Y-12623238D01*
X-8805000Y-12623238D02*
X-8795476Y-12604190D01*
X-8795476Y-12604190D02*
X-8785952Y-12594667D01*
X-8785952Y-12594667D02*
X-8766905Y-12585143D01*
X-8766905Y-12585143D02*
X-8738333Y-12585143D01*
X-8738333Y-12585143D02*
X-8719285Y-12594667D01*
X-8719285Y-12594667D02*
X-8709762Y-12604190D01*
X-8709762Y-12604190D02*
X-8700238Y-12623238D01*
X-8700238Y-12623238D02*
X-8700238Y-12680381D01*
X-8700238Y-12680381D02*
X-8709762Y-12699428D01*
X-8709762Y-12699428D02*
X-8719285Y-12708952D01*
X-8719285Y-12708952D02*
X-8738333Y-12718476D01*
X-8738333Y-12718476D02*
X-8766905Y-12718476D01*
X-8643095Y-12585143D02*
X-8566905Y-12585143D01*
X-8614524Y-12518476D02*
X-8614524Y-12689905D01*
X-8614524Y-12689905D02*
X-8605000Y-12708952D01*
X-8605000Y-12708952D02*
X-8585952Y-12718476D01*
X-8585952Y-12718476D02*
X-8566905Y-12718476D01*
X-8380238Y-12585143D02*
X-8380238Y-12785143D01*
X-8380238Y-12594667D02*
X-8361190Y-12585143D01*
X-8361190Y-12585143D02*
X-8323095Y-12585143D01*
X-8323095Y-12585143D02*
X-8304047Y-12594667D01*
X-8304047Y-12594667D02*
X-8294523Y-12604190D01*
X-8294523Y-12604190D02*
X-8285000Y-12623238D01*
X-8285000Y-12623238D02*
X-8285000Y-12680381D01*
X-8285000Y-12680381D02*
X-8294523Y-12699428D01*
X-8294523Y-12699428D02*
X-8304047Y-12708952D01*
X-8304047Y-12708952D02*
X-8323095Y-12718476D01*
X-8323095Y-12718476D02*
X-8361190Y-12718476D01*
X-8361190Y-12718476D02*
X-8380238Y-12708952D01*
X-8170714Y-12718476D02*
X-8189762Y-12708952D01*
X-8189762Y-12708952D02*
X-8199285Y-12689905D01*
X-8199285Y-12689905D02*
X-8199285Y-12518476D01*
X-8008809Y-12718476D02*
X-8008809Y-12613714D01*
X-8008809Y-12613714D02*
X-8018333Y-12594667D01*
X-8018333Y-12594667D02*
X-8037381Y-12585143D01*
X-8037381Y-12585143D02*
X-8075476Y-12585143D01*
X-8075476Y-12585143D02*
X-8094523Y-12594667D01*
X-8008809Y-12708952D02*
X-8027857Y-12718476D01*
X-8027857Y-12718476D02*
X-8075476Y-12718476D01*
X-8075476Y-12718476D02*
X-8094523Y-12708952D01*
X-8094523Y-12708952D02*
X-8104047Y-12689905D01*
X-8104047Y-12689905D02*
X-8104047Y-12670857D01*
X-8104047Y-12670857D02*
X-8094523Y-12651809D01*
X-8094523Y-12651809D02*
X-8075476Y-12642286D01*
X-8075476Y-12642286D02*
X-8027857Y-12642286D01*
X-8027857Y-12642286D02*
X-8008809Y-12632762D01*
X-7942142Y-12585143D02*
X-7865952Y-12585143D01*
X-7913571Y-12518476D02*
X-7913571Y-12689905D01*
X-7913571Y-12689905D02*
X-7904047Y-12708952D01*
X-7904047Y-12708952D02*
X-7885000Y-12718476D01*
X-7885000Y-12718476D02*
X-7865952Y-12718476D01*
X-7723095Y-12708952D02*
X-7742142Y-12718476D01*
X-7742142Y-12718476D02*
X-7780238Y-12718476D01*
X-7780238Y-12718476D02*
X-7799285Y-12708952D01*
X-7799285Y-12708952D02*
X-7808809Y-12689905D01*
X-7808809Y-12689905D02*
X-7808809Y-12613714D01*
X-7808809Y-12613714D02*
X-7799285Y-12594667D01*
X-7799285Y-12594667D02*
X-7780238Y-12585143D01*
X-7780238Y-12585143D02*
X-7742142Y-12585143D01*
X-7742142Y-12585143D02*
X-7723095Y-12594667D01*
X-7723095Y-12594667D02*
X-7713571Y-12613714D01*
X-7713571Y-12613714D02*
X-7713571Y-12632762D01*
X-7713571Y-12632762D02*
X-7808809Y-12651809D01*
X-7542142Y-12718476D02*
X-7542142Y-12518476D01*
X-7542142Y-12708952D02*
X-7561190Y-12718476D01*
X-7561190Y-12718476D02*
X-7599285Y-12718476D01*
X-7599285Y-12718476D02*
X-7618333Y-12708952D01*
X-7618333Y-12708952D02*
X-7627857Y-12699428D01*
X-7627857Y-12699428D02*
X-7637381Y-12680381D01*
X-7637381Y-12680381D02*
X-7637381Y-12623238D01*
X-7637381Y-12623238D02*
X-7627857Y-12604190D01*
X-7627857Y-12604190D02*
X-7618333Y-12594667D01*
X-7618333Y-12594667D02*
X-7599285Y-12585143D01*
X-7599285Y-12585143D02*
X-7561190Y-12585143D01*
X-7561190Y-12585143D02*
X-7542142Y-12594667D01*
X-7465952Y-12794667D02*
X-7456428Y-12785143D01*
X-7456428Y-12785143D02*
X-7437381Y-12756571D01*
X-7437381Y-12756571D02*
X-7427857Y-12737524D01*
X-7427857Y-12737524D02*
X-7418333Y-12708952D01*
X-7418333Y-12708952D02*
X-7408809Y-12661333D01*
X-7408809Y-12661333D02*
X-7408809Y-12623238D01*
X-7408809Y-12623238D02*
X-7418333Y-12575619D01*
X-7418333Y-12575619D02*
X-7427857Y-12547048D01*
X-7427857Y-12547048D02*
X-7437381Y-12528000D01*
X-7437381Y-12528000D02*
X-7456428Y-12499428D01*
X-7456428Y-12499428D02*
X-7465952Y-12489905D01*
X-14205000Y-12935180D02*
G75*
G03*
X-14205000Y-12935180I-100000J0D01*
G01*
X-13976428Y-12808656D02*
X-13852619Y-12808656D01*
X-13852619Y-12808656D02*
X-13919286Y-12884847D01*
X-13919286Y-12884847D02*
X-13890714Y-12884847D01*
X-13890714Y-12884847D02*
X-13871667Y-12894370D01*
X-13871667Y-12894370D02*
X-13862143Y-12903894D01*
X-13862143Y-12903894D02*
X-13852619Y-12922942D01*
X-13852619Y-12922942D02*
X-13852619Y-12970561D01*
X-13852619Y-12970561D02*
X-13862143Y-12989608D01*
X-13862143Y-12989608D02*
X-13871667Y-12999132D01*
X-13871667Y-12999132D02*
X-13890714Y-13008656D01*
X-13890714Y-13008656D02*
X-13947857Y-13008656D01*
X-13947857Y-13008656D02*
X-13966905Y-12999132D01*
X-13966905Y-12999132D02*
X-13976428Y-12989608D01*
X-13766905Y-12989608D02*
X-13757381Y-12999132D01*
X-13757381Y-12999132D02*
X-13766905Y-13008656D01*
X-13766905Y-13008656D02*
X-13776428Y-12999132D01*
X-13776428Y-12999132D02*
X-13766905Y-12989608D01*
X-13766905Y-12989608D02*
X-13766905Y-13008656D01*
X-13633571Y-12808656D02*
X-13614524Y-12808656D01*
X-13614524Y-12808656D02*
X-13595476Y-12818180D01*
X-13595476Y-12818180D02*
X-13585952Y-12827704D01*
X-13585952Y-12827704D02*
X-13576428Y-12846751D01*
X-13576428Y-12846751D02*
X-13566905Y-12884847D01*
X-13566905Y-12884847D02*
X-13566905Y-12932466D01*
X-13566905Y-12932466D02*
X-13576428Y-12970561D01*
X-13576428Y-12970561D02*
X-13585952Y-12989608D01*
X-13585952Y-12989608D02*
X-13595476Y-12999132D01*
X-13595476Y-12999132D02*
X-13614524Y-13008656D01*
X-13614524Y-13008656D02*
X-13633571Y-13008656D01*
X-13633571Y-13008656D02*
X-13652619Y-12999132D01*
X-13652619Y-12999132D02*
X-13662143Y-12989608D01*
X-13662143Y-12989608D02*
X-13671667Y-12970561D01*
X-13671667Y-12970561D02*
X-13681190Y-12932466D01*
X-13681190Y-12932466D02*
X-13681190Y-12884847D01*
X-13681190Y-12884847D02*
X-13671667Y-12846751D01*
X-13671667Y-12846751D02*
X-13662143Y-12827704D01*
X-13662143Y-12827704D02*
X-13652619Y-12818180D01*
X-13652619Y-12818180D02*
X-13633571Y-12808656D01*
X-13443095Y-12808656D02*
X-13424047Y-12808656D01*
X-13424047Y-12808656D02*
X-13405000Y-12818180D01*
X-13405000Y-12818180D02*
X-13395476Y-12827704D01*
X-13395476Y-12827704D02*
X-13385952Y-12846751D01*
X-13385952Y-12846751D02*
X-13376428Y-12884847D01*
X-13376428Y-12884847D02*
X-13376428Y-12932466D01*
X-13376428Y-12932466D02*
X-13385952Y-12970561D01*
X-13385952Y-12970561D02*
X-13395476Y-12989608D01*
X-13395476Y-12989608D02*
X-13405000Y-12999132D01*
X-13405000Y-12999132D02*
X-13424047Y-13008656D01*
X-13424047Y-13008656D02*
X-13443095Y-13008656D01*
X-13443095Y-13008656D02*
X-13462143Y-12999132D01*
X-13462143Y-12999132D02*
X-13471667Y-12989608D01*
X-13471667Y-12989608D02*
X-13481190Y-12970561D01*
X-13481190Y-12970561D02*
X-13490714Y-12932466D01*
X-13490714Y-12932466D02*
X-13490714Y-12884847D01*
X-13490714Y-12884847D02*
X-13481190Y-12846751D01*
X-13481190Y-12846751D02*
X-13471667Y-12827704D01*
X-13471667Y-12827704D02*
X-13462143Y-12818180D01*
X-13462143Y-12818180D02*
X-13443095Y-12808656D01*
X-13252619Y-12808656D02*
X-13233571Y-12808656D01*
X-13233571Y-12808656D02*
X-13214524Y-12818180D01*
X-13214524Y-12818180D02*
X-13205000Y-12827704D01*
X-13205000Y-12827704D02*
X-13195476Y-12846751D01*
X-13195476Y-12846751D02*
X-13185952Y-12884847D01*
X-13185952Y-12884847D02*
X-13185952Y-12932466D01*
X-13185952Y-12932466D02*
X-13195476Y-12970561D01*
X-13195476Y-12970561D02*
X-13205000Y-12989608D01*
X-13205000Y-12989608D02*
X-13214524Y-12999132D01*
X-13214524Y-12999132D02*
X-13233571Y-13008656D01*
X-13233571Y-13008656D02*
X-13252619Y-13008656D01*
X-13252619Y-13008656D02*
X-13271667Y-12999132D01*
X-13271667Y-12999132D02*
X-13281190Y-12989608D01*
X-13281190Y-12989608D02*
X-13290714Y-12970561D01*
X-13290714Y-12970561D02*
X-13300238Y-12932466D01*
X-13300238Y-12932466D02*
X-13300238Y-12884847D01*
X-13300238Y-12884847D02*
X-13290714Y-12846751D01*
X-13290714Y-12846751D02*
X-13281190Y-12827704D01*
X-13281190Y-12827704D02*
X-13271667Y-12818180D01*
X-13271667Y-12818180D02*
X-13252619Y-12808656D01*
X-13100238Y-13008656D02*
X-13100238Y-12875323D01*
X-13100238Y-12894370D02*
X-13090714Y-12884847D01*
X-13090714Y-12884847D02*
X-13071667Y-12875323D01*
X-13071667Y-12875323D02*
X-13043095Y-12875323D01*
X-13043095Y-12875323D02*
X-13024047Y-12884847D01*
X-13024047Y-12884847D02*
X-13014524Y-12903894D01*
X-13014524Y-12903894D02*
X-13014524Y-13008656D01*
X-13014524Y-12903894D02*
X-13005000Y-12884847D01*
X-13005000Y-12884847D02*
X-12985952Y-12875323D01*
X-12985952Y-12875323D02*
X-12957381Y-12875323D01*
X-12957381Y-12875323D02*
X-12938333Y-12884847D01*
X-12938333Y-12884847D02*
X-12928809Y-12903894D01*
X-12928809Y-12903894D02*
X-12928809Y-13008656D01*
X-12833571Y-13008656D02*
X-12833571Y-12875323D01*
X-12833571Y-12894370D02*
X-12824047Y-12884847D01*
X-12824047Y-12884847D02*
X-12805000Y-12875323D01*
X-12805000Y-12875323D02*
X-12776428Y-12875323D01*
X-12776428Y-12875323D02*
X-12757381Y-12884847D01*
X-12757381Y-12884847D02*
X-12747857Y-12903894D01*
X-12747857Y-12903894D02*
X-12747857Y-13008656D01*
X-12747857Y-12903894D02*
X-12738333Y-12884847D01*
X-12738333Y-12884847D02*
X-12719286Y-12875323D01*
X-12719286Y-12875323D02*
X-12690714Y-12875323D01*
X-12690714Y-12875323D02*
X-12671666Y-12884847D01*
X-12671666Y-12884847D02*
X-12662143Y-12903894D01*
X-12662143Y-12903894D02*
X-12662143Y-13008656D01*
X-12304047Y-12799132D02*
X-12475476Y-13056275D01*
X-12079286Y-12808656D02*
X-12060238Y-12808656D01*
X-12060238Y-12808656D02*
X-12041190Y-12818180D01*
X-12041190Y-12818180D02*
X-12031666Y-12827704D01*
X-12031666Y-12827704D02*
X-12022143Y-12846751D01*
X-12022143Y-12846751D02*
X-12012619Y-12884847D01*
X-12012619Y-12884847D02*
X-12012619Y-12932466D01*
X-12012619Y-12932466D02*
X-12022143Y-12970561D01*
X-12022143Y-12970561D02*
X-12031666Y-12989608D01*
X-12031666Y-12989608D02*
X-12041190Y-12999132D01*
X-12041190Y-12999132D02*
X-12060238Y-13008656D01*
X-12060238Y-13008656D02*
X-12079286Y-13008656D01*
X-12079286Y-13008656D02*
X-12098333Y-12999132D01*
X-12098333Y-12999132D02*
X-12107857Y-12989608D01*
X-12107857Y-12989608D02*
X-12117381Y-12970561D01*
X-12117381Y-12970561D02*
X-12126905Y-12932466D01*
X-12126905Y-12932466D02*
X-12126905Y-12884847D01*
X-12126905Y-12884847D02*
X-12117381Y-12846751D01*
X-12117381Y-12846751D02*
X-12107857Y-12827704D01*
X-12107857Y-12827704D02*
X-12098333Y-12818180D01*
X-12098333Y-12818180D02*
X-12079286Y-12808656D01*
X-11926905Y-12989608D02*
X-11917381Y-12999132D01*
X-11917381Y-12999132D02*
X-11926905Y-13008656D01*
X-11926905Y-13008656D02*
X-11936428Y-12999132D01*
X-11936428Y-12999132D02*
X-11926905Y-12989608D01*
X-11926905Y-12989608D02*
X-11926905Y-13008656D01*
X-11726905Y-13008656D02*
X-11841190Y-13008656D01*
X-11784047Y-13008656D02*
X-11784047Y-12808656D01*
X-11784047Y-12808656D02*
X-11803095Y-12837228D01*
X-11803095Y-12837228D02*
X-11822143Y-12856275D01*
X-11822143Y-12856275D02*
X-11841190Y-12865799D01*
X-11536428Y-13008656D02*
X-11650714Y-13008656D01*
X-11593571Y-13008656D02*
X-11593571Y-12808656D01*
X-11593571Y-12808656D02*
X-11612619Y-12837228D01*
X-11612619Y-12837228D02*
X-11631666Y-12856275D01*
X-11631666Y-12856275D02*
X-11650714Y-12865799D01*
X-11422143Y-12894370D02*
X-11441190Y-12884847D01*
X-11441190Y-12884847D02*
X-11450714Y-12875323D01*
X-11450714Y-12875323D02*
X-11460238Y-12856275D01*
X-11460238Y-12856275D02*
X-11460238Y-12846751D01*
X-11460238Y-12846751D02*
X-11450714Y-12827704D01*
X-11450714Y-12827704D02*
X-11441190Y-12818180D01*
X-11441190Y-12818180D02*
X-11422143Y-12808656D01*
X-11422143Y-12808656D02*
X-11384047Y-12808656D01*
X-11384047Y-12808656D02*
X-11365000Y-12818180D01*
X-11365000Y-12818180D02*
X-11355476Y-12827704D01*
X-11355476Y-12827704D02*
X-11345952Y-12846751D01*
X-11345952Y-12846751D02*
X-11345952Y-12856275D01*
X-11345952Y-12856275D02*
X-11355476Y-12875323D01*
X-11355476Y-12875323D02*
X-11365000Y-12884847D01*
X-11365000Y-12884847D02*
X-11384047Y-12894370D01*
X-11384047Y-12894370D02*
X-11422143Y-12894370D01*
X-11422143Y-12894370D02*
X-11441190Y-12903894D01*
X-11441190Y-12903894D02*
X-11450714Y-12913418D01*
X-11450714Y-12913418D02*
X-11460238Y-12932466D01*
X-11460238Y-12932466D02*
X-11460238Y-12970561D01*
X-11460238Y-12970561D02*
X-11450714Y-12989608D01*
X-11450714Y-12989608D02*
X-11441190Y-12999132D01*
X-11441190Y-12999132D02*
X-11422143Y-13008656D01*
X-11422143Y-13008656D02*
X-11384047Y-13008656D01*
X-11384047Y-13008656D02*
X-11365000Y-12999132D01*
X-11365000Y-12999132D02*
X-11355476Y-12989608D01*
X-11355476Y-12989608D02*
X-11345952Y-12970561D01*
X-11345952Y-12970561D02*
X-11345952Y-12932466D01*
X-11345952Y-12932466D02*
X-11355476Y-12913418D01*
X-11355476Y-12913418D02*
X-11365000Y-12903894D01*
X-11365000Y-12903894D02*
X-11384047Y-12894370D01*
X-11155476Y-13008656D02*
X-11269762Y-13008656D01*
X-11212619Y-13008656D02*
X-11212619Y-12808656D01*
X-11212619Y-12808656D02*
X-11231666Y-12837228D01*
X-11231666Y-12837228D02*
X-11250714Y-12856275D01*
X-11250714Y-12856275D02*
X-11269762Y-12865799D01*
X-11079286Y-12808656D02*
X-11079286Y-12846751D01*
X-11003095Y-12808656D02*
X-11003095Y-12846751D01*
X-10740238Y-13084847D02*
X-10749762Y-13075323D01*
X-10749762Y-13075323D02*
X-10768809Y-13046751D01*
X-10768809Y-13046751D02*
X-10778333Y-13027704D01*
X-10778333Y-13027704D02*
X-10787857Y-12999132D01*
X-10787857Y-12999132D02*
X-10797381Y-12951513D01*
X-10797381Y-12951513D02*
X-10797381Y-12913418D01*
X-10797381Y-12913418D02*
X-10787857Y-12865799D01*
X-10787857Y-12865799D02*
X-10778333Y-12837228D01*
X-10778333Y-12837228D02*
X-10768809Y-12818180D01*
X-10768809Y-12818180D02*
X-10749762Y-12789608D01*
X-10749762Y-12789608D02*
X-10740238Y-12780085D01*
X-10683095Y-12808656D02*
X-10549762Y-12808656D01*
X-10549762Y-12808656D02*
X-10635476Y-13008656D01*
X-10483095Y-12827704D02*
X-10473571Y-12818180D01*
X-10473571Y-12818180D02*
X-10454524Y-12808656D01*
X-10454524Y-12808656D02*
X-10406905Y-12808656D01*
X-10406905Y-12808656D02*
X-10387857Y-12818180D01*
X-10387857Y-12818180D02*
X-10378333Y-12827704D01*
X-10378333Y-12827704D02*
X-10368809Y-12846751D01*
X-10368809Y-12846751D02*
X-10368809Y-12865799D01*
X-10368809Y-12865799D02*
X-10378333Y-12894370D01*
X-10378333Y-12894370D02*
X-10492619Y-13008656D01*
X-10492619Y-13008656D02*
X-10368809Y-13008656D01*
X-10163095Y-13008656D02*
X-10163095Y-12808656D01*
X-10077381Y-13008656D02*
X-10077381Y-12903894D01*
X-10077381Y-12903894D02*
X-10086905Y-12884847D01*
X-10086905Y-12884847D02*
X-10105952Y-12875323D01*
X-10105952Y-12875323D02*
X-10134524Y-12875323D01*
X-10134524Y-12875323D02*
X-10153571Y-12884847D01*
X-10153571Y-12884847D02*
X-10163095Y-12894370D01*
X-9953571Y-13008656D02*
X-9972619Y-12999132D01*
X-9972619Y-12999132D02*
X-9982143Y-12989608D01*
X-9982143Y-12989608D02*
X-9991666Y-12970561D01*
X-9991666Y-12970561D02*
X-9991666Y-12913418D01*
X-9991666Y-12913418D02*
X-9982143Y-12894370D01*
X-9982143Y-12894370D02*
X-9972619Y-12884847D01*
X-9972619Y-12884847D02*
X-9953571Y-12875323D01*
X-9953571Y-12875323D02*
X-9925000Y-12875323D01*
X-9925000Y-12875323D02*
X-9905952Y-12884847D01*
X-9905952Y-12884847D02*
X-9896428Y-12894370D01*
X-9896428Y-12894370D02*
X-9886905Y-12913418D01*
X-9886905Y-12913418D02*
X-9886905Y-12970561D01*
X-9886905Y-12970561D02*
X-9896428Y-12989608D01*
X-9896428Y-12989608D02*
X-9905952Y-12999132D01*
X-9905952Y-12999132D02*
X-9925000Y-13008656D01*
X-9925000Y-13008656D02*
X-9953571Y-13008656D01*
X-9772619Y-13008656D02*
X-9791666Y-12999132D01*
X-9791666Y-12999132D02*
X-9801190Y-12980085D01*
X-9801190Y-12980085D02*
X-9801190Y-12808656D01*
X-9620238Y-12999132D02*
X-9639285Y-13008656D01*
X-9639285Y-13008656D02*
X-9677381Y-13008656D01*
X-9677381Y-13008656D02*
X-9696428Y-12999132D01*
X-9696428Y-12999132D02*
X-9705952Y-12980085D01*
X-9705952Y-12980085D02*
X-9705952Y-12903894D01*
X-9705952Y-12903894D02*
X-9696428Y-12884847D01*
X-9696428Y-12884847D02*
X-9677381Y-12875323D01*
X-9677381Y-12875323D02*
X-9639285Y-12875323D01*
X-9639285Y-12875323D02*
X-9620238Y-12884847D01*
X-9620238Y-12884847D02*
X-9610714Y-12903894D01*
X-9610714Y-12903894D02*
X-9610714Y-12922942D01*
X-9610714Y-12922942D02*
X-9705952Y-12941989D01*
X-9534524Y-12999132D02*
X-9515476Y-13008656D01*
X-9515476Y-13008656D02*
X-9477381Y-13008656D01*
X-9477381Y-13008656D02*
X-9458333Y-12999132D01*
X-9458333Y-12999132D02*
X-9448809Y-12980085D01*
X-9448809Y-12980085D02*
X-9448809Y-12970561D01*
X-9448809Y-12970561D02*
X-9458333Y-12951513D01*
X-9458333Y-12951513D02*
X-9477381Y-12941989D01*
X-9477381Y-12941989D02*
X-9505952Y-12941989D01*
X-9505952Y-12941989D02*
X-9525000Y-12932466D01*
X-9525000Y-12932466D02*
X-9534524Y-12913418D01*
X-9534524Y-12913418D02*
X-9534524Y-12903894D01*
X-9534524Y-12903894D02*
X-9525000Y-12884847D01*
X-9525000Y-12884847D02*
X-9505952Y-12875323D01*
X-9505952Y-12875323D02*
X-9477381Y-12875323D01*
X-9477381Y-12875323D02*
X-9458333Y-12884847D01*
X-9382143Y-13084847D02*
X-9372619Y-13075323D01*
X-9372619Y-13075323D02*
X-9353571Y-13046751D01*
X-9353571Y-13046751D02*
X-9344047Y-13027704D01*
X-9344047Y-13027704D02*
X-9334524Y-12999132D01*
X-9334524Y-12999132D02*
X-9325000Y-12951513D01*
X-9325000Y-12951513D02*
X-9325000Y-12913418D01*
X-9325000Y-12913418D02*
X-9334524Y-12865799D01*
X-9334524Y-12865799D02*
X-9344047Y-12837228D01*
X-9344047Y-12837228D02*
X-9353571Y-12818180D01*
X-9353571Y-12818180D02*
X-9372619Y-12789608D01*
X-9372619Y-12789608D02*
X-9382143Y-12780085D01*
X-9052619Y-13084847D02*
X-9062143Y-13075323D01*
X-9062143Y-13075323D02*
X-9081190Y-13046751D01*
X-9081190Y-13046751D02*
X-9090714Y-13027704D01*
X-9090714Y-13027704D02*
X-9100238Y-12999132D01*
X-9100238Y-12999132D02*
X-9109762Y-12951513D01*
X-9109762Y-12951513D02*
X-9109762Y-12913418D01*
X-9109762Y-12913418D02*
X-9100238Y-12865799D01*
X-9100238Y-12865799D02*
X-9090714Y-12837228D01*
X-9090714Y-12837228D02*
X-9081190Y-12818180D01*
X-9081190Y-12818180D02*
X-9062143Y-12789608D01*
X-9062143Y-12789608D02*
X-9052619Y-12780085D01*
X-8976428Y-12875323D02*
X-8976428Y-13008656D01*
X-8976428Y-12894370D02*
X-8966905Y-12884847D01*
X-8966905Y-12884847D02*
X-8947857Y-12875323D01*
X-8947857Y-12875323D02*
X-8919285Y-12875323D01*
X-8919285Y-12875323D02*
X-8900238Y-12884847D01*
X-8900238Y-12884847D02*
X-8890714Y-12903894D01*
X-8890714Y-12903894D02*
X-8890714Y-13008656D01*
X-8766905Y-13008656D02*
X-8785952Y-12999132D01*
X-8785952Y-12999132D02*
X-8795476Y-12989608D01*
X-8795476Y-12989608D02*
X-8805000Y-12970561D01*
X-8805000Y-12970561D02*
X-8805000Y-12913418D01*
X-8805000Y-12913418D02*
X-8795476Y-12894370D01*
X-8795476Y-12894370D02*
X-8785952Y-12884847D01*
X-8785952Y-12884847D02*
X-8766905Y-12875323D01*
X-8766905Y-12875323D02*
X-8738333Y-12875323D01*
X-8738333Y-12875323D02*
X-8719285Y-12884847D01*
X-8719285Y-12884847D02*
X-8709762Y-12894370D01*
X-8709762Y-12894370D02*
X-8700238Y-12913418D01*
X-8700238Y-12913418D02*
X-8700238Y-12970561D01*
X-8700238Y-12970561D02*
X-8709762Y-12989608D01*
X-8709762Y-12989608D02*
X-8719285Y-12999132D01*
X-8719285Y-12999132D02*
X-8738333Y-13008656D01*
X-8738333Y-13008656D02*
X-8766905Y-13008656D01*
X-8643095Y-12875323D02*
X-8566905Y-12875323D01*
X-8614524Y-12808656D02*
X-8614524Y-12980085D01*
X-8614524Y-12980085D02*
X-8605000Y-12999132D01*
X-8605000Y-12999132D02*
X-8585952Y-13008656D01*
X-8585952Y-13008656D02*
X-8566905Y-13008656D01*
X-8380238Y-12875323D02*
X-8380238Y-13075323D01*
X-8380238Y-12884847D02*
X-8361190Y-12875323D01*
X-8361190Y-12875323D02*
X-8323095Y-12875323D01*
X-8323095Y-12875323D02*
X-8304047Y-12884847D01*
X-8304047Y-12884847D02*
X-8294523Y-12894370D01*
X-8294523Y-12894370D02*
X-8285000Y-12913418D01*
X-8285000Y-12913418D02*
X-8285000Y-12970561D01*
X-8285000Y-12970561D02*
X-8294523Y-12989608D01*
X-8294523Y-12989608D02*
X-8304047Y-12999132D01*
X-8304047Y-12999132D02*
X-8323095Y-13008656D01*
X-8323095Y-13008656D02*
X-8361190Y-13008656D01*
X-8361190Y-13008656D02*
X-8380238Y-12999132D01*
X-8170714Y-13008656D02*
X-8189762Y-12999132D01*
X-8189762Y-12999132D02*
X-8199285Y-12980085D01*
X-8199285Y-12980085D02*
X-8199285Y-12808656D01*
X-8008809Y-13008656D02*
X-8008809Y-12903894D01*
X-8008809Y-12903894D02*
X-8018333Y-12884847D01*
X-8018333Y-12884847D02*
X-8037381Y-12875323D01*
X-8037381Y-12875323D02*
X-8075476Y-12875323D01*
X-8075476Y-12875323D02*
X-8094523Y-12884847D01*
X-8008809Y-12999132D02*
X-8027857Y-13008656D01*
X-8027857Y-13008656D02*
X-8075476Y-13008656D01*
X-8075476Y-13008656D02*
X-8094523Y-12999132D01*
X-8094523Y-12999132D02*
X-8104047Y-12980085D01*
X-8104047Y-12980085D02*
X-8104047Y-12961037D01*
X-8104047Y-12961037D02*
X-8094523Y-12941989D01*
X-8094523Y-12941989D02*
X-8075476Y-12932466D01*
X-8075476Y-12932466D02*
X-8027857Y-12932466D01*
X-8027857Y-12932466D02*
X-8008809Y-12922942D01*
X-7942142Y-12875323D02*
X-7865952Y-12875323D01*
X-7913571Y-12808656D02*
X-7913571Y-12980085D01*
X-7913571Y-12980085D02*
X-7904047Y-12999132D01*
X-7904047Y-12999132D02*
X-7885000Y-13008656D01*
X-7885000Y-13008656D02*
X-7865952Y-13008656D01*
X-7723095Y-12999132D02*
X-7742142Y-13008656D01*
X-7742142Y-13008656D02*
X-7780238Y-13008656D01*
X-7780238Y-13008656D02*
X-7799285Y-12999132D01*
X-7799285Y-12999132D02*
X-7808809Y-12980085D01*
X-7808809Y-12980085D02*
X-7808809Y-12903894D01*
X-7808809Y-12903894D02*
X-7799285Y-12884847D01*
X-7799285Y-12884847D02*
X-7780238Y-12875323D01*
X-7780238Y-12875323D02*
X-7742142Y-12875323D01*
X-7742142Y-12875323D02*
X-7723095Y-12884847D01*
X-7723095Y-12884847D02*
X-7713571Y-12903894D01*
X-7713571Y-12903894D02*
X-7713571Y-12922942D01*
X-7713571Y-12922942D02*
X-7808809Y-12941989D01*
X-7542142Y-13008656D02*
X-7542142Y-12808656D01*
X-7542142Y-12999132D02*
X-7561190Y-13008656D01*
X-7561190Y-13008656D02*
X-7599285Y-13008656D01*
X-7599285Y-13008656D02*
X-7618333Y-12999132D01*
X-7618333Y-12999132D02*
X-7627857Y-12989608D01*
X-7627857Y-12989608D02*
X-7637381Y-12970561D01*
X-7637381Y-12970561D02*
X-7637381Y-12913418D01*
X-7637381Y-12913418D02*
X-7627857Y-12894370D01*
X-7627857Y-12894370D02*
X-7618333Y-12884847D01*
X-7618333Y-12884847D02*
X-7599285Y-12875323D01*
X-7599285Y-12875323D02*
X-7561190Y-12875323D01*
X-7561190Y-12875323D02*
X-7542142Y-12884847D01*
X-7465952Y-13084847D02*
X-7456428Y-13075323D01*
X-7456428Y-13075323D02*
X-7437381Y-13046751D01*
X-7437381Y-13046751D02*
X-7427857Y-13027704D01*
X-7427857Y-13027704D02*
X-7418333Y-12999132D01*
X-7418333Y-12999132D02*
X-7408809Y-12951513D01*
X-7408809Y-12951513D02*
X-7408809Y-12913418D01*
X-7408809Y-12913418D02*
X-7418333Y-12865799D01*
X-7418333Y-12865799D02*
X-7427857Y-12837228D01*
X-7427857Y-12837228D02*
X-7437381Y-12818180D01*
X-7437381Y-12818180D02*
X-7456428Y-12789608D01*
X-7456428Y-12789608D02*
X-7465952Y-12780085D01*
X-14305000Y-13155180D02*
X-14305000Y-13355180D01*
X-14405000Y-13255180D02*
X-14205000Y-13255180D01*
X-13976428Y-13128656D02*
X-13852619Y-13128656D01*
X-13852619Y-13128656D02*
X-13919286Y-13204847D01*
X-13919286Y-13204847D02*
X-13890714Y-13204847D01*
X-13890714Y-13204847D02*
X-13871667Y-13214370D01*
X-13871667Y-13214370D02*
X-13862143Y-13223894D01*
X-13862143Y-13223894D02*
X-13852619Y-13242942D01*
X-13852619Y-13242942D02*
X-13852619Y-13290561D01*
X-13852619Y-13290561D02*
X-13862143Y-13309608D01*
X-13862143Y-13309608D02*
X-13871667Y-13319132D01*
X-13871667Y-13319132D02*
X-13890714Y-13328656D01*
X-13890714Y-13328656D02*
X-13947857Y-13328656D01*
X-13947857Y-13328656D02*
X-13966905Y-13319132D01*
X-13966905Y-13319132D02*
X-13976428Y-13309608D01*
X-13766905Y-13309608D02*
X-13757381Y-13319132D01*
X-13757381Y-13319132D02*
X-13766905Y-13328656D01*
X-13766905Y-13328656D02*
X-13776428Y-13319132D01*
X-13776428Y-13319132D02*
X-13766905Y-13309608D01*
X-13766905Y-13309608D02*
X-13766905Y-13328656D01*
X-13681190Y-13147704D02*
X-13671667Y-13138180D01*
X-13671667Y-13138180D02*
X-13652619Y-13128656D01*
X-13652619Y-13128656D02*
X-13605000Y-13128656D01*
X-13605000Y-13128656D02*
X-13585952Y-13138180D01*
X-13585952Y-13138180D02*
X-13576428Y-13147704D01*
X-13576428Y-13147704D02*
X-13566905Y-13166751D01*
X-13566905Y-13166751D02*
X-13566905Y-13185799D01*
X-13566905Y-13185799D02*
X-13576428Y-13214370D01*
X-13576428Y-13214370D02*
X-13690714Y-13328656D01*
X-13690714Y-13328656D02*
X-13566905Y-13328656D01*
X-13443095Y-13128656D02*
X-13424047Y-13128656D01*
X-13424047Y-13128656D02*
X-13405000Y-13138180D01*
X-13405000Y-13138180D02*
X-13395476Y-13147704D01*
X-13395476Y-13147704D02*
X-13385952Y-13166751D01*
X-13385952Y-13166751D02*
X-13376428Y-13204847D01*
X-13376428Y-13204847D02*
X-13376428Y-13252466D01*
X-13376428Y-13252466D02*
X-13385952Y-13290561D01*
X-13385952Y-13290561D02*
X-13395476Y-13309608D01*
X-13395476Y-13309608D02*
X-13405000Y-13319132D01*
X-13405000Y-13319132D02*
X-13424047Y-13328656D01*
X-13424047Y-13328656D02*
X-13443095Y-13328656D01*
X-13443095Y-13328656D02*
X-13462143Y-13319132D01*
X-13462143Y-13319132D02*
X-13471667Y-13309608D01*
X-13471667Y-13309608D02*
X-13481190Y-13290561D01*
X-13481190Y-13290561D02*
X-13490714Y-13252466D01*
X-13490714Y-13252466D02*
X-13490714Y-13204847D01*
X-13490714Y-13204847D02*
X-13481190Y-13166751D01*
X-13481190Y-13166751D02*
X-13471667Y-13147704D01*
X-13471667Y-13147704D02*
X-13462143Y-13138180D01*
X-13462143Y-13138180D02*
X-13443095Y-13128656D01*
X-13252619Y-13128656D02*
X-13233571Y-13128656D01*
X-13233571Y-13128656D02*
X-13214524Y-13138180D01*
X-13214524Y-13138180D02*
X-13205000Y-13147704D01*
X-13205000Y-13147704D02*
X-13195476Y-13166751D01*
X-13195476Y-13166751D02*
X-13185952Y-13204847D01*
X-13185952Y-13204847D02*
X-13185952Y-13252466D01*
X-13185952Y-13252466D02*
X-13195476Y-13290561D01*
X-13195476Y-13290561D02*
X-13205000Y-13309608D01*
X-13205000Y-13309608D02*
X-13214524Y-13319132D01*
X-13214524Y-13319132D02*
X-13233571Y-13328656D01*
X-13233571Y-13328656D02*
X-13252619Y-13328656D01*
X-13252619Y-13328656D02*
X-13271667Y-13319132D01*
X-13271667Y-13319132D02*
X-13281190Y-13309608D01*
X-13281190Y-13309608D02*
X-13290714Y-13290561D01*
X-13290714Y-13290561D02*
X-13300238Y-13252466D01*
X-13300238Y-13252466D02*
X-13300238Y-13204847D01*
X-13300238Y-13204847D02*
X-13290714Y-13166751D01*
X-13290714Y-13166751D02*
X-13281190Y-13147704D01*
X-13281190Y-13147704D02*
X-13271667Y-13138180D01*
X-13271667Y-13138180D02*
X-13252619Y-13128656D01*
X-13100238Y-13328656D02*
X-13100238Y-13195323D01*
X-13100238Y-13214370D02*
X-13090714Y-13204847D01*
X-13090714Y-13204847D02*
X-13071667Y-13195323D01*
X-13071667Y-13195323D02*
X-13043095Y-13195323D01*
X-13043095Y-13195323D02*
X-13024047Y-13204847D01*
X-13024047Y-13204847D02*
X-13014524Y-13223894D01*
X-13014524Y-13223894D02*
X-13014524Y-13328656D01*
X-13014524Y-13223894D02*
X-13005000Y-13204847D01*
X-13005000Y-13204847D02*
X-12985952Y-13195323D01*
X-12985952Y-13195323D02*
X-12957381Y-13195323D01*
X-12957381Y-13195323D02*
X-12938333Y-13204847D01*
X-12938333Y-13204847D02*
X-12928809Y-13223894D01*
X-12928809Y-13223894D02*
X-12928809Y-13328656D01*
X-12833571Y-13328656D02*
X-12833571Y-13195323D01*
X-12833571Y-13214370D02*
X-12824047Y-13204847D01*
X-12824047Y-13204847D02*
X-12805000Y-13195323D01*
X-12805000Y-13195323D02*
X-12776428Y-13195323D01*
X-12776428Y-13195323D02*
X-12757381Y-13204847D01*
X-12757381Y-13204847D02*
X-12747857Y-13223894D01*
X-12747857Y-13223894D02*
X-12747857Y-13328656D01*
X-12747857Y-13223894D02*
X-12738333Y-13204847D01*
X-12738333Y-13204847D02*
X-12719286Y-13195323D01*
X-12719286Y-13195323D02*
X-12690714Y-13195323D01*
X-12690714Y-13195323D02*
X-12671666Y-13204847D01*
X-12671666Y-13204847D02*
X-12662143Y-13223894D01*
X-12662143Y-13223894D02*
X-12662143Y-13328656D01*
X-12304047Y-13119132D02*
X-12475476Y-13376275D01*
X-12079286Y-13128656D02*
X-12060238Y-13128656D01*
X-12060238Y-13128656D02*
X-12041190Y-13138180D01*
X-12041190Y-13138180D02*
X-12031666Y-13147704D01*
X-12031666Y-13147704D02*
X-12022143Y-13166751D01*
X-12022143Y-13166751D02*
X-12012619Y-13204847D01*
X-12012619Y-13204847D02*
X-12012619Y-13252466D01*
X-12012619Y-13252466D02*
X-12022143Y-13290561D01*
X-12022143Y-13290561D02*
X-12031666Y-13309608D01*
X-12031666Y-13309608D02*
X-12041190Y-13319132D01*
X-12041190Y-13319132D02*
X-12060238Y-13328656D01*
X-12060238Y-13328656D02*
X-12079286Y-13328656D01*
X-12079286Y-13328656D02*
X-12098333Y-13319132D01*
X-12098333Y-13319132D02*
X-12107857Y-13309608D01*
X-12107857Y-13309608D02*
X-12117381Y-13290561D01*
X-12117381Y-13290561D02*
X-12126905Y-13252466D01*
X-12126905Y-13252466D02*
X-12126905Y-13204847D01*
X-12126905Y-13204847D02*
X-12117381Y-13166751D01*
X-12117381Y-13166751D02*
X-12107857Y-13147704D01*
X-12107857Y-13147704D02*
X-12098333Y-13138180D01*
X-12098333Y-13138180D02*
X-12079286Y-13128656D01*
X-11926905Y-13309608D02*
X-11917381Y-13319132D01*
X-11917381Y-13319132D02*
X-11926905Y-13328656D01*
X-11926905Y-13328656D02*
X-11936428Y-13319132D01*
X-11936428Y-13319132D02*
X-11926905Y-13309608D01*
X-11926905Y-13309608D02*
X-11926905Y-13328656D01*
X-11726905Y-13328656D02*
X-11841190Y-13328656D01*
X-11784047Y-13328656D02*
X-11784047Y-13128656D01*
X-11784047Y-13128656D02*
X-11803095Y-13157228D01*
X-11803095Y-13157228D02*
X-11822143Y-13176275D01*
X-11822143Y-13176275D02*
X-11841190Y-13185799D01*
X-11650714Y-13147704D02*
X-11641190Y-13138180D01*
X-11641190Y-13138180D02*
X-11622143Y-13128656D01*
X-11622143Y-13128656D02*
X-11574524Y-13128656D01*
X-11574524Y-13128656D02*
X-11555476Y-13138180D01*
X-11555476Y-13138180D02*
X-11545952Y-13147704D01*
X-11545952Y-13147704D02*
X-11536428Y-13166751D01*
X-11536428Y-13166751D02*
X-11536428Y-13185799D01*
X-11536428Y-13185799D02*
X-11545952Y-13214370D01*
X-11545952Y-13214370D02*
X-11660238Y-13328656D01*
X-11660238Y-13328656D02*
X-11536428Y-13328656D01*
X-11365000Y-13128656D02*
X-11403095Y-13128656D01*
X-11403095Y-13128656D02*
X-11422143Y-13138180D01*
X-11422143Y-13138180D02*
X-11431666Y-13147704D01*
X-11431666Y-13147704D02*
X-11450714Y-13176275D01*
X-11450714Y-13176275D02*
X-11460238Y-13214370D01*
X-11460238Y-13214370D02*
X-11460238Y-13290561D01*
X-11460238Y-13290561D02*
X-11450714Y-13309608D01*
X-11450714Y-13309608D02*
X-11441190Y-13319132D01*
X-11441190Y-13319132D02*
X-11422143Y-13328656D01*
X-11422143Y-13328656D02*
X-11384047Y-13328656D01*
X-11384047Y-13328656D02*
X-11365000Y-13319132D01*
X-11365000Y-13319132D02*
X-11355476Y-13309608D01*
X-11355476Y-13309608D02*
X-11345952Y-13290561D01*
X-11345952Y-13290561D02*
X-11345952Y-13242942D01*
X-11345952Y-13242942D02*
X-11355476Y-13223894D01*
X-11355476Y-13223894D02*
X-11365000Y-13214370D01*
X-11365000Y-13214370D02*
X-11384047Y-13204847D01*
X-11384047Y-13204847D02*
X-11422143Y-13204847D01*
X-11422143Y-13204847D02*
X-11441190Y-13214370D01*
X-11441190Y-13214370D02*
X-11450714Y-13223894D01*
X-11450714Y-13223894D02*
X-11460238Y-13242942D01*
X-11222143Y-13128656D02*
X-11203095Y-13128656D01*
X-11203095Y-13128656D02*
X-11184047Y-13138180D01*
X-11184047Y-13138180D02*
X-11174524Y-13147704D01*
X-11174524Y-13147704D02*
X-11165000Y-13166751D01*
X-11165000Y-13166751D02*
X-11155476Y-13204847D01*
X-11155476Y-13204847D02*
X-11155476Y-13252466D01*
X-11155476Y-13252466D02*
X-11165000Y-13290561D01*
X-11165000Y-13290561D02*
X-11174524Y-13309608D01*
X-11174524Y-13309608D02*
X-11184047Y-13319132D01*
X-11184047Y-13319132D02*
X-11203095Y-13328656D01*
X-11203095Y-13328656D02*
X-11222143Y-13328656D01*
X-11222143Y-13328656D02*
X-11241190Y-13319132D01*
X-11241190Y-13319132D02*
X-11250714Y-13309608D01*
X-11250714Y-13309608D02*
X-11260238Y-13290561D01*
X-11260238Y-13290561D02*
X-11269762Y-13252466D01*
X-11269762Y-13252466D02*
X-11269762Y-13204847D01*
X-11269762Y-13204847D02*
X-11260238Y-13166751D01*
X-11260238Y-13166751D02*
X-11250714Y-13147704D01*
X-11250714Y-13147704D02*
X-11241190Y-13138180D01*
X-11241190Y-13138180D02*
X-11222143Y-13128656D01*
X-11079286Y-13128656D02*
X-11079286Y-13166751D01*
X-11003095Y-13128656D02*
X-11003095Y-13166751D01*
X-10740238Y-13404847D02*
X-10749762Y-13395323D01*
X-10749762Y-13395323D02*
X-10768809Y-13366751D01*
X-10768809Y-13366751D02*
X-10778333Y-13347704D01*
X-10778333Y-13347704D02*
X-10787857Y-13319132D01*
X-10787857Y-13319132D02*
X-10797381Y-13271513D01*
X-10797381Y-13271513D02*
X-10797381Y-13233418D01*
X-10797381Y-13233418D02*
X-10787857Y-13185799D01*
X-10787857Y-13185799D02*
X-10778333Y-13157228D01*
X-10778333Y-13157228D02*
X-10768809Y-13138180D01*
X-10768809Y-13138180D02*
X-10749762Y-13109608D01*
X-10749762Y-13109608D02*
X-10740238Y-13100085D01*
X-10559286Y-13328656D02*
X-10673571Y-13328656D01*
X-10616428Y-13328656D02*
X-10616428Y-13128656D01*
X-10616428Y-13128656D02*
X-10635476Y-13157228D01*
X-10635476Y-13157228D02*
X-10654524Y-13176275D01*
X-10654524Y-13176275D02*
X-10673571Y-13185799D01*
X-10435476Y-13128656D02*
X-10416428Y-13128656D01*
X-10416428Y-13128656D02*
X-10397381Y-13138180D01*
X-10397381Y-13138180D02*
X-10387857Y-13147704D01*
X-10387857Y-13147704D02*
X-10378333Y-13166751D01*
X-10378333Y-13166751D02*
X-10368809Y-13204847D01*
X-10368809Y-13204847D02*
X-10368809Y-13252466D01*
X-10368809Y-13252466D02*
X-10378333Y-13290561D01*
X-10378333Y-13290561D02*
X-10387857Y-13309608D01*
X-10387857Y-13309608D02*
X-10397381Y-13319132D01*
X-10397381Y-13319132D02*
X-10416428Y-13328656D01*
X-10416428Y-13328656D02*
X-10435476Y-13328656D01*
X-10435476Y-13328656D02*
X-10454524Y-13319132D01*
X-10454524Y-13319132D02*
X-10464047Y-13309608D01*
X-10464047Y-13309608D02*
X-10473571Y-13290561D01*
X-10473571Y-13290561D02*
X-10483095Y-13252466D01*
X-10483095Y-13252466D02*
X-10483095Y-13204847D01*
X-10483095Y-13204847D02*
X-10473571Y-13166751D01*
X-10473571Y-13166751D02*
X-10464047Y-13147704D01*
X-10464047Y-13147704D02*
X-10454524Y-13138180D01*
X-10454524Y-13138180D02*
X-10435476Y-13128656D01*
X-10163095Y-13328656D02*
X-10163095Y-13128656D01*
X-10077381Y-13328656D02*
X-10077381Y-13223894D01*
X-10077381Y-13223894D02*
X-10086905Y-13204847D01*
X-10086905Y-13204847D02*
X-10105952Y-13195323D01*
X-10105952Y-13195323D02*
X-10134524Y-13195323D01*
X-10134524Y-13195323D02*
X-10153571Y-13204847D01*
X-10153571Y-13204847D02*
X-10163095Y-13214370D01*
X-9953571Y-13328656D02*
X-9972619Y-13319132D01*
X-9972619Y-13319132D02*
X-9982143Y-13309608D01*
X-9982143Y-13309608D02*
X-9991666Y-13290561D01*
X-9991666Y-13290561D02*
X-9991666Y-13233418D01*
X-9991666Y-13233418D02*
X-9982143Y-13214370D01*
X-9982143Y-13214370D02*
X-9972619Y-13204847D01*
X-9972619Y-13204847D02*
X-9953571Y-13195323D01*
X-9953571Y-13195323D02*
X-9925000Y-13195323D01*
X-9925000Y-13195323D02*
X-9905952Y-13204847D01*
X-9905952Y-13204847D02*
X-9896428Y-13214370D01*
X-9896428Y-13214370D02*
X-9886905Y-13233418D01*
X-9886905Y-13233418D02*
X-9886905Y-13290561D01*
X-9886905Y-13290561D02*
X-9896428Y-13309608D01*
X-9896428Y-13309608D02*
X-9905952Y-13319132D01*
X-9905952Y-13319132D02*
X-9925000Y-13328656D01*
X-9925000Y-13328656D02*
X-9953571Y-13328656D01*
X-9772619Y-13328656D02*
X-9791666Y-13319132D01*
X-9791666Y-13319132D02*
X-9801190Y-13300085D01*
X-9801190Y-13300085D02*
X-9801190Y-13128656D01*
X-9620238Y-13319132D02*
X-9639285Y-13328656D01*
X-9639285Y-13328656D02*
X-9677381Y-13328656D01*
X-9677381Y-13328656D02*
X-9696428Y-13319132D01*
X-9696428Y-13319132D02*
X-9705952Y-13300085D01*
X-9705952Y-13300085D02*
X-9705952Y-13223894D01*
X-9705952Y-13223894D02*
X-9696428Y-13204847D01*
X-9696428Y-13204847D02*
X-9677381Y-13195323D01*
X-9677381Y-13195323D02*
X-9639285Y-13195323D01*
X-9639285Y-13195323D02*
X-9620238Y-13204847D01*
X-9620238Y-13204847D02*
X-9610714Y-13223894D01*
X-9610714Y-13223894D02*
X-9610714Y-13242942D01*
X-9610714Y-13242942D02*
X-9705952Y-13261989D01*
X-9534524Y-13319132D02*
X-9515476Y-13328656D01*
X-9515476Y-13328656D02*
X-9477381Y-13328656D01*
X-9477381Y-13328656D02*
X-9458333Y-13319132D01*
X-9458333Y-13319132D02*
X-9448809Y-13300085D01*
X-9448809Y-13300085D02*
X-9448809Y-13290561D01*
X-9448809Y-13290561D02*
X-9458333Y-13271513D01*
X-9458333Y-13271513D02*
X-9477381Y-13261989D01*
X-9477381Y-13261989D02*
X-9505952Y-13261989D01*
X-9505952Y-13261989D02*
X-9525000Y-13252466D01*
X-9525000Y-13252466D02*
X-9534524Y-13233418D01*
X-9534524Y-13233418D02*
X-9534524Y-13223894D01*
X-9534524Y-13223894D02*
X-9525000Y-13204847D01*
X-9525000Y-13204847D02*
X-9505952Y-13195323D01*
X-9505952Y-13195323D02*
X-9477381Y-13195323D01*
X-9477381Y-13195323D02*
X-9458333Y-13204847D01*
X-9382143Y-13404847D02*
X-9372619Y-13395323D01*
X-9372619Y-13395323D02*
X-9353571Y-13366751D01*
X-9353571Y-13366751D02*
X-9344047Y-13347704D01*
X-9344047Y-13347704D02*
X-9334524Y-13319132D01*
X-9334524Y-13319132D02*
X-9325000Y-13271513D01*
X-9325000Y-13271513D02*
X-9325000Y-13233418D01*
X-9325000Y-13233418D02*
X-9334524Y-13185799D01*
X-9334524Y-13185799D02*
X-9344047Y-13157228D01*
X-9344047Y-13157228D02*
X-9353571Y-13138180D01*
X-9353571Y-13138180D02*
X-9372619Y-13109608D01*
X-9372619Y-13109608D02*
X-9382143Y-13100085D01*
X-9052619Y-13404847D02*
X-9062143Y-13395323D01*
X-9062143Y-13395323D02*
X-9081190Y-13366751D01*
X-9081190Y-13366751D02*
X-9090714Y-13347704D01*
X-9090714Y-13347704D02*
X-9100238Y-13319132D01*
X-9100238Y-13319132D02*
X-9109762Y-13271513D01*
X-9109762Y-13271513D02*
X-9109762Y-13233418D01*
X-9109762Y-13233418D02*
X-9100238Y-13185799D01*
X-9100238Y-13185799D02*
X-9090714Y-13157228D01*
X-9090714Y-13157228D02*
X-9081190Y-13138180D01*
X-9081190Y-13138180D02*
X-9062143Y-13109608D01*
X-9062143Y-13109608D02*
X-9052619Y-13100085D01*
X-8976428Y-13195323D02*
X-8976428Y-13328656D01*
X-8976428Y-13214370D02*
X-8966905Y-13204847D01*
X-8966905Y-13204847D02*
X-8947857Y-13195323D01*
X-8947857Y-13195323D02*
X-8919285Y-13195323D01*
X-8919285Y-13195323D02*
X-8900238Y-13204847D01*
X-8900238Y-13204847D02*
X-8890714Y-13223894D01*
X-8890714Y-13223894D02*
X-8890714Y-13328656D01*
X-8766905Y-13328656D02*
X-8785952Y-13319132D01*
X-8785952Y-13319132D02*
X-8795476Y-13309608D01*
X-8795476Y-13309608D02*
X-8805000Y-13290561D01*
X-8805000Y-13290561D02*
X-8805000Y-13233418D01*
X-8805000Y-13233418D02*
X-8795476Y-13214370D01*
X-8795476Y-13214370D02*
X-8785952Y-13204847D01*
X-8785952Y-13204847D02*
X-8766905Y-13195323D01*
X-8766905Y-13195323D02*
X-8738333Y-13195323D01*
X-8738333Y-13195323D02*
X-8719285Y-13204847D01*
X-8719285Y-13204847D02*
X-8709762Y-13214370D01*
X-8709762Y-13214370D02*
X-8700238Y-13233418D01*
X-8700238Y-13233418D02*
X-8700238Y-13290561D01*
X-8700238Y-13290561D02*
X-8709762Y-13309608D01*
X-8709762Y-13309608D02*
X-8719285Y-13319132D01*
X-8719285Y-13319132D02*
X-8738333Y-13328656D01*
X-8738333Y-13328656D02*
X-8766905Y-13328656D01*
X-8643095Y-13195323D02*
X-8566905Y-13195323D01*
X-8614524Y-13128656D02*
X-8614524Y-13300085D01*
X-8614524Y-13300085D02*
X-8605000Y-13319132D01*
X-8605000Y-13319132D02*
X-8585952Y-13328656D01*
X-8585952Y-13328656D02*
X-8566905Y-13328656D01*
X-8380238Y-13195323D02*
X-8380238Y-13395323D01*
X-8380238Y-13204847D02*
X-8361190Y-13195323D01*
X-8361190Y-13195323D02*
X-8323095Y-13195323D01*
X-8323095Y-13195323D02*
X-8304047Y-13204847D01*
X-8304047Y-13204847D02*
X-8294523Y-13214370D01*
X-8294523Y-13214370D02*
X-8285000Y-13233418D01*
X-8285000Y-13233418D02*
X-8285000Y-13290561D01*
X-8285000Y-13290561D02*
X-8294523Y-13309608D01*
X-8294523Y-13309608D02*
X-8304047Y-13319132D01*
X-8304047Y-13319132D02*
X-8323095Y-13328656D01*
X-8323095Y-13328656D02*
X-8361190Y-13328656D01*
X-8361190Y-13328656D02*
X-8380238Y-13319132D01*
X-8170714Y-13328656D02*
X-8189762Y-13319132D01*
X-8189762Y-13319132D02*
X-8199285Y-13300085D01*
X-8199285Y-13300085D02*
X-8199285Y-13128656D01*
X-8008809Y-13328656D02*
X-8008809Y-13223894D01*
X-8008809Y-13223894D02*
X-8018333Y-13204847D01*
X-8018333Y-13204847D02*
X-8037381Y-13195323D01*
X-8037381Y-13195323D02*
X-8075476Y-13195323D01*
X-8075476Y-13195323D02*
X-8094523Y-13204847D01*
X-8008809Y-13319132D02*
X-8027857Y-13328656D01*
X-8027857Y-13328656D02*
X-8075476Y-13328656D01*
X-8075476Y-13328656D02*
X-8094523Y-13319132D01*
X-8094523Y-13319132D02*
X-8104047Y-13300085D01*
X-8104047Y-13300085D02*
X-8104047Y-13281037D01*
X-8104047Y-13281037D02*
X-8094523Y-13261989D01*
X-8094523Y-13261989D02*
X-8075476Y-13252466D01*
X-8075476Y-13252466D02*
X-8027857Y-13252466D01*
X-8027857Y-13252466D02*
X-8008809Y-13242942D01*
X-7942142Y-13195323D02*
X-7865952Y-13195323D01*
X-7913571Y-13128656D02*
X-7913571Y-13300085D01*
X-7913571Y-13300085D02*
X-7904047Y-13319132D01*
X-7904047Y-13319132D02*
X-7885000Y-13328656D01*
X-7885000Y-13328656D02*
X-7865952Y-13328656D01*
X-7723095Y-13319132D02*
X-7742142Y-13328656D01*
X-7742142Y-13328656D02*
X-7780238Y-13328656D01*
X-7780238Y-13328656D02*
X-7799285Y-13319132D01*
X-7799285Y-13319132D02*
X-7808809Y-13300085D01*
X-7808809Y-13300085D02*
X-7808809Y-13223894D01*
X-7808809Y-13223894D02*
X-7799285Y-13204847D01*
X-7799285Y-13204847D02*
X-7780238Y-13195323D01*
X-7780238Y-13195323D02*
X-7742142Y-13195323D01*
X-7742142Y-13195323D02*
X-7723095Y-13204847D01*
X-7723095Y-13204847D02*
X-7713571Y-13223894D01*
X-7713571Y-13223894D02*
X-7713571Y-13242942D01*
X-7713571Y-13242942D02*
X-7808809Y-13261989D01*
X-7542142Y-13328656D02*
X-7542142Y-13128656D01*
X-7542142Y-13319132D02*
X-7561190Y-13328656D01*
X-7561190Y-13328656D02*
X-7599285Y-13328656D01*
X-7599285Y-13328656D02*
X-7618333Y-13319132D01*
X-7618333Y-13319132D02*
X-7627857Y-13309608D01*
X-7627857Y-13309608D02*
X-7637381Y-13290561D01*
X-7637381Y-13290561D02*
X-7637381Y-13233418D01*
X-7637381Y-13233418D02*
X-7627857Y-13214370D01*
X-7627857Y-13214370D02*
X-7618333Y-13204847D01*
X-7618333Y-13204847D02*
X-7599285Y-13195323D01*
X-7599285Y-13195323D02*
X-7561190Y-13195323D01*
X-7561190Y-13195323D02*
X-7542142Y-13204847D01*
X-7465952Y-13404847D02*
X-7456428Y-13395323D01*
X-7456428Y-13395323D02*
X-7437381Y-13366751D01*
X-7437381Y-13366751D02*
X-7427857Y-13347704D01*
X-7427857Y-13347704D02*
X-7418333Y-13319132D01*
X-7418333Y-13319132D02*
X-7408809Y-13271513D01*
X-7408809Y-13271513D02*
X-7408809Y-13233418D01*
X-7408809Y-13233418D02*
X-7418333Y-13185799D01*
X-7418333Y-13185799D02*
X-7427857Y-13157228D01*
X-7427857Y-13157228D02*
X-7437381Y-13138180D01*
X-7437381Y-13138180D02*
X-7456428Y-13109608D01*
X-7456428Y-13109608D02*
X-7465952Y-13100085D01*
X-14234289Y-13645891D02*
X-14234289Y-13504469D01*
X-14375711Y-13504469D01*
X-14375711Y-13645891D01*
X-14234289Y-13645891D01*
X-13976428Y-13448656D02*
X-13852619Y-13448656D01*
X-13852619Y-13448656D02*
X-13919286Y-13524847D01*
X-13919286Y-13524847D02*
X-13890714Y-13524847D01*
X-13890714Y-13524847D02*
X-13871667Y-13534370D01*
X-13871667Y-13534370D02*
X-13862143Y-13543894D01*
X-13862143Y-13543894D02*
X-13852619Y-13562942D01*
X-13852619Y-13562942D02*
X-13852619Y-13610561D01*
X-13852619Y-13610561D02*
X-13862143Y-13629608D01*
X-13862143Y-13629608D02*
X-13871667Y-13639132D01*
X-13871667Y-13639132D02*
X-13890714Y-13648656D01*
X-13890714Y-13648656D02*
X-13947857Y-13648656D01*
X-13947857Y-13648656D02*
X-13966905Y-13639132D01*
X-13966905Y-13639132D02*
X-13976428Y-13629608D01*
X-13766905Y-13629608D02*
X-13757381Y-13639132D01*
X-13757381Y-13639132D02*
X-13766905Y-13648656D01*
X-13766905Y-13648656D02*
X-13776428Y-13639132D01*
X-13776428Y-13639132D02*
X-13766905Y-13629608D01*
X-13766905Y-13629608D02*
X-13766905Y-13648656D01*
X-13662143Y-13648656D02*
X-13624048Y-13648656D01*
X-13624048Y-13648656D02*
X-13605000Y-13639132D01*
X-13605000Y-13639132D02*
X-13595476Y-13629608D01*
X-13595476Y-13629608D02*
X-13576428Y-13601037D01*
X-13576428Y-13601037D02*
X-13566905Y-13562942D01*
X-13566905Y-13562942D02*
X-13566905Y-13486751D01*
X-13566905Y-13486751D02*
X-13576428Y-13467704D01*
X-13576428Y-13467704D02*
X-13585952Y-13458180D01*
X-13585952Y-13458180D02*
X-13605000Y-13448656D01*
X-13605000Y-13448656D02*
X-13643095Y-13448656D01*
X-13643095Y-13448656D02*
X-13662143Y-13458180D01*
X-13662143Y-13458180D02*
X-13671667Y-13467704D01*
X-13671667Y-13467704D02*
X-13681190Y-13486751D01*
X-13681190Y-13486751D02*
X-13681190Y-13534370D01*
X-13681190Y-13534370D02*
X-13671667Y-13553418D01*
X-13671667Y-13553418D02*
X-13662143Y-13562942D01*
X-13662143Y-13562942D02*
X-13643095Y-13572466D01*
X-13643095Y-13572466D02*
X-13605000Y-13572466D01*
X-13605000Y-13572466D02*
X-13585952Y-13562942D01*
X-13585952Y-13562942D02*
X-13576428Y-13553418D01*
X-13576428Y-13553418D02*
X-13566905Y-13534370D01*
X-13452619Y-13534370D02*
X-13471667Y-13524847D01*
X-13471667Y-13524847D02*
X-13481190Y-13515323D01*
X-13481190Y-13515323D02*
X-13490714Y-13496275D01*
X-13490714Y-13496275D02*
X-13490714Y-13486751D01*
X-13490714Y-13486751D02*
X-13481190Y-13467704D01*
X-13481190Y-13467704D02*
X-13471667Y-13458180D01*
X-13471667Y-13458180D02*
X-13452619Y-13448656D01*
X-13452619Y-13448656D02*
X-13414524Y-13448656D01*
X-13414524Y-13448656D02*
X-13395476Y-13458180D01*
X-13395476Y-13458180D02*
X-13385952Y-13467704D01*
X-13385952Y-13467704D02*
X-13376428Y-13486751D01*
X-13376428Y-13486751D02*
X-13376428Y-13496275D01*
X-13376428Y-13496275D02*
X-13385952Y-13515323D01*
X-13385952Y-13515323D02*
X-13395476Y-13524847D01*
X-13395476Y-13524847D02*
X-13414524Y-13534370D01*
X-13414524Y-13534370D02*
X-13452619Y-13534370D01*
X-13452619Y-13534370D02*
X-13471667Y-13543894D01*
X-13471667Y-13543894D02*
X-13481190Y-13553418D01*
X-13481190Y-13553418D02*
X-13490714Y-13572466D01*
X-13490714Y-13572466D02*
X-13490714Y-13610561D01*
X-13490714Y-13610561D02*
X-13481190Y-13629608D01*
X-13481190Y-13629608D02*
X-13471667Y-13639132D01*
X-13471667Y-13639132D02*
X-13452619Y-13648656D01*
X-13452619Y-13648656D02*
X-13414524Y-13648656D01*
X-13414524Y-13648656D02*
X-13395476Y-13639132D01*
X-13395476Y-13639132D02*
X-13385952Y-13629608D01*
X-13385952Y-13629608D02*
X-13376428Y-13610561D01*
X-13376428Y-13610561D02*
X-13376428Y-13572466D01*
X-13376428Y-13572466D02*
X-13385952Y-13553418D01*
X-13385952Y-13553418D02*
X-13395476Y-13543894D01*
X-13395476Y-13543894D02*
X-13414524Y-13534370D01*
X-13262143Y-13534370D02*
X-13281190Y-13524847D01*
X-13281190Y-13524847D02*
X-13290714Y-13515323D01*
X-13290714Y-13515323D02*
X-13300238Y-13496275D01*
X-13300238Y-13496275D02*
X-13300238Y-13486751D01*
X-13300238Y-13486751D02*
X-13290714Y-13467704D01*
X-13290714Y-13467704D02*
X-13281190Y-13458180D01*
X-13281190Y-13458180D02*
X-13262143Y-13448656D01*
X-13262143Y-13448656D02*
X-13224047Y-13448656D01*
X-13224047Y-13448656D02*
X-13205000Y-13458180D01*
X-13205000Y-13458180D02*
X-13195476Y-13467704D01*
X-13195476Y-13467704D02*
X-13185952Y-13486751D01*
X-13185952Y-13486751D02*
X-13185952Y-13496275D01*
X-13185952Y-13496275D02*
X-13195476Y-13515323D01*
X-13195476Y-13515323D02*
X-13205000Y-13524847D01*
X-13205000Y-13524847D02*
X-13224047Y-13534370D01*
X-13224047Y-13534370D02*
X-13262143Y-13534370D01*
X-13262143Y-13534370D02*
X-13281190Y-13543894D01*
X-13281190Y-13543894D02*
X-13290714Y-13553418D01*
X-13290714Y-13553418D02*
X-13300238Y-13572466D01*
X-13300238Y-13572466D02*
X-13300238Y-13610561D01*
X-13300238Y-13610561D02*
X-13290714Y-13629608D01*
X-13290714Y-13629608D02*
X-13281190Y-13639132D01*
X-13281190Y-13639132D02*
X-13262143Y-13648656D01*
X-13262143Y-13648656D02*
X-13224047Y-13648656D01*
X-13224047Y-13648656D02*
X-13205000Y-13639132D01*
X-13205000Y-13639132D02*
X-13195476Y-13629608D01*
X-13195476Y-13629608D02*
X-13185952Y-13610561D01*
X-13185952Y-13610561D02*
X-13185952Y-13572466D01*
X-13185952Y-13572466D02*
X-13195476Y-13553418D01*
X-13195476Y-13553418D02*
X-13205000Y-13543894D01*
X-13205000Y-13543894D02*
X-13224047Y-13534370D01*
X-13100238Y-13648656D02*
X-13100238Y-13515323D01*
X-13100238Y-13534370D02*
X-13090714Y-13524847D01*
X-13090714Y-13524847D02*
X-13071667Y-13515323D01*
X-13071667Y-13515323D02*
X-13043095Y-13515323D01*
X-13043095Y-13515323D02*
X-13024047Y-13524847D01*
X-13024047Y-13524847D02*
X-13014524Y-13543894D01*
X-13014524Y-13543894D02*
X-13014524Y-13648656D01*
X-13014524Y-13543894D02*
X-13005000Y-13524847D01*
X-13005000Y-13524847D02*
X-12985952Y-13515323D01*
X-12985952Y-13515323D02*
X-12957381Y-13515323D01*
X-12957381Y-13515323D02*
X-12938333Y-13524847D01*
X-12938333Y-13524847D02*
X-12928809Y-13543894D01*
X-12928809Y-13543894D02*
X-12928809Y-13648656D01*
X-12833571Y-13648656D02*
X-12833571Y-13515323D01*
X-12833571Y-13534370D02*
X-12824047Y-13524847D01*
X-12824047Y-13524847D02*
X-12805000Y-13515323D01*
X-12805000Y-13515323D02*
X-12776428Y-13515323D01*
X-12776428Y-13515323D02*
X-12757381Y-13524847D01*
X-12757381Y-13524847D02*
X-12747857Y-13543894D01*
X-12747857Y-13543894D02*
X-12747857Y-13648656D01*
X-12747857Y-13543894D02*
X-12738333Y-13524847D01*
X-12738333Y-13524847D02*
X-12719286Y-13515323D01*
X-12719286Y-13515323D02*
X-12690714Y-13515323D01*
X-12690714Y-13515323D02*
X-12671666Y-13524847D01*
X-12671666Y-13524847D02*
X-12662143Y-13543894D01*
X-12662143Y-13543894D02*
X-12662143Y-13648656D01*
X-12304047Y-13439132D02*
X-12475476Y-13696275D01*
X-12079286Y-13448656D02*
X-12060238Y-13448656D01*
X-12060238Y-13448656D02*
X-12041190Y-13458180D01*
X-12041190Y-13458180D02*
X-12031666Y-13467704D01*
X-12031666Y-13467704D02*
X-12022143Y-13486751D01*
X-12022143Y-13486751D02*
X-12012619Y-13524847D01*
X-12012619Y-13524847D02*
X-12012619Y-13572466D01*
X-12012619Y-13572466D02*
X-12022143Y-13610561D01*
X-12022143Y-13610561D02*
X-12031666Y-13629608D01*
X-12031666Y-13629608D02*
X-12041190Y-13639132D01*
X-12041190Y-13639132D02*
X-12060238Y-13648656D01*
X-12060238Y-13648656D02*
X-12079286Y-13648656D01*
X-12079286Y-13648656D02*
X-12098333Y-13639132D01*
X-12098333Y-13639132D02*
X-12107857Y-13629608D01*
X-12107857Y-13629608D02*
X-12117381Y-13610561D01*
X-12117381Y-13610561D02*
X-12126905Y-13572466D01*
X-12126905Y-13572466D02*
X-12126905Y-13524847D01*
X-12126905Y-13524847D02*
X-12117381Y-13486751D01*
X-12117381Y-13486751D02*
X-12107857Y-13467704D01*
X-12107857Y-13467704D02*
X-12098333Y-13458180D01*
X-12098333Y-13458180D02*
X-12079286Y-13448656D01*
X-11926905Y-13629608D02*
X-11917381Y-13639132D01*
X-11917381Y-13639132D02*
X-11926905Y-13648656D01*
X-11926905Y-13648656D02*
X-11936428Y-13639132D01*
X-11936428Y-13639132D02*
X-11926905Y-13629608D01*
X-11926905Y-13629608D02*
X-11926905Y-13648656D01*
X-11726905Y-13648656D02*
X-11841190Y-13648656D01*
X-11784047Y-13648656D02*
X-11784047Y-13448656D01*
X-11784047Y-13448656D02*
X-11803095Y-13477228D01*
X-11803095Y-13477228D02*
X-11822143Y-13496275D01*
X-11822143Y-13496275D02*
X-11841190Y-13505799D01*
X-11545952Y-13448656D02*
X-11641190Y-13448656D01*
X-11641190Y-13448656D02*
X-11650714Y-13543894D01*
X-11650714Y-13543894D02*
X-11641190Y-13534370D01*
X-11641190Y-13534370D02*
X-11622143Y-13524847D01*
X-11622143Y-13524847D02*
X-11574524Y-13524847D01*
X-11574524Y-13524847D02*
X-11555476Y-13534370D01*
X-11555476Y-13534370D02*
X-11545952Y-13543894D01*
X-11545952Y-13543894D02*
X-11536428Y-13562942D01*
X-11536428Y-13562942D02*
X-11536428Y-13610561D01*
X-11536428Y-13610561D02*
X-11545952Y-13629608D01*
X-11545952Y-13629608D02*
X-11555476Y-13639132D01*
X-11555476Y-13639132D02*
X-11574524Y-13648656D01*
X-11574524Y-13648656D02*
X-11622143Y-13648656D01*
X-11622143Y-13648656D02*
X-11641190Y-13639132D01*
X-11641190Y-13639132D02*
X-11650714Y-13629608D01*
X-11469762Y-13448656D02*
X-11336428Y-13448656D01*
X-11336428Y-13448656D02*
X-11422143Y-13648656D01*
X-11222143Y-13448656D02*
X-11203095Y-13448656D01*
X-11203095Y-13448656D02*
X-11184047Y-13458180D01*
X-11184047Y-13458180D02*
X-11174524Y-13467704D01*
X-11174524Y-13467704D02*
X-11165000Y-13486751D01*
X-11165000Y-13486751D02*
X-11155476Y-13524847D01*
X-11155476Y-13524847D02*
X-11155476Y-13572466D01*
X-11155476Y-13572466D02*
X-11165000Y-13610561D01*
X-11165000Y-13610561D02*
X-11174524Y-13629608D01*
X-11174524Y-13629608D02*
X-11184047Y-13639132D01*
X-11184047Y-13639132D02*
X-11203095Y-13648656D01*
X-11203095Y-13648656D02*
X-11222143Y-13648656D01*
X-11222143Y-13648656D02*
X-11241190Y-13639132D01*
X-11241190Y-13639132D02*
X-11250714Y-13629608D01*
X-11250714Y-13629608D02*
X-11260238Y-13610561D01*
X-11260238Y-13610561D02*
X-11269762Y-13572466D01*
X-11269762Y-13572466D02*
X-11269762Y-13524847D01*
X-11269762Y-13524847D02*
X-11260238Y-13486751D01*
X-11260238Y-13486751D02*
X-11250714Y-13467704D01*
X-11250714Y-13467704D02*
X-11241190Y-13458180D01*
X-11241190Y-13458180D02*
X-11222143Y-13448656D01*
X-11079286Y-13448656D02*
X-11079286Y-13486751D01*
X-11003095Y-13448656D02*
X-11003095Y-13486751D01*
X-10740238Y-13724847D02*
X-10749762Y-13715323D01*
X-10749762Y-13715323D02*
X-10768809Y-13686751D01*
X-10768809Y-13686751D02*
X-10778333Y-13667704D01*
X-10778333Y-13667704D02*
X-10787857Y-13639132D01*
X-10787857Y-13639132D02*
X-10797381Y-13591513D01*
X-10797381Y-13591513D02*
X-10797381Y-13553418D01*
X-10797381Y-13553418D02*
X-10787857Y-13505799D01*
X-10787857Y-13505799D02*
X-10778333Y-13477228D01*
X-10778333Y-13477228D02*
X-10768809Y-13458180D01*
X-10768809Y-13458180D02*
X-10749762Y-13429608D01*
X-10749762Y-13429608D02*
X-10740238Y-13420085D01*
X-10683095Y-13448656D02*
X-10559286Y-13448656D01*
X-10559286Y-13448656D02*
X-10625952Y-13524847D01*
X-10625952Y-13524847D02*
X-10597381Y-13524847D01*
X-10597381Y-13524847D02*
X-10578333Y-13534370D01*
X-10578333Y-13534370D02*
X-10568809Y-13543894D01*
X-10568809Y-13543894D02*
X-10559286Y-13562942D01*
X-10559286Y-13562942D02*
X-10559286Y-13610561D01*
X-10559286Y-13610561D02*
X-10568809Y-13629608D01*
X-10568809Y-13629608D02*
X-10578333Y-13639132D01*
X-10578333Y-13639132D02*
X-10597381Y-13648656D01*
X-10597381Y-13648656D02*
X-10654524Y-13648656D01*
X-10654524Y-13648656D02*
X-10673571Y-13639132D01*
X-10673571Y-13639132D02*
X-10683095Y-13629608D01*
X-10387857Y-13448656D02*
X-10425952Y-13448656D01*
X-10425952Y-13448656D02*
X-10445000Y-13458180D01*
X-10445000Y-13458180D02*
X-10454524Y-13467704D01*
X-10454524Y-13467704D02*
X-10473571Y-13496275D01*
X-10473571Y-13496275D02*
X-10483095Y-13534370D01*
X-10483095Y-13534370D02*
X-10483095Y-13610561D01*
X-10483095Y-13610561D02*
X-10473571Y-13629608D01*
X-10473571Y-13629608D02*
X-10464047Y-13639132D01*
X-10464047Y-13639132D02*
X-10445000Y-13648656D01*
X-10445000Y-13648656D02*
X-10406905Y-13648656D01*
X-10406905Y-13648656D02*
X-10387857Y-13639132D01*
X-10387857Y-13639132D02*
X-10378333Y-13629608D01*
X-10378333Y-13629608D02*
X-10368809Y-13610561D01*
X-10368809Y-13610561D02*
X-10368809Y-13562942D01*
X-10368809Y-13562942D02*
X-10378333Y-13543894D01*
X-10378333Y-13543894D02*
X-10387857Y-13534370D01*
X-10387857Y-13534370D02*
X-10406905Y-13524847D01*
X-10406905Y-13524847D02*
X-10445000Y-13524847D01*
X-10445000Y-13524847D02*
X-10464047Y-13534370D01*
X-10464047Y-13534370D02*
X-10473571Y-13543894D01*
X-10473571Y-13543894D02*
X-10483095Y-13562942D01*
X-10163095Y-13648656D02*
X-10163095Y-13448656D01*
X-10077381Y-13648656D02*
X-10077381Y-13543894D01*
X-10077381Y-13543894D02*
X-10086905Y-13524847D01*
X-10086905Y-13524847D02*
X-10105952Y-13515323D01*
X-10105952Y-13515323D02*
X-10134524Y-13515323D01*
X-10134524Y-13515323D02*
X-10153571Y-13524847D01*
X-10153571Y-13524847D02*
X-10163095Y-13534370D01*
X-9953571Y-13648656D02*
X-9972619Y-13639132D01*
X-9972619Y-13639132D02*
X-9982143Y-13629608D01*
X-9982143Y-13629608D02*
X-9991666Y-13610561D01*
X-9991666Y-13610561D02*
X-9991666Y-13553418D01*
X-9991666Y-13553418D02*
X-9982143Y-13534370D01*
X-9982143Y-13534370D02*
X-9972619Y-13524847D01*
X-9972619Y-13524847D02*
X-9953571Y-13515323D01*
X-9953571Y-13515323D02*
X-9925000Y-13515323D01*
X-9925000Y-13515323D02*
X-9905952Y-13524847D01*
X-9905952Y-13524847D02*
X-9896428Y-13534370D01*
X-9896428Y-13534370D02*
X-9886905Y-13553418D01*
X-9886905Y-13553418D02*
X-9886905Y-13610561D01*
X-9886905Y-13610561D02*
X-9896428Y-13629608D01*
X-9896428Y-13629608D02*
X-9905952Y-13639132D01*
X-9905952Y-13639132D02*
X-9925000Y-13648656D01*
X-9925000Y-13648656D02*
X-9953571Y-13648656D01*
X-9772619Y-13648656D02*
X-9791666Y-13639132D01*
X-9791666Y-13639132D02*
X-9801190Y-13620085D01*
X-9801190Y-13620085D02*
X-9801190Y-13448656D01*
X-9620238Y-13639132D02*
X-9639285Y-13648656D01*
X-9639285Y-13648656D02*
X-9677381Y-13648656D01*
X-9677381Y-13648656D02*
X-9696428Y-13639132D01*
X-9696428Y-13639132D02*
X-9705952Y-13620085D01*
X-9705952Y-13620085D02*
X-9705952Y-13543894D01*
X-9705952Y-13543894D02*
X-9696428Y-13524847D01*
X-9696428Y-13524847D02*
X-9677381Y-13515323D01*
X-9677381Y-13515323D02*
X-9639285Y-13515323D01*
X-9639285Y-13515323D02*
X-9620238Y-13524847D01*
X-9620238Y-13524847D02*
X-9610714Y-13543894D01*
X-9610714Y-13543894D02*
X-9610714Y-13562942D01*
X-9610714Y-13562942D02*
X-9705952Y-13581989D01*
X-9534524Y-13639132D02*
X-9515476Y-13648656D01*
X-9515476Y-13648656D02*
X-9477381Y-13648656D01*
X-9477381Y-13648656D02*
X-9458333Y-13639132D01*
X-9458333Y-13639132D02*
X-9448809Y-13620085D01*
X-9448809Y-13620085D02*
X-9448809Y-13610561D01*
X-9448809Y-13610561D02*
X-9458333Y-13591513D01*
X-9458333Y-13591513D02*
X-9477381Y-13581989D01*
X-9477381Y-13581989D02*
X-9505952Y-13581989D01*
X-9505952Y-13581989D02*
X-9525000Y-13572466D01*
X-9525000Y-13572466D02*
X-9534524Y-13553418D01*
X-9534524Y-13553418D02*
X-9534524Y-13543894D01*
X-9534524Y-13543894D02*
X-9525000Y-13524847D01*
X-9525000Y-13524847D02*
X-9505952Y-13515323D01*
X-9505952Y-13515323D02*
X-9477381Y-13515323D01*
X-9477381Y-13515323D02*
X-9458333Y-13524847D01*
X-9382143Y-13724847D02*
X-9372619Y-13715323D01*
X-9372619Y-13715323D02*
X-9353571Y-13686751D01*
X-9353571Y-13686751D02*
X-9344047Y-13667704D01*
X-9344047Y-13667704D02*
X-9334524Y-13639132D01*
X-9334524Y-13639132D02*
X-9325000Y-13591513D01*
X-9325000Y-13591513D02*
X-9325000Y-13553418D01*
X-9325000Y-13553418D02*
X-9334524Y-13505799D01*
X-9334524Y-13505799D02*
X-9344047Y-13477228D01*
X-9344047Y-13477228D02*
X-9353571Y-13458180D01*
X-9353571Y-13458180D02*
X-9372619Y-13429608D01*
X-9372619Y-13429608D02*
X-9382143Y-13420085D01*
X-9052619Y-13724847D02*
X-9062143Y-13715323D01*
X-9062143Y-13715323D02*
X-9081190Y-13686751D01*
X-9081190Y-13686751D02*
X-9090714Y-13667704D01*
X-9090714Y-13667704D02*
X-9100238Y-13639132D01*
X-9100238Y-13639132D02*
X-9109762Y-13591513D01*
X-9109762Y-13591513D02*
X-9109762Y-13553418D01*
X-9109762Y-13553418D02*
X-9100238Y-13505799D01*
X-9100238Y-13505799D02*
X-9090714Y-13477228D01*
X-9090714Y-13477228D02*
X-9081190Y-13458180D01*
X-9081190Y-13458180D02*
X-9062143Y-13429608D01*
X-9062143Y-13429608D02*
X-9052619Y-13420085D01*
X-8976428Y-13515323D02*
X-8976428Y-13648656D01*
X-8976428Y-13534370D02*
X-8966905Y-13524847D01*
X-8966905Y-13524847D02*
X-8947857Y-13515323D01*
X-8947857Y-13515323D02*
X-8919285Y-13515323D01*
X-8919285Y-13515323D02*
X-8900238Y-13524847D01*
X-8900238Y-13524847D02*
X-8890714Y-13543894D01*
X-8890714Y-13543894D02*
X-8890714Y-13648656D01*
X-8766905Y-13648656D02*
X-8785952Y-13639132D01*
X-8785952Y-13639132D02*
X-8795476Y-13629608D01*
X-8795476Y-13629608D02*
X-8805000Y-13610561D01*
X-8805000Y-13610561D02*
X-8805000Y-13553418D01*
X-8805000Y-13553418D02*
X-8795476Y-13534370D01*
X-8795476Y-13534370D02*
X-8785952Y-13524847D01*
X-8785952Y-13524847D02*
X-8766905Y-13515323D01*
X-8766905Y-13515323D02*
X-8738333Y-13515323D01*
X-8738333Y-13515323D02*
X-8719285Y-13524847D01*
X-8719285Y-13524847D02*
X-8709762Y-13534370D01*
X-8709762Y-13534370D02*
X-8700238Y-13553418D01*
X-8700238Y-13553418D02*
X-8700238Y-13610561D01*
X-8700238Y-13610561D02*
X-8709762Y-13629608D01*
X-8709762Y-13629608D02*
X-8719285Y-13639132D01*
X-8719285Y-13639132D02*
X-8738333Y-13648656D01*
X-8738333Y-13648656D02*
X-8766905Y-13648656D01*
X-8643095Y-13515323D02*
X-8566905Y-13515323D01*
X-8614524Y-13448656D02*
X-8614524Y-13620085D01*
X-8614524Y-13620085D02*
X-8605000Y-13639132D01*
X-8605000Y-13639132D02*
X-8585952Y-13648656D01*
X-8585952Y-13648656D02*
X-8566905Y-13648656D01*
X-8380238Y-13515323D02*
X-8380238Y-13715323D01*
X-8380238Y-13524847D02*
X-8361190Y-13515323D01*
X-8361190Y-13515323D02*
X-8323095Y-13515323D01*
X-8323095Y-13515323D02*
X-8304047Y-13524847D01*
X-8304047Y-13524847D02*
X-8294523Y-13534370D01*
X-8294523Y-13534370D02*
X-8285000Y-13553418D01*
X-8285000Y-13553418D02*
X-8285000Y-13610561D01*
X-8285000Y-13610561D02*
X-8294523Y-13629608D01*
X-8294523Y-13629608D02*
X-8304047Y-13639132D01*
X-8304047Y-13639132D02*
X-8323095Y-13648656D01*
X-8323095Y-13648656D02*
X-8361190Y-13648656D01*
X-8361190Y-13648656D02*
X-8380238Y-13639132D01*
X-8170714Y-13648656D02*
X-8189762Y-13639132D01*
X-8189762Y-13639132D02*
X-8199285Y-13620085D01*
X-8199285Y-13620085D02*
X-8199285Y-13448656D01*
X-8008809Y-13648656D02*
X-8008809Y-13543894D01*
X-8008809Y-13543894D02*
X-8018333Y-13524847D01*
X-8018333Y-13524847D02*
X-8037381Y-13515323D01*
X-8037381Y-13515323D02*
X-8075476Y-13515323D01*
X-8075476Y-13515323D02*
X-8094523Y-13524847D01*
X-8008809Y-13639132D02*
X-8027857Y-13648656D01*
X-8027857Y-13648656D02*
X-8075476Y-13648656D01*
X-8075476Y-13648656D02*
X-8094523Y-13639132D01*
X-8094523Y-13639132D02*
X-8104047Y-13620085D01*
X-8104047Y-13620085D02*
X-8104047Y-13601037D01*
X-8104047Y-13601037D02*
X-8094523Y-13581989D01*
X-8094523Y-13581989D02*
X-8075476Y-13572466D01*
X-8075476Y-13572466D02*
X-8027857Y-13572466D01*
X-8027857Y-13572466D02*
X-8008809Y-13562942D01*
X-7942142Y-13515323D02*
X-7865952Y-13515323D01*
X-7913571Y-13448656D02*
X-7913571Y-13620085D01*
X-7913571Y-13620085D02*
X-7904047Y-13639132D01*
X-7904047Y-13639132D02*
X-7885000Y-13648656D01*
X-7885000Y-13648656D02*
X-7865952Y-13648656D01*
X-7723095Y-13639132D02*
X-7742142Y-13648656D01*
X-7742142Y-13648656D02*
X-7780238Y-13648656D01*
X-7780238Y-13648656D02*
X-7799285Y-13639132D01*
X-7799285Y-13639132D02*
X-7808809Y-13620085D01*
X-7808809Y-13620085D02*
X-7808809Y-13543894D01*
X-7808809Y-13543894D02*
X-7799285Y-13524847D01*
X-7799285Y-13524847D02*
X-7780238Y-13515323D01*
X-7780238Y-13515323D02*
X-7742142Y-13515323D01*
X-7742142Y-13515323D02*
X-7723095Y-13524847D01*
X-7723095Y-13524847D02*
X-7713571Y-13543894D01*
X-7713571Y-13543894D02*
X-7713571Y-13562942D01*
X-7713571Y-13562942D02*
X-7808809Y-13581989D01*
X-7542142Y-13648656D02*
X-7542142Y-13448656D01*
X-7542142Y-13639132D02*
X-7561190Y-13648656D01*
X-7561190Y-13648656D02*
X-7599285Y-13648656D01*
X-7599285Y-13648656D02*
X-7618333Y-13639132D01*
X-7618333Y-13639132D02*
X-7627857Y-13629608D01*
X-7627857Y-13629608D02*
X-7637381Y-13610561D01*
X-7637381Y-13610561D02*
X-7637381Y-13553418D01*
X-7637381Y-13553418D02*
X-7627857Y-13534370D01*
X-7627857Y-13534370D02*
X-7618333Y-13524847D01*
X-7618333Y-13524847D02*
X-7599285Y-13515323D01*
X-7599285Y-13515323D02*
X-7561190Y-13515323D01*
X-7561190Y-13515323D02*
X-7542142Y-13524847D01*
X-7465952Y-13724847D02*
X-7456428Y-13715323D01*
X-7456428Y-13715323D02*
X-7437381Y-13686751D01*
X-7437381Y-13686751D02*
X-7427857Y-13667704D01*
X-7427857Y-13667704D02*
X-7418333Y-13639132D01*
X-7418333Y-13639132D02*
X-7408809Y-13591513D01*
X-7408809Y-13591513D02*
X-7408809Y-13553418D01*
X-7408809Y-13553418D02*
X-7418333Y-13505799D01*
X-7418333Y-13505799D02*
X-7427857Y-13477228D01*
X-7427857Y-13477228D02*
X-7437381Y-13458180D01*
X-7437381Y-13458180D02*
X-7456428Y-13429608D01*
X-7456428Y-13429608D02*
X-7465952Y-13420085D01*
M02*
