%TF.GenerationSoftware,KiCad,Pcbnew,(7.0.0)*%
%TF.CreationDate,2023-03-04T17:22:36-05:00*%
%TF.ProjectId,pteropus,70746572-6f70-4757-932e-6b696361645f,rev?*%
%TF.SameCoordinates,Original*%
%TF.FileFunction,Soldermask,Top*%
%TF.FilePolarity,Negative*%
%FSLAX46Y46*%
G04 Gerber Fmt 4.6, Leading zero omitted, Abs format (unit mm)*
G04 Created by KiCad (PCBNEW (7.0.0)) date 2023-03-04 17:22:36*
%MOMM*%
%LPD*%
G01*
G04 APERTURE LIST*
%ADD10C,1.701800*%
%ADD11C,3.000000*%
%ADD12C,3.987800*%
%ADD13C,3.200000*%
%ADD14C,0.700000*%
%ADD15O,0.900000X1.700000*%
%ADD16O,0.900000X2.400000*%
G04 APERTURE END LIST*
D10*
%TO.C,SW19*%
X58445361Y-31167462D03*
D11*
X58770040Y-28346277D03*
D12*
X63219000Y-29430000D03*
D11*
X63868357Y-23787630D03*
D10*
X67992639Y-27692538D03*
%TD*%
%TO.C,SW27*%
X-57804639Y-55398538D03*
D11*
X-55742498Y-53446084D03*
D12*
X-53031000Y-57136000D03*
D11*
X-48906718Y-53231093D03*
D10*
X-48257361Y-58873462D03*
%TD*%
D13*
%TO.C,H3*%
X105000000Y11000000D03*
%TD*%
D10*
%TO.C,SW5*%
X-76984639Y3301462D03*
D11*
X-74922498Y5253916D03*
D12*
X-72211000Y1564000D03*
D11*
X-68086718Y5468907D03*
D10*
X-67437361Y-173462D03*
%TD*%
%TO.C,SW18*%
X41741361Y-40971462D03*
D11*
X42066040Y-38150277D03*
D12*
X46515000Y-39234000D03*
D11*
X47164357Y-33591630D03*
D10*
X51288639Y-37496538D03*
%TD*%
%TO.C,SW12*%
X108369361Y-1237462D03*
D11*
X108694040Y1583723D03*
D12*
X113143000Y500000D03*
D11*
X113792357Y6142370D03*
D10*
X117916639Y2237462D03*
%TD*%
%TO.C,SW10*%
X67437361Y-173462D03*
D11*
X67762040Y2647723D03*
D12*
X72211000Y1564000D03*
D11*
X72860357Y7206370D03*
D10*
X76984639Y3301462D03*
%TD*%
D13*
%TO.C,H8*%
X-100000000Y-45000000D03*
%TD*%
D10*
%TO.C,SW11*%
X87048361Y1643538D03*
D11*
X87373040Y4464723D03*
D12*
X91822000Y3381000D03*
D11*
X92471357Y9023370D03*
D10*
X96595639Y5118462D03*
%TD*%
%TO.C,SW16*%
X-67993639Y-27692538D03*
D11*
X-65931498Y-25740084D03*
D12*
X-63220000Y-29430000D03*
D11*
X-59095718Y-25525093D03*
D10*
X-58446361Y-31167462D03*
%TD*%
%TO.C,SW4*%
X-96596639Y5118462D03*
D11*
X-94534498Y7070916D03*
D12*
X-91823000Y3381000D03*
D11*
X-87698718Y7285907D03*
D10*
X-87049361Y1643538D03*
%TD*%
%TO.C,SW14*%
X-103111639Y-12782538D03*
D11*
X-101049498Y-10830084D03*
D12*
X-98338000Y-14520000D03*
D11*
X-94213718Y-10615093D03*
D10*
X-93564361Y-16257462D03*
%TD*%
%TO.C,SW25*%
X-90015639Y-32500538D03*
D11*
X-87953498Y-30548084D03*
D12*
X-85242000Y-34238000D03*
D11*
X-81117718Y-30333093D03*
D10*
X-80468361Y-35975462D03*
%TD*%
%TO.C,SW8*%
X35226361Y-23070462D03*
D11*
X35551040Y-20249277D03*
D12*
X40000000Y-21333000D03*
D11*
X40649357Y-15690630D03*
D10*
X44773639Y-19595538D03*
%TD*%
%TO.C,SW15*%
X-83468639Y-14599538D03*
D11*
X-81406498Y-12647084D03*
D12*
X-78695000Y-16337000D03*
D11*
X-74570718Y-12432093D03*
D10*
X-73921361Y-18074462D03*
%TD*%
%TO.C,SW28*%
X48257361Y-58873462D03*
D11*
X48582040Y-56052277D03*
D12*
X53031000Y-57136000D03*
D11*
X53680357Y-51493630D03*
D10*
X57804639Y-55398538D03*
%TD*%
%TO.C,SW3*%
X-117917639Y2237462D03*
D11*
X-115855498Y4189916D03*
D12*
X-113144000Y500000D03*
D11*
X-109019718Y4404907D03*
D10*
X-108370361Y-1237462D03*
%TD*%
D13*
%TO.C,H6*%
X-40000000Y-65000000D03*
%TD*%
D10*
%TO.C,SW20*%
X73952361Y-18074462D03*
D11*
X74277040Y-15253277D03*
D12*
X78726000Y-16337000D03*
D11*
X79375357Y-10694630D03*
D10*
X83499639Y-14599538D03*
%TD*%
D13*
%TO.C,H1*%
X-105000000Y11000000D03*
%TD*%
D10*
%TO.C,SW34*%
X-59860126Y-76474388D03*
D11*
X-57080788Y-75891478D03*
D12*
X-56704000Y-80455000D03*
D11*
X-51145325Y-79289180D03*
D10*
X-53547874Y-84435612D03*
%TD*%
%TO.C,SW38*%
X71801361Y-67862462D03*
D11*
X72126040Y-65041277D03*
D12*
X76575000Y-66125000D03*
D11*
X77224357Y-60482630D03*
D10*
X81348639Y-64387538D03*
%TD*%
%TO.C,SW26*%
X-74508639Y-45593538D03*
D11*
X-72446498Y-43641084D03*
D12*
X-69735000Y-47331000D03*
D11*
X-65610718Y-43426093D03*
D10*
X-64961361Y-49068462D03*
%TD*%
%TO.C,SW24*%
X-109627639Y-30683538D03*
D11*
X-107565498Y-28731084D03*
D12*
X-104854000Y-32421000D03*
D11*
X-100729718Y-28516093D03*
D10*
X-100080361Y-34158462D03*
%TD*%
D13*
%TO.C,H7*%
X-40000000Y-5000000D03*
%TD*%
D10*
%TO.C,SW22*%
X114885361Y-19138462D03*
D11*
X115210040Y-16317277D03*
D12*
X119659000Y-17401000D03*
D11*
X120308357Y-11758630D03*
D10*
X124432639Y-15663538D03*
%TD*%
%TO.C,SW33*%
X-81349639Y-64387538D03*
D11*
X-79287498Y-62435084D03*
D12*
X-76576000Y-66125000D03*
D11*
X-72451718Y-62220093D03*
D10*
X-71802361Y-67862462D03*
%TD*%
%TO.C,SW32*%
X121400361Y-37039462D03*
D11*
X121725040Y-34218277D03*
D12*
X126174000Y-35302000D03*
D11*
X126823357Y-29659630D03*
D10*
X130947639Y-33564538D03*
%TD*%
%TO.C,SW37*%
X53546874Y-84435612D03*
D11*
X52345600Y-81862396D03*
D12*
X56703000Y-80455000D03*
D11*
X54300451Y-75308568D03*
D10*
X59859126Y-76474388D03*
%TD*%
%TO.C,SW9*%
X51930361Y-13266462D03*
D11*
X52255040Y-10445277D03*
D12*
X56704000Y-11529000D03*
D11*
X57353357Y-5886630D03*
D10*
X61477639Y-9791538D03*
%TD*%
%TO.C,SW6*%
X-61477639Y-9791538D03*
D11*
X-59415498Y-7839084D03*
D12*
X-56704000Y-11529000D03*
D11*
X-52579718Y-7624093D03*
D10*
X-51930361Y-13266462D03*
%TD*%
%TO.C,SW7*%
X-44773639Y-19595538D03*
D11*
X-42711498Y-17643084D03*
D12*
X-40000000Y-21333000D03*
D11*
X-35875718Y-17428093D03*
D10*
X-35226361Y-23070462D03*
%TD*%
D13*
%TO.C,H5*%
X100000000Y-45000000D03*
%TD*%
%TO.C,H4*%
X40000000Y-65000000D03*
%TD*%
D10*
%TO.C,SW31*%
X100079361Y-34158462D03*
D11*
X100404040Y-31337277D03*
D12*
X104853000Y-32421000D03*
D11*
X105502357Y-26778630D03*
D10*
X109626639Y-30683538D03*
%TD*%
%TO.C,SW13*%
X-124433639Y-15663538D03*
D11*
X-122371498Y-13711084D03*
D12*
X-119660000Y-17401000D03*
D11*
X-115535718Y-13496093D03*
D10*
X-114886361Y-19138462D03*
%TD*%
%TO.C,SW30*%
X80468361Y-35975462D03*
D11*
X80793040Y-33154277D03*
D12*
X85242000Y-34238000D03*
D11*
X85891357Y-28595630D03*
D10*
X90015639Y-32500538D03*
%TD*%
%TO.C,SW21*%
X93563361Y-16257462D03*
D11*
X93888040Y-13436277D03*
D12*
X98337000Y-14520000D03*
D11*
X98986357Y-8877630D03*
D10*
X103110639Y-12782538D03*
%TD*%
%TO.C,SW29*%
X64961361Y-49068462D03*
D11*
X65286040Y-46247277D03*
D12*
X69735000Y-47331000D03*
D11*
X70384357Y-41688630D03*
D10*
X74508639Y-45593538D03*
%TD*%
D13*
%TO.C,H2*%
X40000000Y-5000000D03*
%TD*%
D10*
%TO.C,SW35*%
X-47887373Y-98027840D03*
D11*
X-45214700Y-98987694D03*
D12*
X-47285000Y-103072000D03*
D11*
X-41939654Y-104991707D03*
D10*
X-46682627Y-108116160D03*
%TD*%
%TO.C,SW17*%
X-51289639Y-37496538D03*
D11*
X-49227498Y-35544084D03*
D12*
X-46516000Y-39234000D03*
D11*
X-42391718Y-35329093D03*
D10*
X-41742361Y-40971462D03*
%TD*%
D13*
%TO.C,H10*%
X54000000Y-115000000D03*
%TD*%
D10*
%TO.C,SW36*%
X46681627Y-108116160D03*
D11*
X44310141Y-106553934D03*
D12*
X47284000Y-103072000D03*
D11*
X42541027Y-99947548D03*
D10*
X47886373Y-98027840D03*
%TD*%
%TO.C,SW23*%
X-130948639Y-33564538D03*
D11*
X-128886498Y-31612084D03*
D12*
X-126175000Y-35302000D03*
D11*
X-122050718Y-31397093D03*
D10*
X-121401361Y-37039462D03*
%TD*%
D13*
%TO.C,H9*%
X-54000000Y-115000000D03*
%TD*%
D14*
%TO.C,J1*%
X-3672524Y-2076744D03*
X-2822524Y-2076744D03*
X-1972524Y-2076744D03*
X-1122524Y-2076744D03*
X-272524Y-2076744D03*
X577476Y-2076744D03*
X1427476Y-2076744D03*
X2277476Y-2076744D03*
X2277476Y-726744D03*
X1427476Y-726744D03*
X577476Y-726744D03*
X-272524Y-726744D03*
X-1122524Y-726744D03*
X-1972524Y-726744D03*
X-2822524Y-726744D03*
X-3672524Y-726744D03*
D15*
X-5022523Y2283255D03*
D16*
X-5022523Y-1096743D03*
D15*
X3627475Y2283255D03*
D16*
X3627475Y-1096743D03*
%TD*%
M02*
