M48
; DRILL file {KiCad (7.0.0)} date Sat Mar  4 17:22:28 2023
; FORMAT={-:-/ absolute / inch / decimal}
; #@! TF.CreationDate,2023-03-04T17:22:28-05:00
; #@! TF.GenerationSoftware,Kicad,Pcbnew,(7.0.0)
; #@! TF.FileFunction,Plated,1,2,PTH
FMAT,2
INCH
; #@! TA.AperFunction,Plated,PTH,ViaDrill
T1C0.0157
; #@! TA.AperFunction,Plated,PTH,ComponentDrill
T2C0.0157
; #@! TA.AperFunction,Plated,PTH,ComponentDrill
T3C0.0236
%
G90
G05
T1
X-4.622Y-1.1713
X-4.3543Y-0.4665
X-4.1535Y0.0138
X-3.7864Y-1.0778
X-3.525Y-0.355
X-3.315Y0.128
X-3.0125Y-1.1312
X-2.7428Y-0.4403
X-2.6969Y-2.4035
X-2.5394Y0.0571
X-2.4131Y-1.6755
X-2.1504Y-0.9579
X-1.937Y-0.4665
X-1.9094Y-3.0886
X-1.7396Y-2.0301
X-1.5354Y-4.2343
X-1.4901Y-1.3386
X-1.2756Y-0.8681
X-0.8957Y-0.7717
X-0.8937Y-0.6437
X-0.8937Y-0.9075
X-0.3465Y-0.7461
X-0.3425Y-0.5138
X-0.1929Y-0.8681
X-0.1772Y0.0295
X-0.1102Y-0.5965
X-0.0906Y-0.3878
X-0.063Y-0.3524
X-0.0276Y-0.3917
X-0.0236Y-0.502
X-0.0079Y0.0177
X0.0433Y-0.8681
X0.1378Y-0.4429
X0.1417Y-0.7028
X0.1811Y-0.3287
X0.2087Y-0.9114
X0.2835Y-0.8406
X0.374Y-0.4075
X1.0Y-1.1201
X1.0394Y-0.9941
X1.0433Y-1.0492
X1.7283Y-3.687
X1.8307Y-0.6555
X2.0Y-1.1476
X2.2992Y-2.7776
X2.3386Y-2.0689
X2.4882Y-0.2815
X2.6575Y-0.7421
X2.9252Y-1.4626
X3.0669Y0.2618
X3.2598Y-2.25
X3.2717Y-0.2264
X3.5276Y-0.9547
X3.8583Y0.3209
X4.0472Y-0.1673
X4.2126Y-0.9311
X4.7205Y0.187
X4.8858Y-0.2736
X5.1614Y-0.9941
T2
X-0.1446Y-0.0286
X-0.1446Y-0.0818
X-0.1111Y-0.0286
X-0.1111Y-0.0818
X-0.0777Y-0.0286
X-0.0777Y-0.0818
X-0.0442Y-0.0286
X-0.0442Y-0.0818
X-0.0107Y-0.0286
X-0.0107Y-0.0818
X0.0227Y-0.0286
X0.0227Y-0.0818
X0.0562Y-0.0286
X0.0562Y-0.0818
X0.0897Y-0.0286
X0.0897Y-0.0818
T3
G00X-0.1977Y0.1056
M15
G01X-0.1977Y0.0741
M16
G05
G00X-0.1977Y-0.0137
M15
G01X-0.1977Y-0.0727
M16
G05
G00X0.1428Y0.1056
M15
G01X0.1428Y0.0741
M16
G05
G00X0.1428Y-0.0137
M15
G01X0.1428Y-0.0727
M16
G05
T0
M30
