M48
; DRILL file {KiCad (7.0.0)} date Sat Mar  4 17:22:28 2023
; FORMAT={-:-/ absolute / inch / decimal}
; #@! TF.CreationDate,2023-03-04T17:22:28-05:00
; #@! TF.GenerationSoftware,Kicad,Pcbnew,(7.0.0)
; #@! TF.FileFunction,NonPlated,1,2,NPTH
FMAT,2
INCH
; #@! TA.AperFunction,NonPlated,NPTH,ComponentDrill
T1C0.0670
; #@! TA.AperFunction,NonPlated,NPTH,ComponentDrill
T2C0.1181
; #@! TA.AperFunction,NonPlated,NPTH,ComponentDrill
T3C0.1260
; #@! TA.AperFunction,NonPlated,NPTH,ComponentDrill
T4C0.1570
%
G90
G05
T1
X-5.1555Y-1.3214
X-4.899Y-0.6167
X-4.7796Y-1.4582
X-4.6424Y0.0881
X-4.5231Y-0.7535
X-4.316Y-1.208
X-4.2665Y-0.0487
X-4.0595Y-0.5032
X-3.9402Y-1.3448
X-3.803Y0.2015
X-3.6836Y-0.6401
X-3.5439Y-1.2795
X-3.4271Y0.0647
X-3.2862Y-0.5748
X-3.2027Y-2.5349
X-3.168Y-1.4164
X-3.0309Y0.13
X-2.9334Y-1.795
X-2.9103Y-0.7116
X-2.8269Y-2.6718
X-2.6769Y-1.0903
X-2.655Y-0.0068
X-2.5575Y-1.9318
X-2.4204Y-0.3855
X-2.3567Y-3.0108
X-2.301Y-1.2271
X-2.2758Y-2.181
X-2.1082Y-3.3242
X-2.0445Y-0.5223
X-2.0193Y-1.4762
X-1.8999Y-2.3179
X-1.8853Y-3.8594
X-1.8379Y-4.2565
X-1.7627Y-0.7715
X-1.6434Y-1.613
X-1.3869Y-0.9083
X1.3869Y-0.9083
X1.6434Y-1.613
X1.7627Y-0.7715
X1.8379Y-4.2565
X1.8853Y-3.8594
X1.8999Y-2.3179
X2.0192Y-1.4762
X2.0445Y-0.5223
X2.1081Y-3.3242
X2.2758Y-2.181
X2.301Y-1.2271
X2.3567Y-3.0108
X2.4204Y-0.3855
X2.5575Y-1.9318
X2.655Y-0.0068
X2.6769Y-1.0903
X2.8268Y-2.6718
X2.9115Y-0.7116
X2.9334Y-1.795
X3.0309Y0.13
X3.168Y-1.4164
X3.2027Y-2.5349
X3.2874Y-0.5748
X3.4271Y0.0647
X3.5439Y-1.2795
X3.6836Y-0.6401
X3.803Y0.2015
X3.9401Y-1.3448
X4.0595Y-0.5032
X4.2665Y-0.0487
X4.316Y-1.208
X4.523Y-0.7535
X4.6424Y0.0881
X4.7795Y-1.4582
X4.8989Y-0.6167
X5.1554Y-1.3214
T2
X-5.0743Y-1.2446
X-4.8178Y-0.5398
X-4.8051Y-1.2361
X-4.5612Y0.165
X-4.5487Y-0.5313
X-4.2921Y0.1734
X-4.2349Y-1.1311
X-3.9783Y-0.4264
X-3.9657Y-1.1227
X-3.7218Y0.2784
X-3.7092Y-0.4179
X-3.4627Y-1.2027
X-3.4527Y0.2868
X-3.205Y-0.4979
X-3.1936Y-1.1942
X-3.1216Y-2.4581
X-2.9497Y0.2068
X-2.9359Y-0.4895
X-2.8524Y-2.4496
X-2.8522Y-1.7182
X-2.6806Y0.2153
X-2.5957Y-1.0134
X-2.5831Y-1.7097
X-2.3392Y-0.3086
X-2.3266Y-1.0049
X-2.2473Y-2.9879
X-2.1946Y-2.1042
X-2.0701Y-0.3002
X-2.0136Y-3.1216
X-1.9381Y-1.3994
X-1.9255Y-2.0957
X-1.7801Y-3.8972
X-1.6816Y-0.6946
X-1.669Y-1.3909
X-1.6512Y-4.1335
X-1.4124Y-0.6861
X1.3996Y-0.7972
X1.6004Y-0.6177
X1.6561Y-1.502
X1.6748Y-3.9349
X1.7445Y-4.195
X1.8569Y-1.3225
X1.9127Y-2.2068
X2.0573Y-0.4112
X2.0609Y-3.2229
X2.1134Y-2.0273
X2.1378Y-2.9649
X2.258Y-0.2318
X2.3138Y-1.116
X2.5145Y-0.9365
X2.5703Y-1.8208
X2.6678Y0.1042
X2.771Y-1.6413
X2.8396Y-2.5607
X2.8685Y0.2837
X2.9243Y-0.6005
X3.0403Y-2.3812
X3.125Y-0.421
X3.1808Y-1.3053
X3.3815Y-1.1258
X3.4399Y0.1758
X3.6406Y0.3553
X3.6964Y-0.529
X3.8971Y-0.3495
X3.9529Y-1.2338
X4.1536Y-1.0543
X4.2793Y0.0624
X4.48Y0.2418
X4.5358Y-0.6424
X4.7365Y-0.4629
X4.7923Y-1.3472
X4.993Y-1.1677
T3
X-4.1339Y0.4331
X-3.937Y-1.7717
X-2.126Y-4.5276
X-1.5748Y-0.1969
X-1.5748Y-2.5591
X1.5748Y-0.1969
X1.5748Y-2.5591
X2.126Y-4.5276
X3.937Y-1.7717
X4.1339Y0.4331
T4
X-4.9675Y-1.3898
X-4.711Y-0.6851
X-4.4545Y0.0197
X-4.1281Y-1.2764
X-3.8716Y-0.5717
X-3.6151Y0.1331
X-3.356Y-1.348
X-3.0982Y-0.6432
X-3.0148Y-2.6033
X-2.843Y0.0616
X-2.7455Y-1.8634
X-2.489Y-1.1587
X-2.2324Y-0.4539
X-2.2324Y-3.1675
X-2.0878Y-2.2494
X-1.8616Y-4.058
X-1.8313Y-1.5446
X-1.5748Y-0.8399
X1.5748Y-0.8399
X1.8313Y-1.5446
X1.8616Y-4.058
X2.0878Y-2.2494
X2.2324Y-3.1675
X2.2324Y-0.4539
X2.4889Y-1.1587
X2.7455Y-1.8634
X2.843Y0.0616
X3.0148Y-2.6033
X3.0994Y-0.6432
X3.356Y-1.348
X3.615Y0.1331
X3.8715Y-0.5717
X4.1281Y-1.2764
X4.4544Y0.0197
X4.711Y-0.6851
X4.9675Y-1.3898
T0
M30
